<?xml version="1.0" standalone="no"?>
<!DOCTYPE svg PUBLIC "-//W3C//DTD SVG 1.1//EN" "http://www.w3.org/Graphics/SVG/1.1/DTD/svg11.dtd">
<svg width="38.3500000000001mm" height="122.975mm"
 viewBox="0 0 38.3500000000001 122.975"
 xmlns="http://www.w3.org/2000/svg" version="1.1"
 xmlns:xlink="http://www.w3.org/1999/xlink">
<desc>Output from Flights of Ideas SVG Sketchup Plugin</desc>

  <path id="face0-cut"
 style="fill:none;stroke:rgb(0,0,255);stroke-width:1;stroke-miterlimit:4;stroke-dasharray:none;stroke-linejoin:round;stroke-linecap:round"
        d="M 21.6673380600342,112.975 L 25.175,112.975 L 25.175,109.9 L 28.35,109.9 L 28.3500000000001,13.075 L 25.175,13.075 L 25.175,10.0000000000001 L 21.675,10.0 L 21.675,17.5000000000001 L 23.55,17.5 L 23.55,20.9 L 21.675,20.9 L 21.675,24.4000000000001 L 16.675,24.4000000000001 L 16.675,20.9 L 14.8,20.9 L 14.8,17.5000000000001 L 16.675,17.5000000000001 L 16.675,10.0000000000001 L 13.175,10.0000000000001 L 13.1750000000001,13.075 L 10.0,13.075 L 10.0,109.9 L 13.175,109.9 L 13.175,112.975 L 16.6673380600341,112.975 L 16.6673380600342,105.475 L 14.7923380600342,105.475 L 14.7923380600342,102.075 L 16.6673380600342,102.075 L 16.6673380600342,98.575 L 21.6673380600342,98.575 L 21.6673380600342,102.075 L 23.5423380600342,102.075 L 23.5423380600342,105.475 L 21.6673380600341,105.475 L 21.6673380600342,112.975 "
  />
</svg>
