<?xml version="1.0" standalone="no"?>
<!DOCTYPE svg PUBLIC "-//W3C//DTD SVG 1.1//EN" "http://www.w3.org/Graphics/SVG/1.1/DTD/svg11.dtd">
<svg width="38.3500000000006mm" height="122.875mm"
 viewBox="0 0 38.3500000000006 122.875"
 xmlns="http://www.w3.org/2000/svg" version="1.1"
 xmlns:xlink="http://www.w3.org/1999/xlink">
<desc>Output from Flights of Ideas SVG Sketchup Plugin</desc>

  <path id="face0-cut"
 style="fill:none;stroke:rgb(0,0,255);stroke-width:1;stroke-miterlimit:4;stroke-dasharray:none;stroke-linejoin:round;stroke-linecap:round"
        d="M 14.8000000000005,102.025 L 16.6750000000002,102.025 L 16.6750000000001,99.5250000000001 L 21.6750000000003,99.525 L 21.6750000000002,102.025 L 23.5500000000003,102.025 L 23.5500000000002,105.425 L 21.6750000000003,105.425 L 21.6750000000004,112.875 L 25.1749999999999,112.875 L 25.1750000000001,109.85 L 28.35,109.85 L 28.3500000000006,13.0250000000003 L 25.1750000000007,13.025 L 25.1750000000007,10.0000000000003 L 21.6673380600349,10.0000000000003 L 21.6673380600348,17.4500000000005 L 23.5423380600349,17.4500000000004 L 23.5423380600349,20.8500000000002 L 21.6673380600351,20.8500000000007 L 21.6673380600346,23.3500000000001 L 16.6673380600348,23.3500000000002 L 16.667338060035,20.8500000000006 L 14.7923380600347,20.8500000000003 L 14.7923380600349,17.4500000000003 L 16.6673380600347,17.45 L 16.6673380600349,10.0000000000006 L 13.1750000000008,10.0 L 13.1750000000009,13.0250000000002 L 10.0000000000008,13.0250000000006 L 10.0,109.85 L 13.1750000000004,109.85 L 13.1750000000004,112.875 L 16.6750000000002,112.875 L 16.6750000000002,105.425 L 14.8000000000006,105.425 L 14.8000000000005,102.025 "
  />
</svg>
