<?xml version="1.0" standalone="no"?>
<!DOCTYPE svg PUBLIC "-//W3C//DTD SVG 1.1//EN" "http://www.w3.org/Graphics/SVG/1.1/DTD/svg11.dtd">
<svg width="38.35mm" height="123.175mm"
 viewBox="0 0 38.35 123.175"
 xmlns="http://www.w3.org/2000/svg" version="1.1"
 xmlns:xlink="http://www.w3.org/1999/xlink">
<desc>Output from Flights of Ideas SVG Sketchup Plugin</desc>

<g id="text_annotations" font-size="10" stroke="rgb(255,0,0)" stroke-width="1">
</g>
  <g id="face0" fill="none" stroke="rgb(0,0,255)" stroke-width="1" stroke-miterlimit="4" stroke-dasharray="none" stroke-linejoin="round" stroke-linecap="round">
    <line x1="21.6673380600342" y1="113.175" x2="25.175" y2="113.175"/>
    <line x1="25.175" y1="113.175" x2="25.175" y2="110.0"/>
    <line x1="25.175" y1="110.0" x2="28.35" y2="110.0"/>
    <line x1="28.35" y1="110.0" x2="28.35" y2="13.175"/>
    <line x1="28.35" y1="13.175" x2="25.175" y2="13.175"/>
    <line x1="25.175" y1="13.175" x2="25.175" y2="10.0000000000001"/>
    <line x1="25.175" y1="10.0000000000001" x2="21.675" y2="10.0"/>
    <line x1="21.675" y1="10.0" x2="21.675" y2="17.6000000000001"/>
    <line x1="21.675" y1="17.6000000000001" x2="23.55" y2="17.6"/>
    <line x1="23.55" y1="17.6" x2="23.55" y2="21.0"/>
    <line x1="23.55" y1="21.0" x2="21.675" y2="21.0"/>
    <line x1="21.675" y1="21.0" x2="21.675" y2="22.5000000000001"/>
    <line x1="21.675" y1="22.5000000000001" x2="16.675" y2="22.5000000000001"/>
    <line x1="16.675" y1="22.5000000000001" x2="16.675" y2="21.0"/>
    <line x1="16.675" y1="21.0" x2="14.8" y2="21.0"/>
    <line x1="14.8" y1="21.0" x2="14.8" y2="17.6000000000001"/>
    <line x1="14.8" y1="17.6000000000001" x2="16.675" y2="17.6000000000001"/>
    <line x1="16.675" y1="17.6000000000001" x2="16.675" y2="10.0000000000001"/>
    <line x1="16.675" y1="10.0000000000001" x2="13.175" y2="10.0000000000001"/>
    <line x1="13.175" y1="10.0000000000001" x2="13.175" y2="13.175"/>
    <line x1="13.175" y1="13.175" x2="10.0000000000001" y2="13.175"/>
    <line x1="10.0000000000001" y1="13.175" x2="10.0" y2="110.0"/>
    <line x1="10.0" y1="110.0" x2="13.175" y2="110.0"/>
    <line x1="13.175" y1="110.0" x2="13.175" y2="113.175"/>
    <line x1="13.175" y1="113.175" x2="16.6673380600341" y2="113.175"/>
    <line x1="16.6673380600341" y1="113.175" x2="16.6673380600342" y2="105.575"/>
    <line x1="16.6673380600342" y1="105.575" x2="14.7923380600342" y2="105.575"/>
    <line x1="14.7923380600342" y1="105.575" x2="14.7923380600342" y2="102.175"/>
    <line x1="14.7923380600342" y1="102.175" x2="16.6673380600342" y2="102.175"/>
    <line x1="16.6673380600342" y1="102.175" x2="16.6673380600342" y2="100.675"/>
    <line x1="16.6673380600342" y1="100.675" x2="21.6673380600342" y2="100.675"/>
    <line x1="21.6673380600342" y1="100.675" x2="21.6673380600342" y2="102.175"/>
    <line x1="21.6673380600342" y1="102.175" x2="23.5423380600342" y2="102.175"/>
    <line x1="23.5423380600342" y1="102.175" x2="23.5423380600342" y2="105.575"/>
    <line x1="23.5423380600342" y1="105.575" x2="21.6673380600342" y2="105.575"/>
    <line x1="21.6673380600342" y1="105.575" x2="21.6673380600342" y2="113.175"/>
  </g>
</svg>
