<?xml version="1.0" standalone="no"?>
<!DOCTYPE svg PUBLIC "-//W3C//DTD SVG 1.1//EN" "http://www.w3.org/Graphics/SVG/1.1/DTD/svg11.dtd">
<svg width="74.2147525761508mm" height="74.7995892632146mm"
 viewBox="0 0 74.2147525761508 74.7995892632146"
 xmlns="http://www.w3.org/2000/svg" version="1.1"
 xmlns:xlink="http://www.w3.org/1999/xlink">
<desc>Output from Flights of Ideas SVG Sketchup Plugin</desc>

  <path id="face0-cut"
 style="fill:none;stroke:rgb(0,0,255);stroke-width:.5;stroke-miterlimit:4;stroke-dasharray:none;stroke-linejoin:round;stroke-linecap:round"
        d="M 49.2147525761506,41.1980949872671 L 53.0695700515316,35.8332170128634 L 48.5218065257027,32.5655195187344 L 47.4277113825788,34.0882081992571 L 44.6665692418971,32.1042490063933 L 45.7606643850204,30.5815603258702 L 43.7304128109896,29.1227668017053 L 46.6479998593191,25.0622636536433 L 48.6782514333501,26.5210571778085 L 49.7723465764739,24.9983684972853 L 52.5334887171556,26.9823276901492 L 51.4393935740321,28.5050163706726 L 55.9871570998614,31.7727138648014 L 64.2147525761508,20.3220949872669 L 62.0959176048069,20.5041975907947 L 59.9704790291076,20.5758485149437 L 57.8441906183518,20.5368537936823 L 55.7228084424235,20.3873189895195 L 53.6120752895525,20.1276489077396 L 51.5177051200248,19.7585465005514 L 49.445367597935,19.2810109641327 L 47.400672742858,18.696335033705 L 45.3891557429726,18.0061014839744 L 43.416261970773,17.2121788444072 L 41.4873322419125,16.3167163409385 L 39.607588357096,15.3221380778063 L 37.7417296865087,14.2925909086837 L 35.8218858859515,13.367606728539 L 33.8539110227798,12.5500060375052 L 31.8438059275816,11.8422818975242 L 29.7976998961948,11.2465923304015 L 27.7218320000079,10.7647537374757 L 25.6225320615188,10.3982353609712 L 23.5062013531834,10.1481548039259 L 21.3792930783871,10.0152746223485 L 19.2482926940684,10.0 L 17.1196981349969,10.102377512893 L 15.0000000000003,10.3220949872674 L 13.7059047744873,10.4924658558219 L 12.5000000000002,10.9919679683451 L 11.4644660940674,11.7865610813348 L 10.6698729810778,12.8220949872673 L 10.1703708685549,14.0279997617548 L 10.0,15.3220949872672 L 10.023129463677,15.8317620876728 L 10.0919798073874,16.3372867215895 L 10.2059935641722,16.8345757608715 L 10.3642475882831,17.319602759273 L 10.565460529698,17.788440553753 L 10.80800320895,18.2372930618974 L 11.0899118082528,18.6625260180109 L 11.4089037721281,19.0606963990146 L 11.7623962887834,19.42858030189 L 12.1475272026035,19.7631990469502 L 12.5611781884312,20.061843295596 L 13.0,20.3220949872675 L 15.8093742687599,22.3332907543506 L 18.2315104374502,24.7971796673962 L 20.1944018902034,27.6405138616497 L 21.6396946943834,30.7787651112618 L 22.5244223788585,34.1186377315613 L 22.8222832652414,37.5608421252412 L 22.5244223788585,41.0030465189204 L 21.6396946943833,44.3429191392205 L 20.1944018902033,47.4811703888322 L 18.2315104374501,50.3245045830859 L 15.8093742687599,52.7883934961313 L 13.0,54.7995892632148 L 11.4644660940674,56.2640553572821 L 10.6698729810779,57.299589263215 L 10.1703708685549,58.5054940377023 L 10.0000000000001,59.7995892632148 L 10.1703708685548,61.0936844887273 L 10.6698729810778,62.2995892632148 L 11.4644660940673,63.3351231691475 L 12.5000000000002,64.1297162821369 L 13.7059047744873,64.6292183946602 L 15.0000000000002,64.7995892632146 L 16.2940952255124,64.62921839466 L 18.0040379872828,64.1011140638203 L 19.6692746766321,63.4455340143777 L 21.2803172187835,62.6662135667052 L 22.827986322765,61.7675930809809 L 24.3034637825627,60.7547926571997 L 25.6983427209081,59.6335829622084 L 27.004675489424,58.4103523499835 L 28.2150189522063,57.0920704624942 L 29.3224768948285,55.6862485185392 L 30.3207393171331,54.2008965168249 L 31.2041183859308,52.6444775971274 L 31.9675808427576,51.0258598195782 L 32.75138917718,49.432397506206 L 33.7028608905879,47.9330045530972 L 34.8108443437275,46.5452544614681 L 36.0623535154753,45.2854122323463 L 37.4427202043394,44.1682437340785 L 38.935765945805,43.2068426402894 L 40.5239916305832,42.4124769666488 L 42.1887826013587,41.7944570051006 L 43.9106268242186,41.3600262034169 L 45.6693435777037,41.1142762690158 L 47.4443199791523,41.0600874920587 L 49.2147525761506,41.1980949872671 M 30.3640061169332,32.5655897662308 L 33.076635646352,28.7903328291544 L 35.6550551453712,30.6430006048441 L 32.9424256159527,34.4182575419205 L 32.9543637469304,34.7977807242549 L 32.8291951578295,35.331510090538 L 32.5701522600523,35.8146570549716 L 32.1948883989935,36.2142959503683 L 31.7289771866315,36.5031920464408 L 31.365475758799,36.6129512231154 L 28.6528462293805,40.3882081601922 L 26.0744267303614,38.5355403845032 L 28.7870562597798,34.7602834474265 L 28.7751181288027,34.3807602650922 L 28.9002867179031,33.8470308988087 L 29.1593296156801,33.363883934375 L 29.5345934767384,32.9642450389781 L 30.0005046891009,32.6753489429059 L 30.3640061169332,32.5655897662308 "
  />
</svg>
