<?xml version="1.0" standalone="no"?>
<!DOCTYPE svg PUBLIC "-//W3C//DTD SVG 1.1//EN" "http://www.w3.org/Graphics/SVG/1.1/DTD/svg11.dtd">
<svg width="74.214752576151mm" height="74.7995892632153mm"
 viewBox="0 0 74.214752576151 74.7995892632153"
 xmlns="http://www.w3.org/2000/svg" version="1.1"
 xmlns:xlink="http://www.w3.org/1999/xlink">
<desc>Output from Flights of Ideas SVG Sketchup Plugin</desc>

  <path id="face0-cut"
 style="fill:none;stroke:rgb(0,0,255);stroke-width:.5;stroke-miterlimit:4;stroke-dasharray:none;stroke-linejoin:round;stroke-linecap:round"
        d="M 34.8888188080444,19.8388955134995 L 34.518757525506,20.5291054626911 L 34.3399452553618,21.2915759859521 L 34.3645677583218,22.0743459771665 L 34.5909470514998,22.8240709550198 L 35.0036557601744,23.4896584012506 L 35.5745684678838,24.0257496313343 L 40.4471722455578,27.5268540893299 L 41.0180849532673,28.0629453194137 L 41.4307936619422,28.7285327656447 L 41.6571729551201,29.4782577434984 L 41.6817954580801,30.2610277347118 L 41.5029831879358,31.0234982579732 L 41.1329219053975,31.7137082071648 L 35.0059891039052,40.2407648180945 L 34.4698978738215,40.8116775258041 L 33.80431042759,41.224386234479 L 33.0545854497368,41.4507655276564 L 32.2718154585232,41.4753880306167 L 31.5093449352615,41.2965757604724 L 30.81913498607,40.926514477934 L 23.5102293195593,35.6748577909407 L 21.1451825246186,38.9663722503516 L 25.692946050448,42.2340697444806 L 26.7870411935719,40.7113810639579 L 29.5481833342537,42.6953402568214 L 28.4540881911304,44.2180289373447 L 30.4843397651609,45.6768224615096 L 27.5667527168315,49.7373256095718 L 25.5365011428004,48.278532085407 L 24.442405999677,49.8012207659298 L 21.6812638589949,47.8172615730659 L 22.7753590021185,46.2945728925429 L 18.2275954762894,43.0268753984135 L 10.0,54.477494275948 L 12.1188349713439,54.2953916724204 L 14.244273547043,54.2237407482715 L 16.3705619577988,54.2627354695325 L 18.491944133727,54.4122702736958 L 20.6026772865982,54.6719403554761 L 22.6970474561263,55.0410427626637 L 24.7693849782154,55.5185782990824 L 26.8140798332928,56.1032542295099 L 28.8255968331781,56.7934877792409 L 30.7984906053776,57.5874104188074 L 32.7274203342383,58.4828729222767 L 34.6071642190547,59.4774511854091 L 36.4730228896421,60.5069983545317 L 38.392866690199,61.4319825346764 L 40.3608415533706,62.2495832257103 L 42.370946648569,62.9573073656908 L 44.4170526799559,63.5529969328137 L 46.492920576143,64.0348355257391 L 48.5922205146318,64.4013539022441 L 50.7085512229674,64.6514344592894 L 52.8354594977635,64.7843146408664 L 54.9664598820825,64.7995892632153 L 57.0950544411539,64.6972117503229 L 59.2147525761508,64.4774942759482 L 60.5088478016635,64.3071234073937 L 61.7147525761506,63.8076212948698 L 62.7502864820834,63.0130281818804 L 63.5448795950727,61.9774942759476 L 64.0443817075961,60.7715895014604 L 64.214752576151,59.4774942759479 L 64.1916231124735,58.9678271755426 L 64.1227727687635,58.4623025416257 L 64.0087590119784,57.965013502344 L 63.8505049878677,57.479986503942 L 63.6492920464525,57.0111487094619 L 63.4067493672008,56.5622962013177 L 63.1248407678978,56.1370632452044 L 62.8058488040227,55.7388928642004 L 62.4523562873673,55.3710089613254 L 62.0672253735472,55.0363902162649 L 61.6535743877192,54.7377459676189 L 61.214752576151,54.4774942759483 L 58.4053783073909,52.4662985088642 L 55.9832421387007,50.0024095958186 L 54.0203506859473,47.1590754015655 L 52.5750578817677,44.0208241519535 L 51.6903301972921,40.6809515316536 L 51.3924693109091,37.2387471379742 L 51.6903301972924,33.7965427442943 L 52.5750578817676,30.4566701239948 L 54.0203506859472,27.3184188743826 L 55.9832421387009,24.475084680129 L 58.405378307391,22.0111957670835 L 61.2147525761508,20.0000000000004 L 62.7502864820834,18.5355339059331 L 63.5448795950727,17.5000000000003 L 64.0443817075959,16.2940952255131 L 64.2147525761506,15.0000000000001 L 64.044381707596,13.7059047744877 L 63.5448795950729,12.5000000000008 L 62.7502864820836,11.4644660940677 L 61.7147525761508,10.6698729810786 L 60.5088478016635,10.1703708685552 L 59.2147525761505,10.0 L 57.9206573506381,10.1703708685552 L 57.0960557123351,10.4127556555044 L 56.2840845972135,10.6945732472985 L 55.4866284925851,11.015169579198 L 54.7055381981679,11.3738005856708 L 53.9426265306026,11.7696339272795 L 53.1996641161229,12.2017509224404 L 52.4783752811453,12.6691486795736 L 51.7804340503147,13.1707424246932 L 51.1074602612945,13.7053680190377 L 50.4610158053183,14.271784660896 L 49.8426010022278,14.8686777653586 L 49.2536511184115,15.4946620153116 L 48.4968527888651,16.2662332106208 L 47.6739129182182,16.966829949362 L 46.7914626168445,17.5908069414382 L 45.8566125201092,18.1331362857201 L 44.8768954920715,18.589447984023 L 43.8602059269387,18.9560651538136 L 42.8147361373727,19.2300336559081 L 41.7489103422189,19.4091458984265 L 40.671316785575,19.4919586251943 L 39.5906385341717,19.4778045452573 L 38.5155835106884,19.3667977097991 L 37.4548143267846,19.1598325931362 L 37.2316949880801,19.0725459334126 L 37.0000433813842,19.0114007505702 L 36.7629111759937,18.9772025424845 L 36.5234222400345,18.9704018202621 L 36.2847314880923,18.9910881734183 L 36.0499833198522,19.0389890896677 L 35.822270197256,19.1134735448723 L 35.6045919058638,19.2135603158571 L 35.3998160370894,19.3379309065823 L 35.2106402119009,19.4849469173902 L 35.0395565436301,19.6526716285112 L 34.8888188080444,19.8388955134995 M 41.1381169297991,46.0092564340604 L 38.5596974307793,44.1565886583712 L 41.2723269601979,40.3813317212947 L 41.2603888292208,40.0018085389602 L 41.3855574183211,39.4680791726771 L 41.6446003160985,38.9849322082432 L 42.0198641771572,38.5852933128468 L 42.4857753895191,38.2963972167742 L 42.8492768173516,38.1866380400996 L 45.5619063467703,34.4113811030229 L 48.1403258457895,36.2640488787119 L 45.4276963163705,40.0393058157887 L 45.4396344473483,40.4188289981234 L 45.3144658582473,40.9525583644061 L 45.0554229604703,41.4357053288401 L 44.6801590994114,41.8353442242367 L 44.2142478870501,42.124240320309 L 43.8507464592177,42.2339994969837 L 41.1381169297991,46.0092564340604 "
  />
</svg>
