<?xml version="1.0" standalone="no"?>
<!DOCTYPE svg PUBLIC "-//W3C//DTD SVG 1.1//EN" "http://www.w3.org/Graphics/SVG/1.1/DTD/svg11.dtd">
<svg width="74.2147525761507mm" height="66.7995892632151mm"
 viewBox="0 0 74.2147525761507 66.7995892632151"
 xmlns="http://www.w3.org/2000/svg" version="1.1"
 xmlns:xlink="http://www.w3.org/1999/xlink">
<desc>Output from Flights of Ideas SVG Sketchup Plugin</desc>

<g id="text_annotations" font-size="10" stroke="rgb(255,0,0)" stroke-width="1">
</g>
  <path id="face0-cut"
 style="fill:none;stroke:rgb(0,0,255);stroke-width:1;stroke-miterlimit:4;stroke-dasharray:none;stroke-linejoin:round;stroke-linecap:round"
        d="M 64.2147525761507,46.4774942759476 L 55.9871570998614,35.0268753984133 L 51.4393935740322,38.2945728925423 L 52.5334887171558,39.8172615730655 L 49.7723465764737,41.8012207659296 L 48.6782514333502,40.2785320854064 L 47.4601004889316,41.1538081999053 L 44.5425134406021,37.0933050518435 L 45.7606643850206,36.2180289373446 L 44.6665692418971,34.6953402568215 L 47.4277113825791,32.7113810639574 L 48.5218065257027,34.2340697444806 L 53.0695700515319,30.9663722503515 L 49.2147525761507,25.6014942759476 L 47.6006223218216,25.5439232010016 L 45.9946951666766,25.3715025555491 L 44.4051325212958,25.0851085908419 L 42.8400126309163,24.686196776841 L 41.3072895213434,24.1767944054375 L 39.8147525761507,23.5594902876434 L 38.3699869506034,22.8374215971107 L 36.9803350234791,22.0142579268417 L 35.6528590826936,21.0941826401145 L 34.3943054343626,20.0818716103991 L 33.2110701177016,18.9824694583106 L 32.1091664000007,17.8015634063625 L 31.0070320522629,16.6204101890751 L 29.823549082744,15.520777930531 L 28.5647320173197,14.5082550226575 L 27.2369782339057,13.5879871628461 L 25.8470354506294,12.764651203234 L 24.4019674335536,12.0424313826833 L 22.9091180982262,11.4249980622472 L 21.3760741874964,10.9154890721929 L 19.8106267152672,10.5164937653741 L 18.2207313721328,10.2300398579972 L 16.6144680941186,10.057583124655 L 15.0,10.0 L 13.7059047744874,10.1703708685547 L 12.5,10.6698729810778 L 11.4644660940673,11.4644660940673 L 10.6698729810778,12.5 L 10.1703708685547,13.7059047744874 L 10.0,15.0 L 10.0229701361311,15.5097063687378 L 10.091694323176,16.0152804934721 L 10.2056154068057,16.5126236307429 L 10.3638098166206,16.9977037665856 L 10.564995053634,17.4665883044983 L 10.8075400876289,17.9154759474227 L 11.089478580094,18.3407275152649 L 11.4085248255401,18.7388954481181 L 11.7620922819589,19.1067517559983 L 12.1473145401957,19.441314188505 L 12.5610685622342,19.739870412243 L 13.0,20.0 L 15.1568012654771,21.5449703983717 L 17.0162511162057,23.4373687399569 L 18.5231043690824,25.6209709255445 L 19.6325916619048,28.0309010443808 L 20.3117495734659,30.5955588698563 L 20.5403999832504,33.2387471379738 L 20.3117495734659,35.8819354060913 L 19.6325916619048,38.4465932315667 L 18.5231043690824,40.856523350403 L 17.0162511162057,43.0401255359907 L 15.1568012654772,44.9325238775758 L 13.0,46.4774942759476 L 12.5611781884314,46.7377459676177 L 12.1475272026036,47.036390216265 L 11.7623962887834,47.3710089613251 L 11.408903772128,47.7388928642001 L 11.0899118082527,48.1370632452039 L 10.80800320895,48.5622962013177 L 10.5654605296982,49.0111487094616 L 10.3642475882831,49.4799865039417 L 10.2059935641724,49.9650135023435 L 10.0919798073873,50.462302541625 L 10.0231294636773,50.967827175542 L 10.0,51.4774942759476 L 10.1703708685547,52.7715895014602 L 10.6698729810778,53.9774942759475 L 11.4644660940673,55.0130281818803 L 12.5,55.8076212948698 L 13.7059047744874,56.3071234073929 L 15.0,56.4774942759476 L 17.1196981349968,56.6972117503224 L 19.2482926940682,56.7995892632151 L 21.379293078387,56.7843146408665 L 23.5062013531836,56.6514344592887 L 25.6225320615188,56.4013539022435 L 27.7218320000076,56.0348355257392 L 29.797699896195,55.5529969328132 L 31.8438059275814,54.9573073656907 L 33.8539110227799,54.2495832257098 L 35.8218858859516,53.431982534676 L 37.7417296865086,52.5069983545316 L 39.6075883570959,51.4774511854088 L 41.4873322419125,50.4828729222763 L 43.4162619707731,49.5874104188073 L 45.3891557429728,48.7934877792404 L 47.4006727428581,48.1032542295099 L 49.4453675979354,47.518578299082 L 51.5177051200245,47.0410427626634 L 53.6120752895526,46.6719403554755 L 55.7228084424238,46.4122702736954 L 57.8441906183518,46.2627354695326 L 59.9704790291077,46.223740748271 L 62.0959176048068,46.2953916724201 L 64.2147525761507,46.4774942759476 M 27.6493378375153,31.6474612101552 L 30.2277573365346,29.7947934344659 L 37.2299662525254,39.5400009898143 L 34.6515467535062,41.3926687655035 L 27.6493378375153,31.6474612101552 "
  />
</svg>
