<?xml version="1.0" standalone="no"?>
<!DOCTYPE svg PUBLIC "-//W3C//DTD SVG 1.1//EN" "http://www.w3.org/Graphics/SVG/1.1/DTD/svg11.dtd">
<svg width="81.2103043644528mm" height="66.7995892632151mm"
 viewBox="0 0 81.2103043644528 66.7995892632151"
 xmlns="http://www.w3.org/2000/svg" version="1.1"
 xmlns:xlink="http://www.w3.org/1999/xlink">
<desc>Output from Flights of Ideas SVG Sketchup Plugin</desc>

  <path id="face0-cut"
 style="fill:none;stroke:rgb(0,0,255);stroke-width:1;stroke-miterlimit:4;stroke-dasharray:none;stroke-linejoin:round;stroke-linecap:round"
        d="M 60.065121839833,31.2158821242992 L 57.7310522011696,27.9674796058496 L 56.5874610593042,27.9347208936322 L 55.4449272463369,27.8756419700992 L 54.304056452132,27.7902741546782 L 53.16545348494,27.6786627032906 L 52.0297219507711,27.5408667843605 L 50.8974639334071,27.3769594474468 L 49.7692796752187,27.1870275845186 L 48.6457672589607,26.9711718838908 L 47.5275222907107,26.7295067768462 L 46.4151375841213,26.4621603769725 L 45.3092028461528,26.1692744122458 L 44.2103043644527,25.8510041498956 L 43.0550140147956,25.4414362226176 L 41.919215400364,24.980564020678 L 40.8051855409356,24.4693114887847 L 39.7151578148494,23.908703572832 L 38.6513174815865,23.2998641651155 L 37.615797300818,22.6440138511822 L 36.6106732567032,21.9424674628315 L 35.6379603960108,21.1966314421748 L 34.6996087884043,20.4080010220364 L 33.797499616993,19.5781572283492 L 32.9334414069847,18.708763710555 L 32.1091664000007,17.8015634063625 L 31.0070320522628,16.620410189075 L 29.823549082744,15.520777930531 L 28.5647320173197,14.5082550226575 L 27.2369782339057,13.5879871628461 L 25.8470354506294,12.764651203234 L 24.4019674335535,12.0424313826833 L 22.9091180982262,11.4249980622472 L 21.3760741874964,10.9154890721929 L 19.8106267152672,10.5164937653741 L 18.2207313721328,10.2300398579972 L 16.6144680941186,10.057583124655 L 15.0,10.0 L 13.7059047744874,10.1703708685547 L 12.5,10.6698729810778 L 11.4644660940673,11.4644660940673 L 10.6698729810778,12.5 L 10.1703708685547,13.7059047744874 L 10.0,15.0 L 10.0229701361311,15.5097063687378 L 10.091694323176,16.0152804934721 L 10.2056154068057,16.512623630743 L 10.3638098166206,16.9977037665856 L 10.564995053634,17.4665883044983 L 10.8075400876289,17.9154759474227 L 11.089478580094,18.340727515265 L 11.4085248255401,18.7388954481181 L 11.7620922819589,19.1067517559983 L 12.1473145401957,19.441314188505 L 12.5610685622342,19.739870412243 L 13.0,20.0 L 15.1568012654771,21.5449703983717 L 17.0162511162057,23.4373687399569 L 18.5231043690824,25.6209709255445 L 19.6325916619048,28.0309010443809 L 20.3117495734659,30.5955588698563 L 20.5403999832504,33.2387471379737 L 20.3117495734659,35.8819354060913 L 19.6325916619048,38.4465932315667 L 18.5231043690824,40.8565233504031 L 17.0162511162057,43.0401255359907 L 15.1568012654771,44.9325238775759 L 13.0,46.4774942759476 L 12.5611781884314,46.7377459676184 L 12.1475272026036,47.0363902162647 L 11.7623962887834,47.3710089613252 L 11.408903772128,47.7388928642002 L 11.0899118082527,48.1370632452041 L 10.80800320895,48.5622962013176 L 10.5654605296982,49.0111487094617 L 10.3642475882831,49.4799865039417 L 10.2059935641724,49.9650135023435 L 10.0919798073873,50.4623025416251 L 10.0231294636773,50.967827175542 L 10.0,51.4774942759476 L 10.1703708685547,52.7715895014602 L 10.6698729810778,53.9774942759476 L 11.4644660940673,55.0130281818803 L 12.5,55.8076212948698 L 13.7059047744874,56.3071234073929 L 15.0,56.4774942759476 L 17.1196981349968,56.6972117503224 L 19.2482926940682,56.7995892632151 L 21.379293078387,56.7843146408665 L 23.5062013531836,56.6514344592887 L 25.6225320615188,56.4013539022435 L 27.7218320000076,56.0348355257392 L 29.797699896195,55.5529969328132 L 31.8438059275814,54.9573073656907 L 33.8539110227799,54.2495832257098 L 35.8218858859516,53.4319825346759 L 37.7417296865086,52.5069983545316 L 39.6075883570958,51.4774511854088 L 42.0616743056905,50.3358863176791 L 44.5718137899336,49.3235089374645 L 47.1312116176864,48.4430596489657 L 49.732939249677,47.6969219141857 L 52.3699535557278,47.0871156006661 L 55.0351158811975,46.6152915135085 L 57.7212113720139,46.282726926486 L 60.4209685059863,46.0903221243353 L 63.1270787775253,46.0385979656016 L 65.8322164824788,46.1276944726217 L 68.5290585495277,46.357370452471 L 71.2103043644528,46.7270041498952 L 62.9827088881625,35.276385272361 L 58.4349453623333,38.5440827664901 L 59.5290405054568,40.0667714470132 L 56.7678983647748,42.0507306398773 L 55.6738032216512,40.5280419593541 L 52.831451018008,42.5703528931848 L 49.9138639696785,38.509849745123 L 52.7562161733217,36.4675388112923 L 51.6621210301982,34.9448501307692 L 54.4232631708802,32.9608909379051 L 55.5173583140037,34.4835796184283 L 60.065121839833,31.2158821242992 M 30.2669341881275,35.2904573045138 L 27.6493378375153,31.6474612101551 L 30.2277573365346,29.7947934344658 L 32.8453536871468,33.4377895288246 L 33.3450424008699,33.5886704267046 L 33.8331398614394,33.8913234797329 L 34.2262734301676,34.3099927987197 L 34.4976517040293,34.8161467614599 L 34.6287807021349,35.3752918118517 L 34.6123699019133,35.8970048954556 L 37.2299662525255,39.5400009898143 L 34.6515467535062,41.3926687655035 L 32.033950402894,37.7496726711449 L 31.5342616891709,37.5987917732649 L 31.0461642286013,37.2961387202366 L 30.6530306598732,36.8774694012497 L 30.3816523860114,36.3713154385095 L 30.2505233879059,35.8121703881177 L 30.2669341881275,35.2904573045138 "
  />
</svg>
