%FSLAX46Y46*%
G04 Gerber Fmt 4.6, Leading zero omitted, Abs format (unit mm)*
G04 Created by KiCad (PCBNEW (2014-10-27 BZR 5228)-product) date 7/21/2015 8:23:38 PM*
%MOMM*%
G01*
G04 APERTURE LIST*
%ADD10C,0.100000*%
%ADD11R,1.800860X2.499360*%
%ADD12R,0.800000X0.750000*%
%ADD13R,0.750000X0.800000*%
%ADD14R,0.500000X0.900000*%
%ADD15R,1.000000X0.700000*%
%ADD16R,0.750000X0.700000*%
%ADD17R,2.100000X1.400000*%
%ADD18R,0.600000X1.500000*%
%ADD19R,1.550000X0.600000*%
%ADD20R,0.800100X0.800100*%
%ADD21R,0.900000X0.500000*%
%ADD22R,1.500000X0.450000*%
G04 APERTURE END LIST*
D10*
D11*
X102108000Y-34069020D03*
X102108000Y-38066980D03*
D12*
X10351200Y-45110400D03*
X8851200Y-45110400D03*
X17334800Y-45110400D03*
X18834800Y-45110400D03*
D13*
X105283000Y-40628000D03*
X105283000Y-39128000D03*
D14*
X109462000Y-43942000D03*
X107962000Y-43942000D03*
X109462000Y-47498000D03*
X107962000Y-47498000D03*
D15*
X112522000Y-45804000D03*
D16*
X113147000Y-43604000D03*
X111897000Y-43604000D03*
D17*
X63522000Y-34072000D03*
X63522000Y-38572000D03*
X72522000Y-34072000D03*
X72522000Y-38572000D03*
X76857000Y-34072000D03*
X76857000Y-38572000D03*
X85857000Y-34072000D03*
X85857000Y-38572000D03*
X85957000Y-46192000D03*
X85957000Y-41692000D03*
X76957000Y-46192000D03*
X76957000Y-41692000D03*
X72622000Y-46192000D03*
X72622000Y-41692000D03*
X63622000Y-46192000D03*
X63622000Y-41692000D03*
D18*
X8051800Y-28735000D03*
X9321800Y-28735000D03*
X10591800Y-28735000D03*
X11861800Y-28735000D03*
X13131800Y-28735000D03*
X14401800Y-28735000D03*
X15671800Y-28735000D03*
X16941800Y-28735000D03*
X16941800Y-23335000D03*
X15671800Y-23335000D03*
X14401800Y-23335000D03*
X13131800Y-23335000D03*
X11861800Y-23335000D03*
X10591800Y-23335000D03*
X9321800Y-23335000D03*
X8051800Y-23335000D03*
X33053020Y-28735000D03*
X34323020Y-28735000D03*
X35593020Y-28735000D03*
X36863020Y-28735000D03*
X38133020Y-28735000D03*
X39403020Y-28735000D03*
X40673020Y-28735000D03*
X41943020Y-28735000D03*
X41943020Y-23335000D03*
X40673020Y-23335000D03*
X39403020Y-23335000D03*
X38133020Y-23335000D03*
X36863020Y-23335000D03*
X35593020Y-23335000D03*
X34323020Y-23335000D03*
X33053020Y-23335000D03*
X58039000Y-28735000D03*
X59309000Y-28735000D03*
X60579000Y-28735000D03*
X61849000Y-28735000D03*
X63119000Y-28735000D03*
X64389000Y-28735000D03*
X65659000Y-28735000D03*
X66929000Y-28735000D03*
X66929000Y-23335000D03*
X65659000Y-23335000D03*
X64389000Y-23335000D03*
X63119000Y-23335000D03*
X61849000Y-23335000D03*
X60579000Y-23335000D03*
X59309000Y-23335000D03*
X58039000Y-23335000D03*
X83058000Y-28735000D03*
X84328000Y-28735000D03*
X85598000Y-28735000D03*
X86868000Y-28735000D03*
X88138000Y-28735000D03*
X89408000Y-28735000D03*
X90678000Y-28735000D03*
X91948000Y-28735000D03*
X91948000Y-23335000D03*
X90678000Y-23335000D03*
X89408000Y-23335000D03*
X88138000Y-23335000D03*
X86868000Y-23335000D03*
X85598000Y-23335000D03*
X84328000Y-23335000D03*
X83058000Y-23335000D03*
X108051600Y-28735000D03*
X109321600Y-28735000D03*
X110591600Y-28735000D03*
X111861600Y-28735000D03*
X113131600Y-28735000D03*
X114401600Y-28735000D03*
X115671600Y-28735000D03*
X116941600Y-28735000D03*
X116941600Y-23335000D03*
X115671600Y-23335000D03*
X114401600Y-23335000D03*
X113131600Y-23335000D03*
X111861600Y-23335000D03*
X110591600Y-23335000D03*
X109321600Y-23335000D03*
X108051600Y-23335000D03*
X133045200Y-28735000D03*
X134315200Y-28735000D03*
X135585200Y-28735000D03*
X136855200Y-28735000D03*
X138125200Y-28735000D03*
X139395200Y-28735000D03*
X140665200Y-28735000D03*
X141935200Y-28735000D03*
X141935200Y-23335000D03*
X140665200Y-23335000D03*
X139395200Y-23335000D03*
X138125200Y-23335000D03*
X136855200Y-23335000D03*
X135585200Y-23335000D03*
X134315200Y-23335000D03*
X133045200Y-23335000D03*
D19*
X107790000Y-36703000D03*
X107790000Y-37973000D03*
X107790000Y-39243000D03*
X107790000Y-40513000D03*
X113190000Y-40513000D03*
X113190000Y-39243000D03*
X113190000Y-37973000D03*
X113190000Y-36703000D03*
D20*
X4937760Y-26223000D03*
X4937760Y-24323000D03*
X2938780Y-25273000D03*
X95869760Y-48575000D03*
X95869760Y-46675000D03*
X93870780Y-47625000D03*
D14*
X91555000Y-48514000D03*
X90055000Y-48514000D03*
D21*
X4318000Y-28079000D03*
X4318000Y-29579000D03*
D22*
X19460000Y-41835500D03*
X19460000Y-41185500D03*
X19460000Y-40535500D03*
X19460000Y-39885500D03*
X19460000Y-39235500D03*
X19460000Y-38585500D03*
X19460000Y-37935500D03*
X19460000Y-37285500D03*
X13560000Y-37285500D03*
X13560000Y-37935500D03*
X13560000Y-38585500D03*
X13560000Y-39235500D03*
X13560000Y-39885500D03*
X13560000Y-40535500D03*
X13560000Y-41185500D03*
X13560000Y-41835500D03*
X34700000Y-41835500D03*
X34700000Y-41185500D03*
X34700000Y-40535500D03*
X34700000Y-39885500D03*
X34700000Y-39235500D03*
X34700000Y-38585500D03*
X34700000Y-37935500D03*
X34700000Y-37285500D03*
X28800000Y-37285500D03*
X28800000Y-37935500D03*
X28800000Y-38585500D03*
X28800000Y-39235500D03*
X28800000Y-39885500D03*
X28800000Y-40535500D03*
X28800000Y-41185500D03*
X28800000Y-41835500D03*
M02*
