%FSLAX46Y46*%
G04 Gerber Fmt 4.6, Leading zero omitted, Abs format (unit mm)*
G04 Created by KiCad (PCBNEW (2014-10-27 BZR 5228)-product) date 7/19/2015 7:06:05 PM*
%MOMM*%
G01*
G04 APERTURE LIST*
%ADD10C,0.100000*%
%ADD11R,3.599180X2.598420*%
%ADD12R,1.300000X1.300000*%
%ADD13C,1.300000*%
%ADD14C,4.800600*%
%ADD15R,4.800600X4.800600*%
%ADD16C,2.286000*%
%ADD17R,1.905000X1.905000*%
%ADD18C,1.905000*%
%ADD19C,1.998980*%
%ADD20R,1.400000X1.900000*%
%ADD21O,1.400000X1.900000*%
%ADD22C,1.000760*%
%ADD23R,2.032000X1.727200*%
%ADD24O,2.032000X1.727200*%
%ADD25C,2.000000*%
G04 APERTURE END LIST*
D10*
D11*
X74993500Y-47668180D03*
X74993500Y-18371820D03*
D12*
X116840000Y-37338000D03*
D13*
X118840000Y-37338000D03*
D12*
X116840000Y-43434000D03*
D13*
X118840000Y-43434000D03*
D12*
X96266000Y-42672000D03*
D13*
X94266000Y-42672000D03*
D12*
X96266000Y-35052000D03*
D13*
X94266000Y-35052000D03*
D14*
X131826000Y-41656000D03*
D15*
X125730000Y-41656000D03*
D14*
X129540000Y-46736000D03*
D16*
X137160000Y-46736000D03*
X137160000Y-36576000D03*
X143129000Y-46736000D03*
X143129000Y-36576000D03*
X146685000Y-45085000D03*
X146685000Y-38227000D03*
X143129000Y-41656000D03*
X139700000Y-41656000D03*
D17*
X102108000Y-42164000D03*
D18*
X102108000Y-47244000D03*
D19*
X117856000Y-33147000D03*
X107696000Y-33147000D03*
D20*
X2540000Y-32385000D03*
D21*
X5080000Y-32385000D03*
X7620000Y-32385000D03*
X10160000Y-32385000D03*
X12700000Y-32385000D03*
X15240000Y-32385000D03*
X17780000Y-32385000D03*
X20320000Y-32385000D03*
X22860000Y-32385000D03*
X25400000Y-32385000D03*
X27940000Y-32385000D03*
X30480000Y-32385000D03*
X33020000Y-32385000D03*
X35560000Y-32385000D03*
X38100000Y-32385000D03*
X40640000Y-32385000D03*
X43180000Y-32385000D03*
X45720000Y-32385000D03*
X48260000Y-32385000D03*
X50800000Y-32385000D03*
X50800000Y-47625000D03*
X48260000Y-47625000D03*
X45720000Y-47625000D03*
X43180000Y-47625000D03*
X40640000Y-47625000D03*
X38100000Y-47625000D03*
X35560000Y-47625000D03*
X33020000Y-47625000D03*
X30480000Y-47625000D03*
X27940000Y-47625000D03*
X25400000Y-47625000D03*
X22860000Y-47625000D03*
X20320000Y-47625000D03*
X17780000Y-47625000D03*
X15240000Y-47625000D03*
X12700000Y-47625000D03*
X10160000Y-47625000D03*
X7620000Y-47625000D03*
X5080000Y-47625000D03*
X2540000Y-47625000D03*
D22*
X6701320Y-44606680D02*
X7055142Y-44252858D01*
X8184858Y-43123142D02*
X8538680Y-42769320D01*
D23*
X58674000Y-45085000D03*
D24*
X58674000Y-42545000D03*
X58674000Y-40005000D03*
X58674000Y-37465000D03*
X58674000Y-34925000D03*
D25*
X91376500Y-45963840D03*
X91376500Y-38364160D03*
D23*
X54864000Y-42545000D03*
D24*
X54864000Y-40005000D03*
X54864000Y-37465000D03*
X54864000Y-34925000D03*
M02*
