%FSLAX46Y46*%
G04 Gerber Fmt 4.6, Leading zero omitted, Abs format (unit mm)*
G04 Created by KiCad (PCBNEW (2014-10-27 BZR 5228)-product) date 7/19/2015 11:06:38 AM*
%MOMM*%
G01*
G04 APERTURE LIST*
%ADD10C,0.100000*%
%ADD11C,0.317500*%
%ADD12C,0.254000*%
%ADD13C,0.150000*%
%ADD14R,1.800860X2.499360*%
%ADD15R,0.800000X0.750000*%
%ADD16R,1.300000X1.300000*%
%ADD17C,1.300000*%
%ADD18R,0.750000X0.800000*%
%ADD19C,4.800600*%
%ADD20R,4.800600X4.800600*%
%ADD21C,2.286000*%
%ADD22R,1.905000X1.905000*%
%ADD23C,1.905000*%
%ADD24C,1.998980*%
%ADD25R,0.500000X0.900000*%
%ADD26R,1.000000X0.700000*%
%ADD27R,0.750000X0.700000*%
%ADD28R,2.100000X1.400000*%
%ADD29R,1.400000X1.900000*%
%ADD30O,1.400000X1.900000*%
%ADD31R,0.600000X1.500000*%
%ADD32C,1.000760*%
%ADD33R,1.550000X0.600000*%
%ADD34R,1.500000X0.600000*%
%ADD35R,2.032000X1.727200*%
%ADD36O,2.032000X1.727200*%
%ADD37R,0.800100X0.800100*%
%ADD38C,2.000000*%
%ADD39R,0.900000X0.500000*%
%ADD40C,1.778000*%
G04 APERTURE END LIST*
D10*
D11*
X119862600Y-28100867D02*
X119862600Y-30590067D01*
X121285000Y-28100867D01*
X121285000Y-30590067D01*
X123300066Y-29286200D02*
X123655666Y-29404733D01*
X123774199Y-29523267D01*
X123892733Y-29760333D01*
X123892733Y-30115933D01*
X123774199Y-30353000D01*
X123655666Y-30471533D01*
X123418599Y-30590067D01*
X122470333Y-30590067D01*
X122470333Y-28100867D01*
X123300066Y-28100867D01*
X123537133Y-28219400D01*
X123655666Y-28337933D01*
X123774199Y-28575000D01*
X123774199Y-28812067D01*
X123655666Y-29049133D01*
X123537133Y-29167667D01*
X123300066Y-29286200D01*
X122470333Y-29286200D01*
X124959533Y-29641800D02*
X126856066Y-29641800D01*
X127922866Y-28337933D02*
X128041400Y-28219400D01*
X128278466Y-28100867D01*
X128871133Y-28100867D01*
X129108200Y-28219400D01*
X129226733Y-28337933D01*
X129345266Y-28575000D01*
X129345266Y-28812067D01*
X129226733Y-29167667D01*
X127804333Y-30590067D01*
X129345266Y-30590067D01*
X130293533Y-28337933D02*
X130412067Y-28219400D01*
X130649133Y-28100867D01*
X131241800Y-28100867D01*
X131478867Y-28219400D01*
X131597400Y-28337933D01*
X131715933Y-28575000D01*
X131715933Y-28812067D01*
X131597400Y-29167667D01*
X130175000Y-30590067D01*
X131715933Y-30590067D01*
D12*
X123716143Y-33437286D02*
X123716143Y-31532286D01*
X123444000Y-31532286D01*
X123171857Y-31623000D01*
X122990429Y-31804429D01*
X122899714Y-32076571D01*
X122718286Y-33165143D01*
X122627571Y-33346571D01*
X122446143Y-33437286D01*
X122355429Y-33437286D01*
X124623285Y-32802286D02*
X125167571Y-32802286D01*
X124623285Y-32167286D02*
X124623285Y-33437286D01*
X125530428Y-33437286D02*
X125349000Y-33346571D01*
X125258285Y-33255857D01*
X125167571Y-33074429D01*
X125167571Y-32530143D01*
X125258285Y-32348714D01*
X125349000Y-32258000D01*
X125530428Y-32167286D01*
X125802571Y-32167286D01*
X125984000Y-32258000D01*
X126074714Y-32348714D01*
X126165428Y-32530143D01*
X126165428Y-33074429D01*
X126074714Y-33255857D01*
X125984000Y-33346571D01*
X125802571Y-33437286D01*
X125530428Y-33437286D01*
X126981856Y-33437286D02*
X126981856Y-32167286D01*
X127526142Y-33165143D01*
X128070428Y-32167286D01*
X128070428Y-33437286D01*
X128977570Y-32167286D02*
X128977570Y-33437286D01*
X129884713Y-32167286D01*
X129884713Y-33437286D01*
X130791856Y-32802286D02*
X131608285Y-32802286D01*
X130791856Y-32167286D02*
X130791856Y-33437286D01*
X131608285Y-32167286D02*
X131608285Y-33437286D01*
X133241142Y-33346571D02*
X133059713Y-33437286D01*
X132696856Y-33437286D01*
X132515427Y-33346571D01*
X132424713Y-33165143D01*
X132424713Y-32439429D01*
X132515427Y-32258000D01*
X132696856Y-32167286D01*
X133059713Y-32167286D01*
X133241142Y-32258000D01*
X133331856Y-32439429D01*
X133331856Y-32620857D01*
X132424713Y-32802286D01*
X134964713Y-33346571D02*
X134783284Y-33437286D01*
X134420427Y-33437286D01*
X134238999Y-33346571D01*
X134148284Y-33255857D01*
X134057570Y-33074429D01*
X134057570Y-32530143D01*
X134148284Y-32348714D01*
X134238999Y-32258000D01*
X134420427Y-32167286D01*
X134783284Y-32167286D01*
X134964713Y-32258000D01*
X136597570Y-32167286D02*
X136597570Y-33437286D01*
X135781141Y-32167286D02*
X135781141Y-33437286D01*
X136778999Y-33437286D01*
X136778999Y-33890857D01*
X138230427Y-33346571D02*
X138048998Y-33437286D01*
X137686141Y-33437286D01*
X137504712Y-33346571D01*
X137413998Y-33165143D01*
X137413998Y-32439429D01*
X137504712Y-32258000D01*
X137686141Y-32167286D01*
X138048998Y-32167286D01*
X138230427Y-32258000D01*
X138321141Y-32439429D01*
X138321141Y-32620857D01*
X137413998Y-32802286D01*
X139137569Y-32802286D02*
X139953998Y-32802286D01*
X139137569Y-32167286D02*
X139137569Y-33437286D01*
X139953998Y-32167286D02*
X139953998Y-33437286D01*
X140588998Y-32167286D02*
X141496140Y-32167286D01*
X141042569Y-32167286D02*
X141042569Y-33437286D01*
X142131140Y-32802286D02*
X142947569Y-32802286D01*
X142131140Y-32167286D02*
X142131140Y-33437286D01*
X142947569Y-32167286D02*
X142947569Y-33437286D01*
X144671140Y-33437286D02*
X144671140Y-32439429D01*
X144580426Y-32258000D01*
X144398997Y-32167286D01*
X144036140Y-32167286D01*
X143854711Y-32258000D01*
X144671140Y-33346571D02*
X144489711Y-33437286D01*
X144036140Y-33437286D01*
X143854711Y-33346571D01*
X143763997Y-33165143D01*
X143763997Y-32983714D01*
X143854711Y-32802286D01*
X144036140Y-32711571D01*
X144489711Y-32711571D01*
X144671140Y-32620857D01*
X145941140Y-32893000D02*
X145487568Y-33437286D01*
X146303997Y-33437286D02*
X146303997Y-32167286D01*
X145759711Y-32167286D01*
X145578282Y-32258000D01*
X145487568Y-32439429D01*
X145487568Y-32620857D01*
X145578282Y-32802286D01*
X145759711Y-32893000D01*
X146303997Y-32893000D01*
X126437572Y-34453286D02*
X126437572Y-36358286D01*
X125439715Y-34453286D02*
X125439715Y-35179000D01*
X125530429Y-35360429D01*
X125621144Y-35451143D01*
X125802572Y-35541857D01*
X126437572Y-35541857D01*
X128161144Y-36358286D02*
X128161144Y-35360429D01*
X128070430Y-35179000D01*
X127889001Y-35088286D01*
X127526144Y-35088286D01*
X127344715Y-35179000D01*
X128161144Y-36267571D02*
X127979715Y-36358286D01*
X127526144Y-36358286D01*
X127344715Y-36267571D01*
X127254001Y-36086143D01*
X127254001Y-35904714D01*
X127344715Y-35723286D01*
X127526144Y-35632571D01*
X127979715Y-35632571D01*
X128161144Y-35541857D01*
X129884715Y-36267571D02*
X129703286Y-36358286D01*
X129340429Y-36358286D01*
X129159001Y-36267571D01*
X129068286Y-36176857D01*
X128977572Y-35995429D01*
X128977572Y-35451143D01*
X129068286Y-35269714D01*
X129159001Y-35179000D01*
X129340429Y-35088286D01*
X129703286Y-35088286D01*
X129884715Y-35179000D01*
X131971143Y-35088286D02*
X131971143Y-36358286D01*
X130701143Y-35088286D02*
X130701143Y-36358286D01*
X131154715Y-36358286D01*
X131336143Y-36267571D01*
X131426858Y-36086143D01*
X131426858Y-35814000D01*
X131336143Y-35632571D01*
X131154715Y-35541857D01*
X130701143Y-35541857D01*
D13*
X100357940Y-34268860D02*
X100708460Y-34268860D01*
X103858060Y-34268860D02*
X103507540Y-34268860D01*
X100357940Y-38318440D02*
X100708460Y-38318440D01*
X100357940Y-33817560D02*
X100708460Y-33817560D01*
X103858060Y-33817560D02*
X103507540Y-33817560D01*
X103858060Y-38318440D02*
X103507540Y-38318440D01*
X100357940Y-33817560D02*
X100357940Y-38318440D01*
X103858060Y-33817560D02*
X103858060Y-38318440D01*
X4160000Y-44796000D02*
X3460000Y-44796000D01*
X3460000Y-43596000D02*
X4160000Y-43596000D01*
X7716000Y-40478000D02*
X7016000Y-40478000D01*
X7016000Y-39278000D02*
X7716000Y-39278000D01*
X117915000Y-34839000D02*
X117915000Y-39837000D01*
X118055000Y-34847000D02*
X118055000Y-37184000D01*
X118055000Y-37492000D02*
X118055000Y-39829000D01*
X118195000Y-34863000D02*
X118195000Y-36865000D01*
X118195000Y-37811000D02*
X118195000Y-39813000D01*
X118335000Y-34887000D02*
X118335000Y-36718000D01*
X118335000Y-37958000D02*
X118335000Y-39789000D01*
X118475000Y-34920000D02*
X118475000Y-36626000D01*
X118475000Y-38050000D02*
X118475000Y-39756000D01*
X118615000Y-34961000D02*
X118615000Y-36570000D01*
X118615000Y-38106000D02*
X118615000Y-39715000D01*
X118755000Y-35011000D02*
X118755000Y-36543000D01*
X118755000Y-38133000D02*
X118755000Y-39665000D01*
X118895000Y-35072000D02*
X118895000Y-36540000D01*
X118895000Y-38136000D02*
X118895000Y-39604000D01*
X119035000Y-35142000D02*
X119035000Y-36562000D01*
X119035000Y-38114000D02*
X119035000Y-39534000D01*
X119175000Y-35224000D02*
X119175000Y-36612000D01*
X119175000Y-38064000D02*
X119175000Y-39452000D01*
X119315000Y-35319000D02*
X119315000Y-36694000D01*
X119315000Y-37982000D02*
X119315000Y-39357000D01*
X119455000Y-35430000D02*
X119455000Y-36826000D01*
X119455000Y-37850000D02*
X119455000Y-39246000D01*
X119595000Y-35558000D02*
X119595000Y-37073000D01*
X119595000Y-37603000D02*
X119595000Y-39118000D01*
X119735000Y-35707000D02*
X119735000Y-38969000D01*
X119875000Y-35886000D02*
X119875000Y-38790000D01*
X120015000Y-36105000D02*
X120015000Y-38571000D01*
X120155000Y-36394000D02*
X120155000Y-38282000D01*
X120295000Y-36866000D02*
X120295000Y-37810000D01*
X119640000Y-37338000D02*
G75*
G03X119640000Y-37338000I-800000J0D01*
G01*
X120377500Y-37338000D02*
G75*
G03X120377500Y-37338000I-2537500J0D01*
G01*
X117915000Y-40935000D02*
X117915000Y-45933000D01*
X118055000Y-40943000D02*
X118055000Y-43280000D01*
X118055000Y-43588000D02*
X118055000Y-45925000D01*
X118195000Y-40959000D02*
X118195000Y-42961000D01*
X118195000Y-43907000D02*
X118195000Y-45909000D01*
X118335000Y-40983000D02*
X118335000Y-42814000D01*
X118335000Y-44054000D02*
X118335000Y-45885000D01*
X118475000Y-41016000D02*
X118475000Y-42722000D01*
X118475000Y-44146000D02*
X118475000Y-45852000D01*
X118615000Y-41057000D02*
X118615000Y-42666000D01*
X118615000Y-44202000D02*
X118615000Y-45811000D01*
X118755000Y-41107000D02*
X118755000Y-42639000D01*
X118755000Y-44229000D02*
X118755000Y-45761000D01*
X118895000Y-41168000D02*
X118895000Y-42636000D01*
X118895000Y-44232000D02*
X118895000Y-45700000D01*
X119035000Y-41238000D02*
X119035000Y-42658000D01*
X119035000Y-44210000D02*
X119035000Y-45630000D01*
X119175000Y-41320000D02*
X119175000Y-42708000D01*
X119175000Y-44160000D02*
X119175000Y-45548000D01*
X119315000Y-41415000D02*
X119315000Y-42790000D01*
X119315000Y-44078000D02*
X119315000Y-45453000D01*
X119455000Y-41526000D02*
X119455000Y-42922000D01*
X119455000Y-43946000D02*
X119455000Y-45342000D01*
X119595000Y-41654000D02*
X119595000Y-43169000D01*
X119595000Y-43699000D02*
X119595000Y-45214000D01*
X119735000Y-41803000D02*
X119735000Y-45065000D01*
X119875000Y-41982000D02*
X119875000Y-44886000D01*
X120015000Y-42201000D02*
X120015000Y-44667000D01*
X120155000Y-42490000D02*
X120155000Y-44378000D01*
X120295000Y-42962000D02*
X120295000Y-43906000D01*
X119640000Y-43434000D02*
G75*
G03X119640000Y-43434000I-800000J0D01*
G01*
X120377500Y-43434000D02*
G75*
G03X120377500Y-43434000I-2537500J0D01*
G01*
X95191000Y-45171000D02*
X95191000Y-40173000D01*
X95051000Y-45163000D02*
X95051000Y-42826000D01*
X95051000Y-42518000D02*
X95051000Y-40181000D01*
X94911000Y-45147000D02*
X94911000Y-43145000D01*
X94911000Y-42199000D02*
X94911000Y-40197000D01*
X94771000Y-45123000D02*
X94771000Y-43292000D01*
X94771000Y-42052000D02*
X94771000Y-40221000D01*
X94631000Y-45090000D02*
X94631000Y-43384000D01*
X94631000Y-41960000D02*
X94631000Y-40254000D01*
X94491000Y-45049000D02*
X94491000Y-43440000D01*
X94491000Y-41904000D02*
X94491000Y-40295000D01*
X94351000Y-44999000D02*
X94351000Y-43467000D01*
X94351000Y-41877000D02*
X94351000Y-40345000D01*
X94211000Y-44938000D02*
X94211000Y-43470000D01*
X94211000Y-41874000D02*
X94211000Y-40406000D01*
X94071000Y-44868000D02*
X94071000Y-43448000D01*
X94071000Y-41896000D02*
X94071000Y-40476000D01*
X93931000Y-44786000D02*
X93931000Y-43398000D01*
X93931000Y-41946000D02*
X93931000Y-40558000D01*
X93791000Y-44691000D02*
X93791000Y-43316000D01*
X93791000Y-42028000D02*
X93791000Y-40653000D01*
X93651000Y-44580000D02*
X93651000Y-43184000D01*
X93651000Y-42160000D02*
X93651000Y-40764000D01*
X93511000Y-44452000D02*
X93511000Y-42937000D01*
X93511000Y-42407000D02*
X93511000Y-40892000D01*
X93371000Y-44303000D02*
X93371000Y-41041000D01*
X93231000Y-44124000D02*
X93231000Y-41220000D01*
X93091000Y-43905000D02*
X93091000Y-41439000D01*
X92951000Y-43616000D02*
X92951000Y-41728000D01*
X92811000Y-43144000D02*
X92811000Y-42200000D01*
X95066000Y-42672000D02*
G75*
G03X95066000Y-42672000I-800000J0D01*
G01*
X97803500Y-42672000D02*
G75*
G03X97803500Y-42672000I-2537500J0D01*
G01*
X95191000Y-37551000D02*
X95191000Y-32553000D01*
X95051000Y-37543000D02*
X95051000Y-35206000D01*
X95051000Y-34898000D02*
X95051000Y-32561000D01*
X94911000Y-37527000D02*
X94911000Y-35525000D01*
X94911000Y-34579000D02*
X94911000Y-32577000D01*
X94771000Y-37503000D02*
X94771000Y-35672000D01*
X94771000Y-34432000D02*
X94771000Y-32601000D01*
X94631000Y-37470000D02*
X94631000Y-35764000D01*
X94631000Y-34340000D02*
X94631000Y-32634000D01*
X94491000Y-37429000D02*
X94491000Y-35820000D01*
X94491000Y-34284000D02*
X94491000Y-32675000D01*
X94351000Y-37379000D02*
X94351000Y-35847000D01*
X94351000Y-34257000D02*
X94351000Y-32725000D01*
X94211000Y-37318000D02*
X94211000Y-35850000D01*
X94211000Y-34254000D02*
X94211000Y-32786000D01*
X94071000Y-37248000D02*
X94071000Y-35828000D01*
X94071000Y-34276000D02*
X94071000Y-32856000D01*
X93931000Y-37166000D02*
X93931000Y-35778000D01*
X93931000Y-34326000D02*
X93931000Y-32938000D01*
X93791000Y-37071000D02*
X93791000Y-35696000D01*
X93791000Y-34408000D02*
X93791000Y-33033000D01*
X93651000Y-36960000D02*
X93651000Y-35564000D01*
X93651000Y-34540000D02*
X93651000Y-33144000D01*
X93511000Y-36832000D02*
X93511000Y-35317000D01*
X93511000Y-34787000D02*
X93511000Y-33272000D01*
X93371000Y-36683000D02*
X93371000Y-33421000D01*
X93231000Y-36504000D02*
X93231000Y-33600000D01*
X93091000Y-36285000D02*
X93091000Y-33819000D01*
X92951000Y-35996000D02*
X92951000Y-34108000D01*
X92811000Y-35524000D02*
X92811000Y-34580000D01*
X95066000Y-35052000D02*
G75*
G03X95066000Y-35052000I-800000J0D01*
G01*
X97803500Y-35052000D02*
G75*
G03X97803500Y-35052000I-2537500J0D01*
G01*
X104683000Y-40228000D02*
X104683000Y-39528000D01*
X105883000Y-39528000D02*
X105883000Y-40228000D01*
X105918000Y-44704000D02*
G75*
G03X105918000Y-44704000I-3810000J0D01*
G01*
X115316000Y-34417000D02*
X110236000Y-34417000D01*
X110236000Y-34417000D02*
X110236000Y-31877000D01*
X110236000Y-31877000D02*
X115316000Y-31877000D01*
X115316000Y-31877000D02*
X115316000Y-34417000D01*
X115316000Y-33147000D02*
X116586000Y-33147000D01*
X110236000Y-33147000D02*
X108966000Y-33147000D01*
X108212000Y-43267000D02*
X109212000Y-43267000D01*
X109212000Y-44617000D02*
X108212000Y-44617000D01*
X108212000Y-46823000D02*
X109212000Y-46823000D01*
X109212000Y-48173000D02*
X108212000Y-48173000D01*
X113172000Y-44704000D02*
G75*
G03X113172000Y-44704000I-650000J0D01*
G01*
X113572000Y-46054000D02*
X111472000Y-46054000D01*
X111472000Y-46054000D02*
X111472000Y-43354000D01*
X111472000Y-43354000D02*
X113572000Y-43354000D01*
X113572000Y-43354000D02*
X113572000Y-46054000D01*
X69822000Y-36322000D02*
G75*
G03X69822000Y-36322000I-1750000J0D01*
G01*
X65072000Y-33322000D02*
X71072000Y-33322000D01*
X71072000Y-33322000D02*
X71072000Y-39322000D01*
X71072000Y-39322000D02*
X65072000Y-39322000D01*
X65072000Y-39322000D02*
X65072000Y-33322000D01*
X83157000Y-36322000D02*
G75*
G03X83157000Y-36322000I-1750000J0D01*
G01*
X78407000Y-33322000D02*
X84407000Y-33322000D01*
X84407000Y-33322000D02*
X84407000Y-39322000D01*
X84407000Y-39322000D02*
X78407000Y-39322000D01*
X78407000Y-39322000D02*
X78407000Y-33322000D01*
X83157000Y-43942000D02*
G75*
G03X83157000Y-43942000I-1750000J0D01*
G01*
X84407000Y-46942000D02*
X78407000Y-46942000D01*
X78407000Y-46942000D02*
X78407000Y-40942000D01*
X78407000Y-40942000D02*
X84407000Y-40942000D01*
X84407000Y-40942000D02*
X84407000Y-46942000D01*
X69822000Y-43942000D02*
G75*
G03X69822000Y-43942000I-1750000J0D01*
G01*
X71072000Y-46942000D02*
X65072000Y-46942000D01*
X65072000Y-46942000D02*
X65072000Y-40942000D01*
X65072000Y-40942000D02*
X71072000Y-40942000D01*
X71072000Y-40942000D02*
X71072000Y-46942000D01*
X7421800Y-28110000D02*
X7526800Y-28110000D01*
X7421800Y-23960000D02*
X7526800Y-23960000D01*
X17571800Y-23960000D02*
X17466800Y-23960000D01*
X17571800Y-28110000D02*
X17466800Y-28110000D01*
X7421800Y-28110000D02*
X7421800Y-23960000D01*
X17571800Y-28110000D02*
X17571800Y-23960000D01*
X7526800Y-28110000D02*
X7526800Y-29485000D01*
X32423020Y-28110000D02*
X32528020Y-28110000D01*
X32423020Y-23960000D02*
X32528020Y-23960000D01*
X42573020Y-23960000D02*
X42468020Y-23960000D01*
X42573020Y-28110000D02*
X42468020Y-28110000D01*
X32423020Y-28110000D02*
X32423020Y-23960000D01*
X42573020Y-28110000D02*
X42573020Y-23960000D01*
X32528020Y-28110000D02*
X32528020Y-29485000D01*
X57409000Y-28110000D02*
X57514000Y-28110000D01*
X57409000Y-23960000D02*
X57514000Y-23960000D01*
X67559000Y-23960000D02*
X67454000Y-23960000D01*
X67559000Y-28110000D02*
X67454000Y-28110000D01*
X57409000Y-28110000D02*
X57409000Y-23960000D01*
X67559000Y-28110000D02*
X67559000Y-23960000D01*
X57514000Y-28110000D02*
X57514000Y-29485000D01*
X82428000Y-28110000D02*
X82533000Y-28110000D01*
X82428000Y-23960000D02*
X82533000Y-23960000D01*
X92578000Y-23960000D02*
X92473000Y-23960000D01*
X92578000Y-28110000D02*
X92473000Y-28110000D01*
X82428000Y-28110000D02*
X82428000Y-23960000D01*
X92578000Y-28110000D02*
X92578000Y-23960000D01*
X82533000Y-28110000D02*
X82533000Y-29485000D01*
X107421600Y-28110000D02*
X107526600Y-28110000D01*
X107421600Y-23960000D02*
X107526600Y-23960000D01*
X117571600Y-23960000D02*
X117466600Y-23960000D01*
X117571600Y-28110000D02*
X117466600Y-28110000D01*
X107421600Y-28110000D02*
X107421600Y-23960000D01*
X117571600Y-28110000D02*
X117571600Y-23960000D01*
X107526600Y-28110000D02*
X107526600Y-29485000D01*
X132415200Y-28110000D02*
X132520200Y-28110000D01*
X132415200Y-23960000D02*
X132520200Y-23960000D01*
X142565200Y-23960000D02*
X142460200Y-23960000D01*
X142565200Y-28110000D02*
X142460200Y-28110000D01*
X132415200Y-28110000D02*
X132415200Y-23960000D01*
X142565200Y-28110000D02*
X142565200Y-23960000D01*
X132520200Y-28110000D02*
X132520200Y-29485000D01*
X9175380Y-43759842D02*
X9175380Y-43547908D01*
X6100541Y-43440145D02*
X6098745Y-43793967D01*
X9175380Y-43759842D02*
X9105334Y-44181914D01*
X9105334Y-44181914D02*
X8821558Y-44677624D01*
X8821558Y-44677624D02*
X8539578Y-44959604D01*
X8539578Y-44959604D02*
X8043868Y-45171538D01*
X8043868Y-45171538D02*
X7514033Y-45209255D01*
X7691842Y-42132620D02*
X7302099Y-42166745D01*
X7302099Y-42166745D02*
X6840514Y-42344554D01*
X6840514Y-42344554D02*
X6488488Y-42628330D01*
X6488488Y-42628330D02*
X6204712Y-43052198D01*
X6204712Y-43052198D02*
X6100541Y-43440145D01*
X108415000Y-36033000D02*
X108415000Y-36178000D01*
X112565000Y-36033000D02*
X112565000Y-36178000D01*
X112565000Y-41183000D02*
X112565000Y-41038000D01*
X108415000Y-41183000D02*
X108415000Y-41038000D01*
X108415000Y-36033000D02*
X112565000Y-36033000D01*
X108415000Y-41183000D02*
X112565000Y-41183000D01*
X108415000Y-36178000D02*
X107015000Y-36178000D01*
X33825000Y-44699000D02*
X33825000Y-44594000D01*
X29675000Y-44699000D02*
X29675000Y-44594000D01*
X29675000Y-34549000D02*
X29675000Y-34654000D01*
X33825000Y-34549000D02*
X33825000Y-34654000D01*
X33825000Y-44699000D02*
X29675000Y-44699000D01*
X33825000Y-34549000D02*
X29675000Y-34549000D01*
X33825000Y-44594000D02*
X35200000Y-44594000D01*
X16045000Y-44699000D02*
X16045000Y-44594000D01*
X11895000Y-44699000D02*
X11895000Y-44594000D01*
X11895000Y-34549000D02*
X11895000Y-34654000D01*
X16045000Y-34549000D02*
X16045000Y-34654000D01*
X16045000Y-44699000D02*
X11895000Y-44699000D01*
X16045000Y-34549000D02*
X11895000Y-34549000D01*
X16045000Y-44594000D02*
X17420000Y-44594000D01*
X47261780Y-42186860D02*
X47622460Y-43657520D01*
X47622460Y-43657520D02*
X47901860Y-42595800D01*
X47901860Y-42595800D02*
X48211740Y-43667680D01*
X48211740Y-43667680D02*
X48552100Y-42217340D01*
X45841920Y-42877740D02*
X46631860Y-42867580D01*
X46631860Y-42867580D02*
X46642020Y-42877740D01*
X46642020Y-42877740D02*
X46642020Y-42867580D01*
X46682660Y-42156380D02*
X46682660Y-43698160D01*
X45793660Y-42146220D02*
X45793660Y-43715940D01*
X45793660Y-43715940D02*
X45803820Y-43705780D01*
X45242480Y-42247820D02*
X44891960Y-42166540D01*
X44891960Y-42166540D02*
X44571920Y-42156380D01*
X44571920Y-42156380D02*
X44333160Y-42357040D01*
X44333160Y-42357040D02*
X44302680Y-42626280D01*
X44302680Y-42626280D02*
X44543980Y-42867580D01*
X44543980Y-42867580D02*
X44932600Y-42997120D01*
X44932600Y-42997120D02*
X45112940Y-43157140D01*
X45112940Y-43157140D02*
X45153580Y-43456860D01*
X45153580Y-43456860D02*
X44922440Y-43677840D01*
X44922440Y-43677840D02*
X44602400Y-43705780D01*
X44602400Y-43705780D02*
X44251880Y-43596560D01*
X43213020Y-42146220D02*
X42964100Y-42166540D01*
X42964100Y-42166540D02*
X42722800Y-42407840D01*
X42722800Y-42407840D02*
X42633900Y-42898060D01*
X42633900Y-42898060D02*
X42661840Y-43246040D01*
X42661840Y-43246040D02*
X42862500Y-43566080D01*
X42862500Y-43566080D02*
X43113960Y-43688000D01*
X43113960Y-43688000D02*
X43423840Y-43616880D01*
X43423840Y-43616880D02*
X43642280Y-43436540D01*
X43642280Y-43436540D02*
X43713400Y-42976800D01*
X43713400Y-42976800D02*
X43662600Y-42567860D01*
X43662600Y-42567860D02*
X43553380Y-42285920D01*
X43553380Y-42285920D02*
X43192700Y-42156380D01*
X43812460Y-40426640D02*
X43553380Y-40987980D01*
X43553380Y-40987980D02*
X44091860Y-41506140D01*
X44091860Y-41506140D02*
X44612560Y-41236900D01*
X44612560Y-41236900D02*
X44891960Y-41396920D01*
X46332140Y-41376600D02*
X46662340Y-41186100D01*
X46662340Y-41186100D02*
X47101760Y-41516300D01*
X47101760Y-41516300D02*
X47574200Y-41026080D01*
X47574200Y-41026080D02*
X47292260Y-40546020D01*
X47292260Y-40546020D02*
X47482760Y-40076120D01*
X47482760Y-40076120D02*
X48092360Y-39888160D01*
X48092360Y-39888160D02*
X48092360Y-39207440D01*
X48092360Y-39207440D02*
X47533560Y-39067740D01*
X47533560Y-39067740D02*
X47332900Y-38496240D01*
X47332900Y-38496240D02*
X47602140Y-38026340D01*
X47602140Y-38026340D02*
X47132240Y-37515800D01*
X47132240Y-37515800D02*
X46614080Y-37777420D01*
X46614080Y-37777420D02*
X46144180Y-37576760D01*
X46144180Y-37576760D02*
X45974000Y-37035740D01*
X45974000Y-37035740D02*
X45283120Y-37017960D01*
X45283120Y-37017960D02*
X45072300Y-37566600D01*
X45072300Y-37566600D02*
X44653200Y-37736780D01*
X44653200Y-37736780D02*
X44102020Y-37467540D01*
X44102020Y-37467540D02*
X43583860Y-37995860D01*
X43583860Y-37995860D02*
X43832780Y-38536880D01*
X43832780Y-38536880D02*
X43662600Y-39016940D01*
X43662600Y-39016940D02*
X43113960Y-39116000D01*
X43113960Y-39116000D02*
X43103800Y-39817040D01*
X43103800Y-39817040D02*
X43662600Y-40017700D01*
X43662600Y-40017700D02*
X43802300Y-40416480D01*
X45943520Y-40396160D02*
X46243240Y-40246300D01*
X46243240Y-40246300D02*
X46443900Y-40048180D01*
X46443900Y-40048180D02*
X46593760Y-39646860D01*
X46593760Y-39646860D02*
X46593760Y-39248080D01*
X46593760Y-39248080D02*
X46443900Y-38897560D01*
X46443900Y-38897560D02*
X45991780Y-38547040D01*
X45991780Y-38547040D02*
X45542200Y-38496240D01*
X45542200Y-38496240D02*
X45143420Y-38597840D01*
X45143420Y-38597840D02*
X44742100Y-38945820D01*
X44742100Y-38945820D02*
X44592240Y-39397940D01*
X44592240Y-39397940D02*
X44643040Y-39895780D01*
X44643040Y-39895780D02*
X44891960Y-40198040D01*
X44891960Y-40198040D02*
X45242480Y-40396160D01*
X45242480Y-40396160D02*
X44891960Y-41396920D01*
X45943520Y-40396160D02*
X46342300Y-41396920D01*
X2510840Y-26939240D02*
X2559100Y-26939240D01*
X5309820Y-26238200D02*
X5309820Y-26939240D01*
X5309820Y-26939240D02*
X5060900Y-26939240D01*
X2510840Y-26939240D02*
X2310180Y-26939240D01*
X2310180Y-26939240D02*
X2310180Y-26238200D01*
X95787160Y-46847760D02*
X95738900Y-46847760D01*
X92988180Y-47548800D02*
X92988180Y-46847760D01*
X92988180Y-46847760D02*
X93237100Y-46847760D01*
X95787160Y-46847760D02*
X95987820Y-46847760D01*
X95987820Y-46847760D02*
X95987820Y-47548800D01*
X90305000Y-47839000D02*
X91305000Y-47839000D01*
X91305000Y-49189000D02*
X90305000Y-49189000D01*
X4913000Y-29456000D02*
X4913000Y-28456000D01*
X6263000Y-28456000D02*
X6263000Y-29456000D01*
X99766381Y-36806095D02*
X98766381Y-36806095D01*
X98766381Y-36568000D01*
X98814000Y-36425142D01*
X98909238Y-36329904D01*
X99004476Y-36282285D01*
X99194952Y-36234666D01*
X99337810Y-36234666D01*
X99528286Y-36282285D01*
X99623524Y-36329904D01*
X99718762Y-36425142D01*
X99766381Y-36568000D01*
X99766381Y-36806095D01*
X99766381Y-35282285D02*
X99766381Y-35853714D01*
X99766381Y-35568000D02*
X98766381Y-35568000D01*
X98909238Y-35663238D01*
X99004476Y-35758476D01*
X99052095Y-35853714D01*
X3135334Y-43029143D02*
X3087715Y-43076762D01*
X2944858Y-43124381D01*
X2849620Y-43124381D01*
X2706762Y-43076762D01*
X2611524Y-42981524D01*
X2563905Y-42886286D01*
X2516286Y-42695810D01*
X2516286Y-42552952D01*
X2563905Y-42362476D01*
X2611524Y-42267238D01*
X2706762Y-42172000D01*
X2849620Y-42124381D01*
X2944858Y-42124381D01*
X3087715Y-42172000D01*
X3135334Y-42219619D01*
X4087715Y-43124381D02*
X3516286Y-43124381D01*
X3802000Y-43124381D02*
X3802000Y-42124381D01*
X3706762Y-42267238D01*
X3611524Y-42362476D01*
X3516286Y-42410095D01*
X4659334Y-40235143D02*
X4611715Y-40282762D01*
X4468858Y-40330381D01*
X4373620Y-40330381D01*
X4230762Y-40282762D01*
X4135524Y-40187524D01*
X4087905Y-40092286D01*
X4040286Y-39901810D01*
X4040286Y-39758952D01*
X4087905Y-39568476D01*
X4135524Y-39473238D01*
X4230762Y-39378000D01*
X4373620Y-39330381D01*
X4468858Y-39330381D01*
X4611715Y-39378000D01*
X4659334Y-39425619D01*
X5040286Y-39425619D02*
X5087905Y-39378000D01*
X5183143Y-39330381D01*
X5421239Y-39330381D01*
X5516477Y-39378000D01*
X5564096Y-39425619D01*
X5611715Y-39520857D01*
X5611715Y-39616095D01*
X5564096Y-39758952D01*
X4992667Y-40330381D01*
X5611715Y-40330381D01*
X120737334Y-35409143D02*
X120689715Y-35456762D01*
X120546858Y-35504381D01*
X120451620Y-35504381D01*
X120308762Y-35456762D01*
X120213524Y-35361524D01*
X120165905Y-35266286D01*
X120118286Y-35075810D01*
X120118286Y-34932952D01*
X120165905Y-34742476D01*
X120213524Y-34647238D01*
X120308762Y-34552000D01*
X120451620Y-34504381D01*
X120546858Y-34504381D01*
X120689715Y-34552000D01*
X120737334Y-34599619D01*
X121070667Y-34504381D02*
X121689715Y-34504381D01*
X121356381Y-34885333D01*
X121499239Y-34885333D01*
X121594477Y-34932952D01*
X121642096Y-34980571D01*
X121689715Y-35075810D01*
X121689715Y-35313905D01*
X121642096Y-35409143D01*
X121594477Y-35456762D01*
X121499239Y-35504381D01*
X121213524Y-35504381D01*
X121118286Y-35456762D01*
X121070667Y-35409143D01*
X120737334Y-41505143D02*
X120689715Y-41552762D01*
X120546858Y-41600381D01*
X120451620Y-41600381D01*
X120308762Y-41552762D01*
X120213524Y-41457524D01*
X120165905Y-41362286D01*
X120118286Y-41171810D01*
X120118286Y-41028952D01*
X120165905Y-40838476D01*
X120213524Y-40743238D01*
X120308762Y-40648000D01*
X120451620Y-40600381D01*
X120546858Y-40600381D01*
X120689715Y-40648000D01*
X120737334Y-40695619D01*
X121594477Y-40933714D02*
X121594477Y-41600381D01*
X121356381Y-40552762D02*
X121118286Y-41267048D01*
X121737334Y-41267048D01*
X92035334Y-40743143D02*
X91987715Y-40790762D01*
X91844858Y-40838381D01*
X91749620Y-40838381D01*
X91606762Y-40790762D01*
X91511524Y-40695524D01*
X91463905Y-40600286D01*
X91416286Y-40409810D01*
X91416286Y-40266952D01*
X91463905Y-40076476D01*
X91511524Y-39981238D01*
X91606762Y-39886000D01*
X91749620Y-39838381D01*
X91844858Y-39838381D01*
X91987715Y-39886000D01*
X92035334Y-39933619D01*
X92940096Y-39838381D02*
X92463905Y-39838381D01*
X92416286Y-40314571D01*
X92463905Y-40266952D01*
X92559143Y-40219333D01*
X92797239Y-40219333D01*
X92892477Y-40266952D01*
X92940096Y-40314571D01*
X92987715Y-40409810D01*
X92987715Y-40647905D01*
X92940096Y-40743143D01*
X92892477Y-40790762D01*
X92797239Y-40838381D01*
X92559143Y-40838381D01*
X92463905Y-40790762D01*
X92416286Y-40743143D01*
X92035334Y-33123143D02*
X91987715Y-33170762D01*
X91844858Y-33218381D01*
X91749620Y-33218381D01*
X91606762Y-33170762D01*
X91511524Y-33075524D01*
X91463905Y-32980286D01*
X91416286Y-32789810D01*
X91416286Y-32646952D01*
X91463905Y-32456476D01*
X91511524Y-32361238D01*
X91606762Y-32266000D01*
X91749620Y-32218381D01*
X91844858Y-32218381D01*
X91987715Y-32266000D01*
X92035334Y-32313619D01*
X92892477Y-32218381D02*
X92702000Y-32218381D01*
X92606762Y-32266000D01*
X92559143Y-32313619D01*
X92463905Y-32456476D01*
X92416286Y-32646952D01*
X92416286Y-33027905D01*
X92463905Y-33123143D01*
X92511524Y-33170762D01*
X92606762Y-33218381D01*
X92797239Y-33218381D01*
X92892477Y-33170762D01*
X92940096Y-33123143D01*
X92987715Y-33027905D01*
X92987715Y-32789810D01*
X92940096Y-32694571D01*
X92892477Y-32646952D01*
X92797239Y-32599333D01*
X92606762Y-32599333D01*
X92511524Y-32646952D01*
X92463905Y-32694571D01*
X92416286Y-32789810D01*
X106021143Y-37504666D02*
X106068762Y-37552285D01*
X106116381Y-37695142D01*
X106116381Y-37790380D01*
X106068762Y-37933238D01*
X105973524Y-38028476D01*
X105878286Y-38076095D01*
X105687810Y-38123714D01*
X105544952Y-38123714D01*
X105354476Y-38076095D01*
X105259238Y-38028476D01*
X105164000Y-37933238D01*
X105116381Y-37790380D01*
X105116381Y-37695142D01*
X105164000Y-37552285D01*
X105211619Y-37504666D01*
X105116381Y-37171333D02*
X105116381Y-36504666D01*
X106116381Y-36933238D01*
X100561401Y-44870666D02*
X100561401Y-45346857D01*
X99561401Y-45346857D01*
X100561401Y-44013523D02*
X100561401Y-44584952D01*
X100561401Y-44299238D02*
X99561401Y-44299238D01*
X99704258Y-44394476D01*
X99799496Y-44489714D01*
X99847115Y-44584952D01*
X112609334Y-31313381D02*
X112276000Y-30837190D01*
X112037905Y-31313381D02*
X112037905Y-30313381D01*
X112418858Y-30313381D01*
X112514096Y-30361000D01*
X112561715Y-30408619D01*
X112609334Y-30503857D01*
X112609334Y-30646714D01*
X112561715Y-30741952D01*
X112514096Y-30789571D01*
X112418858Y-30837190D01*
X112037905Y-30837190D01*
X113561715Y-31313381D02*
X112990286Y-31313381D01*
X113276000Y-31313381D02*
X113276000Y-30313381D01*
X113180762Y-30456238D01*
X113085524Y-30551476D01*
X112990286Y-30599095D01*
X108545334Y-46294381D02*
X108212000Y-45818190D01*
X107973905Y-46294381D02*
X107973905Y-45294381D01*
X108354858Y-45294381D01*
X108450096Y-45342000D01*
X108497715Y-45389619D01*
X108545334Y-45484857D01*
X108545334Y-45627714D01*
X108497715Y-45722952D01*
X108450096Y-45770571D01*
X108354858Y-45818190D01*
X107973905Y-45818190D01*
X108926286Y-45389619D02*
X108973905Y-45342000D01*
X109069143Y-45294381D01*
X109307239Y-45294381D01*
X109402477Y-45342000D01*
X109450096Y-45389619D01*
X109497715Y-45484857D01*
X109497715Y-45580095D01*
X109450096Y-45722952D01*
X108878667Y-46294381D01*
X109497715Y-46294381D01*
X108545334Y-49850381D02*
X108212000Y-49374190D01*
X107973905Y-49850381D02*
X107973905Y-48850381D01*
X108354858Y-48850381D01*
X108450096Y-48898000D01*
X108497715Y-48945619D01*
X108545334Y-49040857D01*
X108545334Y-49183714D01*
X108497715Y-49278952D01*
X108450096Y-49326571D01*
X108354858Y-49374190D01*
X107973905Y-49374190D01*
X108878667Y-48850381D02*
X109497715Y-48850381D01*
X109164381Y-49231333D01*
X109307239Y-49231333D01*
X109402477Y-49278952D01*
X109450096Y-49326571D01*
X109497715Y-49421810D01*
X109497715Y-49659905D01*
X109450096Y-49755143D01*
X109402477Y-49802762D01*
X109307239Y-49850381D01*
X109021524Y-49850381D01*
X108926286Y-49802762D01*
X108878667Y-49755143D01*
X114974381Y-45299238D02*
X114498190Y-45632572D01*
X114974381Y-45870667D02*
X113974381Y-45870667D01*
X113974381Y-45489714D01*
X114022000Y-45394476D01*
X114069619Y-45346857D01*
X114164857Y-45299238D01*
X114307714Y-45299238D01*
X114402952Y-45346857D01*
X114450571Y-45394476D01*
X114498190Y-45489714D01*
X114498190Y-45870667D01*
X113974381Y-45013524D02*
X114974381Y-44680191D01*
X113974381Y-44346857D01*
X114974381Y-43489714D02*
X114974381Y-44061143D01*
X114974381Y-43775429D02*
X113974381Y-43775429D01*
X114117238Y-43870667D01*
X114212476Y-43965905D01*
X114260095Y-44061143D01*
X5949181Y-26796905D02*
X6758705Y-26796905D01*
X6853943Y-26749286D01*
X6901562Y-26701667D01*
X6949181Y-26606429D01*
X6949181Y-26415952D01*
X6901562Y-26320714D01*
X6853943Y-26273095D01*
X6758705Y-26225476D01*
X5949181Y-26225476D01*
X6044419Y-25796905D02*
X5996800Y-25749286D01*
X5949181Y-25654048D01*
X5949181Y-25415952D01*
X5996800Y-25320714D01*
X6044419Y-25273095D01*
X6139657Y-25225476D01*
X6234895Y-25225476D01*
X6377752Y-25273095D01*
X6949181Y-25844524D01*
X6949181Y-25225476D01*
X30950401Y-26796905D02*
X31759925Y-26796905D01*
X31855163Y-26749286D01*
X31902782Y-26701667D01*
X31950401Y-26606429D01*
X31950401Y-26415952D01*
X31902782Y-26320714D01*
X31855163Y-26273095D01*
X31759925Y-26225476D01*
X30950401Y-26225476D01*
X30950401Y-25844524D02*
X30950401Y-25225476D01*
X31331353Y-25558810D01*
X31331353Y-25415952D01*
X31378972Y-25320714D01*
X31426591Y-25273095D01*
X31521830Y-25225476D01*
X31759925Y-25225476D01*
X31855163Y-25273095D01*
X31902782Y-25320714D01*
X31950401Y-25415952D01*
X31950401Y-25701667D01*
X31902782Y-25796905D01*
X31855163Y-25844524D01*
X55936381Y-26796905D02*
X56745905Y-26796905D01*
X56841143Y-26749286D01*
X56888762Y-26701667D01*
X56936381Y-26606429D01*
X56936381Y-26415952D01*
X56888762Y-26320714D01*
X56841143Y-26273095D01*
X56745905Y-26225476D01*
X55936381Y-26225476D01*
X56269714Y-25320714D02*
X56936381Y-25320714D01*
X55888762Y-25558810D02*
X56603048Y-25796905D01*
X56603048Y-25177857D01*
X80955381Y-26796905D02*
X81764905Y-26796905D01*
X81860143Y-26749286D01*
X81907762Y-26701667D01*
X81955381Y-26606429D01*
X81955381Y-26415952D01*
X81907762Y-26320714D01*
X81860143Y-26273095D01*
X81764905Y-26225476D01*
X80955381Y-26225476D01*
X80955381Y-25273095D02*
X80955381Y-25749286D01*
X81431571Y-25796905D01*
X81383952Y-25749286D01*
X81336333Y-25654048D01*
X81336333Y-25415952D01*
X81383952Y-25320714D01*
X81431571Y-25273095D01*
X81526810Y-25225476D01*
X81764905Y-25225476D01*
X81860143Y-25273095D01*
X81907762Y-25320714D01*
X81955381Y-25415952D01*
X81955381Y-25654048D01*
X81907762Y-25749286D01*
X81860143Y-25796905D01*
X105948981Y-26796905D02*
X106758505Y-26796905D01*
X106853743Y-26749286D01*
X106901362Y-26701667D01*
X106948981Y-26606429D01*
X106948981Y-26415952D01*
X106901362Y-26320714D01*
X106853743Y-26273095D01*
X106758505Y-26225476D01*
X105948981Y-26225476D01*
X105948981Y-25320714D02*
X105948981Y-25511191D01*
X105996600Y-25606429D01*
X106044219Y-25654048D01*
X106187076Y-25749286D01*
X106377552Y-25796905D01*
X106758505Y-25796905D01*
X106853743Y-25749286D01*
X106901362Y-25701667D01*
X106948981Y-25606429D01*
X106948981Y-25415952D01*
X106901362Y-25320714D01*
X106853743Y-25273095D01*
X106758505Y-25225476D01*
X106520410Y-25225476D01*
X106425171Y-25273095D01*
X106377552Y-25320714D01*
X106329933Y-25415952D01*
X106329933Y-25606429D01*
X106377552Y-25701667D01*
X106425171Y-25749286D01*
X106520410Y-25796905D01*
X130942581Y-26796905D02*
X131752105Y-26796905D01*
X131847343Y-26749286D01*
X131894962Y-26701667D01*
X131942581Y-26606429D01*
X131942581Y-26415952D01*
X131894962Y-26320714D01*
X131847343Y-26273095D01*
X131752105Y-26225476D01*
X130942581Y-26225476D01*
X130942581Y-25844524D02*
X130942581Y-25177857D01*
X131942581Y-25606429D01*
X4864304Y-42077144D02*
X6042816Y-42312846D01*
X5335709Y-41605739D02*
X5571411Y-42784251D01*
X6682579Y-41673082D02*
X6278518Y-42077144D01*
X6480548Y-41875113D02*
X5773441Y-41168007D01*
X5807113Y-41336365D01*
X5807113Y-41471052D01*
X5773441Y-41572067D01*
X109728095Y-34560381D02*
X109728095Y-35369905D01*
X109775714Y-35465143D01*
X109823333Y-35512762D01*
X109918571Y-35560381D01*
X110109048Y-35560381D01*
X110204286Y-35512762D01*
X110251905Y-35465143D01*
X110299524Y-35369905D01*
X110299524Y-34560381D01*
X110918571Y-34988952D02*
X110823333Y-34941333D01*
X110775714Y-34893714D01*
X110728095Y-34798476D01*
X110728095Y-34750857D01*
X110775714Y-34655619D01*
X110823333Y-34608000D01*
X110918571Y-34560381D01*
X111109048Y-34560381D01*
X111204286Y-34608000D01*
X111251905Y-34655619D01*
X111299524Y-34750857D01*
X111299524Y-34798476D01*
X111251905Y-34893714D01*
X111204286Y-34941333D01*
X111109048Y-34988952D01*
X110918571Y-34988952D01*
X110823333Y-35036571D01*
X110775714Y-35084190D01*
X110728095Y-35179429D01*
X110728095Y-35369905D01*
X110775714Y-35465143D01*
X110823333Y-35512762D01*
X110918571Y-35560381D01*
X111109048Y-35560381D01*
X111204286Y-35512762D01*
X111251905Y-35465143D01*
X111299524Y-35369905D01*
X111299524Y-35179429D01*
X111251905Y-35084190D01*
X111204286Y-35036571D01*
X111109048Y-34988952D01*
X30988095Y-45076381D02*
X30988095Y-45885905D01*
X31035714Y-45981143D01*
X31083333Y-46028762D01*
X31178571Y-46076381D01*
X31369048Y-46076381D01*
X31464286Y-46028762D01*
X31511905Y-45981143D01*
X31559524Y-45885905D01*
X31559524Y-45076381D01*
X32083333Y-46076381D02*
X32273809Y-46076381D01*
X32369048Y-46028762D01*
X32416667Y-45981143D01*
X32511905Y-45838286D01*
X32559524Y-45647810D01*
X32559524Y-45266857D01*
X32511905Y-45171619D01*
X32464286Y-45124000D01*
X32369048Y-45076381D01*
X32178571Y-45076381D01*
X32083333Y-45124000D01*
X32035714Y-45171619D01*
X31988095Y-45266857D01*
X31988095Y-45504952D01*
X32035714Y-45600190D01*
X32083333Y-45647810D01*
X32178571Y-45695429D01*
X32369048Y-45695429D01*
X32464286Y-45647810D01*
X32511905Y-45600190D01*
X32559524Y-45504952D01*
X12731905Y-45076381D02*
X12731905Y-45885905D01*
X12779524Y-45981143D01*
X12827143Y-46028762D01*
X12922381Y-46076381D01*
X13112858Y-46076381D01*
X13208096Y-46028762D01*
X13255715Y-45981143D01*
X13303334Y-45885905D01*
X13303334Y-45076381D01*
X14303334Y-46076381D02*
X13731905Y-46076381D01*
X14017619Y-46076381D02*
X14017619Y-45076381D01*
X13922381Y-45219238D01*
X13827143Y-45314476D01*
X13731905Y-45362095D01*
X14922381Y-45076381D02*
X15017620Y-45076381D01*
X15112858Y-45124000D01*
X15160477Y-45171619D01*
X15208096Y-45266857D01*
X15255715Y-45457333D01*
X15255715Y-45695429D01*
X15208096Y-45885905D01*
X15160477Y-45981143D01*
X15112858Y-46028762D01*
X15017620Y-46076381D01*
X14922381Y-46076381D01*
X14827143Y-46028762D01*
X14779524Y-45981143D01*
X14731905Y-45885905D01*
X14684286Y-45695429D01*
X14684286Y-45457333D01*
X14731905Y-45266857D01*
X14779524Y-45171619D01*
X14827143Y-45124000D01*
X14922381Y-45076381D01*
X1944619Y-26384238D02*
X1897000Y-26479476D01*
X1801762Y-26574714D01*
X1658905Y-26717571D01*
X1611286Y-26812810D01*
X1611286Y-26908048D01*
X1849381Y-26860429D02*
X1801762Y-26955667D01*
X1706524Y-27050905D01*
X1516048Y-27098524D01*
X1182714Y-27098524D01*
X992238Y-27050905D01*
X897000Y-26955667D01*
X849381Y-26860429D01*
X849381Y-26669952D01*
X897000Y-26574714D01*
X992238Y-26479476D01*
X1182714Y-26431857D01*
X1516048Y-26431857D01*
X1706524Y-26479476D01*
X1801762Y-26574714D01*
X1849381Y-26669952D01*
X1849381Y-26860429D01*
X1849381Y-25479476D02*
X1849381Y-26050905D01*
X1849381Y-25765191D02*
X849381Y-25765191D01*
X992238Y-25860429D01*
X1087476Y-25955667D01*
X1135095Y-26050905D01*
X97186762Y-48045619D02*
X97091524Y-47998000D01*
X96996286Y-47902762D01*
X96853429Y-47759905D01*
X96758190Y-47712286D01*
X96662952Y-47712286D01*
X96710571Y-47950381D02*
X96615333Y-47902762D01*
X96520095Y-47807524D01*
X96472476Y-47617048D01*
X96472476Y-47283714D01*
X96520095Y-47093238D01*
X96615333Y-46998000D01*
X96710571Y-46950381D01*
X96901048Y-46950381D01*
X96996286Y-46998000D01*
X97091524Y-47093238D01*
X97139143Y-47283714D01*
X97139143Y-47617048D01*
X97091524Y-47807524D01*
X96996286Y-47902762D01*
X96901048Y-47950381D01*
X96710571Y-47950381D01*
X97520095Y-47045619D02*
X97567714Y-46998000D01*
X97662952Y-46950381D01*
X97901048Y-46950381D01*
X97996286Y-46998000D01*
X98043905Y-47045619D01*
X98091524Y-47140857D01*
X98091524Y-47236095D01*
X98043905Y-47378952D01*
X97472476Y-47950381D01*
X98091524Y-47950381D01*
X88098334Y-48966381D02*
X87765000Y-48490190D01*
X87526905Y-48966381D02*
X87526905Y-47966381D01*
X87907858Y-47966381D01*
X88003096Y-48014000D01*
X88050715Y-48061619D01*
X88098334Y-48156857D01*
X88098334Y-48299714D01*
X88050715Y-48394952D01*
X88003096Y-48442571D01*
X87907858Y-48490190D01*
X87526905Y-48490190D01*
X88955477Y-48299714D02*
X88955477Y-48966381D01*
X88717381Y-47918762D02*
X88479286Y-48633048D01*
X89098334Y-48633048D01*
X4516381Y-29122666D02*
X4040190Y-29456000D01*
X4516381Y-29694095D02*
X3516381Y-29694095D01*
X3516381Y-29313142D01*
X3564000Y-29217904D01*
X3611619Y-29170285D01*
X3706857Y-29122666D01*
X3849714Y-29122666D01*
X3944952Y-29170285D01*
X3992571Y-29217904D01*
X4040190Y-29313142D01*
X4040190Y-29694095D01*
X3516381Y-28217904D02*
X3516381Y-28694095D01*
X3992571Y-28741714D01*
X3944952Y-28694095D01*
X3897333Y-28598857D01*
X3897333Y-28360761D01*
X3944952Y-28265523D01*
X3992571Y-28217904D01*
X4087810Y-28170285D01*
X4325905Y-28170285D01*
X4421143Y-28217904D01*
X4468762Y-28265523D01*
X4516381Y-28360761D01*
X4516381Y-28598857D01*
X4468762Y-28694095D01*
X4421143Y-28741714D01*
%LPC*%
D14*
X102108000Y-34069020D03*
X102108000Y-38066980D03*
D15*
X4560000Y-44196000D03*
X3060000Y-44196000D03*
X8116000Y-39878000D03*
X6616000Y-39878000D03*
D16*
X116840000Y-37338000D03*
D17*
X118840000Y-37338000D03*
D16*
X116840000Y-43434000D03*
D17*
X118840000Y-43434000D03*
D16*
X96266000Y-42672000D03*
D17*
X94266000Y-42672000D03*
D16*
X96266000Y-35052000D03*
D17*
X94266000Y-35052000D03*
D18*
X105283000Y-40628000D03*
X105283000Y-39128000D03*
D19*
X131826000Y-41656000D03*
D20*
X125730000Y-41656000D03*
D19*
X129540000Y-46736000D03*
D21*
X137160000Y-46736000D03*
X137160000Y-36576000D03*
X143129000Y-46736000D03*
X143129000Y-36576000D03*
X146685000Y-45085000D03*
X146685000Y-38227000D03*
X143129000Y-41656000D03*
X139700000Y-41656000D03*
D22*
X102108000Y-42164000D03*
D23*
X102108000Y-47244000D03*
D24*
X117856000Y-33147000D03*
X107696000Y-33147000D03*
D25*
X109462000Y-43942000D03*
X107962000Y-43942000D03*
X109462000Y-47498000D03*
X107962000Y-47498000D03*
D26*
X112522000Y-45804000D03*
D27*
X113147000Y-43604000D03*
X111897000Y-43604000D03*
D28*
X63522000Y-34072000D03*
X63522000Y-38572000D03*
X72522000Y-34072000D03*
X72522000Y-38572000D03*
X76857000Y-34072000D03*
X76857000Y-38572000D03*
X85857000Y-34072000D03*
X85857000Y-38572000D03*
X85957000Y-46192000D03*
X85957000Y-41692000D03*
X76957000Y-46192000D03*
X76957000Y-41692000D03*
X72622000Y-46192000D03*
X72622000Y-41692000D03*
X63622000Y-46192000D03*
X63622000Y-41692000D03*
D29*
X2540000Y-32385000D03*
D30*
X5080000Y-32385000D03*
X7620000Y-32385000D03*
X10160000Y-32385000D03*
X12700000Y-32385000D03*
X15240000Y-32385000D03*
X17780000Y-32385000D03*
X20320000Y-32385000D03*
X22860000Y-32385000D03*
X25400000Y-32385000D03*
X27940000Y-32385000D03*
X30480000Y-32385000D03*
X33020000Y-32385000D03*
X35560000Y-32385000D03*
X38100000Y-32385000D03*
X40640000Y-32385000D03*
X43180000Y-32385000D03*
X45720000Y-32385000D03*
X48260000Y-32385000D03*
X50800000Y-32385000D03*
X50800000Y-47625000D03*
X48260000Y-47625000D03*
X45720000Y-47625000D03*
X43180000Y-47625000D03*
X40640000Y-47625000D03*
X38100000Y-47625000D03*
X35560000Y-47625000D03*
X33020000Y-47625000D03*
X30480000Y-47625000D03*
X27940000Y-47625000D03*
X25400000Y-47625000D03*
X22860000Y-47625000D03*
X20320000Y-47625000D03*
X17780000Y-47625000D03*
X15240000Y-47625000D03*
X12700000Y-47625000D03*
X10160000Y-47625000D03*
X7620000Y-47625000D03*
X5080000Y-47625000D03*
X2540000Y-47625000D03*
D31*
X8051800Y-28735000D03*
X9321800Y-28735000D03*
X10591800Y-28735000D03*
X11861800Y-28735000D03*
X13131800Y-28735000D03*
X14401800Y-28735000D03*
X15671800Y-28735000D03*
X16941800Y-28735000D03*
X16941800Y-23335000D03*
X15671800Y-23335000D03*
X14401800Y-23335000D03*
X13131800Y-23335000D03*
X11861800Y-23335000D03*
X10591800Y-23335000D03*
X9321800Y-23335000D03*
X8051800Y-23335000D03*
X33053020Y-28735000D03*
X34323020Y-28735000D03*
X35593020Y-28735000D03*
X36863020Y-28735000D03*
X38133020Y-28735000D03*
X39403020Y-28735000D03*
X40673020Y-28735000D03*
X41943020Y-28735000D03*
X41943020Y-23335000D03*
X40673020Y-23335000D03*
X39403020Y-23335000D03*
X38133020Y-23335000D03*
X36863020Y-23335000D03*
X35593020Y-23335000D03*
X34323020Y-23335000D03*
X33053020Y-23335000D03*
X58039000Y-28735000D03*
X59309000Y-28735000D03*
X60579000Y-28735000D03*
X61849000Y-28735000D03*
X63119000Y-28735000D03*
X64389000Y-28735000D03*
X65659000Y-28735000D03*
X66929000Y-28735000D03*
X66929000Y-23335000D03*
X65659000Y-23335000D03*
X64389000Y-23335000D03*
X63119000Y-23335000D03*
X61849000Y-23335000D03*
X60579000Y-23335000D03*
X59309000Y-23335000D03*
X58039000Y-23335000D03*
X83058000Y-28735000D03*
X84328000Y-28735000D03*
X85598000Y-28735000D03*
X86868000Y-28735000D03*
X88138000Y-28735000D03*
X89408000Y-28735000D03*
X90678000Y-28735000D03*
X91948000Y-28735000D03*
X91948000Y-23335000D03*
X90678000Y-23335000D03*
X89408000Y-23335000D03*
X88138000Y-23335000D03*
X86868000Y-23335000D03*
X85598000Y-23335000D03*
X84328000Y-23335000D03*
X83058000Y-23335000D03*
X108051600Y-28735000D03*
X109321600Y-28735000D03*
X110591600Y-28735000D03*
X111861600Y-28735000D03*
X113131600Y-28735000D03*
X114401600Y-28735000D03*
X115671600Y-28735000D03*
X116941600Y-28735000D03*
X116941600Y-23335000D03*
X115671600Y-23335000D03*
X114401600Y-23335000D03*
X113131600Y-23335000D03*
X111861600Y-23335000D03*
X110591600Y-23335000D03*
X109321600Y-23335000D03*
X108051600Y-23335000D03*
X133045200Y-28735000D03*
X134315200Y-28735000D03*
X135585200Y-28735000D03*
X136855200Y-28735000D03*
X138125200Y-28735000D03*
X139395200Y-28735000D03*
X140665200Y-28735000D03*
X141935200Y-28735000D03*
X141935200Y-23335000D03*
X140665200Y-23335000D03*
X139395200Y-23335000D03*
X138125200Y-23335000D03*
X136855200Y-23335000D03*
X135585200Y-23335000D03*
X134315200Y-23335000D03*
X133045200Y-23335000D03*
D32*
X6701320Y-44606680D02*
X7055142Y-44252858D01*
X8184858Y-43123142D02*
X8538680Y-42769320D01*
D33*
X107790000Y-36703000D03*
X107790000Y-37973000D03*
X107790000Y-39243000D03*
X107790000Y-40513000D03*
X113190000Y-40513000D03*
X113190000Y-39243000D03*
X113190000Y-37973000D03*
X113190000Y-36703000D03*
D34*
X34450000Y-44069000D03*
X34450000Y-42799000D03*
X34450000Y-41529000D03*
X34450000Y-40259000D03*
X34450000Y-38989000D03*
X34450000Y-37719000D03*
X34450000Y-36449000D03*
X34450000Y-35179000D03*
X29050000Y-35179000D03*
X29050000Y-36449000D03*
X29050000Y-37719000D03*
X29050000Y-38989000D03*
X29050000Y-40259000D03*
X29050000Y-41529000D03*
X29050000Y-42799000D03*
X29050000Y-44069000D03*
X16670000Y-44069000D03*
X16670000Y-42799000D03*
X16670000Y-41529000D03*
X16670000Y-40259000D03*
X16670000Y-38989000D03*
X16670000Y-37719000D03*
X16670000Y-36449000D03*
X16670000Y-35179000D03*
X11270000Y-35179000D03*
X11270000Y-36449000D03*
X11270000Y-37719000D03*
X11270000Y-38989000D03*
X11270000Y-40259000D03*
X11270000Y-41529000D03*
X11270000Y-42799000D03*
X11270000Y-44069000D03*
D35*
X58674000Y-45085000D03*
D36*
X58674000Y-42545000D03*
X58674000Y-40005000D03*
X58674000Y-37465000D03*
X58674000Y-34925000D03*
D37*
X4760000Y-25288240D03*
X2860000Y-25288240D03*
X3810000Y-27287220D03*
X93538000Y-48498760D03*
X95438000Y-48498760D03*
X94488000Y-46499780D03*
D38*
X91376500Y-45963840D03*
X91376500Y-38364160D03*
D25*
X91555000Y-48514000D03*
X90055000Y-48514000D03*
D39*
X5588000Y-28206000D03*
X5588000Y-29706000D03*
D35*
X54864000Y-42545000D03*
D36*
X54864000Y-40005000D03*
X54864000Y-37465000D03*
X54864000Y-34925000D03*
D40*
X8498840Y-19428460D03*
X6748780Y-15928340D03*
X6748780Y-11430000D03*
X6748780Y-6931660D03*
X8498840Y-3431540D03*
X12496800Y-2430780D03*
X16494760Y-3431540D03*
X18244820Y-6931660D03*
X18244820Y-11430000D03*
X18244820Y-15928340D03*
X16494760Y-19428460D03*
X12496800Y-20429220D03*
X33500060Y-19428460D03*
X31750000Y-15928340D03*
X31750000Y-11430000D03*
X31750000Y-6931660D03*
X33500060Y-3431540D03*
X37498020Y-2430780D03*
X41495980Y-3431540D03*
X43246040Y-6931660D03*
X43246040Y-11430000D03*
X43246040Y-15928340D03*
X41495980Y-19428460D03*
X37498020Y-20429220D03*
X58486040Y-19428460D03*
X56735980Y-15928340D03*
X56735980Y-11430000D03*
X56735980Y-6931660D03*
X58486040Y-3431540D03*
X62484000Y-2430780D03*
X66481960Y-3431540D03*
X68232020Y-6931660D03*
X68232020Y-11430000D03*
X68232020Y-15928340D03*
X66481960Y-19428460D03*
X62484000Y-20429220D03*
X83505040Y-19428460D03*
X81754980Y-15928340D03*
X81754980Y-11430000D03*
X81754980Y-6931660D03*
X83505040Y-3431540D03*
X87503000Y-2430780D03*
X91500960Y-3431540D03*
X93251020Y-6931660D03*
X93251020Y-11430000D03*
X93251020Y-15928340D03*
X91500960Y-19428460D03*
X87503000Y-20429220D03*
X108498640Y-19428460D03*
X106748580Y-15928340D03*
X106748580Y-11430000D03*
X106748580Y-6931660D03*
X108498640Y-3431540D03*
X112496600Y-2430780D03*
X116494560Y-3431540D03*
X118244620Y-6931660D03*
X118244620Y-11430000D03*
X118244620Y-15928340D03*
X116494560Y-19428460D03*
X112496600Y-20429220D03*
X133492240Y-19428460D03*
X131742180Y-15928340D03*
X131742180Y-11430000D03*
X131742180Y-6931660D03*
X133492240Y-3431540D03*
X137490200Y-2430780D03*
X141488160Y-3431540D03*
X143238220Y-6931660D03*
X143238220Y-11430000D03*
X143238220Y-15928340D03*
X141488160Y-19428460D03*
X137490200Y-20429220D03*
M02*
