%FSLAX46Y46*%
G04 Gerber Fmt 4.6, Leading zero omitted, Abs format (unit mm)*
G04 Created by KiCad (PCBNEW (2014-10-27 BZR 5228)-product) date 7/25/2015 10:05:20 AM*
%MOMM*%
G01*
G04 APERTURE LIST*
%ADD10C,0.100000*%
%ADD11C,0.300000*%
%ADD12C,0.254000*%
%ADD13C,0.066040*%
%ADD14C,0.152400*%
%ADD15C,0.150000*%
%ADD16R,1.400000X1.900000*%
%ADD17O,1.400000X1.900000*%
%ADD18R,3.599180X2.598420*%
%ADD19R,1.300000X1.300000*%
%ADD20C,1.300000*%
%ADD21C,4.800600*%
%ADD22C,2.286000*%
%ADD23R,1.905000X1.905000*%
%ADD24C,1.905000*%
%ADD25C,1.998980*%
%ADD26O,1.501140X1.000760*%
%ADD27R,2.032000X1.727200*%
%ADD28O,2.032000X1.727200*%
%ADD29C,2.000000*%
G04 APERTURE END LIST*
D10*
D11*
X52003716Y-24110071D02*
X52003716Y-22610071D01*
X51360859Y-24110071D02*
X51360859Y-23324357D01*
X51432288Y-23181500D01*
X51575145Y-23110071D01*
X51789430Y-23110071D01*
X51932288Y-23181500D01*
X52003716Y-23252929D01*
X50860859Y-23110071D02*
X50289430Y-23110071D01*
X50646573Y-22610071D02*
X50646573Y-23895786D01*
X50575145Y-24038643D01*
X50432287Y-24110071D01*
X50289430Y-24110071D01*
X50003716Y-23110071D02*
X49432287Y-23110071D01*
X49789430Y-22610071D02*
X49789430Y-23895786D01*
X49718002Y-24038643D01*
X49575144Y-24110071D01*
X49432287Y-24110071D01*
X48932287Y-23110071D02*
X48932287Y-24610071D01*
X48932287Y-23181500D02*
X48789430Y-23110071D01*
X48503716Y-23110071D01*
X48360859Y-23181500D01*
X48289430Y-23252929D01*
X48218001Y-23395786D01*
X48218001Y-23824357D01*
X48289430Y-23967214D01*
X48360859Y-24038643D01*
X48503716Y-24110071D01*
X48789430Y-24110071D01*
X48932287Y-24038643D01*
X47646573Y-24038643D02*
X47503716Y-24110071D01*
X47218001Y-24110071D01*
X47075144Y-24038643D01*
X47003716Y-23895786D01*
X47003716Y-23824357D01*
X47075144Y-23681500D01*
X47218001Y-23610071D01*
X47432287Y-23610071D01*
X47575144Y-23538643D01*
X47646573Y-23395786D01*
X47646573Y-23324357D01*
X47575144Y-23181500D01*
X47432287Y-23110071D01*
X47218001Y-23110071D01*
X47075144Y-23181500D01*
X46360858Y-23967214D02*
X46289430Y-24038643D01*
X46360858Y-24110071D01*
X46432287Y-24038643D01*
X46360858Y-23967214D01*
X46360858Y-24110071D01*
X46360858Y-23181500D02*
X46289430Y-23252929D01*
X46360858Y-23324357D01*
X46432287Y-23252929D01*
X46360858Y-23181500D01*
X46360858Y-23324357D01*
X44575144Y-22538643D02*
X45860858Y-24467214D01*
X43003715Y-22538643D02*
X44289429Y-24467214D01*
X41860857Y-23110071D02*
X41860857Y-24324357D01*
X41932286Y-24467214D01*
X42003714Y-24538643D01*
X42146571Y-24610071D01*
X42360857Y-24610071D01*
X42503714Y-24538643D01*
X41860857Y-24038643D02*
X42003714Y-24110071D01*
X42289428Y-24110071D01*
X42432286Y-24038643D01*
X42503714Y-23967214D01*
X42575143Y-23824357D01*
X42575143Y-23395786D01*
X42503714Y-23252929D01*
X42432286Y-23181500D01*
X42289428Y-23110071D01*
X42003714Y-23110071D01*
X41860857Y-23181500D01*
X41146571Y-24110071D02*
X41146571Y-23110071D01*
X41146571Y-22610071D02*
X41218000Y-22681500D01*
X41146571Y-22752929D01*
X41075143Y-22681500D01*
X41146571Y-22610071D01*
X41146571Y-22752929D01*
X40646571Y-23110071D02*
X40075142Y-23110071D01*
X40432285Y-22610071D02*
X40432285Y-23895786D01*
X40360857Y-24038643D01*
X40217999Y-24110071D01*
X40075142Y-24110071D01*
X39575142Y-24110071D02*
X39575142Y-22610071D01*
X38932285Y-24110071D02*
X38932285Y-23324357D01*
X39003714Y-23181500D01*
X39146571Y-23110071D01*
X39360856Y-23110071D01*
X39503714Y-23181500D01*
X39575142Y-23252929D01*
X37575142Y-23110071D02*
X37575142Y-24110071D01*
X38217999Y-23110071D02*
X38217999Y-23895786D01*
X38146571Y-24038643D01*
X38003713Y-24110071D01*
X37789428Y-24110071D01*
X37646571Y-24038643D01*
X37575142Y-23967214D01*
X36860856Y-24110071D02*
X36860856Y-22610071D01*
X36860856Y-23181500D02*
X36717999Y-23110071D01*
X36432285Y-23110071D01*
X36289428Y-23181500D01*
X36217999Y-23252929D01*
X36146570Y-23395786D01*
X36146570Y-23824357D01*
X36217999Y-23967214D01*
X36289428Y-24038643D01*
X36432285Y-24110071D01*
X36717999Y-24110071D01*
X36860856Y-24038643D01*
X35503713Y-23967214D02*
X35432285Y-24038643D01*
X35503713Y-24110071D01*
X35575142Y-24038643D01*
X35503713Y-23967214D01*
X35503713Y-24110071D01*
X34146570Y-24038643D02*
X34289427Y-24110071D01*
X34575141Y-24110071D01*
X34717999Y-24038643D01*
X34789427Y-23967214D01*
X34860856Y-23824357D01*
X34860856Y-23395786D01*
X34789427Y-23252929D01*
X34717999Y-23181500D01*
X34575141Y-23110071D01*
X34289427Y-23110071D01*
X34146570Y-23181500D01*
X33289427Y-24110071D02*
X33432285Y-24038643D01*
X33503713Y-23967214D01*
X33575142Y-23824357D01*
X33575142Y-23395786D01*
X33503713Y-23252929D01*
X33432285Y-23181500D01*
X33289427Y-23110071D01*
X33075142Y-23110071D01*
X32932285Y-23181500D01*
X32860856Y-23252929D01*
X32789427Y-23395786D01*
X32789427Y-23824357D01*
X32860856Y-23967214D01*
X32932285Y-24038643D01*
X33075142Y-24110071D01*
X33289427Y-24110071D01*
X32146570Y-24110071D02*
X32146570Y-23110071D01*
X32146570Y-23252929D02*
X32075142Y-23181500D01*
X31932284Y-23110071D01*
X31717999Y-23110071D01*
X31575142Y-23181500D01*
X31503713Y-23324357D01*
X31503713Y-24110071D01*
X31503713Y-23324357D02*
X31432284Y-23181500D01*
X31289427Y-23110071D01*
X31075142Y-23110071D01*
X30932284Y-23181500D01*
X30860856Y-23324357D01*
X30860856Y-24110071D01*
X29075142Y-22538643D02*
X30360856Y-24467214D01*
X27932284Y-24110071D02*
X27932284Y-23324357D01*
X28003713Y-23181500D01*
X28146570Y-23110071D01*
X28432284Y-23110071D01*
X28575141Y-23181500D01*
X27932284Y-24038643D02*
X28075141Y-24110071D01*
X28432284Y-24110071D01*
X28575141Y-24038643D01*
X28646570Y-23895786D01*
X28646570Y-23752929D01*
X28575141Y-23610071D01*
X28432284Y-23538643D01*
X28075141Y-23538643D01*
X27932284Y-23467214D01*
X27217998Y-24110071D02*
X27217998Y-23110071D01*
X27217998Y-23395786D02*
X27146570Y-23252929D01*
X27075141Y-23181500D01*
X26932284Y-23110071D01*
X26789427Y-23110071D01*
X25646570Y-24110071D02*
X25646570Y-23324357D01*
X25717999Y-23181500D01*
X25860856Y-23110071D01*
X26146570Y-23110071D01*
X26289427Y-23181500D01*
X25646570Y-24038643D02*
X25789427Y-24110071D01*
X26146570Y-24110071D01*
X26289427Y-24038643D01*
X26360856Y-23895786D01*
X26360856Y-23752929D01*
X26289427Y-23610071D01*
X26146570Y-23538643D01*
X25789427Y-23538643D01*
X25646570Y-23467214D01*
X24932284Y-23110071D02*
X24932284Y-24110071D01*
X24932284Y-23252929D02*
X24860856Y-23181500D01*
X24717998Y-23110071D01*
X24503713Y-23110071D01*
X24360856Y-23181500D01*
X24289427Y-23324357D01*
X24289427Y-24110071D01*
X23789427Y-23110071D02*
X23217998Y-23110071D01*
X23575141Y-22610071D02*
X23575141Y-23895786D01*
X23503713Y-24038643D01*
X23360855Y-24110071D01*
X23217998Y-24110071D01*
X22717998Y-24110071D02*
X22717998Y-23110071D01*
X22717998Y-22610071D02*
X22789427Y-22681500D01*
X22717998Y-22752929D01*
X22646570Y-22681500D01*
X22717998Y-22610071D01*
X22717998Y-22752929D01*
X21360855Y-23110071D02*
X21360855Y-24110071D01*
X22003712Y-23110071D02*
X22003712Y-23895786D01*
X21932284Y-24038643D01*
X21789426Y-24110071D01*
X21575141Y-24110071D01*
X21432284Y-24038643D01*
X21360855Y-23967214D01*
X20717998Y-24038643D02*
X20575141Y-24110071D01*
X20289426Y-24110071D01*
X20146569Y-24038643D01*
X20075141Y-23895786D01*
X20075141Y-23824357D01*
X20146569Y-23681500D01*
X20289426Y-23610071D01*
X20503712Y-23610071D01*
X20646569Y-23538643D01*
X20717998Y-23395786D01*
X20717998Y-23324357D01*
X20646569Y-23181500D01*
X20503712Y-23110071D01*
X20289426Y-23110071D01*
X20146569Y-23181500D01*
X18360855Y-22538643D02*
X19646569Y-24467214D01*
X18003711Y-23110071D02*
X17646568Y-24110071D01*
X17289426Y-23110071D01*
X16932283Y-23110071D02*
X16360854Y-23110071D01*
X16717997Y-24110071D02*
X16717997Y-22824357D01*
X16646569Y-22681500D01*
X16503711Y-22610071D01*
X16360854Y-22610071D01*
X15217997Y-24110071D02*
X15217997Y-22610071D01*
X15217997Y-24038643D02*
X15360854Y-24110071D01*
X15646568Y-24110071D01*
X15789426Y-24038643D01*
X15860854Y-23967214D01*
X15932283Y-23824357D01*
X15932283Y-23395786D01*
X15860854Y-23252929D01*
X15789426Y-23181500D01*
X15646568Y-23110071D01*
X15360854Y-23110071D01*
X15217997Y-23181500D01*
X14503711Y-23538643D02*
X13360854Y-23538643D01*
X12003711Y-24038643D02*
X12146568Y-24110071D01*
X12432282Y-24110071D01*
X12575140Y-24038643D01*
X12646568Y-23967214D01*
X12717997Y-23824357D01*
X12717997Y-23395786D01*
X12646568Y-23252929D01*
X12575140Y-23181500D01*
X12432282Y-23110071D01*
X12146568Y-23110071D01*
X12003711Y-23181500D01*
X11146568Y-24110071D02*
X11289426Y-24038643D01*
X11360854Y-23895786D01*
X11360854Y-22610071D01*
X10360854Y-24110071D02*
X10503712Y-24038643D01*
X10575140Y-23967214D01*
X10646569Y-23824357D01*
X10646569Y-23395786D01*
X10575140Y-23252929D01*
X10503712Y-23181500D01*
X10360854Y-23110071D01*
X10146569Y-23110071D01*
X10003712Y-23181500D01*
X9932283Y-23252929D01*
X9860854Y-23395786D01*
X9860854Y-23824357D01*
X9932283Y-23967214D01*
X10003712Y-24038643D01*
X10146569Y-24110071D01*
X10360854Y-24110071D01*
X8575140Y-24038643D02*
X8717997Y-24110071D01*
X9003711Y-24110071D01*
X9146569Y-24038643D01*
X9217997Y-23967214D01*
X9289426Y-23824357D01*
X9289426Y-23395786D01*
X9217997Y-23252929D01*
X9146569Y-23181500D01*
X9003711Y-23110071D01*
X8717997Y-23110071D01*
X8575140Y-23181500D01*
X7932283Y-24110071D02*
X7932283Y-22610071D01*
X7789426Y-23538643D02*
X7360855Y-24110071D01*
X7360855Y-23110071D02*
X7932283Y-23681500D01*
D12*
X66384714Y-35542462D02*
X66185142Y-35621081D01*
X65852523Y-35621081D01*
X65719476Y-35542462D01*
X65652952Y-35463843D01*
X65586428Y-35306605D01*
X65586428Y-35149367D01*
X65652952Y-34992129D01*
X65719476Y-34913510D01*
X65852523Y-34834890D01*
X66118619Y-34756271D01*
X66251666Y-34677652D01*
X66318190Y-34599033D01*
X66384714Y-34441795D01*
X66384714Y-34284557D01*
X66318190Y-34127319D01*
X66251666Y-34048700D01*
X66118619Y-33970081D01*
X65785999Y-33970081D01*
X65586428Y-34048700D01*
X65120762Y-33970081D02*
X64788143Y-35621081D01*
X64522047Y-34441795D01*
X64255952Y-35621081D01*
X63923333Y-33970081D01*
X63391143Y-35621081D02*
X63391143Y-33970081D01*
X63058524Y-33970081D01*
X62858952Y-34048700D01*
X62725905Y-34205938D01*
X62659381Y-34363176D01*
X62592857Y-34677652D01*
X62592857Y-34913510D01*
X62659381Y-35227986D01*
X62725905Y-35385224D01*
X62858952Y-35542462D01*
X63058524Y-35621081D01*
X63391143Y-35621081D01*
X61994143Y-35621081D02*
X61994143Y-33970081D01*
X61062810Y-33970081D02*
X60796714Y-33970081D01*
X60663667Y-34048700D01*
X60530619Y-34205938D01*
X60464095Y-34520414D01*
X60464095Y-35070748D01*
X60530619Y-35385224D01*
X60663667Y-35542462D01*
X60796714Y-35621081D01*
X61062810Y-35621081D01*
X61195857Y-35542462D01*
X61328905Y-35385224D01*
X61395429Y-35070748D01*
X61395429Y-34520414D01*
X61328905Y-34205938D01*
X61195857Y-34048700D01*
X61062810Y-33970081D01*
X63391143Y-36614100D02*
X63524191Y-36535481D01*
X63723762Y-36535481D01*
X63923334Y-36614100D01*
X64056381Y-36771338D01*
X64122905Y-36928576D01*
X64189429Y-37243052D01*
X64189429Y-37478910D01*
X64122905Y-37793386D01*
X64056381Y-37950624D01*
X63923334Y-38107862D01*
X63723762Y-38186481D01*
X63590714Y-38186481D01*
X63391143Y-38107862D01*
X63324619Y-38029243D01*
X63324619Y-37478910D01*
X63590714Y-37478910D01*
X62725905Y-38186481D02*
X62725905Y-36535481D01*
X61927619Y-38186481D01*
X61927619Y-36535481D01*
X61262381Y-38186481D02*
X61262381Y-36535481D01*
X60929762Y-36535481D01*
X60730190Y-36614100D01*
X60597143Y-36771338D01*
X60530619Y-36928576D01*
X60464095Y-37243052D01*
X60464095Y-37478910D01*
X60530619Y-37793386D01*
X60597143Y-37950624D01*
X60730190Y-38107862D01*
X60929762Y-38186481D01*
X61262381Y-38186481D01*
X66783857Y-40673262D02*
X66584285Y-40751881D01*
X66251666Y-40751881D01*
X66118619Y-40673262D01*
X66052095Y-40594643D01*
X65985571Y-40437405D01*
X65985571Y-40280167D01*
X66052095Y-40122929D01*
X66118619Y-40044310D01*
X66251666Y-39965690D01*
X66517762Y-39887071D01*
X66650809Y-39808452D01*
X66717333Y-39729833D01*
X66783857Y-39572595D01*
X66783857Y-39415357D01*
X66717333Y-39258119D01*
X66650809Y-39179500D01*
X66517762Y-39100881D01*
X66185142Y-39100881D01*
X65985571Y-39179500D01*
X65519905Y-39100881D02*
X65187286Y-40751881D01*
X64921190Y-39572595D01*
X64655095Y-40751881D01*
X64322476Y-39100881D01*
X62992000Y-40594643D02*
X63058524Y-40673262D01*
X63258095Y-40751881D01*
X63391143Y-40751881D01*
X63590715Y-40673262D01*
X63723762Y-40516024D01*
X63790286Y-40358786D01*
X63856810Y-40044310D01*
X63856810Y-39808452D01*
X63790286Y-39493976D01*
X63723762Y-39336738D01*
X63590715Y-39179500D01*
X63391143Y-39100881D01*
X63258095Y-39100881D01*
X63058524Y-39179500D01*
X62992000Y-39258119D01*
X61728048Y-40751881D02*
X62393286Y-40751881D01*
X62393286Y-39100881D01*
X61262381Y-40751881D02*
X61262381Y-39100881D01*
X60464095Y-40751881D02*
X61062810Y-39808452D01*
X60464095Y-39100881D02*
X61262381Y-40044310D01*
X63723762Y-41666281D02*
X62858952Y-41666281D01*
X63324619Y-42295233D01*
X63125047Y-42295233D01*
X62992000Y-42373852D01*
X62925476Y-42452471D01*
X62858952Y-42609710D01*
X62858952Y-43002805D01*
X62925476Y-43160043D01*
X62992000Y-43238662D01*
X63125047Y-43317281D01*
X63524190Y-43317281D01*
X63657238Y-43238662D01*
X63723762Y-43160043D01*
X62393286Y-42216614D02*
X62060667Y-43317281D01*
X61728047Y-42216614D01*
X61328905Y-41666281D02*
X60464095Y-41666281D01*
X60929762Y-42295233D01*
X60730190Y-42295233D01*
X60597143Y-42373852D01*
X60530619Y-42452471D01*
X60464095Y-42609710D01*
X60464095Y-43002805D01*
X60530619Y-43160043D01*
X60597143Y-43238662D01*
X60730190Y-43317281D01*
X61129333Y-43317281D01*
X61262381Y-43238662D01*
X61328905Y-43160043D01*
X62858952Y-45882681D02*
X63324619Y-45096490D01*
X63657238Y-45882681D02*
X63657238Y-44231681D01*
X63125047Y-44231681D01*
X62992000Y-44310300D01*
X62925476Y-44388919D01*
X62858952Y-44546157D01*
X62858952Y-44782014D01*
X62925476Y-44939252D01*
X62992000Y-45017871D01*
X63125047Y-45096490D01*
X63657238Y-45096490D01*
X62326762Y-45804062D02*
X62127190Y-45882681D01*
X61794571Y-45882681D01*
X61661524Y-45804062D01*
X61595000Y-45725443D01*
X61528476Y-45568205D01*
X61528476Y-45410967D01*
X61595000Y-45253729D01*
X61661524Y-45175110D01*
X61794571Y-45096490D01*
X62060667Y-45017871D01*
X62193714Y-44939252D01*
X62260238Y-44860633D01*
X62326762Y-44703395D01*
X62326762Y-44546157D01*
X62260238Y-44388919D01*
X62193714Y-44310300D01*
X62060667Y-44231681D01*
X61728047Y-44231681D01*
X61528476Y-44310300D01*
X61129333Y-44231681D02*
X60331048Y-44231681D01*
X60730191Y-45882681D02*
X60730191Y-44231681D01*
D13*
X78554580Y-27393900D02*
X78554580Y-38392100D01*
X78554580Y-38392100D02*
X71559420Y-38392100D01*
X71559420Y-27393900D02*
X71559420Y-38392100D01*
X78554580Y-27393900D02*
X71559420Y-27393900D01*
D14*
X67058540Y-21894800D02*
X67058540Y-26893520D01*
X67058540Y-26893520D02*
X67058540Y-38892480D01*
X67058540Y-38892480D02*
X67058540Y-42392600D01*
X67058540Y-42392600D02*
X68458080Y-43891200D01*
X68458080Y-43891200D02*
X71549260Y-43891200D01*
X71549260Y-43891200D02*
X78564740Y-43891200D01*
X78564740Y-43891200D02*
X83055460Y-43891200D01*
X83055460Y-43891200D02*
X83055460Y-38892480D01*
X83055460Y-38892480D02*
X83055460Y-26893520D01*
X83055460Y-26893520D02*
X83055460Y-21894800D01*
X83055460Y-21894800D02*
X78564740Y-21894800D01*
X78564740Y-21894800D02*
X71549260Y-21894800D01*
X71549260Y-21894800D02*
X67058540Y-21894800D01*
X71549260Y-43891200D02*
X71549260Y-47091600D01*
X71549260Y-47091600D02*
X73258680Y-47091600D01*
X76855320Y-47091600D02*
X78564740Y-47091600D01*
X78564740Y-47091600D02*
X78564740Y-43891200D01*
X71549260Y-21894800D02*
X71549260Y-18694400D01*
X71549260Y-18694400D02*
X73258680Y-18694400D01*
X76855320Y-18694400D02*
X78564740Y-18694400D01*
X78564740Y-18694400D02*
X78564740Y-21894800D01*
X73258680Y-18694400D02*
X76855320Y-18694400D01*
X73258680Y-47091600D02*
X76855320Y-47091600D01*
X83055602Y-38892291D02*
G75*
G02X67058540Y-38892480I-7998602J6027231D01*
G01*
X67058398Y-26893709D02*
G75*
G02X83055460Y-26893520I7998602J-6027231D01*
G01*
D15*
X116903827Y-42601498D02*
X116243916Y-42220498D01*
X116243916Y-42220498D02*
X120561916Y-34741502D01*
X120561916Y-34741502D02*
X121221827Y-35122502D01*
X119543473Y-44125498D02*
X123861473Y-36646502D01*
X127902350Y-48951498D02*
X132220350Y-41472502D01*
X121221827Y-35122502D02*
X132220350Y-41472502D01*
X116903827Y-42601498D02*
X127902350Y-48951498D01*
X134038488Y-42181909D02*
X139118488Y-33383091D01*
X132278724Y-41165909D02*
X143057276Y-47388909D01*
X143057276Y-47388909D02*
X148137276Y-38590091D01*
X148137276Y-38590091D02*
X137358724Y-32367091D01*
X137358724Y-32367091D02*
X132278724Y-41165909D01*
X57124000Y-45085000D02*
X57124000Y-46635000D01*
X57124000Y-46635000D02*
X60224000Y-46635000D01*
X60224000Y-46635000D02*
X60224000Y-45085000D01*
X59944000Y-43815000D02*
X59944000Y-33655000D01*
X59944000Y-33655000D02*
X57404000Y-33655000D01*
X57404000Y-33655000D02*
X57404000Y-43815000D01*
X59944000Y-43815000D02*
X57404000Y-43815000D01*
X53594000Y-41275000D02*
X53594000Y-33655000D01*
X56134000Y-41275000D02*
X56134000Y-33655000D01*
X56414000Y-44095000D02*
X56414000Y-42545000D01*
X53594000Y-33655000D02*
X56134000Y-33655000D01*
X56134000Y-41275000D02*
X53594000Y-41275000D01*
X53314000Y-42545000D02*
X53314000Y-44095000D01*
X53314000Y-44095000D02*
X56414000Y-44095000D01*
X91932760Y-42164000D02*
G75*
G03X91932760Y-42164000I-1000760J0D01*
G01*
X97132140Y-42164000D02*
G75*
G03X97132140Y-42164000I-6200140J0D01*
G01*
X9080405Y-39457381D02*
X9080405Y-40266905D01*
X9032786Y-40362143D01*
X8985167Y-40409762D01*
X8889929Y-40457381D01*
X8699452Y-40457381D01*
X8604214Y-40409762D01*
X8556595Y-40362143D01*
X8508976Y-40266905D01*
X8508976Y-39457381D01*
X7508976Y-40457381D02*
X8080405Y-40457381D01*
X7794691Y-40457381D02*
X7794691Y-39457381D01*
X7889929Y-39600238D01*
X7985167Y-39695476D01*
X8080405Y-39743095D01*
X99337762Y-40902095D02*
X99385381Y-41044952D01*
X99385381Y-41283048D01*
X99337762Y-41378286D01*
X99290143Y-41425905D01*
X99194905Y-41473524D01*
X99099667Y-41473524D01*
X99004429Y-41425905D01*
X98956810Y-41378286D01*
X98909190Y-41283048D01*
X98861571Y-41092571D01*
X98813952Y-40997333D01*
X98766333Y-40949714D01*
X98671095Y-40902095D01*
X98575857Y-40902095D01*
X98480619Y-40949714D01*
X98433000Y-40997333D01*
X98385381Y-41092571D01*
X98385381Y-41330667D01*
X98433000Y-41473524D01*
X99385381Y-41902095D02*
X98385381Y-41902095D01*
X98385381Y-42283048D01*
X98433000Y-42378286D01*
X98480619Y-42425905D01*
X98575857Y-42473524D01*
X98718714Y-42473524D01*
X98813952Y-42425905D01*
X98861571Y-42378286D01*
X98909190Y-42283048D01*
X98909190Y-41902095D01*
X99385381Y-43425905D02*
X99385381Y-42854476D01*
X99385381Y-43140190D02*
X98385381Y-43140190D01*
X98528238Y-43044952D01*
X98623476Y-42949714D01*
X98671095Y-42854476D01*
X93543429Y-45593048D02*
X93543429Y-46354953D01*
X93924381Y-45974001D02*
X93162476Y-45974001D01*
%LPC*%
D16*
X2540000Y-32385000D03*
D17*
X5080000Y-32385000D03*
X7620000Y-32385000D03*
X10160000Y-32385000D03*
X12700000Y-32385000D03*
X15240000Y-32385000D03*
X17780000Y-32385000D03*
X20320000Y-32385000D03*
X22860000Y-32385000D03*
X25400000Y-32385000D03*
X27940000Y-32385000D03*
X30480000Y-32385000D03*
X33020000Y-32385000D03*
X35560000Y-32385000D03*
X38100000Y-32385000D03*
X40640000Y-32385000D03*
X43180000Y-32385000D03*
X45720000Y-32385000D03*
X48260000Y-32385000D03*
X50800000Y-32385000D03*
X50800000Y-47625000D03*
X48260000Y-47625000D03*
X45720000Y-47625000D03*
X43180000Y-47625000D03*
X40640000Y-47625000D03*
X38100000Y-47625000D03*
X35560000Y-47625000D03*
X33020000Y-47625000D03*
X30480000Y-47625000D03*
X27940000Y-47625000D03*
X25400000Y-47625000D03*
X22860000Y-47625000D03*
X20320000Y-47625000D03*
X17780000Y-47625000D03*
X15240000Y-47625000D03*
X12700000Y-47625000D03*
X10160000Y-47625000D03*
X7620000Y-47625000D03*
X5080000Y-47625000D03*
X2540000Y-47625000D03*
D18*
X75057000Y-47541180D03*
X75057000Y-18244820D03*
D19*
X116840000Y-37338000D03*
D20*
X118840000Y-37338000D03*
D19*
X116840000Y-43434000D03*
D20*
X118840000Y-43434000D03*
D19*
X96266000Y-42672000D03*
D20*
X94266000Y-42672000D03*
D19*
X96266000Y-35052000D03*
D20*
X94266000Y-35052000D03*
D21*
X125222000Y-42418000D03*
D10*
G36*
X127222420Y-46344571D02*
X129622720Y-42187129D01*
X133780162Y-44587429D01*
X131379862Y-48744871D01*
X127222420Y-46344571D01*
X127222420Y-46344571D01*
G37*
D21*
X129741734Y-39161591D03*
D22*
X134808384Y-42626409D03*
X139888384Y-33827591D03*
X139977690Y-45610909D03*
X145057690Y-36812091D03*
X143882776Y-45959101D03*
X147311776Y-40019899D03*
X142517690Y-41211500D03*
X139548089Y-39497000D03*
D23*
X102108000Y-42164000D03*
D24*
X102108000Y-47244000D03*
D25*
X117856000Y-33147000D03*
X107696000Y-33147000D03*
D26*
X12895580Y-45110400D03*
X14993620Y-45110400D03*
D27*
X58674000Y-45085000D03*
D28*
X58674000Y-42545000D03*
X58674000Y-40005000D03*
X58674000Y-37465000D03*
X58674000Y-34925000D03*
D27*
X54864000Y-42545000D03*
D28*
X54864000Y-40005000D03*
X54864000Y-37465000D03*
X54864000Y-34925000D03*
D29*
X90932000Y-45963840D03*
X90932000Y-38364160D03*
M02*
