%FSLAX46Y46*%
G04 Gerber Fmt 4.6, Leading zero omitted, Abs format (unit mm)*
G04 Created by KiCad (PCBNEW (2014-10-27 BZR 5228)-product) date 7/25/2015 10:05:20 AM*
%MOMM*%
G01*
G04 APERTURE LIST*
%ADD10C,0.100000*%
%ADD11R,1.400000X1.900000*%
%ADD12O,1.400000X1.900000*%
%ADD13R,3.599180X2.598420*%
%ADD14R,1.300000X1.300000*%
%ADD15C,1.300000*%
%ADD16C,4.800600*%
%ADD17C,2.286000*%
%ADD18R,1.905000X1.905000*%
%ADD19C,1.905000*%
%ADD20C,1.998980*%
%ADD21O,1.501140X1.000760*%
%ADD22R,2.032000X1.727200*%
%ADD23O,2.032000X1.727200*%
%ADD24C,2.000000*%
G04 APERTURE END LIST*
D10*
D11*
X2540000Y-32385000D03*
D12*
X5080000Y-32385000D03*
X7620000Y-32385000D03*
X10160000Y-32385000D03*
X12700000Y-32385000D03*
X15240000Y-32385000D03*
X17780000Y-32385000D03*
X20320000Y-32385000D03*
X22860000Y-32385000D03*
X25400000Y-32385000D03*
X27940000Y-32385000D03*
X30480000Y-32385000D03*
X33020000Y-32385000D03*
X35560000Y-32385000D03*
X38100000Y-32385000D03*
X40640000Y-32385000D03*
X43180000Y-32385000D03*
X45720000Y-32385000D03*
X48260000Y-32385000D03*
X50800000Y-32385000D03*
X50800000Y-47625000D03*
X48260000Y-47625000D03*
X45720000Y-47625000D03*
X43180000Y-47625000D03*
X40640000Y-47625000D03*
X38100000Y-47625000D03*
X35560000Y-47625000D03*
X33020000Y-47625000D03*
X30480000Y-47625000D03*
X27940000Y-47625000D03*
X25400000Y-47625000D03*
X22860000Y-47625000D03*
X20320000Y-47625000D03*
X17780000Y-47625000D03*
X15240000Y-47625000D03*
X12700000Y-47625000D03*
X10160000Y-47625000D03*
X7620000Y-47625000D03*
X5080000Y-47625000D03*
X2540000Y-47625000D03*
D13*
X75057000Y-47541180D03*
X75057000Y-18244820D03*
D14*
X116840000Y-37338000D03*
D15*
X118840000Y-37338000D03*
D14*
X116840000Y-43434000D03*
D15*
X118840000Y-43434000D03*
D14*
X96266000Y-42672000D03*
D15*
X94266000Y-42672000D03*
D14*
X96266000Y-35052000D03*
D15*
X94266000Y-35052000D03*
D16*
X125222000Y-42418000D03*
D10*
G36*
X127222420Y-46344571D02*
X129622720Y-42187129D01*
X133780162Y-44587429D01*
X131379862Y-48744871D01*
X127222420Y-46344571D01*
X127222420Y-46344571D01*
G37*
D16*
X129741734Y-39161591D03*
D17*
X134808384Y-42626409D03*
X139888384Y-33827591D03*
X139977690Y-45610909D03*
X145057690Y-36812091D03*
X143882776Y-45959101D03*
X147311776Y-40019899D03*
X142517690Y-41211500D03*
X139548089Y-39497000D03*
D18*
X102108000Y-42164000D03*
D19*
X102108000Y-47244000D03*
D20*
X117856000Y-33147000D03*
X107696000Y-33147000D03*
D21*
X12895580Y-45110400D03*
X14993620Y-45110400D03*
D22*
X58674000Y-45085000D03*
D23*
X58674000Y-42545000D03*
X58674000Y-40005000D03*
X58674000Y-37465000D03*
X58674000Y-34925000D03*
D22*
X54864000Y-42545000D03*
D23*
X54864000Y-40005000D03*
X54864000Y-37465000D03*
X54864000Y-34925000D03*
D24*
X90932000Y-45963840D03*
X90932000Y-38364160D03*
M02*
