%FSLAX46Y46*%
G04 Gerber Fmt 4.6, Leading zero omitted, Abs format (unit mm)*
G04 Created by KiCad (PCBNEW (2014-10-27 BZR 5228)-product) date 7/21/2015 6:10:09 PM*
%MOMM*%
G01*
G04 APERTURE LIST*
%ADD10C,0.100000*%
%ADD11R,3.599180X2.598420*%
%ADD12R,1.300000X1.300000*%
%ADD13C,1.300000*%
%ADD14C,4.800600*%
%ADD15R,4.800600X4.800600*%
%ADD16C,2.286000*%
%ADD17R,1.905000X1.905000*%
%ADD18C,1.905000*%
%ADD19C,1.998980*%
%ADD20R,1.400000X1.900000*%
%ADD21O,1.400000X1.900000*%
%ADD22C,1.000760*%
%ADD23R,2.032000X1.727200*%
%ADD24O,2.032000X1.727200*%
%ADD25C,2.000000*%
%ADD26C,1.778000*%
%ADD27C,0.889000*%
%ADD28C,0.600000*%
%ADD29C,0.508000*%
%ADD30C,0.254000*%
G04 APERTURE END LIST*
D10*
D11*
X74993500Y-47668180D03*
X74993500Y-18371820D03*
D12*
X116840000Y-37338000D03*
D13*
X118840000Y-37338000D03*
D12*
X116840000Y-43434000D03*
D13*
X118840000Y-43434000D03*
D12*
X96266000Y-42672000D03*
D13*
X94266000Y-42672000D03*
D12*
X96266000Y-35052000D03*
D13*
X94266000Y-35052000D03*
D14*
X131826000Y-41656000D03*
D15*
X125730000Y-41656000D03*
D14*
X129540000Y-46736000D03*
D16*
X137160000Y-46736000D03*
X137160000Y-36576000D03*
X143129000Y-46736000D03*
X143129000Y-36576000D03*
X146685000Y-45085000D03*
X146685000Y-38227000D03*
X143129000Y-41656000D03*
X139700000Y-41656000D03*
D17*
X102108000Y-42164000D03*
D18*
X102108000Y-47244000D03*
D19*
X117856000Y-33147000D03*
X107696000Y-33147000D03*
D20*
X2540000Y-32385000D03*
D21*
X5080000Y-32385000D03*
X7620000Y-32385000D03*
X10160000Y-32385000D03*
X12700000Y-32385000D03*
X15240000Y-32385000D03*
X17780000Y-32385000D03*
X20320000Y-32385000D03*
X22860000Y-32385000D03*
X25400000Y-32385000D03*
X27940000Y-32385000D03*
X30480000Y-32385000D03*
X33020000Y-32385000D03*
X35560000Y-32385000D03*
X38100000Y-32385000D03*
X40640000Y-32385000D03*
X43180000Y-32385000D03*
X45720000Y-32385000D03*
X48260000Y-32385000D03*
X50800000Y-32385000D03*
X50800000Y-47625000D03*
X48260000Y-47625000D03*
X45720000Y-47625000D03*
X43180000Y-47625000D03*
X40640000Y-47625000D03*
X38100000Y-47625000D03*
X35560000Y-47625000D03*
X33020000Y-47625000D03*
X30480000Y-47625000D03*
X27940000Y-47625000D03*
X25400000Y-47625000D03*
X22860000Y-47625000D03*
X20320000Y-47625000D03*
X17780000Y-47625000D03*
X15240000Y-47625000D03*
X12700000Y-47625000D03*
X10160000Y-47625000D03*
X7620000Y-47625000D03*
X5080000Y-47625000D03*
X2540000Y-47625000D03*
D22*
X6701320Y-44606680D02*
X7055142Y-44252858D01*
X8184858Y-43123142D02*
X8538680Y-42769320D01*
D23*
X58674000Y-45085000D03*
D24*
X58674000Y-42545000D03*
X58674000Y-40005000D03*
X58674000Y-37465000D03*
X58674000Y-34925000D03*
D25*
X91376500Y-45963840D03*
X91376500Y-38364160D03*
D23*
X54864000Y-42545000D03*
D24*
X54864000Y-40005000D03*
X54864000Y-37465000D03*
X54864000Y-34925000D03*
D26*
X8498840Y-19428460D03*
X6748780Y-15928340D03*
X6748780Y-11430000D03*
X6748780Y-6931660D03*
X8498840Y-3431540D03*
X12496800Y-2430780D03*
X16494760Y-3431540D03*
X18244820Y-6931660D03*
X18244820Y-11430000D03*
X18244820Y-15928340D03*
X16494760Y-19428460D03*
X12496800Y-20429220D03*
X33500060Y-19428460D03*
X31750000Y-15928340D03*
X31750000Y-11430000D03*
X31750000Y-6931660D03*
X33500060Y-3431540D03*
X37498020Y-2430780D03*
X41495980Y-3431540D03*
X43246040Y-6931660D03*
X43246040Y-11430000D03*
X43246040Y-15928340D03*
X41495980Y-19428460D03*
X37498020Y-20429220D03*
X58486040Y-19428460D03*
X56735980Y-15928340D03*
X56735980Y-11430000D03*
X56735980Y-6931660D03*
X58486040Y-3431540D03*
X62484000Y-2430780D03*
X66481960Y-3431540D03*
X68232020Y-6931660D03*
X68232020Y-11430000D03*
X68232020Y-15928340D03*
X66481960Y-19428460D03*
X62484000Y-20429220D03*
X83505040Y-19428460D03*
X81754980Y-15928340D03*
X81754980Y-11430000D03*
X81754980Y-6931660D03*
X83505040Y-3431540D03*
X87503000Y-2430780D03*
X91500960Y-3431540D03*
X93251020Y-6931660D03*
X93251020Y-11430000D03*
X93251020Y-15928340D03*
X91500960Y-19428460D03*
X87503000Y-20429220D03*
X108498640Y-19428460D03*
X106748580Y-15928340D03*
X106748580Y-11430000D03*
X106748580Y-6931660D03*
X108498640Y-3431540D03*
X112496600Y-2430780D03*
X116494560Y-3431540D03*
X118244620Y-6931660D03*
X118244620Y-11430000D03*
X118244620Y-15928340D03*
X116494560Y-19428460D03*
X112496600Y-20429220D03*
X133492240Y-19428460D03*
X131742180Y-15928340D03*
X131742180Y-11430000D03*
X131742180Y-6931660D03*
X133492240Y-3431540D03*
X137490200Y-2430780D03*
X141488160Y-3431540D03*
X143238220Y-6931660D03*
X143238220Y-11430000D03*
X143238220Y-15928340D03*
X141488160Y-19428460D03*
X137490200Y-20429220D03*
D27*
X19558000Y-23215600D03*
X27432000Y-40259000D03*
X24765000Y-39116000D03*
X32385000Y-35687000D03*
X18034000Y-35179000D03*
X12636500Y-40259000D03*
X87122000Y-38608000D03*
X140665200Y-26822400D03*
X118999000Y-28956000D03*
X93675200Y-28737560D03*
X68707000Y-28829000D03*
X72517000Y-37465000D03*
X43180000Y-28702000D03*
X133032500Y-24765000D03*
X108013500Y-24765000D03*
X83058000Y-24765000D03*
X58039000Y-24765000D03*
X33083500Y-24765000D03*
X8064500Y-24765000D03*
X91948000Y-43942000D03*
X18161000Y-44069000D03*
X25781000Y-42545000D03*
X36195000Y-44069000D03*
X49149000Y-38735000D03*
X50546000Y-36195000D03*
X37338000Y-45339000D03*
X26289000Y-45339000D03*
X8001000Y-29337000D03*
X20637500Y-38417500D03*
D28*
X134315200Y-26314400D03*
X9321800Y-26314400D03*
X109321600Y-26314400D03*
X84328000Y-26314400D03*
X59309000Y-26314400D03*
X34323020Y-26314400D03*
X19050000Y-26314400D03*
X135585200Y-27025600D03*
X10591800Y-27025600D03*
X110591600Y-27025600D03*
X85598000Y-27025600D03*
X60579000Y-27025600D03*
X35593020Y-27025600D03*
X21590000Y-27025600D03*
X11861800Y-25603200D03*
X136855200Y-25603200D03*
X111861600Y-25603200D03*
X86868000Y-25603200D03*
X61849000Y-25603200D03*
X36863020Y-25603200D03*
X24130000Y-25603200D03*
X13131800Y-27736800D03*
X138125200Y-27736800D03*
X113131600Y-27736800D03*
X38133020Y-27736800D03*
X88138000Y-27736800D03*
X63119000Y-27736800D03*
X6807200Y-27736800D03*
D27*
X33020000Y-29337000D03*
X21717000Y-35687000D03*
X19812000Y-44196000D03*
X51689000Y-37465000D03*
X13716000Y-41529000D03*
X12636500Y-42799000D03*
D29*
X19558000Y-23215600D02*
X19558000Y-22479000D01*
X19558000Y-22479000D02*
X18542000Y-21463000D01*
X24765000Y-39116000D02*
X27432000Y-40259000D01*
X56134000Y-36195000D02*
X57404000Y-36195000D01*
X57404000Y-36195000D02*
X58674000Y-37465000D01*
X54864000Y-34925000D02*
X56134000Y-36195000D01*
X91239340Y-38227000D02*
X87122000Y-38608000D01*
X91376500Y-38364160D02*
X91239340Y-38227000D01*
X140665200Y-36118800D02*
X139700000Y-37084000D01*
X139700000Y-37084000D02*
X139700000Y-41656000D01*
X140665200Y-26822400D02*
X140665200Y-36118800D01*
X118999000Y-28956000D02*
X120015000Y-29972000D01*
X120015000Y-29972000D02*
X120015000Y-36163000D01*
X120015000Y-36163000D02*
X118840000Y-37338000D01*
X93675200Y-28737560D02*
X94266000Y-29328360D01*
X94266000Y-29328360D02*
X94266000Y-35052000D01*
X68707000Y-28829000D02*
X72517000Y-32639000D01*
X72517000Y-32639000D02*
X72517000Y-37465000D01*
X51308000Y-28702000D02*
X54864000Y-32258000D01*
X54864000Y-32258000D02*
X54864000Y-34925000D01*
X43180000Y-28702000D02*
X51308000Y-28702000D01*
X18542000Y-21463000D02*
X13530580Y-21463000D01*
X13530580Y-21463000D02*
X12496800Y-20429220D01*
X146685000Y-45085000D02*
X146685000Y-38227000D01*
X133032500Y-24765000D02*
X108013500Y-24765000D01*
X108013500Y-24765000D02*
X83058000Y-24765000D01*
X83058000Y-24765000D02*
X58039000Y-24765000D01*
X58039000Y-24765000D02*
X33083500Y-24765000D01*
X33083500Y-24765000D02*
X8064500Y-24765000D01*
X142621000Y-24765000D02*
X133032500Y-24765000D01*
X146685000Y-28829000D02*
X142621000Y-24765000D01*
X146685000Y-38227000D02*
X146685000Y-28829000D01*
X58674000Y-42545000D02*
X90551000Y-42545000D01*
X90551000Y-42545000D02*
X91948000Y-43942000D01*
X17272000Y-44958000D02*
X8699500Y-44958000D01*
X8699500Y-44958000D02*
X7810500Y-45847000D01*
X17272000Y-44958000D02*
X18161000Y-44069000D01*
X4318000Y-45847000D02*
X7810500Y-45847000D01*
X2540000Y-47625000D02*
X4318000Y-45847000D01*
X27305000Y-44069000D02*
X25781000Y-42545000D01*
X36195000Y-44069000D02*
X27305000Y-44069000D01*
D30*
X25400000Y-33655000D02*
X26289002Y-34544002D01*
X26289002Y-34544002D02*
X35012154Y-34544002D01*
X35012154Y-34544002D02*
X36028158Y-35560006D01*
X36028158Y-35560006D02*
X48133006Y-35560006D01*
X48133006Y-35560006D02*
X49149000Y-36576000D01*
X49149000Y-36576000D02*
X49149000Y-38735000D01*
X25400000Y-32385000D02*
X25400000Y-33655000D01*
X49403004Y-35052004D02*
X50546000Y-36195000D01*
X36238580Y-35052004D02*
X49403004Y-35052004D01*
X35222576Y-34036000D02*
X36238580Y-35052004D01*
X28321000Y-34036000D02*
X35222576Y-34036000D01*
X27940000Y-33655000D02*
X27940000Y-32385000D01*
X27940000Y-33655000D02*
X28321000Y-34036000D01*
X37338000Y-45339000D02*
X26289000Y-45339000D01*
D29*
X73385680Y-49276000D02*
X8001000Y-49276000D01*
X8001000Y-49276000D02*
X7620000Y-48895000D01*
X7620000Y-48895000D02*
X7620000Y-47625000D01*
X74993500Y-47668180D02*
X73385680Y-49276000D01*
X30863540Y-3431540D02*
X37498020Y-10066020D01*
X37498020Y-10066020D02*
X37498020Y-20429220D01*
X16494760Y-3431540D02*
X30863540Y-3431540D01*
X55882540Y-3431540D02*
X62484000Y-10033000D01*
X62484000Y-10033000D02*
X62484000Y-20429220D01*
X41495980Y-3431540D02*
X55882540Y-3431540D01*
X80901540Y-3431540D02*
X66481960Y-3431540D01*
X80901540Y-3431540D02*
X87503000Y-10033000D01*
X87503000Y-20429220D02*
X87503000Y-10033000D01*
X112496600Y-10007600D02*
X105920540Y-3431540D01*
X105920540Y-3431540D02*
X91500960Y-3431540D01*
X112496600Y-20429220D02*
X112496600Y-10007600D01*
X116494560Y-3431540D02*
X130939540Y-3431540D01*
X130939540Y-3431540D02*
X137490200Y-9982200D01*
X137490200Y-9982200D02*
X137490200Y-20429220D01*
D30*
X19050000Y-36830000D02*
X19050000Y-30226000D01*
X18161000Y-29337000D02*
X8001000Y-29337000D01*
X19050000Y-30226000D02*
X18161000Y-29337000D01*
X20637500Y-38417500D02*
X19050000Y-36830000D01*
X109321600Y-26314400D02*
X134315200Y-26314400D01*
X84328000Y-26314400D02*
X109321600Y-26314400D01*
X59309000Y-26314400D02*
X84328000Y-26314400D01*
X34323020Y-26314400D02*
X59309000Y-26314400D01*
X19050000Y-26314400D02*
X34323020Y-26314400D01*
X9321800Y-26314400D02*
X19050000Y-26314400D01*
X110591600Y-27025600D02*
X135585200Y-27025600D01*
X85598000Y-27025600D02*
X110591600Y-27025600D01*
X60579000Y-27025600D02*
X85598000Y-27025600D01*
X35593020Y-27025600D02*
X60579000Y-27025600D01*
X21590000Y-27025600D02*
X35593020Y-27025600D01*
X10591800Y-27025600D02*
X21590000Y-27025600D01*
X111861600Y-25603200D02*
X136855200Y-25603200D01*
X86868000Y-25603200D02*
X111861600Y-25603200D01*
X61849000Y-25603200D02*
X86868000Y-25603200D01*
X36863020Y-25603200D02*
X61849000Y-25603200D01*
X24130000Y-25603200D02*
X36863020Y-25603200D01*
X11861800Y-25603200D02*
X24130000Y-25603200D01*
X113131600Y-27736800D02*
X138125200Y-27736800D01*
X88138000Y-27736800D02*
X113131600Y-27736800D01*
X63119000Y-27736800D02*
X88138000Y-27736800D01*
X38133020Y-27736800D02*
X63119000Y-27736800D01*
X13131800Y-27736800D02*
X38133020Y-27736800D01*
X6807200Y-27736800D02*
X13131800Y-27736800D01*
X21717000Y-35687000D02*
X21590000Y-35560000D01*
X22479000Y-29337000D02*
X33020000Y-29337000D01*
X21590000Y-30226000D02*
X22479000Y-29337000D01*
X21590000Y-35560000D02*
X21590000Y-30226000D01*
X20320000Y-44704000D02*
X20320000Y-47625000D01*
X20320000Y-44704000D02*
X19812000Y-44196000D01*
X38100000Y-33655000D02*
X38481000Y-34036000D01*
X38481000Y-34036000D02*
X52070000Y-34036000D01*
X52070000Y-34036000D02*
X52832000Y-34798000D01*
X52832000Y-34798000D02*
X52832000Y-39243000D01*
X52832000Y-39243000D02*
X53594000Y-40005000D01*
X53594000Y-40005000D02*
X54864000Y-40005000D01*
X38100000Y-32385000D02*
X38100000Y-33655000D01*
X35560000Y-33655000D02*
X36449002Y-34544002D01*
X36449002Y-34544002D02*
X51054002Y-34544002D01*
X51054002Y-34544002D02*
X51689000Y-35179000D01*
X51689000Y-35179000D02*
X51689000Y-37465000D01*
X35560000Y-32385000D02*
X35560000Y-33655000D01*
X22193250Y-37052250D02*
X21177250Y-37052250D01*
X21177250Y-37052250D02*
X20320000Y-36195000D01*
X23050500Y-38671500D02*
X23050500Y-37909500D01*
X23050500Y-37909500D02*
X22193250Y-37052250D01*
X20320000Y-32385000D02*
X20320000Y-36195000D01*
X23050500Y-38671500D02*
X21717000Y-40005000D01*
X21717000Y-40005000D02*
X15240000Y-40005000D01*
X15240000Y-40005000D02*
X13716000Y-41529000D01*
X2286000Y-41275000D02*
X1270000Y-40259000D01*
X41495980Y-19428460D02*
X38463220Y-22461220D01*
X22461220Y-22461220D02*
X17653000Y-17653000D01*
X17653000Y-17653000D02*
X3937000Y-17653000D01*
X12636500Y-42799000D02*
X11049000Y-42799000D01*
X11049000Y-42799000D02*
X9525000Y-41275000D01*
X9525000Y-41275000D02*
X2286000Y-41275000D01*
X38463220Y-22461220D02*
X22461220Y-22461220D01*
X1270000Y-20320000D02*
X3937000Y-17653000D01*
X1270000Y-40259000D02*
X1270000Y-20320000D01*
X44673520Y-22606000D02*
X88323420Y-22606000D01*
X88323420Y-22606000D02*
X91500960Y-19428460D01*
X41495980Y-19428460D02*
X44673520Y-22606000D01*
G36*
X149569000Y-49569000D02*
X148209264Y-49569000D01*
X148209264Y-44783188D01*
X147977738Y-44222851D01*
X147549404Y-43793769D01*
X147320000Y-43698512D01*
X147320000Y-39613593D01*
X147547149Y-39519738D01*
X147976231Y-39091404D01*
X148208735Y-38531472D01*
X148209264Y-37925188D01*
X147977738Y-37364851D01*
X147549404Y-36935769D01*
X147320000Y-36840512D01*
X147320000Y-28829000D01*
X147271664Y-28585996D01*
X147134013Y-28379987D01*
X144508440Y-25754414D01*
X144508440Y-15676830D01*
X144508440Y-11178490D01*
X144508440Y-6680150D01*
X144315502Y-6213202D01*
X143958557Y-5855634D01*
X143491947Y-5661881D01*
X142986710Y-5661440D01*
X142758380Y-5755783D01*
X142758380Y-3180030D01*
X142565442Y-2713082D01*
X142208497Y-2355514D01*
X141741887Y-2161761D01*
X141236650Y-2161320D01*
X140769702Y-2354258D01*
X140412134Y-2711203D01*
X140218381Y-3177813D01*
X140217940Y-3683050D01*
X140410878Y-4149998D01*
X140767823Y-4507566D01*
X141234433Y-4701319D01*
X141739670Y-4701760D01*
X142206618Y-4508822D01*
X142564186Y-4151877D01*
X142757939Y-3685267D01*
X142758380Y-3180030D01*
X142758380Y-5755783D01*
X142519762Y-5854378D01*
X142162194Y-6211323D01*
X141968441Y-6677933D01*
X141968000Y-7183170D01*
X142160938Y-7650118D01*
X142517883Y-8007686D01*
X142984493Y-8201439D01*
X143489730Y-8201880D01*
X143956678Y-8008942D01*
X144314246Y-7651997D01*
X144507999Y-7185387D01*
X144508440Y-6680150D01*
X144508440Y-11178490D01*
X144315502Y-10711542D01*
X143958557Y-10353974D01*
X143491947Y-10160221D01*
X142986710Y-10159780D01*
X142519762Y-10352718D01*
X142162194Y-10709663D01*
X141968441Y-11176273D01*
X141968000Y-11681510D01*
X142160938Y-12148458D01*
X142517883Y-12506026D01*
X142984493Y-12699779D01*
X143489730Y-12700220D01*
X143956678Y-12507282D01*
X144314246Y-12150337D01*
X144507999Y-11683727D01*
X144508440Y-11178490D01*
X144508440Y-15676830D01*
X144315502Y-15209882D01*
X143958557Y-14852314D01*
X143491947Y-14658561D01*
X142986710Y-14658120D01*
X142519762Y-14851058D01*
X142162194Y-15208003D01*
X141968441Y-15674613D01*
X141968000Y-16179850D01*
X142160938Y-16646798D01*
X142517883Y-17004366D01*
X142984493Y-17198119D01*
X143489730Y-17198560D01*
X143956678Y-17005622D01*
X144314246Y-16648677D01*
X144507999Y-16182067D01*
X144508440Y-15676830D01*
X144508440Y-25754414D01*
X143070013Y-24315987D01*
X142864004Y-24178336D01*
X142758380Y-24157326D01*
X142758380Y-19176950D01*
X142565442Y-18710002D01*
X142208497Y-18352434D01*
X141741887Y-18158681D01*
X141236650Y-18158240D01*
X140769702Y-18351178D01*
X140412134Y-18708123D01*
X140218381Y-19174733D01*
X140217940Y-19679970D01*
X140410878Y-20146918D01*
X140767823Y-20504486D01*
X141234433Y-20698239D01*
X141739670Y-20698680D01*
X142206618Y-20505742D01*
X142564186Y-20148797D01*
X142757939Y-19682187D01*
X142758380Y-19176950D01*
X142758380Y-24157326D01*
X142621000Y-24130000D01*
X138760420Y-24130000D01*
X138760420Y-20177710D01*
X138760420Y-2179270D01*
X138567482Y-1712322D01*
X138210537Y-1354754D01*
X137743927Y-1161001D01*
X137238690Y-1160560D01*
X136771742Y-1353498D01*
X136414174Y-1710443D01*
X136220421Y-2177053D01*
X136219980Y-2682290D01*
X136412918Y-3149238D01*
X136769863Y-3506806D01*
X137236473Y-3700559D01*
X137741710Y-3701000D01*
X138208658Y-3508062D01*
X138566226Y-3151117D01*
X138759979Y-2684507D01*
X138760420Y-2179270D01*
X138760420Y-20177710D01*
X138567482Y-19710762D01*
X138210537Y-19353194D01*
X138125200Y-19317759D01*
X138125200Y-9982200D01*
X138076864Y-9739196D01*
X137939213Y-9533187D01*
X133014203Y-4608177D01*
X133238513Y-4701319D01*
X133743750Y-4701760D01*
X134210698Y-4508822D01*
X134568266Y-4151877D01*
X134762019Y-3685267D01*
X134762460Y-3180030D01*
X134569522Y-2713082D01*
X134212577Y-2355514D01*
X133745967Y-2161761D01*
X133240730Y-2161320D01*
X132773782Y-2354258D01*
X132416214Y-2711203D01*
X132222461Y-3177813D01*
X132222020Y-3683050D01*
X132315629Y-3909603D01*
X131388553Y-2982527D01*
X131182544Y-2844876D01*
X130939540Y-2796540D01*
X117606325Y-2796540D01*
X117571842Y-2713082D01*
X117214897Y-2355514D01*
X116748287Y-2161761D01*
X116243050Y-2161320D01*
X115776102Y-2354258D01*
X115418534Y-2711203D01*
X115224781Y-3177813D01*
X115224340Y-3683050D01*
X115417278Y-4149998D01*
X115774223Y-4507566D01*
X116240833Y-4701319D01*
X116746070Y-4701760D01*
X117213018Y-4508822D01*
X117570586Y-4151877D01*
X117606020Y-4066540D01*
X130676514Y-4066540D01*
X136855200Y-10245226D01*
X136855200Y-19317454D01*
X136771742Y-19351938D01*
X136414174Y-19708883D01*
X136220421Y-20175493D01*
X136219980Y-20680730D01*
X136412918Y-21147678D01*
X136769863Y-21505246D01*
X137236473Y-21698999D01*
X137741710Y-21699440D01*
X138208658Y-21506502D01*
X138566226Y-21149557D01*
X138759979Y-20682947D01*
X138760420Y-20177710D01*
X138760420Y-24130000D01*
X134762460Y-24130000D01*
X134762460Y-19176950D01*
X134569522Y-18710002D01*
X134212577Y-18352434D01*
X133745967Y-18158681D01*
X133240730Y-18158240D01*
X133012400Y-18252583D01*
X133012400Y-15676830D01*
X133012400Y-11178490D01*
X133012400Y-6680150D01*
X132819462Y-6213202D01*
X132462517Y-5855634D01*
X131995907Y-5661881D01*
X131490670Y-5661440D01*
X131023722Y-5854378D01*
X130666154Y-6211323D01*
X130472401Y-6677933D01*
X130471960Y-7183170D01*
X130664898Y-7650118D01*
X131021843Y-8007686D01*
X131488453Y-8201439D01*
X131993690Y-8201880D01*
X132460638Y-8008942D01*
X132818206Y-7651997D01*
X133011959Y-7185387D01*
X133012400Y-6680150D01*
X133012400Y-11178490D01*
X132819462Y-10711542D01*
X132462517Y-10353974D01*
X131995907Y-10160221D01*
X131490670Y-10159780D01*
X131023722Y-10352718D01*
X130666154Y-10709663D01*
X130472401Y-11176273D01*
X130471960Y-11681510D01*
X130664898Y-12148458D01*
X131021843Y-12506026D01*
X131488453Y-12699779D01*
X131993690Y-12700220D01*
X132460638Y-12507282D01*
X132818206Y-12150337D01*
X133011959Y-11683727D01*
X133012400Y-11178490D01*
X133012400Y-15676830D01*
X132819462Y-15209882D01*
X132462517Y-14852314D01*
X131995907Y-14658561D01*
X131490670Y-14658120D01*
X131023722Y-14851058D01*
X130666154Y-15208003D01*
X130472401Y-15674613D01*
X130471960Y-16179850D01*
X130664898Y-16646798D01*
X131021843Y-17004366D01*
X131488453Y-17198119D01*
X131993690Y-17198560D01*
X132460638Y-17005622D01*
X132818206Y-16648677D01*
X133011959Y-16182067D01*
X133012400Y-15676830D01*
X133012400Y-18252583D01*
X132773782Y-18351178D01*
X132416214Y-18708123D01*
X132222461Y-19174733D01*
X132222020Y-19679970D01*
X132414958Y-20146918D01*
X132771903Y-20504486D01*
X133238513Y-20698239D01*
X133743750Y-20698680D01*
X134210698Y-20505742D01*
X134568266Y-20148797D01*
X134762019Y-19682187D01*
X134762460Y-19176950D01*
X134762460Y-24130000D01*
X133565023Y-24130000D01*
X133500719Y-24065583D01*
X133197423Y-23939643D01*
X132869018Y-23939357D01*
X132565502Y-24064767D01*
X132500155Y-24130000D01*
X127874899Y-24130000D01*
X127874899Y-16029448D01*
X127437217Y-14970177D01*
X126627486Y-14159031D01*
X125568980Y-13719501D01*
X124422848Y-13718501D01*
X123363577Y-14156183D01*
X122552431Y-14965914D01*
X122112901Y-16024420D01*
X122111901Y-17170552D01*
X122549583Y-18229823D01*
X123359314Y-19040969D01*
X124417820Y-19480499D01*
X125563952Y-19481499D01*
X126623223Y-19043817D01*
X127434369Y-18234086D01*
X127873899Y-17175580D01*
X127874899Y-16029448D01*
X127874899Y-24130000D01*
X119514840Y-24130000D01*
X119514840Y-15676830D01*
X119514840Y-11178490D01*
X119514840Y-6680150D01*
X119321902Y-6213202D01*
X118964957Y-5855634D01*
X118498347Y-5661881D01*
X117993110Y-5661440D01*
X117526162Y-5854378D01*
X117168594Y-6211323D01*
X116974841Y-6677933D01*
X116974400Y-7183170D01*
X117167338Y-7650118D01*
X117524283Y-8007686D01*
X117990893Y-8201439D01*
X118496130Y-8201880D01*
X118963078Y-8008942D01*
X119320646Y-7651997D01*
X119514399Y-7185387D01*
X119514840Y-6680150D01*
X119514840Y-11178490D01*
X119321902Y-10711542D01*
X118964957Y-10353974D01*
X118498347Y-10160221D01*
X117993110Y-10159780D01*
X117526162Y-10352718D01*
X117168594Y-10709663D01*
X116974841Y-11176273D01*
X116974400Y-11681510D01*
X117167338Y-12148458D01*
X117524283Y-12506026D01*
X117990893Y-12699779D01*
X118496130Y-12700220D01*
X118963078Y-12507282D01*
X119320646Y-12150337D01*
X119514399Y-11683727D01*
X119514840Y-11178490D01*
X119514840Y-15676830D01*
X119321902Y-15209882D01*
X118964957Y-14852314D01*
X118498347Y-14658561D01*
X117993110Y-14658120D01*
X117526162Y-14851058D01*
X117168594Y-15208003D01*
X116974841Y-15674613D01*
X116974400Y-16179850D01*
X117167338Y-16646798D01*
X117524283Y-17004366D01*
X117990893Y-17198119D01*
X118496130Y-17198560D01*
X118963078Y-17005622D01*
X119320646Y-16648677D01*
X119514399Y-16182067D01*
X119514840Y-15676830D01*
X119514840Y-24130000D01*
X117764780Y-24130000D01*
X117764780Y-19176950D01*
X117571842Y-18710002D01*
X117214897Y-18352434D01*
X116748287Y-18158681D01*
X116243050Y-18158240D01*
X115776102Y-18351178D01*
X115418534Y-18708123D01*
X115224781Y-19174733D01*
X115224340Y-19679970D01*
X115417278Y-20146918D01*
X115774223Y-20504486D01*
X116240833Y-20698239D01*
X116746070Y-20698680D01*
X117213018Y-20505742D01*
X117570586Y-20148797D01*
X117764339Y-19682187D01*
X117764780Y-19176950D01*
X117764780Y-24130000D01*
X113766820Y-24130000D01*
X113766820Y-20177710D01*
X113766820Y-2179270D01*
X113573882Y-1712322D01*
X113216937Y-1354754D01*
X112750327Y-1161001D01*
X112245090Y-1160560D01*
X111778142Y-1353498D01*
X111420574Y-1710443D01*
X111226821Y-2177053D01*
X111226380Y-2682290D01*
X111419318Y-3149238D01*
X111776263Y-3506806D01*
X112242873Y-3700559D01*
X112748110Y-3701000D01*
X113215058Y-3508062D01*
X113572626Y-3151117D01*
X113766379Y-2684507D01*
X113766820Y-2179270D01*
X113766820Y-20177710D01*
X113573882Y-19710762D01*
X113216937Y-19353194D01*
X113131600Y-19317759D01*
X113131600Y-10007600D01*
X113083264Y-9764596D01*
X112945613Y-9558587D01*
X107977167Y-4590141D01*
X108244913Y-4701319D01*
X108750150Y-4701760D01*
X109217098Y-4508822D01*
X109574666Y-4151877D01*
X109768419Y-3685267D01*
X109768860Y-3180030D01*
X109575922Y-2713082D01*
X109218977Y-2355514D01*
X108752367Y-2161761D01*
X108247130Y-2161320D01*
X107780182Y-2354258D01*
X107422614Y-2711203D01*
X107228861Y-3177813D01*
X107228420Y-3683050D01*
X107339914Y-3952888D01*
X106369553Y-2982527D01*
X106163544Y-2844876D01*
X105920540Y-2796540D01*
X92612725Y-2796540D01*
X92578242Y-2713082D01*
X92221297Y-2355514D01*
X91754687Y-2161761D01*
X91249450Y-2161320D01*
X90782502Y-2354258D01*
X90424934Y-2711203D01*
X90231181Y-3177813D01*
X90230740Y-3683050D01*
X90423678Y-4149998D01*
X90780623Y-4507566D01*
X91247233Y-4701319D01*
X91752470Y-4701760D01*
X92219418Y-4508822D01*
X92576986Y-4151877D01*
X92612420Y-4066540D01*
X105657514Y-4066540D01*
X107430766Y-5839792D01*
X107002307Y-5661881D01*
X106497070Y-5661440D01*
X106030122Y-5854378D01*
X105672554Y-6211323D01*
X105478801Y-6677933D01*
X105478360Y-7183170D01*
X105671298Y-7650118D01*
X106028243Y-8007686D01*
X106494853Y-8201439D01*
X107000090Y-8201880D01*
X107467038Y-8008942D01*
X107824606Y-7651997D01*
X108018359Y-7185387D01*
X108018800Y-6680150D01*
X107841131Y-6250157D01*
X111861600Y-10270626D01*
X111861600Y-19317454D01*
X111778142Y-19351938D01*
X111420574Y-19708883D01*
X111226821Y-20175493D01*
X111226380Y-20680730D01*
X111419318Y-21147678D01*
X111776263Y-21505246D01*
X112242873Y-21698999D01*
X112748110Y-21699440D01*
X113215058Y-21506502D01*
X113572626Y-21149557D01*
X113766379Y-20682947D01*
X113766820Y-20177710D01*
X113766820Y-24130000D01*
X109768860Y-24130000D01*
X109768860Y-19176950D01*
X109575922Y-18710002D01*
X109218977Y-18352434D01*
X108752367Y-18158681D01*
X108247130Y-18158240D01*
X108018800Y-18252583D01*
X108018800Y-15676830D01*
X108018800Y-11178490D01*
X107825862Y-10711542D01*
X107468917Y-10353974D01*
X107002307Y-10160221D01*
X106497070Y-10159780D01*
X106030122Y-10352718D01*
X105672554Y-10709663D01*
X105478801Y-11176273D01*
X105478360Y-11681510D01*
X105671298Y-12148458D01*
X106028243Y-12506026D01*
X106494853Y-12699779D01*
X107000090Y-12700220D01*
X107467038Y-12507282D01*
X107824606Y-12150337D01*
X108018359Y-11683727D01*
X108018800Y-11178490D01*
X108018800Y-15676830D01*
X107825862Y-15209882D01*
X107468917Y-14852314D01*
X107002307Y-14658561D01*
X106497070Y-14658120D01*
X106030122Y-14851058D01*
X105672554Y-15208003D01*
X105478801Y-15674613D01*
X105478360Y-16179850D01*
X105671298Y-16646798D01*
X106028243Y-17004366D01*
X106494853Y-17198119D01*
X107000090Y-17198560D01*
X107467038Y-17005622D01*
X107824606Y-16648677D01*
X108018359Y-16182067D01*
X108018800Y-15676830D01*
X108018800Y-18252583D01*
X107780182Y-18351178D01*
X107422614Y-18708123D01*
X107228861Y-19174733D01*
X107228420Y-19679970D01*
X107421358Y-20146918D01*
X107778303Y-20504486D01*
X108244913Y-20698239D01*
X108750150Y-20698680D01*
X109217098Y-20505742D01*
X109574666Y-20148797D01*
X109768419Y-19682187D01*
X109768860Y-19176950D01*
X109768860Y-24130000D01*
X108546023Y-24130000D01*
X108481719Y-24065583D01*
X108178423Y-23939643D01*
X107850018Y-23939357D01*
X107546502Y-24064767D01*
X107481155Y-24130000D01*
X94521240Y-24130000D01*
X94521240Y-15676830D01*
X94521240Y-11178490D01*
X94521240Y-6680150D01*
X94328302Y-6213202D01*
X93971357Y-5855634D01*
X93504747Y-5661881D01*
X92999510Y-5661440D01*
X92532562Y-5854378D01*
X92174994Y-6211323D01*
X91981241Y-6677933D01*
X91980800Y-7183170D01*
X92173738Y-7650118D01*
X92530683Y-8007686D01*
X92997293Y-8201439D01*
X93502530Y-8201880D01*
X93969478Y-8008942D01*
X94327046Y-7651997D01*
X94520799Y-7185387D01*
X94521240Y-6680150D01*
X94521240Y-11178490D01*
X94328302Y-10711542D01*
X93971357Y-10353974D01*
X93504747Y-10160221D01*
X92999510Y-10159780D01*
X92532562Y-10352718D01*
X92174994Y-10709663D01*
X91981241Y-11176273D01*
X91980800Y-11681510D01*
X92173738Y-12148458D01*
X92530683Y-12506026D01*
X92997293Y-12699779D01*
X93502530Y-12700220D01*
X93969478Y-12507282D01*
X94327046Y-12150337D01*
X94520799Y-11683727D01*
X94521240Y-11178490D01*
X94521240Y-15676830D01*
X94328302Y-15209882D01*
X93971357Y-14852314D01*
X93504747Y-14658561D01*
X92999510Y-14658120D01*
X92532562Y-14851058D01*
X92174994Y-15208003D01*
X91981241Y-15674613D01*
X91980800Y-16179850D01*
X92173738Y-16646798D01*
X92530683Y-17004366D01*
X92997293Y-17198119D01*
X93502530Y-17198560D01*
X93969478Y-17005622D01*
X94327046Y-16648677D01*
X94520799Y-16182067D01*
X94521240Y-15676830D01*
X94521240Y-24130000D01*
X92771180Y-24130000D01*
X92771180Y-19176950D01*
X92578242Y-18710002D01*
X92221297Y-18352434D01*
X91754687Y-18158681D01*
X91249450Y-18158240D01*
X90782502Y-18351178D01*
X90424934Y-18708123D01*
X90231181Y-19174733D01*
X90230740Y-19679970D01*
X90318539Y-19892460D01*
X88773220Y-21437779D01*
X88773220Y-20177710D01*
X88773220Y-2179270D01*
X88580282Y-1712322D01*
X88223337Y-1354754D01*
X87756727Y-1161001D01*
X87251490Y-1160560D01*
X86784542Y-1353498D01*
X86426974Y-1710443D01*
X86233221Y-2177053D01*
X86232780Y-2682290D01*
X86425718Y-3149238D01*
X86782663Y-3506806D01*
X87249273Y-3700559D01*
X87754510Y-3701000D01*
X88221458Y-3508062D01*
X88579026Y-3151117D01*
X88772779Y-2684507D01*
X88773220Y-2179270D01*
X88773220Y-20177710D01*
X88580282Y-19710762D01*
X88223337Y-19353194D01*
X88138000Y-19317759D01*
X88138000Y-10033000D01*
X88089664Y-9789996D01*
X88089664Y-9789995D01*
X87952013Y-9583987D01*
X82940131Y-4572105D01*
X83251313Y-4701319D01*
X83756550Y-4701760D01*
X84223498Y-4508822D01*
X84581066Y-4151877D01*
X84774819Y-3685267D01*
X84775260Y-3180030D01*
X84582322Y-2713082D01*
X84225377Y-2355514D01*
X83758767Y-2161761D01*
X83253530Y-2161320D01*
X82786582Y-2354258D01*
X82429014Y-2711203D01*
X82235261Y-3177813D01*
X82234820Y-3683050D01*
X82364199Y-3996173D01*
X81350553Y-2982527D01*
X81144544Y-2844876D01*
X80901540Y-2796540D01*
X67593725Y-2796540D01*
X67559242Y-2713082D01*
X67202297Y-2355514D01*
X66735687Y-2161761D01*
X66230450Y-2161320D01*
X65763502Y-2354258D01*
X65405934Y-2711203D01*
X65212181Y-3177813D01*
X65211740Y-3683050D01*
X65404678Y-4149998D01*
X65761623Y-4507566D01*
X66228233Y-4701319D01*
X66733470Y-4701760D01*
X67200418Y-4508822D01*
X67557986Y-4151877D01*
X67593420Y-4066540D01*
X80638513Y-4066540D01*
X82393730Y-5821756D01*
X82008707Y-5661881D01*
X81503470Y-5661440D01*
X81036522Y-5854378D01*
X80678954Y-6211323D01*
X80485201Y-6677933D01*
X80484760Y-7183170D01*
X80677698Y-7650118D01*
X81034643Y-8007686D01*
X81501253Y-8201439D01*
X82006490Y-8201880D01*
X82473438Y-8008942D01*
X82831006Y-7651997D01*
X83024759Y-7185387D01*
X83025200Y-6680150D01*
X82865416Y-6293442D01*
X86868000Y-10296026D01*
X86868000Y-19317454D01*
X86784542Y-19351938D01*
X86426974Y-19708883D01*
X86233221Y-20175493D01*
X86232780Y-20680730D01*
X86425718Y-21147678D01*
X86782663Y-21505246D01*
X87249273Y-21698999D01*
X87754510Y-21699440D01*
X88221458Y-21506502D01*
X88579026Y-21149557D01*
X88772779Y-20682947D01*
X88773220Y-20177710D01*
X88773220Y-21437779D01*
X88113000Y-22098000D01*
X84775260Y-22098000D01*
X84775260Y-19176950D01*
X84582322Y-18710002D01*
X84225377Y-18352434D01*
X83758767Y-18158681D01*
X83253530Y-18158240D01*
X83025200Y-18252583D01*
X83025200Y-15676830D01*
X83025200Y-11178490D01*
X82832262Y-10711542D01*
X82475317Y-10353974D01*
X82008707Y-10160221D01*
X81503470Y-10159780D01*
X81036522Y-10352718D01*
X80678954Y-10709663D01*
X80485201Y-11176273D01*
X80484760Y-11681510D01*
X80677698Y-12148458D01*
X81034643Y-12506026D01*
X81501253Y-12699779D01*
X82006490Y-12700220D01*
X82473438Y-12507282D01*
X82831006Y-12150337D01*
X83024759Y-11683727D01*
X83025200Y-11178490D01*
X83025200Y-15676830D01*
X82832262Y-15209882D01*
X82475317Y-14852314D01*
X82008707Y-14658561D01*
X81503470Y-14658120D01*
X81036522Y-14851058D01*
X80678954Y-15208003D01*
X80485201Y-15674613D01*
X80484760Y-16179850D01*
X80677698Y-16646798D01*
X81034643Y-17004366D01*
X81501253Y-17198119D01*
X82006490Y-17198560D01*
X82473438Y-17005622D01*
X82831006Y-16648677D01*
X83024759Y-16182067D01*
X83025200Y-15676830D01*
X83025200Y-18252583D01*
X82786582Y-18351178D01*
X82429014Y-18708123D01*
X82235261Y-19174733D01*
X82234820Y-19679970D01*
X82427758Y-20146918D01*
X82784703Y-20504486D01*
X83251313Y-20698239D01*
X83756550Y-20698680D01*
X84223498Y-20505742D01*
X84581066Y-20148797D01*
X84774819Y-19682187D01*
X84775260Y-19176950D01*
X84775260Y-22098000D01*
X77428090Y-22098000D01*
X77428090Y-19797339D01*
X77428090Y-18657570D01*
X77428090Y-18086070D01*
X77428090Y-16946301D01*
X77331417Y-16712912D01*
X77152789Y-16534283D01*
X76919400Y-16437610D01*
X76666781Y-16437610D01*
X75279250Y-16437610D01*
X75120500Y-16596360D01*
X75120500Y-18244820D01*
X77269340Y-18244820D01*
X77428090Y-18086070D01*
X77428090Y-18657570D01*
X77269340Y-18498820D01*
X75120500Y-18498820D01*
X75120500Y-20147280D01*
X75279250Y-20306030D01*
X76666781Y-20306030D01*
X76919400Y-20306030D01*
X77152789Y-20209357D01*
X77331417Y-20030728D01*
X77428090Y-19797339D01*
X77428090Y-22098000D01*
X74866500Y-22098000D01*
X74866500Y-20147280D01*
X74866500Y-18498820D01*
X74866500Y-18244820D01*
X74866500Y-16596360D01*
X74707750Y-16437610D01*
X73320219Y-16437610D01*
X73067600Y-16437610D01*
X72834211Y-16534283D01*
X72655583Y-16712912D01*
X72558910Y-16946301D01*
X72558910Y-18086070D01*
X72717660Y-18244820D01*
X74866500Y-18244820D01*
X74866500Y-18498820D01*
X72717660Y-18498820D01*
X72558910Y-18657570D01*
X72558910Y-19797339D01*
X72655583Y-20030728D01*
X72834211Y-20209357D01*
X73067600Y-20306030D01*
X73320219Y-20306030D01*
X74707750Y-20306030D01*
X74866500Y-20147280D01*
X74866500Y-22098000D01*
X69502240Y-22098000D01*
X69502240Y-15676830D01*
X69502240Y-11178490D01*
X69502240Y-6680150D01*
X69309302Y-6213202D01*
X68952357Y-5855634D01*
X68485747Y-5661881D01*
X67980510Y-5661440D01*
X67513562Y-5854378D01*
X67155994Y-6211323D01*
X66962241Y-6677933D01*
X66961800Y-7183170D01*
X67154738Y-7650118D01*
X67511683Y-8007686D01*
X67978293Y-8201439D01*
X68483530Y-8201880D01*
X68950478Y-8008942D01*
X69308046Y-7651997D01*
X69501799Y-7185387D01*
X69502240Y-6680150D01*
X69502240Y-11178490D01*
X69309302Y-10711542D01*
X68952357Y-10353974D01*
X68485747Y-10160221D01*
X67980510Y-10159780D01*
X67513562Y-10352718D01*
X67155994Y-10709663D01*
X66962241Y-11176273D01*
X66961800Y-11681510D01*
X67154738Y-12148458D01*
X67511683Y-12506026D01*
X67978293Y-12699779D01*
X68483530Y-12700220D01*
X68950478Y-12507282D01*
X69308046Y-12150337D01*
X69501799Y-11683727D01*
X69502240Y-11178490D01*
X69502240Y-15676830D01*
X69309302Y-15209882D01*
X68952357Y-14852314D01*
X68485747Y-14658561D01*
X67980510Y-14658120D01*
X67513562Y-14851058D01*
X67155994Y-15208003D01*
X66962241Y-15674613D01*
X66961800Y-16179850D01*
X67154738Y-16646798D01*
X67511683Y-17004366D01*
X67978293Y-17198119D01*
X68483530Y-17198560D01*
X68950478Y-17005622D01*
X69308046Y-16648677D01*
X69501799Y-16182067D01*
X69502240Y-15676830D01*
X69502240Y-22098000D01*
X67752180Y-22098000D01*
X67752180Y-19176950D01*
X67559242Y-18710002D01*
X67202297Y-18352434D01*
X66735687Y-18158681D01*
X66230450Y-18158240D01*
X65763502Y-18351178D01*
X65405934Y-18708123D01*
X65212181Y-19174733D01*
X65211740Y-19679970D01*
X65404678Y-20146918D01*
X65761623Y-20504486D01*
X66228233Y-20698239D01*
X66733470Y-20698680D01*
X67200418Y-20505742D01*
X67557986Y-20148797D01*
X67751739Y-19682187D01*
X67752180Y-19176950D01*
X67752180Y-22098000D01*
X63754220Y-22098000D01*
X63754220Y-20177710D01*
X63754220Y-2179270D01*
X63561282Y-1712322D01*
X63204337Y-1354754D01*
X62737727Y-1161001D01*
X62232490Y-1160560D01*
X61765542Y-1353498D01*
X61407974Y-1710443D01*
X61214221Y-2177053D01*
X61213780Y-2682290D01*
X61406718Y-3149238D01*
X61763663Y-3506806D01*
X62230273Y-3700559D01*
X62735510Y-3701000D01*
X63202458Y-3508062D01*
X63560026Y-3151117D01*
X63753779Y-2684507D01*
X63754220Y-2179270D01*
X63754220Y-20177710D01*
X63561282Y-19710762D01*
X63204337Y-19353194D01*
X63119000Y-19317759D01*
X63119000Y-10033000D01*
X63070664Y-9789996D01*
X63070664Y-9789995D01*
X62933013Y-9583987D01*
X57921131Y-4572105D01*
X58232313Y-4701319D01*
X58737550Y-4701760D01*
X59204498Y-4508822D01*
X59562066Y-4151877D01*
X59755819Y-3685267D01*
X59756260Y-3180030D01*
X59563322Y-2713082D01*
X59206377Y-2355514D01*
X58739767Y-2161761D01*
X58234530Y-2161320D01*
X57767582Y-2354258D01*
X57410014Y-2711203D01*
X57216261Y-3177813D01*
X57215820Y-3683050D01*
X57345199Y-3996173D01*
X56331553Y-2982527D01*
X56125544Y-2844876D01*
X55882540Y-2796540D01*
X42607745Y-2796540D01*
X42573262Y-2713082D01*
X42216317Y-2355514D01*
X41749707Y-2161761D01*
X41244470Y-2161320D01*
X40777522Y-2354258D01*
X40419954Y-2711203D01*
X40226201Y-3177813D01*
X40225760Y-3683050D01*
X40418698Y-4149998D01*
X40775643Y-4507566D01*
X41242253Y-4701319D01*
X41747490Y-4701760D01*
X42214438Y-4508822D01*
X42572006Y-4151877D01*
X42607440Y-4066540D01*
X55619514Y-4066540D01*
X57374730Y-5821756D01*
X56989707Y-5661881D01*
X56484470Y-5661440D01*
X56017522Y-5854378D01*
X55659954Y-6211323D01*
X55466201Y-6677933D01*
X55465760Y-7183170D01*
X55658698Y-7650118D01*
X56015643Y-8007686D01*
X56482253Y-8201439D01*
X56987490Y-8201880D01*
X57454438Y-8008942D01*
X57812006Y-7651997D01*
X58005759Y-7185387D01*
X58006200Y-6680150D01*
X57846416Y-6293442D01*
X61849000Y-10296026D01*
X61849000Y-19317454D01*
X61765542Y-19351938D01*
X61407974Y-19708883D01*
X61214221Y-20175493D01*
X61213780Y-20680730D01*
X61406718Y-21147678D01*
X61763663Y-21505246D01*
X62230273Y-21698999D01*
X62735510Y-21699440D01*
X63202458Y-21506502D01*
X63560026Y-21149557D01*
X63753779Y-20682947D01*
X63754220Y-20177710D01*
X63754220Y-22098000D01*
X59756260Y-22098000D01*
X59756260Y-19176950D01*
X59563322Y-18710002D01*
X59206377Y-18352434D01*
X58739767Y-18158681D01*
X58234530Y-18158240D01*
X58006200Y-18252583D01*
X58006200Y-15676830D01*
X58006200Y-11178490D01*
X57813262Y-10711542D01*
X57456317Y-10353974D01*
X56989707Y-10160221D01*
X56484470Y-10159780D01*
X56017522Y-10352718D01*
X55659954Y-10709663D01*
X55466201Y-11176273D01*
X55465760Y-11681510D01*
X55658698Y-12148458D01*
X56015643Y-12506026D01*
X56482253Y-12699779D01*
X56987490Y-12700220D01*
X57454438Y-12507282D01*
X57812006Y-12150337D01*
X58005759Y-11683727D01*
X58006200Y-11178490D01*
X58006200Y-15676830D01*
X57813262Y-15209882D01*
X57456317Y-14852314D01*
X56989707Y-14658561D01*
X56484470Y-14658120D01*
X56017522Y-14851058D01*
X55659954Y-15208003D01*
X55466201Y-15674613D01*
X55465760Y-16179850D01*
X55658698Y-16646798D01*
X56015643Y-17004366D01*
X56482253Y-17198119D01*
X56987490Y-17198560D01*
X57454438Y-17005622D01*
X57812006Y-16648677D01*
X58005759Y-16182067D01*
X58006200Y-15676830D01*
X58006200Y-18252583D01*
X57767582Y-18351178D01*
X57410014Y-18708123D01*
X57216261Y-19174733D01*
X57215820Y-19679970D01*
X57408758Y-20146918D01*
X57765703Y-20504486D01*
X58232313Y-20698239D01*
X58737550Y-20698680D01*
X59204498Y-20505742D01*
X59562066Y-20148797D01*
X59755819Y-19682187D01*
X59756260Y-19176950D01*
X59756260Y-22098000D01*
X44883940Y-22098000D01*
X44516260Y-21730320D01*
X44516260Y-15676830D01*
X44516260Y-11178490D01*
X44516260Y-6680150D01*
X44323322Y-6213202D01*
X43966377Y-5855634D01*
X43499767Y-5661881D01*
X42994530Y-5661440D01*
X42527582Y-5854378D01*
X42170014Y-6211323D01*
X41976261Y-6677933D01*
X41975820Y-7183170D01*
X42168758Y-7650118D01*
X42525703Y-8007686D01*
X42992313Y-8201439D01*
X43497550Y-8201880D01*
X43964498Y-8008942D01*
X44322066Y-7651997D01*
X44515819Y-7185387D01*
X44516260Y-6680150D01*
X44516260Y-11178490D01*
X44323322Y-10711542D01*
X43966377Y-10353974D01*
X43499767Y-10160221D01*
X42994530Y-10159780D01*
X42527582Y-10352718D01*
X42170014Y-10709663D01*
X41976261Y-11176273D01*
X41975820Y-11681510D01*
X42168758Y-12148458D01*
X42525703Y-12506026D01*
X42992313Y-12699779D01*
X43497550Y-12700220D01*
X43964498Y-12507282D01*
X44322066Y-12150337D01*
X44515819Y-11683727D01*
X44516260Y-11178490D01*
X44516260Y-15676830D01*
X44323322Y-15209882D01*
X43966377Y-14852314D01*
X43499767Y-14658561D01*
X42994530Y-14658120D01*
X42527582Y-14851058D01*
X42170014Y-15208003D01*
X41976261Y-15674613D01*
X41975820Y-16179850D01*
X42168758Y-16646798D01*
X42525703Y-17004366D01*
X42992313Y-17198119D01*
X43497550Y-17198560D01*
X43964498Y-17005622D01*
X44322066Y-16648677D01*
X44515819Y-16182067D01*
X44516260Y-15676830D01*
X44516260Y-21730320D01*
X42678432Y-19892492D01*
X42765759Y-19682187D01*
X42766200Y-19176950D01*
X42573262Y-18710002D01*
X42216317Y-18352434D01*
X41749707Y-18158681D01*
X41244470Y-18158240D01*
X40777522Y-18351178D01*
X40419954Y-18708123D01*
X40226201Y-19174733D01*
X40225760Y-19679970D01*
X40313559Y-19892460D01*
X38768240Y-21437779D01*
X38768240Y-20177710D01*
X38768240Y-2179270D01*
X38575302Y-1712322D01*
X38218357Y-1354754D01*
X37751747Y-1161001D01*
X37246510Y-1160560D01*
X36779562Y-1353498D01*
X36421994Y-1710443D01*
X36228241Y-2177053D01*
X36227800Y-2682290D01*
X36420738Y-3149238D01*
X36777683Y-3506806D01*
X37244293Y-3700559D01*
X37749530Y-3701000D01*
X38216478Y-3508062D01*
X38574046Y-3151117D01*
X38767799Y-2684507D01*
X38768240Y-2179270D01*
X38768240Y-20177710D01*
X38575302Y-19710762D01*
X38218357Y-19353194D01*
X38133020Y-19317759D01*
X38133020Y-10066025D01*
X38133020Y-10066020D01*
X38133021Y-10066020D01*
X38084684Y-9823016D01*
X37947033Y-9617007D01*
X32878684Y-4548658D01*
X33246333Y-4701319D01*
X33751570Y-4701760D01*
X34218518Y-4508822D01*
X34576086Y-4151877D01*
X34769839Y-3685267D01*
X34770280Y-3180030D01*
X34577342Y-2713082D01*
X34220397Y-2355514D01*
X33753787Y-2161761D01*
X33248550Y-2161320D01*
X32781602Y-2354258D01*
X32424034Y-2711203D01*
X32230281Y-3177813D01*
X32229840Y-3683050D01*
X32382469Y-4052443D01*
X31312553Y-2982527D01*
X31106544Y-2844876D01*
X30863540Y-2796540D01*
X17606525Y-2796540D01*
X17572042Y-2713082D01*
X17215097Y-2355514D01*
X16748487Y-2161761D01*
X16243250Y-2161320D01*
X15776302Y-2354258D01*
X15418734Y-2711203D01*
X15224981Y-3177813D01*
X15224540Y-3683050D01*
X15417478Y-4149998D01*
X15774423Y-4507566D01*
X16241033Y-4701319D01*
X16746270Y-4701760D01*
X17213218Y-4508822D01*
X17570786Y-4151877D01*
X17606220Y-4066540D01*
X30600514Y-4066540D01*
X32332283Y-5798309D01*
X32003727Y-5661881D01*
X31498490Y-5661440D01*
X31031542Y-5854378D01*
X30673974Y-6211323D01*
X30480221Y-6677933D01*
X30479780Y-7183170D01*
X30672718Y-7650118D01*
X31029663Y-8007686D01*
X31496273Y-8201439D01*
X32001510Y-8201880D01*
X32468458Y-8008942D01*
X32826026Y-7651997D01*
X33019779Y-7185387D01*
X33020220Y-6680150D01*
X32883686Y-6349712D01*
X36863020Y-10329046D01*
X36863020Y-19317454D01*
X36779562Y-19351938D01*
X36421994Y-19708883D01*
X36228241Y-20175493D01*
X36227800Y-20680730D01*
X36420738Y-21147678D01*
X36777683Y-21505246D01*
X37244293Y-21698999D01*
X37749530Y-21699440D01*
X38216478Y-21506502D01*
X38574046Y-21149557D01*
X38767799Y-20682947D01*
X38768240Y-20177710D01*
X38768240Y-21437779D01*
X38252800Y-21953220D01*
X34770280Y-21953220D01*
X34770280Y-19176950D01*
X34577342Y-18710002D01*
X34220397Y-18352434D01*
X33753787Y-18158681D01*
X33248550Y-18158240D01*
X33020220Y-18252583D01*
X33020220Y-15676830D01*
X33020220Y-11178490D01*
X32827282Y-10711542D01*
X32470337Y-10353974D01*
X32003727Y-10160221D01*
X31498490Y-10159780D01*
X31031542Y-10352718D01*
X30673974Y-10709663D01*
X30480221Y-11176273D01*
X30479780Y-11681510D01*
X30672718Y-12148458D01*
X31029663Y-12506026D01*
X31496273Y-12699779D01*
X32001510Y-12700220D01*
X32468458Y-12507282D01*
X32826026Y-12150337D01*
X33019779Y-11683727D01*
X33020220Y-11178490D01*
X33020220Y-15676830D01*
X32827282Y-15209882D01*
X32470337Y-14852314D01*
X32003727Y-14658561D01*
X31498490Y-14658120D01*
X31031542Y-14851058D01*
X30673974Y-15208003D01*
X30480221Y-15674613D01*
X30479780Y-16179850D01*
X30672718Y-16646798D01*
X31029663Y-17004366D01*
X31496273Y-17198119D01*
X32001510Y-17198560D01*
X32468458Y-17005622D01*
X32826026Y-16648677D01*
X33019779Y-16182067D01*
X33020220Y-15676830D01*
X33020220Y-18252583D01*
X32781602Y-18351178D01*
X32424034Y-18708123D01*
X32230281Y-19174733D01*
X32229840Y-19679970D01*
X32422778Y-20146918D01*
X32779723Y-20504486D01*
X33246333Y-20698239D01*
X33751570Y-20698680D01*
X34218518Y-20505742D01*
X34576086Y-20148797D01*
X34769839Y-19682187D01*
X34770280Y-19176950D01*
X34770280Y-21953220D01*
X27878909Y-21953220D01*
X27878909Y-16029448D01*
X27441227Y-14970177D01*
X26631496Y-14159031D01*
X25572990Y-13719501D01*
X24426858Y-13718501D01*
X23367587Y-14156183D01*
X22556441Y-14965914D01*
X22116911Y-16024420D01*
X22115911Y-17170552D01*
X22553593Y-18229823D01*
X23363324Y-19040969D01*
X24421830Y-19480499D01*
X25567962Y-19481499D01*
X26627233Y-19043817D01*
X27438379Y-18234086D01*
X27877909Y-17175580D01*
X27878909Y-16029448D01*
X27878909Y-21953220D01*
X22671640Y-21953220D01*
X19515040Y-18796620D01*
X19515040Y-15676830D01*
X19515040Y-11178490D01*
X19515040Y-6680150D01*
X19322102Y-6213202D01*
X18965157Y-5855634D01*
X18498547Y-5661881D01*
X17993310Y-5661440D01*
X17526362Y-5854378D01*
X17168794Y-6211323D01*
X16975041Y-6677933D01*
X16974600Y-7183170D01*
X17167538Y-7650118D01*
X17524483Y-8007686D01*
X17991093Y-8201439D01*
X18496330Y-8201880D01*
X18963278Y-8008942D01*
X19320846Y-7651997D01*
X19514599Y-7185387D01*
X19515040Y-6680150D01*
X19515040Y-11178490D01*
X19322102Y-10711542D01*
X18965157Y-10353974D01*
X18498547Y-10160221D01*
X17993310Y-10159780D01*
X17526362Y-10352718D01*
X17168794Y-10709663D01*
X16975041Y-11176273D01*
X16974600Y-11681510D01*
X17167538Y-12148458D01*
X17524483Y-12506026D01*
X17991093Y-12699779D01*
X18496330Y-12700220D01*
X18963278Y-12507282D01*
X19320846Y-12150337D01*
X19514599Y-11683727D01*
X19515040Y-11178490D01*
X19515040Y-15676830D01*
X19322102Y-15209882D01*
X18965157Y-14852314D01*
X18498547Y-14658561D01*
X17993310Y-14658120D01*
X17526362Y-14851058D01*
X17168794Y-15208003D01*
X16975041Y-15674613D01*
X16974600Y-16179850D01*
X17167538Y-16646798D01*
X17524483Y-17004366D01*
X17991093Y-17198119D01*
X18496330Y-17198560D01*
X18963278Y-17005622D01*
X19320846Y-16648677D01*
X19514599Y-16182067D01*
X19515040Y-15676830D01*
X19515040Y-18796620D01*
X18012210Y-17293790D01*
X17847403Y-17183669D01*
X17653000Y-17145000D01*
X13767020Y-17145000D01*
X13767020Y-2179270D01*
X13574082Y-1712322D01*
X13217137Y-1354754D01*
X12750527Y-1161001D01*
X12245290Y-1160560D01*
X11778342Y-1353498D01*
X11420774Y-1710443D01*
X11227021Y-2177053D01*
X11226580Y-2682290D01*
X11419518Y-3149238D01*
X11776463Y-3506806D01*
X12243073Y-3700559D01*
X12748310Y-3701000D01*
X13215258Y-3508062D01*
X13572826Y-3151117D01*
X13766579Y-2684507D01*
X13767020Y-2179270D01*
X13767020Y-17145000D01*
X9769060Y-17145000D01*
X9769060Y-3180030D01*
X9576122Y-2713082D01*
X9219177Y-2355514D01*
X8752567Y-2161761D01*
X8247330Y-2161320D01*
X7780382Y-2354258D01*
X7422814Y-2711203D01*
X7229061Y-3177813D01*
X7228620Y-3683050D01*
X7421558Y-4149998D01*
X7778503Y-4507566D01*
X8245113Y-4701319D01*
X8750350Y-4701760D01*
X9217298Y-4508822D01*
X9574866Y-4151877D01*
X9768619Y-3685267D01*
X9769060Y-3180030D01*
X9769060Y-17145000D01*
X7129915Y-17145000D01*
X7467238Y-17005622D01*
X7824806Y-16648677D01*
X8018559Y-16182067D01*
X8019000Y-15676830D01*
X8019000Y-11178490D01*
X8019000Y-6680150D01*
X7826062Y-6213202D01*
X7469117Y-5855634D01*
X7002507Y-5661881D01*
X6497270Y-5661440D01*
X6030322Y-5854378D01*
X5672754Y-6211323D01*
X5479001Y-6677933D01*
X5478560Y-7183170D01*
X5671498Y-7650118D01*
X6028443Y-8007686D01*
X6495053Y-8201439D01*
X7000290Y-8201880D01*
X7467238Y-8008942D01*
X7824806Y-7651997D01*
X8018559Y-7185387D01*
X8019000Y-6680150D01*
X8019000Y-11178490D01*
X7826062Y-10711542D01*
X7469117Y-10353974D01*
X7002507Y-10160221D01*
X6497270Y-10159780D01*
X6030322Y-10352718D01*
X5672754Y-10709663D01*
X5479001Y-11176273D01*
X5478560Y-11681510D01*
X5671498Y-12148458D01*
X6028443Y-12506026D01*
X6495053Y-12699779D01*
X7000290Y-12700220D01*
X7467238Y-12507282D01*
X7824806Y-12150337D01*
X8018559Y-11683727D01*
X8019000Y-11178490D01*
X8019000Y-15676830D01*
X7826062Y-15209882D01*
X7469117Y-14852314D01*
X7002507Y-14658561D01*
X6497270Y-14658120D01*
X6030322Y-14851058D01*
X5672754Y-15208003D01*
X5479001Y-15674613D01*
X5478560Y-16179850D01*
X5671498Y-16646798D01*
X6028443Y-17004366D01*
X6367127Y-17145000D01*
X3937000Y-17145000D01*
X3742597Y-17183669D01*
X3577790Y-17293789D01*
X910790Y-19960790D01*
X800669Y-20125597D01*
X762000Y-20320000D01*
X762000Y-40259000D01*
X800669Y-40453403D01*
X910790Y-40618210D01*
X1926790Y-41634210D01*
X2091597Y-41744331D01*
X2286000Y-41783000D01*
X9314579Y-41783000D01*
X10689789Y-43158210D01*
X10689790Y-43158210D01*
X10799910Y-43231790D01*
X10854596Y-43268330D01*
X10854597Y-43268331D01*
X11049000Y-43307000D01*
X11977197Y-43307000D01*
X12168281Y-43498417D01*
X12471577Y-43624357D01*
X12799982Y-43624643D01*
X13103498Y-43499233D01*
X13335917Y-43267219D01*
X13461857Y-42963923D01*
X13462143Y-42635518D01*
X13336733Y-42332002D01*
X13104719Y-42099583D01*
X12801423Y-41973643D01*
X12473018Y-41973357D01*
X12169502Y-42098767D01*
X11976933Y-42291000D01*
X11259420Y-42291000D01*
X11241000Y-42272580D01*
X11241000Y-32661076D01*
X11241000Y-32108924D01*
X11158714Y-31695243D01*
X10924382Y-31344542D01*
X10573681Y-31110210D01*
X10160000Y-31027924D01*
X9746319Y-31110210D01*
X9395618Y-31344542D01*
X9161286Y-31695243D01*
X9079000Y-32108924D01*
X9079000Y-32661076D01*
X9161286Y-33074757D01*
X9395618Y-33425458D01*
X9746319Y-33659790D01*
X10160000Y-33742076D01*
X10573681Y-33659790D01*
X10924382Y-33425458D01*
X11158714Y-33074757D01*
X11241000Y-32661076D01*
X11241000Y-42272580D01*
X9884210Y-40915790D01*
X9719403Y-40805669D01*
X9525000Y-40767000D01*
X8701000Y-40767000D01*
X8701000Y-32661076D01*
X8701000Y-32108924D01*
X8618714Y-31695243D01*
X8384382Y-31344542D01*
X8033681Y-31110210D01*
X7620000Y-31027924D01*
X7206319Y-31110210D01*
X6855618Y-31344542D01*
X6621286Y-31695243D01*
X6539000Y-32108924D01*
X6539000Y-32661076D01*
X6621286Y-33074757D01*
X6855618Y-33425458D01*
X7206319Y-33659790D01*
X7620000Y-33742076D01*
X8033681Y-33659790D01*
X8384382Y-33425458D01*
X8618714Y-33074757D01*
X8701000Y-32661076D01*
X8701000Y-40767000D01*
X6423561Y-40767000D01*
X6423561Y-32723266D01*
X6423561Y-32046734D01*
X6287511Y-31539294D01*
X5967628Y-31122545D01*
X5512612Y-30859933D01*
X5413329Y-30842284D01*
X5207000Y-30965626D01*
X5207000Y-32258000D01*
X6262077Y-32258000D01*
X6423561Y-32046734D01*
X6423561Y-32723266D01*
X6262077Y-32512000D01*
X5207000Y-32512000D01*
X5207000Y-33804374D01*
X5413329Y-33927716D01*
X5512612Y-33910067D01*
X5967628Y-33647455D01*
X6287511Y-33230706D01*
X6423561Y-32723266D01*
X6423561Y-40767000D01*
X4953000Y-40767000D01*
X4953000Y-33804374D01*
X4953000Y-32512000D01*
X4953000Y-32258000D01*
X4953000Y-30965626D01*
X4746671Y-30842284D01*
X4647388Y-30859933D01*
X4192372Y-31122545D01*
X3872489Y-31539294D01*
X3736439Y-32046734D01*
X3897923Y-32258000D01*
X4953000Y-32258000D01*
X4953000Y-32512000D01*
X3897923Y-32512000D01*
X3736439Y-32723266D01*
X3872489Y-33230706D01*
X4192372Y-33647455D01*
X4647388Y-33910067D01*
X4746671Y-33927716D01*
X4953000Y-33804374D01*
X4953000Y-40767000D01*
X2496420Y-40767000D01*
X1778000Y-40048580D01*
X1778000Y-33716000D01*
X1915786Y-33716000D01*
X3315786Y-33716000D01*
X3455820Y-33657996D01*
X3562996Y-33550819D01*
X3621000Y-33410785D01*
X3621000Y-33259214D01*
X3621000Y-31359214D01*
X3562996Y-31219180D01*
X3455819Y-31112004D01*
X3315785Y-31054000D01*
X3164214Y-31054000D01*
X1778000Y-31054000D01*
X1778000Y-20530420D01*
X4147420Y-18161000D01*
X8240650Y-18161000D01*
X7780382Y-18351178D01*
X7422814Y-18708123D01*
X7229061Y-19174733D01*
X7228620Y-19679970D01*
X7421558Y-20146918D01*
X7778503Y-20504486D01*
X8245113Y-20698239D01*
X8750350Y-20698680D01*
X9217298Y-20505742D01*
X9574866Y-20148797D01*
X9768619Y-19682187D01*
X9769060Y-19176950D01*
X9576122Y-18710002D01*
X9219177Y-18352434D01*
X8758151Y-18161000D01*
X16236570Y-18161000D01*
X15776302Y-18351178D01*
X15418734Y-18708123D01*
X15224981Y-19174733D01*
X15224540Y-19679970D01*
X15417478Y-20146918D01*
X15774423Y-20504486D01*
X16241033Y-20698239D01*
X16746270Y-20698680D01*
X17213218Y-20505742D01*
X17570786Y-20148797D01*
X17764539Y-19682187D01*
X17764980Y-19176950D01*
X17572042Y-18710002D01*
X17215097Y-18352434D01*
X16754071Y-18161000D01*
X17442580Y-18161000D01*
X22102010Y-22820430D01*
X22266817Y-22930551D01*
X22461220Y-22969220D01*
X38463220Y-22969220D01*
X38657623Y-22930551D01*
X38822430Y-22820430D01*
X41031947Y-20610912D01*
X41242253Y-20698239D01*
X41747490Y-20698680D01*
X41959980Y-20610880D01*
X44314310Y-22965210D01*
X44479116Y-23075331D01*
X44479117Y-23075331D01*
X44673520Y-23114000D01*
X88323420Y-23114000D01*
X88517823Y-23075331D01*
X88682630Y-22965210D01*
X91036927Y-20610912D01*
X91247233Y-20698239D01*
X91752470Y-20698680D01*
X92219418Y-20505742D01*
X92576986Y-20148797D01*
X92770739Y-19682187D01*
X92771180Y-19176950D01*
X92771180Y-24130000D01*
X83590523Y-24130000D01*
X83526219Y-24065583D01*
X83222923Y-23939643D01*
X82894518Y-23939357D01*
X82591002Y-24064767D01*
X82525655Y-24130000D01*
X58571523Y-24130000D01*
X58507219Y-24065583D01*
X58203923Y-23939643D01*
X57875518Y-23939357D01*
X57572002Y-24064767D01*
X57506655Y-24130000D01*
X33616023Y-24130000D01*
X33551719Y-24065583D01*
X33248423Y-23939643D01*
X32920018Y-23939357D01*
X32616502Y-24064767D01*
X32551155Y-24130000D01*
X14032316Y-24130000D01*
X14032316Y-20667255D01*
X14006523Y-20061520D01*
X13824339Y-19621687D01*
X13568996Y-19536629D01*
X13389391Y-19716234D01*
X13389391Y-19357024D01*
X13304333Y-19101681D01*
X12734835Y-18893704D01*
X12129100Y-18919497D01*
X11689267Y-19101681D01*
X11604209Y-19357024D01*
X12496800Y-20249615D01*
X13389391Y-19357024D01*
X13389391Y-19716234D01*
X12676405Y-20429220D01*
X13568996Y-21321811D01*
X13824339Y-21236753D01*
X14032316Y-20667255D01*
X14032316Y-24130000D01*
X13389391Y-24130000D01*
X13389391Y-21501416D01*
X12496800Y-20608825D01*
X12317195Y-20788430D01*
X12317195Y-20429220D01*
X11424604Y-19536629D01*
X11169261Y-19621687D01*
X10961284Y-20191185D01*
X10987077Y-20796920D01*
X11169261Y-21236753D01*
X11424604Y-21321811D01*
X12317195Y-20429220D01*
X12317195Y-20788430D01*
X11604209Y-21501416D01*
X11689267Y-21756759D01*
X12258765Y-21964736D01*
X12864500Y-21938943D01*
X13304333Y-21756759D01*
X13389391Y-21501416D01*
X13389391Y-24130000D01*
X8597023Y-24130000D01*
X8532719Y-24065583D01*
X8229423Y-23939643D01*
X7901018Y-23939357D01*
X7597502Y-24064767D01*
X7365083Y-24296781D01*
X7239143Y-24600077D01*
X7238857Y-24928482D01*
X7364267Y-25231998D01*
X7596281Y-25464417D01*
X7899577Y-25590357D01*
X8227982Y-25590643D01*
X8531498Y-25465233D01*
X8596844Y-25400000D01*
X11208799Y-25400000D01*
X11180918Y-25467146D01*
X11180682Y-25738065D01*
X11208917Y-25806400D01*
X9776926Y-25806400D01*
X9708059Y-25737413D01*
X9457854Y-25633518D01*
X9186935Y-25633282D01*
X8936548Y-25736739D01*
X8744813Y-25928141D01*
X8640918Y-26178346D01*
X8640682Y-26449265D01*
X8744139Y-26699652D01*
X8935541Y-26891387D01*
X9185746Y-26995282D01*
X9456665Y-26995518D01*
X9707052Y-26892061D01*
X9776834Y-26822400D01*
X9938799Y-26822400D01*
X9910918Y-26889546D01*
X9910682Y-27160465D01*
X9938917Y-27228800D01*
X7262326Y-27228800D01*
X7193459Y-27159813D01*
X6943254Y-27055918D01*
X6672335Y-27055682D01*
X6421948Y-27159139D01*
X6230213Y-27350541D01*
X6126318Y-27600746D01*
X6126082Y-27871665D01*
X6229539Y-28122052D01*
X6420941Y-28313787D01*
X6671146Y-28417682D01*
X6942065Y-28417918D01*
X7192452Y-28314461D01*
X7262234Y-28244800D01*
X12676673Y-28244800D01*
X12745541Y-28313787D01*
X12995746Y-28417682D01*
X13266665Y-28417918D01*
X13517052Y-28314461D01*
X13586834Y-28244800D01*
X37677893Y-28244800D01*
X37746761Y-28313787D01*
X37996966Y-28417682D01*
X38267885Y-28417918D01*
X38518272Y-28314461D01*
X38588054Y-28244800D01*
X62663873Y-28244800D01*
X62732741Y-28313787D01*
X62982946Y-28417682D01*
X63253865Y-28417918D01*
X63504252Y-28314461D01*
X63574034Y-28244800D01*
X87682873Y-28244800D01*
X87751741Y-28313787D01*
X88001946Y-28417682D01*
X88272865Y-28417918D01*
X88523252Y-28314461D01*
X88593034Y-28244800D01*
X112676473Y-28244800D01*
X112745341Y-28313787D01*
X112995546Y-28417682D01*
X113266465Y-28417918D01*
X113516852Y-28314461D01*
X113586634Y-28244800D01*
X137670073Y-28244800D01*
X137738941Y-28313787D01*
X137989146Y-28417682D01*
X138260065Y-28417918D01*
X138510452Y-28314461D01*
X138702187Y-28123059D01*
X138806082Y-27872854D01*
X138806318Y-27601935D01*
X138702861Y-27351548D01*
X138511459Y-27159813D01*
X138261254Y-27055918D01*
X137990335Y-27055682D01*
X137739948Y-27159139D01*
X137670165Y-27228800D01*
X136238200Y-27228800D01*
X136266082Y-27161654D01*
X136266318Y-26890735D01*
X136162861Y-26640348D01*
X135971459Y-26448613D01*
X135721254Y-26344718D01*
X135450335Y-26344482D01*
X135199948Y-26447939D01*
X135130165Y-26517600D01*
X134968200Y-26517600D01*
X134996082Y-26450454D01*
X134996318Y-26179535D01*
X134968082Y-26111200D01*
X136400073Y-26111200D01*
X136468941Y-26180187D01*
X136719146Y-26284082D01*
X136990065Y-26284318D01*
X137240452Y-26180861D01*
X137432187Y-25989459D01*
X137536082Y-25739254D01*
X137536318Y-25468335D01*
X137508082Y-25400000D01*
X142357974Y-25400000D01*
X146050000Y-29092026D01*
X146050000Y-36840406D01*
X145822851Y-36934262D01*
X145393769Y-37362596D01*
X145161265Y-37922528D01*
X145160736Y-38528812D01*
X145392262Y-39089149D01*
X145820596Y-39518231D01*
X146050000Y-39613487D01*
X146050000Y-43698406D01*
X145822851Y-43792262D01*
X145393769Y-44220596D01*
X145161265Y-44780528D01*
X145160736Y-45386812D01*
X145392262Y-45947149D01*
X145820596Y-46376231D01*
X146380528Y-46608735D01*
X146986812Y-46609264D01*
X147547149Y-46377738D01*
X147976231Y-45949404D01*
X148208735Y-45389472D01*
X148209264Y-44783188D01*
X148209264Y-49569000D01*
X144917062Y-49569000D01*
X144917062Y-41954667D01*
X144895249Y-41247671D01*
X144666658Y-40695806D01*
X144653264Y-40690282D01*
X144653264Y-36274188D01*
X144421738Y-35713851D01*
X143993404Y-35284769D01*
X143433472Y-35052265D01*
X142827188Y-35051736D01*
X142266851Y-35283262D01*
X141837769Y-35711596D01*
X141605265Y-36271528D01*
X141604736Y-36877812D01*
X141836262Y-37438149D01*
X142264596Y-37867231D01*
X142824528Y-38099735D01*
X143430812Y-38100264D01*
X143991149Y-37868738D01*
X144420231Y-37440404D01*
X144652735Y-36880472D01*
X144653264Y-36274188D01*
X144653264Y-40690282D01*
X144384963Y-40579642D01*
X144205358Y-40759247D01*
X144205358Y-40400037D01*
X144089194Y-40118342D01*
X143427667Y-39867938D01*
X142720671Y-39889751D01*
X142168806Y-40118342D01*
X142052642Y-40400037D01*
X143129000Y-41476395D01*
X144205358Y-40400037D01*
X144205358Y-40759247D01*
X143308605Y-41656000D01*
X144384963Y-42732358D01*
X144666658Y-42616194D01*
X144917062Y-41954667D01*
X144917062Y-49569000D01*
X144653264Y-49569000D01*
X144653264Y-46434188D01*
X144421738Y-45873851D01*
X144205358Y-45657093D01*
X144205358Y-42911963D01*
X143129000Y-41835605D01*
X142949395Y-42015210D01*
X142949395Y-41656000D01*
X141873037Y-40579642D01*
X141591342Y-40695806D01*
X141422461Y-41141960D01*
X141237658Y-40695806D01*
X140955963Y-40579642D01*
X140776358Y-40759247D01*
X140776358Y-40400037D01*
X140660194Y-40118342D01*
X139998667Y-39867938D01*
X139291671Y-39889751D01*
X138739806Y-40118342D01*
X138684264Y-40253030D01*
X138684264Y-36274188D01*
X138452738Y-35713851D01*
X138024404Y-35284769D01*
X137464472Y-35052265D01*
X136858188Y-35051736D01*
X136297851Y-35283262D01*
X135868769Y-35711596D01*
X135636265Y-36271528D01*
X135635736Y-36877812D01*
X135867262Y-37438149D01*
X136295596Y-37867231D01*
X136855528Y-38099735D01*
X137461812Y-38100264D01*
X138022149Y-37868738D01*
X138451231Y-37440404D01*
X138683735Y-36880472D01*
X138684264Y-36274188D01*
X138684264Y-40253030D01*
X138623642Y-40400037D01*
X139700000Y-41476395D01*
X140776358Y-40400037D01*
X140776358Y-40759247D01*
X139879605Y-41656000D01*
X140955963Y-42732358D01*
X141237658Y-42616194D01*
X141406538Y-42170039D01*
X141591342Y-42616194D01*
X141873037Y-42732358D01*
X142949395Y-41656000D01*
X142949395Y-42015210D01*
X142052642Y-42911963D01*
X142168806Y-43193658D01*
X142830333Y-43444062D01*
X143537329Y-43422249D01*
X144089194Y-43193658D01*
X144205358Y-42911963D01*
X144205358Y-45657093D01*
X143993404Y-45444769D01*
X143433472Y-45212265D01*
X142827188Y-45211736D01*
X142266851Y-45443262D01*
X141837769Y-45871596D01*
X141605265Y-46431528D01*
X141604736Y-47037812D01*
X141836262Y-47598149D01*
X142264596Y-48027231D01*
X142824528Y-48259735D01*
X143430812Y-48260264D01*
X143991149Y-48028738D01*
X144420231Y-47600404D01*
X144652735Y-47040472D01*
X144653264Y-46434188D01*
X144653264Y-49569000D01*
X140776358Y-49569000D01*
X140776358Y-42911963D01*
X139700000Y-41835605D01*
X139520395Y-42015210D01*
X139520395Y-41656000D01*
X138444037Y-40579642D01*
X138239687Y-40663910D01*
X138239687Y-39029216D01*
X138075689Y-38632311D01*
X137772286Y-38328378D01*
X137375668Y-38163687D01*
X136946216Y-38163313D01*
X136549311Y-38327311D01*
X136245378Y-38630714D01*
X136080687Y-39027332D01*
X136080313Y-39456784D01*
X136244311Y-39853689D01*
X136547714Y-40157622D01*
X136944332Y-40322313D01*
X137373784Y-40322687D01*
X137770689Y-40158689D01*
X138074622Y-39855286D01*
X138239313Y-39458668D01*
X138239687Y-39029216D01*
X138239687Y-40663910D01*
X138162342Y-40695806D01*
X137911938Y-41357333D01*
X137933751Y-42064329D01*
X138162342Y-42616194D01*
X138444037Y-42732358D01*
X139520395Y-41656000D01*
X139520395Y-42015210D01*
X138623642Y-42911963D01*
X138739806Y-43193658D01*
X139401333Y-43444062D01*
X140108329Y-43422249D01*
X140660194Y-43193658D01*
X140776358Y-42911963D01*
X140776358Y-49569000D01*
X138684264Y-49569000D01*
X138684264Y-46434188D01*
X138452738Y-45873851D01*
X138239687Y-45660427D01*
X138239687Y-43855216D01*
X138075689Y-43458311D01*
X137772286Y-43154378D01*
X137375668Y-42989687D01*
X136946216Y-42989313D01*
X136549311Y-43153311D01*
X136245378Y-43456714D01*
X136080687Y-43853332D01*
X136080313Y-44282784D01*
X136244311Y-44679689D01*
X136547714Y-44983622D01*
X136944332Y-45148313D01*
X137373784Y-45148687D01*
X137770689Y-44984689D01*
X138074622Y-44681286D01*
X138239313Y-44284668D01*
X138239687Y-43855216D01*
X138239687Y-45660427D01*
X138024404Y-45444769D01*
X137464472Y-45212265D01*
X136858188Y-45211736D01*
X136297851Y-45443262D01*
X135868769Y-45871596D01*
X135636265Y-46431528D01*
X135635736Y-47037812D01*
X135867262Y-47598149D01*
X136295596Y-48027231D01*
X136855528Y-48259735D01*
X137461812Y-48260264D01*
X138022149Y-48028738D01*
X138451231Y-47600404D01*
X138683735Y-47040472D01*
X138684264Y-46434188D01*
X138684264Y-49569000D01*
X134862369Y-49569000D01*
X134862369Y-42254358D01*
X134860221Y-41046843D01*
X134402257Y-39941221D01*
X133989936Y-39671670D01*
X133810330Y-39851275D01*
X133810330Y-39492064D01*
X133540779Y-39079743D01*
X132424358Y-38619631D01*
X131216843Y-38621779D01*
X130111221Y-39079743D01*
X129841670Y-39492064D01*
X131826000Y-41476395D01*
X133810330Y-39492064D01*
X133810330Y-39851275D01*
X132005605Y-41656000D01*
X133989936Y-43640330D01*
X134402257Y-43370779D01*
X134862369Y-42254358D01*
X134862369Y-49569000D01*
X133810330Y-49569000D01*
X133810330Y-43819936D01*
X131826000Y-41835605D01*
X131646395Y-42015210D01*
X131646395Y-41656000D01*
X129662064Y-39671670D01*
X129249743Y-39941221D01*
X128789631Y-41057642D01*
X128791779Y-42265157D01*
X129249743Y-43370779D01*
X129662064Y-43640330D01*
X131646395Y-41656000D01*
X131646395Y-42015210D01*
X129841670Y-43819936D01*
X129929992Y-43955039D01*
X128989192Y-43954218D01*
X128501507Y-44155725D01*
X128511300Y-44132085D01*
X128511300Y-43980514D01*
X128511300Y-39179914D01*
X128453296Y-39039880D01*
X128346119Y-38932704D01*
X128206085Y-38874700D01*
X128054514Y-38874700D01*
X123253914Y-38874700D01*
X123113880Y-38932704D01*
X123006704Y-39039881D01*
X122948700Y-39179915D01*
X122948700Y-39331486D01*
X122948700Y-44132086D01*
X123006704Y-44272120D01*
X123113881Y-44379296D01*
X123253915Y-44437300D01*
X123405486Y-44437300D01*
X127905926Y-44437300D01*
X127183503Y-45158463D01*
X126759184Y-46180338D01*
X126758218Y-47286808D01*
X127180754Y-48309422D01*
X127962463Y-49092497D01*
X128984338Y-49516816D01*
X130090808Y-49517782D01*
X131113422Y-49095246D01*
X131896497Y-48313537D01*
X132320816Y-47291662D01*
X132321782Y-46185192D01*
X131899246Y-45162578D01*
X131429498Y-44692009D01*
X132435157Y-44690221D01*
X133540779Y-44232257D01*
X133810330Y-43819936D01*
X133810330Y-49569000D01*
X120137622Y-49569000D01*
X120137622Y-43614922D01*
X120137622Y-37518922D01*
X120108083Y-37008572D01*
X119969611Y-36674271D01*
X119739016Y-36618590D01*
X119559410Y-36798195D01*
X119559410Y-36438984D01*
X119503729Y-36208389D01*
X119236729Y-36115476D01*
X119236729Y-32873608D01*
X119027005Y-32366037D01*
X118639006Y-31977360D01*
X118131801Y-31766751D01*
X117582608Y-31766271D01*
X117075037Y-31975995D01*
X116686360Y-32363994D01*
X116475751Y-32871199D01*
X116475271Y-33420392D01*
X116684995Y-33927963D01*
X117072994Y-34316640D01*
X117580199Y-34527249D01*
X118129392Y-34527729D01*
X118636963Y-34318005D01*
X119025640Y-33930006D01*
X119236249Y-33422801D01*
X119236729Y-32873608D01*
X119236729Y-36115476D01*
X119020922Y-36040378D01*
X118510572Y-36069917D01*
X118176271Y-36208389D01*
X118120590Y-36438984D01*
X118840000Y-37158395D01*
X119559410Y-36438984D01*
X119559410Y-36798195D01*
X119019605Y-37338000D01*
X119739016Y-38057410D01*
X119969611Y-38001729D01*
X120137622Y-37518922D01*
X120137622Y-43614922D01*
X120108083Y-43104572D01*
X119969611Y-42770271D01*
X119739016Y-42714590D01*
X119559410Y-42894195D01*
X119559410Y-42534984D01*
X119559410Y-38237016D01*
X118840000Y-37517605D01*
X118660395Y-37697210D01*
X118660395Y-37338000D01*
X117940984Y-36618590D01*
X117871000Y-36635488D01*
X117871000Y-36612214D01*
X117812996Y-36472180D01*
X117705819Y-36365004D01*
X117565785Y-36307000D01*
X117414214Y-36307000D01*
X116114214Y-36307000D01*
X115974180Y-36365004D01*
X115867004Y-36472181D01*
X115809000Y-36612215D01*
X115809000Y-36763786D01*
X115809000Y-38063786D01*
X115867004Y-38203820D01*
X115974181Y-38310996D01*
X116114215Y-38369000D01*
X116265786Y-38369000D01*
X117565786Y-38369000D01*
X117705820Y-38310996D01*
X117812996Y-38203819D01*
X117871000Y-38063785D01*
X117871000Y-38040511D01*
X117940984Y-38057410D01*
X118660395Y-37338000D01*
X118660395Y-37697210D01*
X118120590Y-38237016D01*
X118176271Y-38467611D01*
X118659078Y-38635622D01*
X119169428Y-38606083D01*
X119503729Y-38467611D01*
X119559410Y-38237016D01*
X119559410Y-42534984D01*
X119503729Y-42304389D01*
X119020922Y-42136378D01*
X118510572Y-42165917D01*
X118176271Y-42304389D01*
X118120590Y-42534984D01*
X118840000Y-43254395D01*
X119559410Y-42534984D01*
X119559410Y-42894195D01*
X119019605Y-43434000D01*
X119739016Y-44153410D01*
X119969611Y-44097729D01*
X120137622Y-43614922D01*
X120137622Y-49569000D01*
X119559410Y-49569000D01*
X119559410Y-44333016D01*
X118840000Y-43613605D01*
X118660395Y-43793210D01*
X118660395Y-43434000D01*
X117940984Y-42714590D01*
X117871000Y-42731488D01*
X117871000Y-42708214D01*
X117812996Y-42568180D01*
X117705819Y-42461004D01*
X117565785Y-42403000D01*
X117414214Y-42403000D01*
X116114214Y-42403000D01*
X115974180Y-42461004D01*
X115867004Y-42568181D01*
X115809000Y-42708215D01*
X115809000Y-42859786D01*
X115809000Y-44159786D01*
X115867004Y-44299820D01*
X115974181Y-44406996D01*
X116114215Y-44465000D01*
X116265786Y-44465000D01*
X117565786Y-44465000D01*
X117705820Y-44406996D01*
X117812996Y-44299819D01*
X117871000Y-44159785D01*
X117871000Y-44136511D01*
X117940984Y-44153410D01*
X118660395Y-43434000D01*
X118660395Y-43793210D01*
X118120590Y-44333016D01*
X118176271Y-44563611D01*
X118659078Y-44731622D01*
X119169428Y-44702083D01*
X119503729Y-44563611D01*
X119559410Y-44333016D01*
X119559410Y-49569000D01*
X109076729Y-49569000D01*
X109076729Y-32873608D01*
X108867005Y-32366037D01*
X108479006Y-31977360D01*
X107971801Y-31766751D01*
X107422608Y-31766271D01*
X106915037Y-31975995D01*
X106526360Y-32363994D01*
X106315751Y-32871199D01*
X106315271Y-33420392D01*
X106524995Y-33927963D01*
X106912994Y-34316640D01*
X107420199Y-34527249D01*
X107969392Y-34527729D01*
X108476963Y-34318005D01*
X108865640Y-33930006D01*
X109076249Y-33422801D01*
X109076729Y-32873608D01*
X109076729Y-49569000D01*
X103441731Y-49569000D01*
X103441731Y-46979914D01*
X103441500Y-46979354D01*
X103441500Y-43192285D01*
X103441500Y-43040714D01*
X103441500Y-41135714D01*
X103383496Y-40995680D01*
X103276319Y-40888504D01*
X103136285Y-40830500D01*
X102984714Y-40830500D01*
X101079714Y-40830500D01*
X100939680Y-40888504D01*
X100832504Y-40995681D01*
X100774500Y-41135715D01*
X100774500Y-41287286D01*
X100774500Y-43192286D01*
X100832504Y-43332320D01*
X100939681Y-43439496D01*
X101079715Y-43497500D01*
X101231286Y-43497500D01*
X103136286Y-43497500D01*
X103276320Y-43439496D01*
X103383496Y-43332319D01*
X103441500Y-43192285D01*
X103441500Y-46979354D01*
X103239146Y-46489620D01*
X102864353Y-46114173D01*
X102374413Y-45910732D01*
X101843914Y-45910269D01*
X101353620Y-46112854D01*
X100978173Y-46487647D01*
X100774732Y-46977587D01*
X100774269Y-47508086D01*
X100976854Y-47998380D01*
X101351647Y-48373827D01*
X101841587Y-48577268D01*
X102372086Y-48577731D01*
X102862380Y-48375146D01*
X103237827Y-48000353D01*
X103441268Y-47510413D01*
X103441731Y-46979914D01*
X103441731Y-49569000D01*
X97297000Y-49569000D01*
X97297000Y-43397785D01*
X97297000Y-43246214D01*
X97297000Y-41946214D01*
X97297000Y-35777785D01*
X97297000Y-35626214D01*
X97297000Y-34326214D01*
X97238996Y-34186180D01*
X97131819Y-34079004D01*
X96991785Y-34021000D01*
X96840214Y-34021000D01*
X95540214Y-34021000D01*
X95400180Y-34079004D01*
X95293004Y-34186181D01*
X95235000Y-34326215D01*
X95235000Y-34349488D01*
X95165016Y-34332590D01*
X94985410Y-34512195D01*
X94985410Y-34152984D01*
X94929729Y-33922389D01*
X94446922Y-33754378D01*
X93936572Y-33783917D01*
X93602271Y-33922389D01*
X93546590Y-34152984D01*
X94266000Y-34872395D01*
X94985410Y-34152984D01*
X94985410Y-34512195D01*
X94445605Y-35052000D01*
X95165016Y-35771410D01*
X95235000Y-35754511D01*
X95235000Y-35777786D01*
X95293004Y-35917820D01*
X95400181Y-36024996D01*
X95540215Y-36083000D01*
X95691786Y-36083000D01*
X96991786Y-36083000D01*
X97131820Y-36024996D01*
X97238996Y-35917819D01*
X97297000Y-35777785D01*
X97297000Y-41946214D01*
X97238996Y-41806180D01*
X97131819Y-41699004D01*
X96991785Y-41641000D01*
X96840214Y-41641000D01*
X95540214Y-41641000D01*
X95400180Y-41699004D01*
X95293004Y-41806181D01*
X95235000Y-41946215D01*
X95235000Y-41969488D01*
X95165016Y-41952590D01*
X94985410Y-42132195D01*
X94985410Y-41772984D01*
X94985410Y-35951016D01*
X94266000Y-35231605D01*
X94086395Y-35411210D01*
X94086395Y-35052000D01*
X93366984Y-34332590D01*
X93136389Y-34388271D01*
X92968378Y-34871078D01*
X92997917Y-35381428D01*
X93136389Y-35715729D01*
X93366984Y-35771410D01*
X94086395Y-35052000D01*
X94086395Y-35411210D01*
X93546590Y-35951016D01*
X93602271Y-36181611D01*
X94085078Y-36349622D01*
X94595428Y-36320083D01*
X94929729Y-36181611D01*
X94985410Y-35951016D01*
X94985410Y-41772984D01*
X94929729Y-41542389D01*
X94446922Y-41374378D01*
X93936572Y-41403917D01*
X93602271Y-41542389D01*
X93546590Y-41772984D01*
X94266000Y-42492395D01*
X94985410Y-41772984D01*
X94985410Y-42132195D01*
X94445605Y-42672000D01*
X95165016Y-43391410D01*
X95235000Y-43374511D01*
X95235000Y-43397786D01*
X95293004Y-43537820D01*
X95400181Y-43644996D01*
X95540215Y-43703000D01*
X95691786Y-43703000D01*
X96991786Y-43703000D01*
X97131820Y-43644996D01*
X97238996Y-43537819D01*
X97297000Y-43397785D01*
X97297000Y-49569000D01*
X94985410Y-49569000D01*
X94985410Y-43571016D01*
X94266000Y-42851605D01*
X94086395Y-43031210D01*
X94086395Y-42672000D01*
X93366984Y-41952590D01*
X93136389Y-42008271D01*
X93022408Y-42335813D01*
X93022408Y-38628699D01*
X92998356Y-37978700D01*
X92795887Y-37489896D01*
X92529032Y-37391233D01*
X92349427Y-37570838D01*
X92349427Y-37211628D01*
X92250764Y-36944773D01*
X91641039Y-36718252D01*
X90991040Y-36742304D01*
X90502236Y-36944773D01*
X90403573Y-37211628D01*
X91376500Y-38184555D01*
X92349427Y-37211628D01*
X92349427Y-37570838D01*
X91556105Y-38364160D01*
X92529032Y-39337087D01*
X92795887Y-39238424D01*
X93022408Y-38628699D01*
X93022408Y-42335813D01*
X92968378Y-42491078D01*
X92997917Y-43001428D01*
X93136389Y-43335729D01*
X93366984Y-43391410D01*
X94086395Y-42672000D01*
X94086395Y-43031210D01*
X93546590Y-43571016D01*
X93602271Y-43801611D01*
X94085078Y-43969622D01*
X94595428Y-43940083D01*
X94929729Y-43801611D01*
X94985410Y-43571016D01*
X94985410Y-49569000D01*
X92773643Y-49569000D01*
X92773643Y-43778518D01*
X92648233Y-43475002D01*
X92416219Y-43242583D01*
X92349427Y-43214848D01*
X92349427Y-39516692D01*
X91376500Y-38543765D01*
X91196895Y-38723370D01*
X91196895Y-38364160D01*
X90223968Y-37391233D01*
X89957113Y-37489896D01*
X89730592Y-38099621D01*
X89754644Y-38749620D01*
X89957113Y-39238424D01*
X90223968Y-39337087D01*
X91196895Y-38364160D01*
X91196895Y-38723370D01*
X90403573Y-39516692D01*
X90502236Y-39783547D01*
X91111961Y-40010068D01*
X91761960Y-39986016D01*
X92250764Y-39783547D01*
X92349427Y-39516692D01*
X92349427Y-43214848D01*
X92112923Y-43116643D01*
X92020588Y-43116562D01*
X91000013Y-42095987D01*
X90794004Y-41958336D01*
X90551000Y-41910000D01*
X60281358Y-41910000D01*
X60281358Y-37824026D01*
X60281358Y-37105974D01*
X60278709Y-37090209D01*
X60024732Y-36562964D01*
X59588320Y-36173046D01*
X59315757Y-36077704D01*
X59330057Y-36074860D01*
X59733834Y-35805065D01*
X60003629Y-35401288D01*
X60098369Y-34925000D01*
X60003629Y-34448712D01*
X59733834Y-34044935D01*
X59330057Y-33775140D01*
X58853769Y-33680400D01*
X58494231Y-33680400D01*
X58017943Y-33775140D01*
X57614166Y-34044935D01*
X57344371Y-34448712D01*
X57249631Y-34925000D01*
X57344371Y-35401288D01*
X57614166Y-35805065D01*
X58017943Y-36074860D01*
X58032242Y-36077704D01*
X57759680Y-36173046D01*
X57323268Y-36562964D01*
X57069291Y-37090209D01*
X57066642Y-37105974D01*
X57187783Y-37338000D01*
X58547000Y-37338000D01*
X58547000Y-37318000D01*
X58801000Y-37318000D01*
X58801000Y-37338000D01*
X60160217Y-37338000D01*
X60281358Y-37105974D01*
X60281358Y-37824026D01*
X60160217Y-37592000D01*
X58801000Y-37592000D01*
X58801000Y-37612000D01*
X58547000Y-37612000D01*
X58547000Y-37592000D01*
X57187783Y-37592000D01*
X57066642Y-37824026D01*
X57069291Y-37839791D01*
X57323268Y-38367036D01*
X57759680Y-38756954D01*
X58032242Y-38852295D01*
X58017943Y-38855140D01*
X57614166Y-39124935D01*
X57344371Y-39528712D01*
X57249631Y-40005000D01*
X57344371Y-40481288D01*
X57614166Y-40885065D01*
X58017943Y-41154860D01*
X58494231Y-41249600D01*
X58853769Y-41249600D01*
X59330057Y-41154860D01*
X59733834Y-40885065D01*
X60003629Y-40481288D01*
X60098369Y-40005000D01*
X60003629Y-39528712D01*
X59733834Y-39124935D01*
X59330057Y-38855140D01*
X59315757Y-38852295D01*
X59588320Y-38756954D01*
X60024732Y-38367036D01*
X60278709Y-37839791D01*
X60281358Y-37824026D01*
X60281358Y-41910000D01*
X59897581Y-41910000D01*
X59733834Y-41664935D01*
X59330057Y-41395140D01*
X58853769Y-41300400D01*
X58494231Y-41300400D01*
X58017943Y-41395140D01*
X57614166Y-41664935D01*
X57344371Y-42068712D01*
X57249631Y-42545000D01*
X57344371Y-43021288D01*
X57614166Y-43425065D01*
X58017943Y-43694860D01*
X58494231Y-43789600D01*
X58853769Y-43789600D01*
X59330057Y-43694860D01*
X59733834Y-43425065D01*
X59897581Y-43180000D01*
X90287973Y-43180000D01*
X91122436Y-44014462D01*
X91122357Y-44105482D01*
X91247767Y-44408998D01*
X91421345Y-44582879D01*
X91103007Y-44582601D01*
X90595249Y-44792403D01*
X90206428Y-45180545D01*
X89995741Y-45687937D01*
X89995261Y-46237333D01*
X90205063Y-46745091D01*
X90593205Y-47133912D01*
X91100597Y-47344599D01*
X91649993Y-47345079D01*
X92157751Y-47135277D01*
X92546572Y-46747135D01*
X92757259Y-46239743D01*
X92757739Y-45690347D01*
X92547937Y-45182589D01*
X92159795Y-44793768D01*
X92096848Y-44767630D01*
X92111482Y-44767643D01*
X92414998Y-44642233D01*
X92647417Y-44410219D01*
X92773357Y-44106923D01*
X92773643Y-43778518D01*
X92773643Y-49569000D01*
X73990705Y-49569000D01*
X74211315Y-49348390D01*
X76868876Y-49348390D01*
X77008910Y-49290386D01*
X77116086Y-49183209D01*
X77174090Y-49043175D01*
X77174090Y-48891604D01*
X77174090Y-46293184D01*
X77116086Y-46153150D01*
X77008909Y-46045974D01*
X76868875Y-45987970D01*
X76717304Y-45987970D01*
X73118124Y-45987970D01*
X72978090Y-46045974D01*
X72870914Y-46153151D01*
X72812910Y-46293185D01*
X72812910Y-46444756D01*
X72812910Y-48641000D01*
X60071000Y-48641000D01*
X60071000Y-46024385D01*
X60071000Y-45872814D01*
X60071000Y-44145614D01*
X60012996Y-44005580D01*
X59905819Y-43898404D01*
X59765785Y-43840400D01*
X59614214Y-43840400D01*
X57582214Y-43840400D01*
X57442180Y-43898404D01*
X57335004Y-44005581D01*
X57277000Y-44145615D01*
X57277000Y-44297186D01*
X57277000Y-46024386D01*
X57335004Y-46164420D01*
X57442181Y-46271596D01*
X57582215Y-46329600D01*
X57733786Y-46329600D01*
X59765786Y-46329600D01*
X59905820Y-46271596D01*
X60012996Y-46164419D01*
X60071000Y-46024385D01*
X60071000Y-48641000D01*
X56471358Y-48641000D01*
X56471358Y-35284026D01*
X56471358Y-34565974D01*
X56468709Y-34550209D01*
X56214732Y-34022964D01*
X55778320Y-33633046D01*
X55225913Y-33439816D01*
X54991000Y-33584076D01*
X54991000Y-34798000D01*
X56350217Y-34798000D01*
X56471358Y-34565974D01*
X56471358Y-35284026D01*
X56350217Y-35052000D01*
X54991000Y-35052000D01*
X54991000Y-35072000D01*
X54737000Y-35072000D01*
X54737000Y-35052000D01*
X54717000Y-35052000D01*
X54717000Y-34798000D01*
X54737000Y-34798000D01*
X54737000Y-33584076D01*
X54502087Y-33439816D01*
X53949680Y-33633046D01*
X53513268Y-34022964D01*
X53261958Y-34544671D01*
X53191210Y-34438790D01*
X52429210Y-33676790D01*
X52264403Y-33566669D01*
X52070000Y-33528000D01*
X51410917Y-33528000D01*
X51564382Y-33425458D01*
X51798714Y-33074757D01*
X51881000Y-32661076D01*
X51881000Y-32108924D01*
X51798714Y-31695243D01*
X51564382Y-31344542D01*
X51213681Y-31110210D01*
X50800000Y-31027924D01*
X50386319Y-31110210D01*
X50035618Y-31344542D01*
X49801286Y-31695243D01*
X49719000Y-32108924D01*
X49719000Y-32661076D01*
X49801286Y-33074757D01*
X50035618Y-33425458D01*
X50189082Y-33528000D01*
X48870917Y-33528000D01*
X49024382Y-33425458D01*
X49258714Y-33074757D01*
X49341000Y-32661076D01*
X49341000Y-32108924D01*
X49258714Y-31695243D01*
X49024382Y-31344542D01*
X48673681Y-31110210D01*
X48260000Y-31027924D01*
X47846319Y-31110210D01*
X47495618Y-31344542D01*
X47261286Y-31695243D01*
X47179000Y-32108924D01*
X47179000Y-32661076D01*
X47261286Y-33074757D01*
X47495618Y-33425458D01*
X47649082Y-33528000D01*
X46330917Y-33528000D01*
X46484382Y-33425458D01*
X46718714Y-33074757D01*
X46801000Y-32661076D01*
X46801000Y-32108924D01*
X46718714Y-31695243D01*
X46484382Y-31344542D01*
X46133681Y-31110210D01*
X45720000Y-31027924D01*
X45306319Y-31110210D01*
X44955618Y-31344542D01*
X44721286Y-31695243D01*
X44639000Y-32108924D01*
X44639000Y-32661076D01*
X44721286Y-33074757D01*
X44955618Y-33425458D01*
X45109082Y-33528000D01*
X43790917Y-33528000D01*
X43944382Y-33425458D01*
X44178714Y-33074757D01*
X44261000Y-32661076D01*
X44261000Y-32108924D01*
X44178714Y-31695243D01*
X43944382Y-31344542D01*
X43593681Y-31110210D01*
X43180000Y-31027924D01*
X42766319Y-31110210D01*
X42415618Y-31344542D01*
X42181286Y-31695243D01*
X42099000Y-32108924D01*
X42099000Y-32661076D01*
X42181286Y-33074757D01*
X42415618Y-33425458D01*
X42569082Y-33528000D01*
X41250917Y-33528000D01*
X41404382Y-33425458D01*
X41638714Y-33074757D01*
X41721000Y-32661076D01*
X41721000Y-32108924D01*
X41638714Y-31695243D01*
X41404382Y-31344542D01*
X41053681Y-31110210D01*
X40640000Y-31027924D01*
X40226319Y-31110210D01*
X39875618Y-31344542D01*
X39641286Y-31695243D01*
X39559000Y-32108924D01*
X39559000Y-32661076D01*
X39641286Y-33074757D01*
X39875618Y-33425458D01*
X40029082Y-33528000D01*
X38710917Y-33528000D01*
X38864382Y-33425458D01*
X39098714Y-33074757D01*
X39181000Y-32661076D01*
X39181000Y-32108924D01*
X39098714Y-31695243D01*
X38864382Y-31344542D01*
X38513681Y-31110210D01*
X38100000Y-31027924D01*
X37686319Y-31110210D01*
X37335618Y-31344542D01*
X37101286Y-31695243D01*
X37019000Y-32108924D01*
X37019000Y-32661076D01*
X37101286Y-33074757D01*
X37335618Y-33425458D01*
X37592000Y-33596767D01*
X37592000Y-33655000D01*
X37630669Y-33849403D01*
X37740790Y-34014210D01*
X37762581Y-34036002D01*
X36659421Y-34036002D01*
X36159229Y-33535809D01*
X36324382Y-33425458D01*
X36558714Y-33074757D01*
X36641000Y-32661076D01*
X36641000Y-32108924D01*
X36558714Y-31695243D01*
X36324382Y-31344542D01*
X35973681Y-31110210D01*
X35560000Y-31027924D01*
X35146319Y-31110210D01*
X34795618Y-31344542D01*
X34561286Y-31695243D01*
X34479000Y-32108924D01*
X34479000Y-32661076D01*
X34561286Y-33074757D01*
X34795618Y-33425458D01*
X34949082Y-33528000D01*
X33630917Y-33528000D01*
X33784382Y-33425458D01*
X34018714Y-33074757D01*
X34101000Y-32661076D01*
X34101000Y-32108924D01*
X34018714Y-31695243D01*
X33845643Y-31436225D01*
X33845643Y-29173518D01*
X33720233Y-28870002D01*
X33488219Y-28637583D01*
X33184923Y-28511643D01*
X32856518Y-28511357D01*
X32553002Y-28636767D01*
X32360433Y-28829000D01*
X22479000Y-28829000D01*
X22284597Y-28867669D01*
X22119790Y-28977790D01*
X21230790Y-29866790D01*
X21120669Y-30031597D01*
X21082000Y-30226000D01*
X21082000Y-31342950D01*
X20733681Y-31110210D01*
X20320000Y-31027924D01*
X19906319Y-31110210D01*
X19558000Y-31342950D01*
X19558000Y-30226000D01*
X19519331Y-30031597D01*
X19409210Y-29866790D01*
X18520210Y-28977790D01*
X18355403Y-28867669D01*
X18161000Y-28829000D01*
X8660302Y-28829000D01*
X8469219Y-28637583D01*
X8165923Y-28511643D01*
X7837518Y-28511357D01*
X7534002Y-28636767D01*
X7301583Y-28868781D01*
X7175643Y-29172077D01*
X7175357Y-29500482D01*
X7300767Y-29803998D01*
X7532781Y-30036417D01*
X7836077Y-30162357D01*
X8164482Y-30162643D01*
X8467998Y-30037233D01*
X8660566Y-29845000D01*
X17950580Y-29845000D01*
X18542000Y-30436420D01*
X18542000Y-31342950D01*
X18193681Y-31110210D01*
X17780000Y-31027924D01*
X17366319Y-31110210D01*
X17015618Y-31344542D01*
X16781286Y-31695243D01*
X16699000Y-32108924D01*
X16699000Y-32661076D01*
X16781286Y-33074757D01*
X17015618Y-33425458D01*
X17366319Y-33659790D01*
X17780000Y-33742076D01*
X18193681Y-33659790D01*
X18542000Y-33427049D01*
X18542000Y-36830000D01*
X18580669Y-37024403D01*
X18690790Y-37189210D01*
X19812092Y-38310512D01*
X19811857Y-38580982D01*
X19937267Y-38884498D01*
X20169281Y-39116917D01*
X20472577Y-39242857D01*
X20800982Y-39243143D01*
X21104498Y-39117733D01*
X21336917Y-38885719D01*
X21462857Y-38582423D01*
X21463143Y-38254018D01*
X21337733Y-37950502D01*
X21105719Y-37718083D01*
X20802423Y-37592143D01*
X20530326Y-37591906D01*
X19558000Y-36619580D01*
X19558000Y-33427049D01*
X19812000Y-33596767D01*
X19812000Y-36195000D01*
X19850669Y-36389403D01*
X19960790Y-36554210D01*
X20818040Y-37411461D01*
X20982847Y-37521581D01*
X21177250Y-37560250D01*
X21982829Y-37560250D01*
X22542500Y-38119920D01*
X22542500Y-38461080D01*
X21506580Y-39497000D01*
X16321000Y-39497000D01*
X16321000Y-32661076D01*
X16321000Y-32108924D01*
X16238714Y-31695243D01*
X16004382Y-31344542D01*
X15653681Y-31110210D01*
X15240000Y-31027924D01*
X14826319Y-31110210D01*
X14475618Y-31344542D01*
X14241286Y-31695243D01*
X14159000Y-32108924D01*
X14159000Y-32661076D01*
X14241286Y-33074757D01*
X14475618Y-33425458D01*
X14826319Y-33659790D01*
X15240000Y-33742076D01*
X15653681Y-33659790D01*
X16004382Y-33425458D01*
X16238714Y-33074757D01*
X16321000Y-32661076D01*
X16321000Y-39497000D01*
X15240000Y-39497000D01*
X15045597Y-39535669D01*
X14990910Y-39572209D01*
X14880789Y-39645790D01*
X13822987Y-40703592D01*
X13781000Y-40703555D01*
X13781000Y-32661076D01*
X13781000Y-32108924D01*
X13698714Y-31695243D01*
X13464382Y-31344542D01*
X13113681Y-31110210D01*
X12700000Y-31027924D01*
X12286319Y-31110210D01*
X11935618Y-31344542D01*
X11701286Y-31695243D01*
X11619000Y-32108924D01*
X11619000Y-32661076D01*
X11701286Y-33074757D01*
X11935618Y-33425458D01*
X12286319Y-33659790D01*
X12700000Y-33742076D01*
X13113681Y-33659790D01*
X13464382Y-33425458D01*
X13698714Y-33074757D01*
X13781000Y-32661076D01*
X13781000Y-40703555D01*
X13552518Y-40703357D01*
X13249002Y-40828767D01*
X13016583Y-41060781D01*
X12890643Y-41364077D01*
X12890357Y-41692482D01*
X13015767Y-41995998D01*
X13247781Y-42228417D01*
X13551077Y-42354357D01*
X13879482Y-42354643D01*
X14182998Y-42229233D01*
X14415417Y-41997219D01*
X14541357Y-41693923D01*
X14541593Y-41421826D01*
X15450420Y-40513000D01*
X21717000Y-40513000D01*
X21911403Y-40474331D01*
X22076210Y-40364210D01*
X23409710Y-39030710D01*
X23519831Y-38865903D01*
X23558500Y-38671500D01*
X23558500Y-37909500D01*
X23519831Y-37715097D01*
X23409711Y-37550290D01*
X22552460Y-36693040D01*
X22387653Y-36582919D01*
X22193250Y-36544250D01*
X21387670Y-36544250D01*
X20828000Y-35984579D01*
X20828000Y-33596767D01*
X21082000Y-33427049D01*
X21082000Y-35154476D01*
X21017583Y-35218781D01*
X20891643Y-35522077D01*
X20891357Y-35850482D01*
X21016767Y-36153998D01*
X21248781Y-36386417D01*
X21552077Y-36512357D01*
X21880482Y-36512643D01*
X22183998Y-36387233D01*
X22416417Y-36155219D01*
X22542357Y-35851923D01*
X22542643Y-35523518D01*
X22417233Y-35220002D01*
X22185219Y-34987583D01*
X22098000Y-34951366D01*
X22098000Y-33427049D01*
X22446319Y-33659790D01*
X22860000Y-33742076D01*
X23273681Y-33659790D01*
X23624382Y-33425458D01*
X23858714Y-33074757D01*
X23941000Y-32661076D01*
X23941000Y-32108924D01*
X23858714Y-31695243D01*
X23624382Y-31344542D01*
X23273681Y-31110210D01*
X22860000Y-31027924D01*
X22446319Y-31110210D01*
X22098000Y-31342950D01*
X22098000Y-30436420D01*
X22689420Y-29845000D01*
X32360697Y-29845000D01*
X32551781Y-30036417D01*
X32855077Y-30162357D01*
X33183482Y-30162643D01*
X33486998Y-30037233D01*
X33719417Y-29805219D01*
X33845357Y-29501923D01*
X33845643Y-29173518D01*
X33845643Y-31436225D01*
X33784382Y-31344542D01*
X33433681Y-31110210D01*
X33020000Y-31027924D01*
X32606319Y-31110210D01*
X32255618Y-31344542D01*
X32021286Y-31695243D01*
X31939000Y-32108924D01*
X31939000Y-32661076D01*
X32021286Y-33074757D01*
X32255618Y-33425458D01*
X32409082Y-33528000D01*
X31090917Y-33528000D01*
X31244382Y-33425458D01*
X31478714Y-33074757D01*
X31561000Y-32661076D01*
X31561000Y-32108924D01*
X31478714Y-31695243D01*
X31244382Y-31344542D01*
X30893681Y-31110210D01*
X30480000Y-31027924D01*
X30066319Y-31110210D01*
X29715618Y-31344542D01*
X29481286Y-31695243D01*
X29399000Y-32108924D01*
X29399000Y-32661076D01*
X29481286Y-33074757D01*
X29715618Y-33425458D01*
X29869082Y-33528000D01*
X28550917Y-33528000D01*
X28704382Y-33425458D01*
X28938714Y-33074757D01*
X29021000Y-32661076D01*
X29021000Y-32108924D01*
X28938714Y-31695243D01*
X28704382Y-31344542D01*
X28353681Y-31110210D01*
X27940000Y-31027924D01*
X27526319Y-31110210D01*
X27175618Y-31344542D01*
X26941286Y-31695243D01*
X26859000Y-32108924D01*
X26859000Y-32661076D01*
X26941286Y-33074757D01*
X27175618Y-33425458D01*
X27432000Y-33596767D01*
X27432000Y-33655000D01*
X27470669Y-33849403D01*
X27580790Y-34014210D01*
X27602581Y-34036002D01*
X26499422Y-34036002D01*
X25999229Y-33535809D01*
X26164382Y-33425458D01*
X26398714Y-33074757D01*
X26481000Y-32661076D01*
X26481000Y-32108924D01*
X26398714Y-31695243D01*
X26164382Y-31344542D01*
X25813681Y-31110210D01*
X25400000Y-31027924D01*
X24986319Y-31110210D01*
X24635618Y-31344542D01*
X24401286Y-31695243D01*
X24319000Y-32108924D01*
X24319000Y-32661076D01*
X24401286Y-33074757D01*
X24635618Y-33425458D01*
X24892000Y-33596767D01*
X24892000Y-33655000D01*
X24930669Y-33849403D01*
X25040790Y-34014210D01*
X25929792Y-34903212D01*
X26094599Y-35013333D01*
X26289002Y-35052002D01*
X34801733Y-35052002D01*
X35668948Y-35919217D01*
X35833755Y-36029337D01*
X36028158Y-36068006D01*
X47922585Y-36068006D01*
X48641000Y-36786420D01*
X48641000Y-38075697D01*
X48449583Y-38266781D01*
X48323643Y-38570077D01*
X48323357Y-38898482D01*
X48448767Y-39201998D01*
X48680781Y-39434417D01*
X48984077Y-39560357D01*
X49312482Y-39560643D01*
X49615998Y-39435233D01*
X49848417Y-39203219D01*
X49974357Y-38899923D01*
X49974643Y-38571518D01*
X49849233Y-38268002D01*
X49657000Y-38075433D01*
X49657000Y-36576000D01*
X49618331Y-36381597D01*
X49618330Y-36381596D01*
X49581790Y-36326910D01*
X49508210Y-36216790D01*
X49508210Y-36216789D01*
X48851424Y-35560004D01*
X49192583Y-35560004D01*
X49720592Y-36088013D01*
X49720357Y-36358482D01*
X49845767Y-36661998D01*
X50077781Y-36894417D01*
X50381077Y-37020357D01*
X50709482Y-37020643D01*
X51012998Y-36895233D01*
X51181000Y-36727523D01*
X51181000Y-36805697D01*
X50989583Y-36996781D01*
X50863643Y-37300077D01*
X50863357Y-37628482D01*
X50988767Y-37931998D01*
X51220781Y-38164417D01*
X51524077Y-38290357D01*
X51852482Y-38290643D01*
X52155998Y-38165233D01*
X52324000Y-37997523D01*
X52324000Y-39243000D01*
X52362669Y-39437403D01*
X52472790Y-39602210D01*
X53234790Y-40364210D01*
X53399597Y-40474331D01*
X53549668Y-40504181D01*
X53804166Y-40885065D01*
X54207943Y-41154860D01*
X54684231Y-41249600D01*
X55043769Y-41249600D01*
X55520057Y-41154860D01*
X55923834Y-40885065D01*
X56193629Y-40481288D01*
X56288369Y-40005000D01*
X56193629Y-39528712D01*
X55923834Y-39124935D01*
X55520057Y-38855140D01*
X55043769Y-38760400D01*
X54684231Y-38760400D01*
X54207943Y-38855140D01*
X53804166Y-39124935D01*
X53655239Y-39347819D01*
X53340000Y-39032580D01*
X53340000Y-35467339D01*
X53513268Y-35827036D01*
X53949680Y-36216954D01*
X54222242Y-36312295D01*
X54207943Y-36315140D01*
X53804166Y-36584935D01*
X53534371Y-36988712D01*
X53439631Y-37465000D01*
X53534371Y-37941288D01*
X53804166Y-38345065D01*
X54207943Y-38614860D01*
X54684231Y-38709600D01*
X55043769Y-38709600D01*
X55520057Y-38614860D01*
X55923834Y-38345065D01*
X56193629Y-37941288D01*
X56288369Y-37465000D01*
X56193629Y-36988712D01*
X55923834Y-36584935D01*
X55520057Y-36315140D01*
X55505757Y-36312295D01*
X55778320Y-36216954D01*
X56214732Y-35827036D01*
X56468709Y-35299791D01*
X56471358Y-35284026D01*
X56471358Y-48641000D01*
X56261000Y-48641000D01*
X56261000Y-43484385D01*
X56261000Y-43332814D01*
X56261000Y-41605614D01*
X56202996Y-41465580D01*
X56095819Y-41358404D01*
X55955785Y-41300400D01*
X55804214Y-41300400D01*
X53772214Y-41300400D01*
X53632180Y-41358404D01*
X53525004Y-41465581D01*
X53467000Y-41605615D01*
X53467000Y-41757186D01*
X53467000Y-43484386D01*
X53525004Y-43624420D01*
X53632181Y-43731596D01*
X53772215Y-43789600D01*
X53923786Y-43789600D01*
X55955786Y-43789600D01*
X56095820Y-43731596D01*
X56202996Y-43624419D01*
X56261000Y-43484385D01*
X56261000Y-48641000D01*
X51580724Y-48641000D01*
X51798714Y-48314757D01*
X51881000Y-47901076D01*
X51881000Y-47348924D01*
X51798714Y-46935243D01*
X51564382Y-46584542D01*
X51213681Y-46350210D01*
X50800000Y-46267924D01*
X50386319Y-46350210D01*
X50035618Y-46584542D01*
X49801286Y-46935243D01*
X49719000Y-47348924D01*
X49719000Y-47901076D01*
X49801286Y-48314757D01*
X50019275Y-48641000D01*
X49040724Y-48641000D01*
X49258714Y-48314757D01*
X49341000Y-47901076D01*
X49341000Y-47348924D01*
X49258714Y-46935243D01*
X49024382Y-46584542D01*
X48673681Y-46350210D01*
X48260000Y-46267924D01*
X47846319Y-46350210D01*
X47495618Y-46584542D01*
X47261286Y-46935243D01*
X47179000Y-47348924D01*
X47179000Y-47901076D01*
X47261286Y-48314757D01*
X47479275Y-48641000D01*
X46500724Y-48641000D01*
X46718714Y-48314757D01*
X46801000Y-47901076D01*
X46801000Y-47348924D01*
X46718714Y-46935243D01*
X46484382Y-46584542D01*
X46133681Y-46350210D01*
X45720000Y-46267924D01*
X45306319Y-46350210D01*
X44955618Y-46584542D01*
X44721286Y-46935243D01*
X44639000Y-47348924D01*
X44639000Y-47901076D01*
X44721286Y-48314757D01*
X44939275Y-48641000D01*
X43960724Y-48641000D01*
X44178714Y-48314757D01*
X44261000Y-47901076D01*
X44261000Y-47348924D01*
X44178714Y-46935243D01*
X43944382Y-46584542D01*
X43593681Y-46350210D01*
X43180000Y-46267924D01*
X42766319Y-46350210D01*
X42415618Y-46584542D01*
X42181286Y-46935243D01*
X42099000Y-47348924D01*
X42099000Y-47901076D01*
X42181286Y-48314757D01*
X42399275Y-48641000D01*
X41420724Y-48641000D01*
X41638714Y-48314757D01*
X41721000Y-47901076D01*
X41721000Y-47348924D01*
X41638714Y-46935243D01*
X41404382Y-46584542D01*
X41053681Y-46350210D01*
X40640000Y-46267924D01*
X40226319Y-46350210D01*
X39875618Y-46584542D01*
X39641286Y-46935243D01*
X39559000Y-47348924D01*
X39559000Y-47901076D01*
X39641286Y-48314757D01*
X39859275Y-48641000D01*
X38880724Y-48641000D01*
X39098714Y-48314757D01*
X39181000Y-47901076D01*
X39181000Y-47348924D01*
X39098714Y-46935243D01*
X38864382Y-46584542D01*
X38513681Y-46350210D01*
X38163643Y-46280583D01*
X38163643Y-45175518D01*
X38038233Y-44872002D01*
X37806219Y-44639583D01*
X37502923Y-44513643D01*
X37174518Y-44513357D01*
X36871002Y-44638767D01*
X36678433Y-44831000D01*
X36512510Y-44831000D01*
X36661998Y-44769233D01*
X36894417Y-44537219D01*
X37020357Y-44233923D01*
X37020643Y-43905518D01*
X36895233Y-43602002D01*
X36663219Y-43369583D01*
X36359923Y-43243643D01*
X36031518Y-43243357D01*
X35728002Y-43368767D01*
X35662655Y-43434000D01*
X27568025Y-43434000D01*
X26606563Y-42472537D01*
X26606643Y-42381518D01*
X26481233Y-42078002D01*
X26249219Y-41845583D01*
X25945923Y-41719643D01*
X25617518Y-41719357D01*
X25314002Y-41844767D01*
X25081583Y-42076781D01*
X24955643Y-42380077D01*
X24955357Y-42708482D01*
X25080767Y-43011998D01*
X25312781Y-43244417D01*
X25616077Y-43370357D01*
X25708411Y-43370437D01*
X26855984Y-44518009D01*
X26855987Y-44518013D01*
X26979479Y-44600528D01*
X27061995Y-44655664D01*
X27061996Y-44655664D01*
X27305000Y-44704000D01*
X35662476Y-44704000D01*
X35726781Y-44768417D01*
X35877497Y-44831000D01*
X26948302Y-44831000D01*
X26757219Y-44639583D01*
X26453923Y-44513643D01*
X26125518Y-44513357D01*
X25822002Y-44638767D01*
X25589583Y-44870781D01*
X25463643Y-45174077D01*
X25463357Y-45502482D01*
X25588767Y-45805998D01*
X25820781Y-46038417D01*
X26124077Y-46164357D01*
X26452482Y-46164643D01*
X26755998Y-46039233D01*
X26948566Y-45847000D01*
X36678697Y-45847000D01*
X36869781Y-46038417D01*
X37173077Y-46164357D01*
X37501482Y-46164643D01*
X37804998Y-46039233D01*
X38037417Y-45807219D01*
X38163357Y-45503923D01*
X38163643Y-45175518D01*
X38163643Y-46280583D01*
X38100000Y-46267924D01*
X37686319Y-46350210D01*
X37335618Y-46584542D01*
X37101286Y-46935243D01*
X37019000Y-47348924D01*
X37019000Y-47901076D01*
X37101286Y-48314757D01*
X37319275Y-48641000D01*
X36340724Y-48641000D01*
X36558714Y-48314757D01*
X36641000Y-47901076D01*
X36641000Y-47348924D01*
X36558714Y-46935243D01*
X36324382Y-46584542D01*
X35973681Y-46350210D01*
X35560000Y-46267924D01*
X35146319Y-46350210D01*
X34795618Y-46584542D01*
X34561286Y-46935243D01*
X34479000Y-47348924D01*
X34479000Y-47901076D01*
X34561286Y-48314757D01*
X34779275Y-48641000D01*
X33800724Y-48641000D01*
X34018714Y-48314757D01*
X34101000Y-47901076D01*
X34101000Y-47348924D01*
X34018714Y-46935243D01*
X33784382Y-46584542D01*
X33433681Y-46350210D01*
X33020000Y-46267924D01*
X32606319Y-46350210D01*
X32255618Y-46584542D01*
X32021286Y-46935243D01*
X31939000Y-47348924D01*
X31939000Y-47901076D01*
X32021286Y-48314757D01*
X32239275Y-48641000D01*
X31260724Y-48641000D01*
X31478714Y-48314757D01*
X31561000Y-47901076D01*
X31561000Y-47348924D01*
X31478714Y-46935243D01*
X31244382Y-46584542D01*
X30893681Y-46350210D01*
X30480000Y-46267924D01*
X30066319Y-46350210D01*
X29715618Y-46584542D01*
X29481286Y-46935243D01*
X29399000Y-47348924D01*
X29399000Y-47901076D01*
X29481286Y-48314757D01*
X29699275Y-48641000D01*
X28720724Y-48641000D01*
X28938714Y-48314757D01*
X29021000Y-47901076D01*
X29021000Y-47348924D01*
X28938714Y-46935243D01*
X28704382Y-46584542D01*
X28353681Y-46350210D01*
X27940000Y-46267924D01*
X27526319Y-46350210D01*
X27175618Y-46584542D01*
X26941286Y-46935243D01*
X26859000Y-47348924D01*
X26859000Y-47901076D01*
X26941286Y-48314757D01*
X27159275Y-48641000D01*
X26180724Y-48641000D01*
X26398714Y-48314757D01*
X26481000Y-47901076D01*
X26481000Y-47348924D01*
X26398714Y-46935243D01*
X26164382Y-46584542D01*
X25813681Y-46350210D01*
X25400000Y-46267924D01*
X24986319Y-46350210D01*
X24635618Y-46584542D01*
X24401286Y-46935243D01*
X24319000Y-47348924D01*
X24319000Y-47901076D01*
X24401286Y-48314757D01*
X24619275Y-48641000D01*
X23640724Y-48641000D01*
X23858714Y-48314757D01*
X23941000Y-47901076D01*
X23941000Y-47348924D01*
X23858714Y-46935243D01*
X23624382Y-46584542D01*
X23273681Y-46350210D01*
X22860000Y-46267924D01*
X22446319Y-46350210D01*
X22095618Y-46584542D01*
X21861286Y-46935243D01*
X21779000Y-47348924D01*
X21779000Y-47901076D01*
X21861286Y-48314757D01*
X22079275Y-48641000D01*
X21100724Y-48641000D01*
X21318714Y-48314757D01*
X21401000Y-47901076D01*
X21401000Y-47348924D01*
X21318714Y-46935243D01*
X21084382Y-46584542D01*
X20828000Y-46413232D01*
X20828000Y-44704000D01*
X20789331Y-44509597D01*
X20789330Y-44509596D01*
X20752790Y-44454910D01*
X20679210Y-44344790D01*
X20679210Y-44344789D01*
X20637407Y-44302986D01*
X20637643Y-44032518D01*
X20512233Y-43729002D01*
X20280219Y-43496583D01*
X19976923Y-43370643D01*
X19648518Y-43370357D01*
X19345002Y-43495767D01*
X19112583Y-43727781D01*
X18986643Y-44031077D01*
X18986357Y-44359482D01*
X19111767Y-44662998D01*
X19343781Y-44895417D01*
X19647077Y-45021357D01*
X19812000Y-45021500D01*
X19812000Y-46413232D01*
X19555618Y-46584542D01*
X19321286Y-46935243D01*
X19239000Y-47348924D01*
X19239000Y-47901076D01*
X19321286Y-48314757D01*
X19539275Y-48641000D01*
X18560724Y-48641000D01*
X18778714Y-48314757D01*
X18861000Y-47901076D01*
X18861000Y-47348924D01*
X18778714Y-46935243D01*
X18544382Y-46584542D01*
X18193681Y-46350210D01*
X17780000Y-46267924D01*
X17366319Y-46350210D01*
X17015618Y-46584542D01*
X16781286Y-46935243D01*
X16699000Y-47348924D01*
X16699000Y-47901076D01*
X16781286Y-48314757D01*
X16999275Y-48641000D01*
X16020724Y-48641000D01*
X16238714Y-48314757D01*
X16321000Y-47901076D01*
X16321000Y-47348924D01*
X16238714Y-46935243D01*
X16004382Y-46584542D01*
X15653681Y-46350210D01*
X15240000Y-46267924D01*
X14826319Y-46350210D01*
X14475618Y-46584542D01*
X14241286Y-46935243D01*
X14159000Y-47348924D01*
X14159000Y-47901076D01*
X14241286Y-48314757D01*
X14459275Y-48641000D01*
X13480724Y-48641000D01*
X13698714Y-48314757D01*
X13781000Y-47901076D01*
X13781000Y-47348924D01*
X13698714Y-46935243D01*
X13464382Y-46584542D01*
X13113681Y-46350210D01*
X12700000Y-46267924D01*
X12286319Y-46350210D01*
X11935618Y-46584542D01*
X11701286Y-46935243D01*
X11619000Y-47348924D01*
X11619000Y-47901076D01*
X11701286Y-48314757D01*
X11919275Y-48641000D01*
X10940724Y-48641000D01*
X11158714Y-48314757D01*
X11241000Y-47901076D01*
X11241000Y-47348924D01*
X11158714Y-46935243D01*
X10924382Y-46584542D01*
X10573681Y-46350210D01*
X10160000Y-46267924D01*
X9746319Y-46350210D01*
X9395618Y-46584542D01*
X9161286Y-46935243D01*
X9079000Y-47348924D01*
X9079000Y-47901076D01*
X9161286Y-48314757D01*
X9379275Y-48641000D01*
X8400724Y-48641000D01*
X8618714Y-48314757D01*
X8701000Y-47901076D01*
X8701000Y-47348924D01*
X8618714Y-46935243D01*
X8384382Y-46584542D01*
X8106041Y-46398559D01*
X8259513Y-46296013D01*
X8962526Y-45593000D01*
X17272000Y-45593000D01*
X17515004Y-45544664D01*
X17721013Y-45407013D01*
X18233462Y-44894563D01*
X18324482Y-44894643D01*
X18627998Y-44769233D01*
X18860417Y-44537219D01*
X18986357Y-44233923D01*
X18986643Y-43905518D01*
X18861233Y-43602002D01*
X18629219Y-43369583D01*
X18325923Y-43243643D01*
X17997518Y-43243357D01*
X17694002Y-43368767D01*
X17461583Y-43600781D01*
X17335643Y-43904077D01*
X17335562Y-43996411D01*
X17008974Y-44323000D01*
X8699500Y-44323000D01*
X8456496Y-44371336D01*
X8250487Y-44508987D01*
X7547474Y-45212000D01*
X7342460Y-45212000D01*
X7694048Y-44860412D01*
X7885107Y-44574471D01*
X7952198Y-44237182D01*
X7898320Y-43966320D01*
X8169182Y-44020198D01*
X8506471Y-43953107D01*
X8792412Y-43762048D01*
X9177586Y-43376874D01*
X9368645Y-43090933D01*
X9435736Y-42753644D01*
X9368645Y-42416355D01*
X9177586Y-42130414D01*
X8891645Y-41939355D01*
X8554356Y-41872264D01*
X8217067Y-41939355D01*
X7931126Y-42130414D01*
X7545952Y-42515588D01*
X7354893Y-42801529D01*
X7287802Y-43138818D01*
X7341679Y-43409679D01*
X7070818Y-43355802D01*
X6733529Y-43422893D01*
X6447588Y-43613952D01*
X6062414Y-43999126D01*
X5871355Y-44285067D01*
X5804264Y-44622356D01*
X5871355Y-44959645D01*
X6039972Y-45212000D01*
X4318000Y-45212000D01*
X4074996Y-45260336D01*
X3868987Y-45397987D01*
X2922888Y-46344085D01*
X2540000Y-46267924D01*
X2126319Y-46350210D01*
X1775618Y-46584542D01*
X1541286Y-46935243D01*
X1459000Y-47348924D01*
X1459000Y-47901076D01*
X1541286Y-48314757D01*
X1775618Y-48665458D01*
X2126319Y-48899790D01*
X2540000Y-48982076D01*
X2953681Y-48899790D01*
X3304382Y-48665458D01*
X3538714Y-48314757D01*
X3621000Y-47901076D01*
X3621000Y-47442026D01*
X3753704Y-47309321D01*
X3897923Y-47498000D01*
X4953000Y-47498000D01*
X4953000Y-47478000D01*
X5207000Y-47478000D01*
X5207000Y-47498000D01*
X6262077Y-47498000D01*
X6423561Y-47286734D01*
X6287511Y-46779294D01*
X6059317Y-46482000D01*
X7009082Y-46482000D01*
X6855618Y-46584542D01*
X6621286Y-46935243D01*
X6539000Y-47348924D01*
X6539000Y-47901076D01*
X6621286Y-48314757D01*
X6855618Y-48665458D01*
X6985000Y-48751908D01*
X6985000Y-48895000D01*
X7033336Y-49138004D01*
X7170987Y-49344013D01*
X7395974Y-49569000D01*
X6423561Y-49569000D01*
X6423561Y-47963266D01*
X6262077Y-47752000D01*
X5207000Y-47752000D01*
X5207000Y-49044374D01*
X5413329Y-49167716D01*
X5512612Y-49150067D01*
X5967628Y-48887455D01*
X6287511Y-48470706D01*
X6423561Y-47963266D01*
X6423561Y-49569000D01*
X4953000Y-49569000D01*
X4953000Y-49044374D01*
X4953000Y-47752000D01*
X3897923Y-47752000D01*
X3736439Y-47963266D01*
X3872489Y-48470706D01*
X4192372Y-48887455D01*
X4647388Y-49150067D01*
X4746671Y-49167716D01*
X4953000Y-49044374D01*
X4953000Y-49569000D01*
X431000Y-49569000D01*
X431000Y-431000D01*
X149569000Y-431000D01*
X149569000Y-49569000D01*
X149569000Y-49569000D01*
G37*
X149569000Y-49569000D02*
X148209264Y-49569000D01*
X148209264Y-44783188D01*
X147977738Y-44222851D01*
X147549404Y-43793769D01*
X147320000Y-43698512D01*
X147320000Y-39613593D01*
X147547149Y-39519738D01*
X147976231Y-39091404D01*
X148208735Y-38531472D01*
X148209264Y-37925188D01*
X147977738Y-37364851D01*
X147549404Y-36935769D01*
X147320000Y-36840512D01*
X147320000Y-28829000D01*
X147271664Y-28585996D01*
X147134013Y-28379987D01*
X144508440Y-25754414D01*
X144508440Y-15676830D01*
X144508440Y-11178490D01*
X144508440Y-6680150D01*
X144315502Y-6213202D01*
X143958557Y-5855634D01*
X143491947Y-5661881D01*
X142986710Y-5661440D01*
X142758380Y-5755783D01*
X142758380Y-3180030D01*
X142565442Y-2713082D01*
X142208497Y-2355514D01*
X141741887Y-2161761D01*
X141236650Y-2161320D01*
X140769702Y-2354258D01*
X140412134Y-2711203D01*
X140218381Y-3177813D01*
X140217940Y-3683050D01*
X140410878Y-4149998D01*
X140767823Y-4507566D01*
X141234433Y-4701319D01*
X141739670Y-4701760D01*
X142206618Y-4508822D01*
X142564186Y-4151877D01*
X142757939Y-3685267D01*
X142758380Y-3180030D01*
X142758380Y-5755783D01*
X142519762Y-5854378D01*
X142162194Y-6211323D01*
X141968441Y-6677933D01*
X141968000Y-7183170D01*
X142160938Y-7650118D01*
X142517883Y-8007686D01*
X142984493Y-8201439D01*
X143489730Y-8201880D01*
X143956678Y-8008942D01*
X144314246Y-7651997D01*
X144507999Y-7185387D01*
X144508440Y-6680150D01*
X144508440Y-11178490D01*
X144315502Y-10711542D01*
X143958557Y-10353974D01*
X143491947Y-10160221D01*
X142986710Y-10159780D01*
X142519762Y-10352718D01*
X142162194Y-10709663D01*
X141968441Y-11176273D01*
X141968000Y-11681510D01*
X142160938Y-12148458D01*
X142517883Y-12506026D01*
X142984493Y-12699779D01*
X143489730Y-12700220D01*
X143956678Y-12507282D01*
X144314246Y-12150337D01*
X144507999Y-11683727D01*
X144508440Y-11178490D01*
X144508440Y-15676830D01*
X144315502Y-15209882D01*
X143958557Y-14852314D01*
X143491947Y-14658561D01*
X142986710Y-14658120D01*
X142519762Y-14851058D01*
X142162194Y-15208003D01*
X141968441Y-15674613D01*
X141968000Y-16179850D01*
X142160938Y-16646798D01*
X142517883Y-17004366D01*
X142984493Y-17198119D01*
X143489730Y-17198560D01*
X143956678Y-17005622D01*
X144314246Y-16648677D01*
X144507999Y-16182067D01*
X144508440Y-15676830D01*
X144508440Y-25754414D01*
X143070013Y-24315987D01*
X142864004Y-24178336D01*
X142758380Y-24157326D01*
X142758380Y-19176950D01*
X142565442Y-18710002D01*
X142208497Y-18352434D01*
X141741887Y-18158681D01*
X141236650Y-18158240D01*
X140769702Y-18351178D01*
X140412134Y-18708123D01*
X140218381Y-19174733D01*
X140217940Y-19679970D01*
X140410878Y-20146918D01*
X140767823Y-20504486D01*
X141234433Y-20698239D01*
X141739670Y-20698680D01*
X142206618Y-20505742D01*
X142564186Y-20148797D01*
X142757939Y-19682187D01*
X142758380Y-19176950D01*
X142758380Y-24157326D01*
X142621000Y-24130000D01*
X138760420Y-24130000D01*
X138760420Y-20177710D01*
X138760420Y-2179270D01*
X138567482Y-1712322D01*
X138210537Y-1354754D01*
X137743927Y-1161001D01*
X137238690Y-1160560D01*
X136771742Y-1353498D01*
X136414174Y-1710443D01*
X136220421Y-2177053D01*
X136219980Y-2682290D01*
X136412918Y-3149238D01*
X136769863Y-3506806D01*
X137236473Y-3700559D01*
X137741710Y-3701000D01*
X138208658Y-3508062D01*
X138566226Y-3151117D01*
X138759979Y-2684507D01*
X138760420Y-2179270D01*
X138760420Y-20177710D01*
X138567482Y-19710762D01*
X138210537Y-19353194D01*
X138125200Y-19317759D01*
X138125200Y-9982200D01*
X138076864Y-9739196D01*
X137939213Y-9533187D01*
X133014203Y-4608177D01*
X133238513Y-4701319D01*
X133743750Y-4701760D01*
X134210698Y-4508822D01*
X134568266Y-4151877D01*
X134762019Y-3685267D01*
X134762460Y-3180030D01*
X134569522Y-2713082D01*
X134212577Y-2355514D01*
X133745967Y-2161761D01*
X133240730Y-2161320D01*
X132773782Y-2354258D01*
X132416214Y-2711203D01*
X132222461Y-3177813D01*
X132222020Y-3683050D01*
X132315629Y-3909603D01*
X131388553Y-2982527D01*
X131182544Y-2844876D01*
X130939540Y-2796540D01*
X117606325Y-2796540D01*
X117571842Y-2713082D01*
X117214897Y-2355514D01*
X116748287Y-2161761D01*
X116243050Y-2161320D01*
X115776102Y-2354258D01*
X115418534Y-2711203D01*
X115224781Y-3177813D01*
X115224340Y-3683050D01*
X115417278Y-4149998D01*
X115774223Y-4507566D01*
X116240833Y-4701319D01*
X116746070Y-4701760D01*
X117213018Y-4508822D01*
X117570586Y-4151877D01*
X117606020Y-4066540D01*
X130676514Y-4066540D01*
X136855200Y-10245226D01*
X136855200Y-19317454D01*
X136771742Y-19351938D01*
X136414174Y-19708883D01*
X136220421Y-20175493D01*
X136219980Y-20680730D01*
X136412918Y-21147678D01*
X136769863Y-21505246D01*
X137236473Y-21698999D01*
X137741710Y-21699440D01*
X138208658Y-21506502D01*
X138566226Y-21149557D01*
X138759979Y-20682947D01*
X138760420Y-20177710D01*
X138760420Y-24130000D01*
X134762460Y-24130000D01*
X134762460Y-19176950D01*
X134569522Y-18710002D01*
X134212577Y-18352434D01*
X133745967Y-18158681D01*
X133240730Y-18158240D01*
X133012400Y-18252583D01*
X133012400Y-15676830D01*
X133012400Y-11178490D01*
X133012400Y-6680150D01*
X132819462Y-6213202D01*
X132462517Y-5855634D01*
X131995907Y-5661881D01*
X131490670Y-5661440D01*
X131023722Y-5854378D01*
X130666154Y-6211323D01*
X130472401Y-6677933D01*
X130471960Y-7183170D01*
X130664898Y-7650118D01*
X131021843Y-8007686D01*
X131488453Y-8201439D01*
X131993690Y-8201880D01*
X132460638Y-8008942D01*
X132818206Y-7651997D01*
X133011959Y-7185387D01*
X133012400Y-6680150D01*
X133012400Y-11178490D01*
X132819462Y-10711542D01*
X132462517Y-10353974D01*
X131995907Y-10160221D01*
X131490670Y-10159780D01*
X131023722Y-10352718D01*
X130666154Y-10709663D01*
X130472401Y-11176273D01*
X130471960Y-11681510D01*
X130664898Y-12148458D01*
X131021843Y-12506026D01*
X131488453Y-12699779D01*
X131993690Y-12700220D01*
X132460638Y-12507282D01*
X132818206Y-12150337D01*
X133011959Y-11683727D01*
X133012400Y-11178490D01*
X133012400Y-15676830D01*
X132819462Y-15209882D01*
X132462517Y-14852314D01*
X131995907Y-14658561D01*
X131490670Y-14658120D01*
X131023722Y-14851058D01*
X130666154Y-15208003D01*
X130472401Y-15674613D01*
X130471960Y-16179850D01*
X130664898Y-16646798D01*
X131021843Y-17004366D01*
X131488453Y-17198119D01*
X131993690Y-17198560D01*
X132460638Y-17005622D01*
X132818206Y-16648677D01*
X133011959Y-16182067D01*
X133012400Y-15676830D01*
X133012400Y-18252583D01*
X132773782Y-18351178D01*
X132416214Y-18708123D01*
X132222461Y-19174733D01*
X132222020Y-19679970D01*
X132414958Y-20146918D01*
X132771903Y-20504486D01*
X133238513Y-20698239D01*
X133743750Y-20698680D01*
X134210698Y-20505742D01*
X134568266Y-20148797D01*
X134762019Y-19682187D01*
X134762460Y-19176950D01*
X134762460Y-24130000D01*
X133565023Y-24130000D01*
X133500719Y-24065583D01*
X133197423Y-23939643D01*
X132869018Y-23939357D01*
X132565502Y-24064767D01*
X132500155Y-24130000D01*
X127874899Y-24130000D01*
X127874899Y-16029448D01*
X127437217Y-14970177D01*
X126627486Y-14159031D01*
X125568980Y-13719501D01*
X124422848Y-13718501D01*
X123363577Y-14156183D01*
X122552431Y-14965914D01*
X122112901Y-16024420D01*
X122111901Y-17170552D01*
X122549583Y-18229823D01*
X123359314Y-19040969D01*
X124417820Y-19480499D01*
X125563952Y-19481499D01*
X126623223Y-19043817D01*
X127434369Y-18234086D01*
X127873899Y-17175580D01*
X127874899Y-16029448D01*
X127874899Y-24130000D01*
X119514840Y-24130000D01*
X119514840Y-15676830D01*
X119514840Y-11178490D01*
X119514840Y-6680150D01*
X119321902Y-6213202D01*
X118964957Y-5855634D01*
X118498347Y-5661881D01*
X117993110Y-5661440D01*
X117526162Y-5854378D01*
X117168594Y-6211323D01*
X116974841Y-6677933D01*
X116974400Y-7183170D01*
X117167338Y-7650118D01*
X117524283Y-8007686D01*
X117990893Y-8201439D01*
X118496130Y-8201880D01*
X118963078Y-8008942D01*
X119320646Y-7651997D01*
X119514399Y-7185387D01*
X119514840Y-6680150D01*
X119514840Y-11178490D01*
X119321902Y-10711542D01*
X118964957Y-10353974D01*
X118498347Y-10160221D01*
X117993110Y-10159780D01*
X117526162Y-10352718D01*
X117168594Y-10709663D01*
X116974841Y-11176273D01*
X116974400Y-11681510D01*
X117167338Y-12148458D01*
X117524283Y-12506026D01*
X117990893Y-12699779D01*
X118496130Y-12700220D01*
X118963078Y-12507282D01*
X119320646Y-12150337D01*
X119514399Y-11683727D01*
X119514840Y-11178490D01*
X119514840Y-15676830D01*
X119321902Y-15209882D01*
X118964957Y-14852314D01*
X118498347Y-14658561D01*
X117993110Y-14658120D01*
X117526162Y-14851058D01*
X117168594Y-15208003D01*
X116974841Y-15674613D01*
X116974400Y-16179850D01*
X117167338Y-16646798D01*
X117524283Y-17004366D01*
X117990893Y-17198119D01*
X118496130Y-17198560D01*
X118963078Y-17005622D01*
X119320646Y-16648677D01*
X119514399Y-16182067D01*
X119514840Y-15676830D01*
X119514840Y-24130000D01*
X117764780Y-24130000D01*
X117764780Y-19176950D01*
X117571842Y-18710002D01*
X117214897Y-18352434D01*
X116748287Y-18158681D01*
X116243050Y-18158240D01*
X115776102Y-18351178D01*
X115418534Y-18708123D01*
X115224781Y-19174733D01*
X115224340Y-19679970D01*
X115417278Y-20146918D01*
X115774223Y-20504486D01*
X116240833Y-20698239D01*
X116746070Y-20698680D01*
X117213018Y-20505742D01*
X117570586Y-20148797D01*
X117764339Y-19682187D01*
X117764780Y-19176950D01*
X117764780Y-24130000D01*
X113766820Y-24130000D01*
X113766820Y-20177710D01*
X113766820Y-2179270D01*
X113573882Y-1712322D01*
X113216937Y-1354754D01*
X112750327Y-1161001D01*
X112245090Y-1160560D01*
X111778142Y-1353498D01*
X111420574Y-1710443D01*
X111226821Y-2177053D01*
X111226380Y-2682290D01*
X111419318Y-3149238D01*
X111776263Y-3506806D01*
X112242873Y-3700559D01*
X112748110Y-3701000D01*
X113215058Y-3508062D01*
X113572626Y-3151117D01*
X113766379Y-2684507D01*
X113766820Y-2179270D01*
X113766820Y-20177710D01*
X113573882Y-19710762D01*
X113216937Y-19353194D01*
X113131600Y-19317759D01*
X113131600Y-10007600D01*
X113083264Y-9764596D01*
X112945613Y-9558587D01*
X107977167Y-4590141D01*
X108244913Y-4701319D01*
X108750150Y-4701760D01*
X109217098Y-4508822D01*
X109574666Y-4151877D01*
X109768419Y-3685267D01*
X109768860Y-3180030D01*
X109575922Y-2713082D01*
X109218977Y-2355514D01*
X108752367Y-2161761D01*
X108247130Y-2161320D01*
X107780182Y-2354258D01*
X107422614Y-2711203D01*
X107228861Y-3177813D01*
X107228420Y-3683050D01*
X107339914Y-3952888D01*
X106369553Y-2982527D01*
X106163544Y-2844876D01*
X105920540Y-2796540D01*
X92612725Y-2796540D01*
X92578242Y-2713082D01*
X92221297Y-2355514D01*
X91754687Y-2161761D01*
X91249450Y-2161320D01*
X90782502Y-2354258D01*
X90424934Y-2711203D01*
X90231181Y-3177813D01*
X90230740Y-3683050D01*
X90423678Y-4149998D01*
X90780623Y-4507566D01*
X91247233Y-4701319D01*
X91752470Y-4701760D01*
X92219418Y-4508822D01*
X92576986Y-4151877D01*
X92612420Y-4066540D01*
X105657514Y-4066540D01*
X107430766Y-5839792D01*
X107002307Y-5661881D01*
X106497070Y-5661440D01*
X106030122Y-5854378D01*
X105672554Y-6211323D01*
X105478801Y-6677933D01*
X105478360Y-7183170D01*
X105671298Y-7650118D01*
X106028243Y-8007686D01*
X106494853Y-8201439D01*
X107000090Y-8201880D01*
X107467038Y-8008942D01*
X107824606Y-7651997D01*
X108018359Y-7185387D01*
X108018800Y-6680150D01*
X107841131Y-6250157D01*
X111861600Y-10270626D01*
X111861600Y-19317454D01*
X111778142Y-19351938D01*
X111420574Y-19708883D01*
X111226821Y-20175493D01*
X111226380Y-20680730D01*
X111419318Y-21147678D01*
X111776263Y-21505246D01*
X112242873Y-21698999D01*
X112748110Y-21699440D01*
X113215058Y-21506502D01*
X113572626Y-21149557D01*
X113766379Y-20682947D01*
X113766820Y-20177710D01*
X113766820Y-24130000D01*
X109768860Y-24130000D01*
X109768860Y-19176950D01*
X109575922Y-18710002D01*
X109218977Y-18352434D01*
X108752367Y-18158681D01*
X108247130Y-18158240D01*
X108018800Y-18252583D01*
X108018800Y-15676830D01*
X108018800Y-11178490D01*
X107825862Y-10711542D01*
X107468917Y-10353974D01*
X107002307Y-10160221D01*
X106497070Y-10159780D01*
X106030122Y-10352718D01*
X105672554Y-10709663D01*
X105478801Y-11176273D01*
X105478360Y-11681510D01*
X105671298Y-12148458D01*
X106028243Y-12506026D01*
X106494853Y-12699779D01*
X107000090Y-12700220D01*
X107467038Y-12507282D01*
X107824606Y-12150337D01*
X108018359Y-11683727D01*
X108018800Y-11178490D01*
X108018800Y-15676830D01*
X107825862Y-15209882D01*
X107468917Y-14852314D01*
X107002307Y-14658561D01*
X106497070Y-14658120D01*
X106030122Y-14851058D01*
X105672554Y-15208003D01*
X105478801Y-15674613D01*
X105478360Y-16179850D01*
X105671298Y-16646798D01*
X106028243Y-17004366D01*
X106494853Y-17198119D01*
X107000090Y-17198560D01*
X107467038Y-17005622D01*
X107824606Y-16648677D01*
X108018359Y-16182067D01*
X108018800Y-15676830D01*
X108018800Y-18252583D01*
X107780182Y-18351178D01*
X107422614Y-18708123D01*
X107228861Y-19174733D01*
X107228420Y-19679970D01*
X107421358Y-20146918D01*
X107778303Y-20504486D01*
X108244913Y-20698239D01*
X108750150Y-20698680D01*
X109217098Y-20505742D01*
X109574666Y-20148797D01*
X109768419Y-19682187D01*
X109768860Y-19176950D01*
X109768860Y-24130000D01*
X108546023Y-24130000D01*
X108481719Y-24065583D01*
X108178423Y-23939643D01*
X107850018Y-23939357D01*
X107546502Y-24064767D01*
X107481155Y-24130000D01*
X94521240Y-24130000D01*
X94521240Y-15676830D01*
X94521240Y-11178490D01*
X94521240Y-6680150D01*
X94328302Y-6213202D01*
X93971357Y-5855634D01*
X93504747Y-5661881D01*
X92999510Y-5661440D01*
X92532562Y-5854378D01*
X92174994Y-6211323D01*
X91981241Y-6677933D01*
X91980800Y-7183170D01*
X92173738Y-7650118D01*
X92530683Y-8007686D01*
X92997293Y-8201439D01*
X93502530Y-8201880D01*
X93969478Y-8008942D01*
X94327046Y-7651997D01*
X94520799Y-7185387D01*
X94521240Y-6680150D01*
X94521240Y-11178490D01*
X94328302Y-10711542D01*
X93971357Y-10353974D01*
X93504747Y-10160221D01*
X92999510Y-10159780D01*
X92532562Y-10352718D01*
X92174994Y-10709663D01*
X91981241Y-11176273D01*
X91980800Y-11681510D01*
X92173738Y-12148458D01*
X92530683Y-12506026D01*
X92997293Y-12699779D01*
X93502530Y-12700220D01*
X93969478Y-12507282D01*
X94327046Y-12150337D01*
X94520799Y-11683727D01*
X94521240Y-11178490D01*
X94521240Y-15676830D01*
X94328302Y-15209882D01*
X93971357Y-14852314D01*
X93504747Y-14658561D01*
X92999510Y-14658120D01*
X92532562Y-14851058D01*
X92174994Y-15208003D01*
X91981241Y-15674613D01*
X91980800Y-16179850D01*
X92173738Y-16646798D01*
X92530683Y-17004366D01*
X92997293Y-17198119D01*
X93502530Y-17198560D01*
X93969478Y-17005622D01*
X94327046Y-16648677D01*
X94520799Y-16182067D01*
X94521240Y-15676830D01*
X94521240Y-24130000D01*
X92771180Y-24130000D01*
X92771180Y-19176950D01*
X92578242Y-18710002D01*
X92221297Y-18352434D01*
X91754687Y-18158681D01*
X91249450Y-18158240D01*
X90782502Y-18351178D01*
X90424934Y-18708123D01*
X90231181Y-19174733D01*
X90230740Y-19679970D01*
X90318539Y-19892460D01*
X88773220Y-21437779D01*
X88773220Y-20177710D01*
X88773220Y-2179270D01*
X88580282Y-1712322D01*
X88223337Y-1354754D01*
X87756727Y-1161001D01*
X87251490Y-1160560D01*
X86784542Y-1353498D01*
X86426974Y-1710443D01*
X86233221Y-2177053D01*
X86232780Y-2682290D01*
X86425718Y-3149238D01*
X86782663Y-3506806D01*
X87249273Y-3700559D01*
X87754510Y-3701000D01*
X88221458Y-3508062D01*
X88579026Y-3151117D01*
X88772779Y-2684507D01*
X88773220Y-2179270D01*
X88773220Y-20177710D01*
X88580282Y-19710762D01*
X88223337Y-19353194D01*
X88138000Y-19317759D01*
X88138000Y-10033000D01*
X88089664Y-9789996D01*
X88089664Y-9789995D01*
X87952013Y-9583987D01*
X82940131Y-4572105D01*
X83251313Y-4701319D01*
X83756550Y-4701760D01*
X84223498Y-4508822D01*
X84581066Y-4151877D01*
X84774819Y-3685267D01*
X84775260Y-3180030D01*
X84582322Y-2713082D01*
X84225377Y-2355514D01*
X83758767Y-2161761D01*
X83253530Y-2161320D01*
X82786582Y-2354258D01*
X82429014Y-2711203D01*
X82235261Y-3177813D01*
X82234820Y-3683050D01*
X82364199Y-3996173D01*
X81350553Y-2982527D01*
X81144544Y-2844876D01*
X80901540Y-2796540D01*
X67593725Y-2796540D01*
X67559242Y-2713082D01*
X67202297Y-2355514D01*
X66735687Y-2161761D01*
X66230450Y-2161320D01*
X65763502Y-2354258D01*
X65405934Y-2711203D01*
X65212181Y-3177813D01*
X65211740Y-3683050D01*
X65404678Y-4149998D01*
X65761623Y-4507566D01*
X66228233Y-4701319D01*
X66733470Y-4701760D01*
X67200418Y-4508822D01*
X67557986Y-4151877D01*
X67593420Y-4066540D01*
X80638513Y-4066540D01*
X82393730Y-5821756D01*
X82008707Y-5661881D01*
X81503470Y-5661440D01*
X81036522Y-5854378D01*
X80678954Y-6211323D01*
X80485201Y-6677933D01*
X80484760Y-7183170D01*
X80677698Y-7650118D01*
X81034643Y-8007686D01*
X81501253Y-8201439D01*
X82006490Y-8201880D01*
X82473438Y-8008942D01*
X82831006Y-7651997D01*
X83024759Y-7185387D01*
X83025200Y-6680150D01*
X82865416Y-6293442D01*
X86868000Y-10296026D01*
X86868000Y-19317454D01*
X86784542Y-19351938D01*
X86426974Y-19708883D01*
X86233221Y-20175493D01*
X86232780Y-20680730D01*
X86425718Y-21147678D01*
X86782663Y-21505246D01*
X87249273Y-21698999D01*
X87754510Y-21699440D01*
X88221458Y-21506502D01*
X88579026Y-21149557D01*
X88772779Y-20682947D01*
X88773220Y-20177710D01*
X88773220Y-21437779D01*
X88113000Y-22098000D01*
X84775260Y-22098000D01*
X84775260Y-19176950D01*
X84582322Y-18710002D01*
X84225377Y-18352434D01*
X83758767Y-18158681D01*
X83253530Y-18158240D01*
X83025200Y-18252583D01*
X83025200Y-15676830D01*
X83025200Y-11178490D01*
X82832262Y-10711542D01*
X82475317Y-10353974D01*
X82008707Y-10160221D01*
X81503470Y-10159780D01*
X81036522Y-10352718D01*
X80678954Y-10709663D01*
X80485201Y-11176273D01*
X80484760Y-11681510D01*
X80677698Y-12148458D01*
X81034643Y-12506026D01*
X81501253Y-12699779D01*
X82006490Y-12700220D01*
X82473438Y-12507282D01*
X82831006Y-12150337D01*
X83024759Y-11683727D01*
X83025200Y-11178490D01*
X83025200Y-15676830D01*
X82832262Y-15209882D01*
X82475317Y-14852314D01*
X82008707Y-14658561D01*
X81503470Y-14658120D01*
X81036522Y-14851058D01*
X80678954Y-15208003D01*
X80485201Y-15674613D01*
X80484760Y-16179850D01*
X80677698Y-16646798D01*
X81034643Y-17004366D01*
X81501253Y-17198119D01*
X82006490Y-17198560D01*
X82473438Y-17005622D01*
X82831006Y-16648677D01*
X83024759Y-16182067D01*
X83025200Y-15676830D01*
X83025200Y-18252583D01*
X82786582Y-18351178D01*
X82429014Y-18708123D01*
X82235261Y-19174733D01*
X82234820Y-19679970D01*
X82427758Y-20146918D01*
X82784703Y-20504486D01*
X83251313Y-20698239D01*
X83756550Y-20698680D01*
X84223498Y-20505742D01*
X84581066Y-20148797D01*
X84774819Y-19682187D01*
X84775260Y-19176950D01*
X84775260Y-22098000D01*
X77428090Y-22098000D01*
X77428090Y-19797339D01*
X77428090Y-18657570D01*
X77428090Y-18086070D01*
X77428090Y-16946301D01*
X77331417Y-16712912D01*
X77152789Y-16534283D01*
X76919400Y-16437610D01*
X76666781Y-16437610D01*
X75279250Y-16437610D01*
X75120500Y-16596360D01*
X75120500Y-18244820D01*
X77269340Y-18244820D01*
X77428090Y-18086070D01*
X77428090Y-18657570D01*
X77269340Y-18498820D01*
X75120500Y-18498820D01*
X75120500Y-20147280D01*
X75279250Y-20306030D01*
X76666781Y-20306030D01*
X76919400Y-20306030D01*
X77152789Y-20209357D01*
X77331417Y-20030728D01*
X77428090Y-19797339D01*
X77428090Y-22098000D01*
X74866500Y-22098000D01*
X74866500Y-20147280D01*
X74866500Y-18498820D01*
X74866500Y-18244820D01*
X74866500Y-16596360D01*
X74707750Y-16437610D01*
X73320219Y-16437610D01*
X73067600Y-16437610D01*
X72834211Y-16534283D01*
X72655583Y-16712912D01*
X72558910Y-16946301D01*
X72558910Y-18086070D01*
X72717660Y-18244820D01*
X74866500Y-18244820D01*
X74866500Y-18498820D01*
X72717660Y-18498820D01*
X72558910Y-18657570D01*
X72558910Y-19797339D01*
X72655583Y-20030728D01*
X72834211Y-20209357D01*
X73067600Y-20306030D01*
X73320219Y-20306030D01*
X74707750Y-20306030D01*
X74866500Y-20147280D01*
X74866500Y-22098000D01*
X69502240Y-22098000D01*
X69502240Y-15676830D01*
X69502240Y-11178490D01*
X69502240Y-6680150D01*
X69309302Y-6213202D01*
X68952357Y-5855634D01*
X68485747Y-5661881D01*
X67980510Y-5661440D01*
X67513562Y-5854378D01*
X67155994Y-6211323D01*
X66962241Y-6677933D01*
X66961800Y-7183170D01*
X67154738Y-7650118D01*
X67511683Y-8007686D01*
X67978293Y-8201439D01*
X68483530Y-8201880D01*
X68950478Y-8008942D01*
X69308046Y-7651997D01*
X69501799Y-7185387D01*
X69502240Y-6680150D01*
X69502240Y-11178490D01*
X69309302Y-10711542D01*
X68952357Y-10353974D01*
X68485747Y-10160221D01*
X67980510Y-10159780D01*
X67513562Y-10352718D01*
X67155994Y-10709663D01*
X66962241Y-11176273D01*
X66961800Y-11681510D01*
X67154738Y-12148458D01*
X67511683Y-12506026D01*
X67978293Y-12699779D01*
X68483530Y-12700220D01*
X68950478Y-12507282D01*
X69308046Y-12150337D01*
X69501799Y-11683727D01*
X69502240Y-11178490D01*
X69502240Y-15676830D01*
X69309302Y-15209882D01*
X68952357Y-14852314D01*
X68485747Y-14658561D01*
X67980510Y-14658120D01*
X67513562Y-14851058D01*
X67155994Y-15208003D01*
X66962241Y-15674613D01*
X66961800Y-16179850D01*
X67154738Y-16646798D01*
X67511683Y-17004366D01*
X67978293Y-17198119D01*
X68483530Y-17198560D01*
X68950478Y-17005622D01*
X69308046Y-16648677D01*
X69501799Y-16182067D01*
X69502240Y-15676830D01*
X69502240Y-22098000D01*
X67752180Y-22098000D01*
X67752180Y-19176950D01*
X67559242Y-18710002D01*
X67202297Y-18352434D01*
X66735687Y-18158681D01*
X66230450Y-18158240D01*
X65763502Y-18351178D01*
X65405934Y-18708123D01*
X65212181Y-19174733D01*
X65211740Y-19679970D01*
X65404678Y-20146918D01*
X65761623Y-20504486D01*
X66228233Y-20698239D01*
X66733470Y-20698680D01*
X67200418Y-20505742D01*
X67557986Y-20148797D01*
X67751739Y-19682187D01*
X67752180Y-19176950D01*
X67752180Y-22098000D01*
X63754220Y-22098000D01*
X63754220Y-20177710D01*
X63754220Y-2179270D01*
X63561282Y-1712322D01*
X63204337Y-1354754D01*
X62737727Y-1161001D01*
X62232490Y-1160560D01*
X61765542Y-1353498D01*
X61407974Y-1710443D01*
X61214221Y-2177053D01*
X61213780Y-2682290D01*
X61406718Y-3149238D01*
X61763663Y-3506806D01*
X62230273Y-3700559D01*
X62735510Y-3701000D01*
X63202458Y-3508062D01*
X63560026Y-3151117D01*
X63753779Y-2684507D01*
X63754220Y-2179270D01*
X63754220Y-20177710D01*
X63561282Y-19710762D01*
X63204337Y-19353194D01*
X63119000Y-19317759D01*
X63119000Y-10033000D01*
X63070664Y-9789996D01*
X63070664Y-9789995D01*
X62933013Y-9583987D01*
X57921131Y-4572105D01*
X58232313Y-4701319D01*
X58737550Y-4701760D01*
X59204498Y-4508822D01*
X59562066Y-4151877D01*
X59755819Y-3685267D01*
X59756260Y-3180030D01*
X59563322Y-2713082D01*
X59206377Y-2355514D01*
X58739767Y-2161761D01*
X58234530Y-2161320D01*
X57767582Y-2354258D01*
X57410014Y-2711203D01*
X57216261Y-3177813D01*
X57215820Y-3683050D01*
X57345199Y-3996173D01*
X56331553Y-2982527D01*
X56125544Y-2844876D01*
X55882540Y-2796540D01*
X42607745Y-2796540D01*
X42573262Y-2713082D01*
X42216317Y-2355514D01*
X41749707Y-2161761D01*
X41244470Y-2161320D01*
X40777522Y-2354258D01*
X40419954Y-2711203D01*
X40226201Y-3177813D01*
X40225760Y-3683050D01*
X40418698Y-4149998D01*
X40775643Y-4507566D01*
X41242253Y-4701319D01*
X41747490Y-4701760D01*
X42214438Y-4508822D01*
X42572006Y-4151877D01*
X42607440Y-4066540D01*
X55619514Y-4066540D01*
X57374730Y-5821756D01*
X56989707Y-5661881D01*
X56484470Y-5661440D01*
X56017522Y-5854378D01*
X55659954Y-6211323D01*
X55466201Y-6677933D01*
X55465760Y-7183170D01*
X55658698Y-7650118D01*
X56015643Y-8007686D01*
X56482253Y-8201439D01*
X56987490Y-8201880D01*
X57454438Y-8008942D01*
X57812006Y-7651997D01*
X58005759Y-7185387D01*
X58006200Y-6680150D01*
X57846416Y-6293442D01*
X61849000Y-10296026D01*
X61849000Y-19317454D01*
X61765542Y-19351938D01*
X61407974Y-19708883D01*
X61214221Y-20175493D01*
X61213780Y-20680730D01*
X61406718Y-21147678D01*
X61763663Y-21505246D01*
X62230273Y-21698999D01*
X62735510Y-21699440D01*
X63202458Y-21506502D01*
X63560026Y-21149557D01*
X63753779Y-20682947D01*
X63754220Y-20177710D01*
X63754220Y-22098000D01*
X59756260Y-22098000D01*
X59756260Y-19176950D01*
X59563322Y-18710002D01*
X59206377Y-18352434D01*
X58739767Y-18158681D01*
X58234530Y-18158240D01*
X58006200Y-18252583D01*
X58006200Y-15676830D01*
X58006200Y-11178490D01*
X57813262Y-10711542D01*
X57456317Y-10353974D01*
X56989707Y-10160221D01*
X56484470Y-10159780D01*
X56017522Y-10352718D01*
X55659954Y-10709663D01*
X55466201Y-11176273D01*
X55465760Y-11681510D01*
X55658698Y-12148458D01*
X56015643Y-12506026D01*
X56482253Y-12699779D01*
X56987490Y-12700220D01*
X57454438Y-12507282D01*
X57812006Y-12150337D01*
X58005759Y-11683727D01*
X58006200Y-11178490D01*
X58006200Y-15676830D01*
X57813262Y-15209882D01*
X57456317Y-14852314D01*
X56989707Y-14658561D01*
X56484470Y-14658120D01*
X56017522Y-14851058D01*
X55659954Y-15208003D01*
X55466201Y-15674613D01*
X55465760Y-16179850D01*
X55658698Y-16646798D01*
X56015643Y-17004366D01*
X56482253Y-17198119D01*
X56987490Y-17198560D01*
X57454438Y-17005622D01*
X57812006Y-16648677D01*
X58005759Y-16182067D01*
X58006200Y-15676830D01*
X58006200Y-18252583D01*
X57767582Y-18351178D01*
X57410014Y-18708123D01*
X57216261Y-19174733D01*
X57215820Y-19679970D01*
X57408758Y-20146918D01*
X57765703Y-20504486D01*
X58232313Y-20698239D01*
X58737550Y-20698680D01*
X59204498Y-20505742D01*
X59562066Y-20148797D01*
X59755819Y-19682187D01*
X59756260Y-19176950D01*
X59756260Y-22098000D01*
X44883940Y-22098000D01*
X44516260Y-21730320D01*
X44516260Y-15676830D01*
X44516260Y-11178490D01*
X44516260Y-6680150D01*
X44323322Y-6213202D01*
X43966377Y-5855634D01*
X43499767Y-5661881D01*
X42994530Y-5661440D01*
X42527582Y-5854378D01*
X42170014Y-6211323D01*
X41976261Y-6677933D01*
X41975820Y-7183170D01*
X42168758Y-7650118D01*
X42525703Y-8007686D01*
X42992313Y-8201439D01*
X43497550Y-8201880D01*
X43964498Y-8008942D01*
X44322066Y-7651997D01*
X44515819Y-7185387D01*
X44516260Y-6680150D01*
X44516260Y-11178490D01*
X44323322Y-10711542D01*
X43966377Y-10353974D01*
X43499767Y-10160221D01*
X42994530Y-10159780D01*
X42527582Y-10352718D01*
X42170014Y-10709663D01*
X41976261Y-11176273D01*
X41975820Y-11681510D01*
X42168758Y-12148458D01*
X42525703Y-12506026D01*
X42992313Y-12699779D01*
X43497550Y-12700220D01*
X43964498Y-12507282D01*
X44322066Y-12150337D01*
X44515819Y-11683727D01*
X44516260Y-11178490D01*
X44516260Y-15676830D01*
X44323322Y-15209882D01*
X43966377Y-14852314D01*
X43499767Y-14658561D01*
X42994530Y-14658120D01*
X42527582Y-14851058D01*
X42170014Y-15208003D01*
X41976261Y-15674613D01*
X41975820Y-16179850D01*
X42168758Y-16646798D01*
X42525703Y-17004366D01*
X42992313Y-17198119D01*
X43497550Y-17198560D01*
X43964498Y-17005622D01*
X44322066Y-16648677D01*
X44515819Y-16182067D01*
X44516260Y-15676830D01*
X44516260Y-21730320D01*
X42678432Y-19892492D01*
X42765759Y-19682187D01*
X42766200Y-19176950D01*
X42573262Y-18710002D01*
X42216317Y-18352434D01*
X41749707Y-18158681D01*
X41244470Y-18158240D01*
X40777522Y-18351178D01*
X40419954Y-18708123D01*
X40226201Y-19174733D01*
X40225760Y-19679970D01*
X40313559Y-19892460D01*
X38768240Y-21437779D01*
X38768240Y-20177710D01*
X38768240Y-2179270D01*
X38575302Y-1712322D01*
X38218357Y-1354754D01*
X37751747Y-1161001D01*
X37246510Y-1160560D01*
X36779562Y-1353498D01*
X36421994Y-1710443D01*
X36228241Y-2177053D01*
X36227800Y-2682290D01*
X36420738Y-3149238D01*
X36777683Y-3506806D01*
X37244293Y-3700559D01*
X37749530Y-3701000D01*
X38216478Y-3508062D01*
X38574046Y-3151117D01*
X38767799Y-2684507D01*
X38768240Y-2179270D01*
X38768240Y-20177710D01*
X38575302Y-19710762D01*
X38218357Y-19353194D01*
X38133020Y-19317759D01*
X38133020Y-10066025D01*
X38133020Y-10066020D01*
X38133021Y-10066020D01*
X38084684Y-9823016D01*
X37947033Y-9617007D01*
X32878684Y-4548658D01*
X33246333Y-4701319D01*
X33751570Y-4701760D01*
X34218518Y-4508822D01*
X34576086Y-4151877D01*
X34769839Y-3685267D01*
X34770280Y-3180030D01*
X34577342Y-2713082D01*
X34220397Y-2355514D01*
X33753787Y-2161761D01*
X33248550Y-2161320D01*
X32781602Y-2354258D01*
X32424034Y-2711203D01*
X32230281Y-3177813D01*
X32229840Y-3683050D01*
X32382469Y-4052443D01*
X31312553Y-2982527D01*
X31106544Y-2844876D01*
X30863540Y-2796540D01*
X17606525Y-2796540D01*
X17572042Y-2713082D01*
X17215097Y-2355514D01*
X16748487Y-2161761D01*
X16243250Y-2161320D01*
X15776302Y-2354258D01*
X15418734Y-2711203D01*
X15224981Y-3177813D01*
X15224540Y-3683050D01*
X15417478Y-4149998D01*
X15774423Y-4507566D01*
X16241033Y-4701319D01*
X16746270Y-4701760D01*
X17213218Y-4508822D01*
X17570786Y-4151877D01*
X17606220Y-4066540D01*
X30600514Y-4066540D01*
X32332283Y-5798309D01*
X32003727Y-5661881D01*
X31498490Y-5661440D01*
X31031542Y-5854378D01*
X30673974Y-6211323D01*
X30480221Y-6677933D01*
X30479780Y-7183170D01*
X30672718Y-7650118D01*
X31029663Y-8007686D01*
X31496273Y-8201439D01*
X32001510Y-8201880D01*
X32468458Y-8008942D01*
X32826026Y-7651997D01*
X33019779Y-7185387D01*
X33020220Y-6680150D01*
X32883686Y-6349712D01*
X36863020Y-10329046D01*
X36863020Y-19317454D01*
X36779562Y-19351938D01*
X36421994Y-19708883D01*
X36228241Y-20175493D01*
X36227800Y-20680730D01*
X36420738Y-21147678D01*
X36777683Y-21505246D01*
X37244293Y-21698999D01*
X37749530Y-21699440D01*
X38216478Y-21506502D01*
X38574046Y-21149557D01*
X38767799Y-20682947D01*
X38768240Y-20177710D01*
X38768240Y-21437779D01*
X38252800Y-21953220D01*
X34770280Y-21953220D01*
X34770280Y-19176950D01*
X34577342Y-18710002D01*
X34220397Y-18352434D01*
X33753787Y-18158681D01*
X33248550Y-18158240D01*
X33020220Y-18252583D01*
X33020220Y-15676830D01*
X33020220Y-11178490D01*
X32827282Y-10711542D01*
X32470337Y-10353974D01*
X32003727Y-10160221D01*
X31498490Y-10159780D01*
X31031542Y-10352718D01*
X30673974Y-10709663D01*
X30480221Y-11176273D01*
X30479780Y-11681510D01*
X30672718Y-12148458D01*
X31029663Y-12506026D01*
X31496273Y-12699779D01*
X32001510Y-12700220D01*
X32468458Y-12507282D01*
X32826026Y-12150337D01*
X33019779Y-11683727D01*
X33020220Y-11178490D01*
X33020220Y-15676830D01*
X32827282Y-15209882D01*
X32470337Y-14852314D01*
X32003727Y-14658561D01*
X31498490Y-14658120D01*
X31031542Y-14851058D01*
X30673974Y-15208003D01*
X30480221Y-15674613D01*
X30479780Y-16179850D01*
X30672718Y-16646798D01*
X31029663Y-17004366D01*
X31496273Y-17198119D01*
X32001510Y-17198560D01*
X32468458Y-17005622D01*
X32826026Y-16648677D01*
X33019779Y-16182067D01*
X33020220Y-15676830D01*
X33020220Y-18252583D01*
X32781602Y-18351178D01*
X32424034Y-18708123D01*
X32230281Y-19174733D01*
X32229840Y-19679970D01*
X32422778Y-20146918D01*
X32779723Y-20504486D01*
X33246333Y-20698239D01*
X33751570Y-20698680D01*
X34218518Y-20505742D01*
X34576086Y-20148797D01*
X34769839Y-19682187D01*
X34770280Y-19176950D01*
X34770280Y-21953220D01*
X27878909Y-21953220D01*
X27878909Y-16029448D01*
X27441227Y-14970177D01*
X26631496Y-14159031D01*
X25572990Y-13719501D01*
X24426858Y-13718501D01*
X23367587Y-14156183D01*
X22556441Y-14965914D01*
X22116911Y-16024420D01*
X22115911Y-17170552D01*
X22553593Y-18229823D01*
X23363324Y-19040969D01*
X24421830Y-19480499D01*
X25567962Y-19481499D01*
X26627233Y-19043817D01*
X27438379Y-18234086D01*
X27877909Y-17175580D01*
X27878909Y-16029448D01*
X27878909Y-21953220D01*
X22671640Y-21953220D01*
X19515040Y-18796620D01*
X19515040Y-15676830D01*
X19515040Y-11178490D01*
X19515040Y-6680150D01*
X19322102Y-6213202D01*
X18965157Y-5855634D01*
X18498547Y-5661881D01*
X17993310Y-5661440D01*
X17526362Y-5854378D01*
X17168794Y-6211323D01*
X16975041Y-6677933D01*
X16974600Y-7183170D01*
X17167538Y-7650118D01*
X17524483Y-8007686D01*
X17991093Y-8201439D01*
X18496330Y-8201880D01*
X18963278Y-8008942D01*
X19320846Y-7651997D01*
X19514599Y-7185387D01*
X19515040Y-6680150D01*
X19515040Y-11178490D01*
X19322102Y-10711542D01*
X18965157Y-10353974D01*
X18498547Y-10160221D01*
X17993310Y-10159780D01*
X17526362Y-10352718D01*
X17168794Y-10709663D01*
X16975041Y-11176273D01*
X16974600Y-11681510D01*
X17167538Y-12148458D01*
X17524483Y-12506026D01*
X17991093Y-12699779D01*
X18496330Y-12700220D01*
X18963278Y-12507282D01*
X19320846Y-12150337D01*
X19514599Y-11683727D01*
X19515040Y-11178490D01*
X19515040Y-15676830D01*
X19322102Y-15209882D01*
X18965157Y-14852314D01*
X18498547Y-14658561D01*
X17993310Y-14658120D01*
X17526362Y-14851058D01*
X17168794Y-15208003D01*
X16975041Y-15674613D01*
X16974600Y-16179850D01*
X17167538Y-16646798D01*
X17524483Y-17004366D01*
X17991093Y-17198119D01*
X18496330Y-17198560D01*
X18963278Y-17005622D01*
X19320846Y-16648677D01*
X19514599Y-16182067D01*
X19515040Y-15676830D01*
X19515040Y-18796620D01*
X18012210Y-17293790D01*
X17847403Y-17183669D01*
X17653000Y-17145000D01*
X13767020Y-17145000D01*
X13767020Y-2179270D01*
X13574082Y-1712322D01*
X13217137Y-1354754D01*
X12750527Y-1161001D01*
X12245290Y-1160560D01*
X11778342Y-1353498D01*
X11420774Y-1710443D01*
X11227021Y-2177053D01*
X11226580Y-2682290D01*
X11419518Y-3149238D01*
X11776463Y-3506806D01*
X12243073Y-3700559D01*
X12748310Y-3701000D01*
X13215258Y-3508062D01*
X13572826Y-3151117D01*
X13766579Y-2684507D01*
X13767020Y-2179270D01*
X13767020Y-17145000D01*
X9769060Y-17145000D01*
X9769060Y-3180030D01*
X9576122Y-2713082D01*
X9219177Y-2355514D01*
X8752567Y-2161761D01*
X8247330Y-2161320D01*
X7780382Y-2354258D01*
X7422814Y-2711203D01*
X7229061Y-3177813D01*
X7228620Y-3683050D01*
X7421558Y-4149998D01*
X7778503Y-4507566D01*
X8245113Y-4701319D01*
X8750350Y-4701760D01*
X9217298Y-4508822D01*
X9574866Y-4151877D01*
X9768619Y-3685267D01*
X9769060Y-3180030D01*
X9769060Y-17145000D01*
X7129915Y-17145000D01*
X7467238Y-17005622D01*
X7824806Y-16648677D01*
X8018559Y-16182067D01*
X8019000Y-15676830D01*
X8019000Y-11178490D01*
X8019000Y-6680150D01*
X7826062Y-6213202D01*
X7469117Y-5855634D01*
X7002507Y-5661881D01*
X6497270Y-5661440D01*
X6030322Y-5854378D01*
X5672754Y-6211323D01*
X5479001Y-6677933D01*
X5478560Y-7183170D01*
X5671498Y-7650118D01*
X6028443Y-8007686D01*
X6495053Y-8201439D01*
X7000290Y-8201880D01*
X7467238Y-8008942D01*
X7824806Y-7651997D01*
X8018559Y-7185387D01*
X8019000Y-6680150D01*
X8019000Y-11178490D01*
X7826062Y-10711542D01*
X7469117Y-10353974D01*
X7002507Y-10160221D01*
X6497270Y-10159780D01*
X6030322Y-10352718D01*
X5672754Y-10709663D01*
X5479001Y-11176273D01*
X5478560Y-11681510D01*
X5671498Y-12148458D01*
X6028443Y-12506026D01*
X6495053Y-12699779D01*
X7000290Y-12700220D01*
X7467238Y-12507282D01*
X7824806Y-12150337D01*
X8018559Y-11683727D01*
X8019000Y-11178490D01*
X8019000Y-15676830D01*
X7826062Y-15209882D01*
X7469117Y-14852314D01*
X7002507Y-14658561D01*
X6497270Y-14658120D01*
X6030322Y-14851058D01*
X5672754Y-15208003D01*
X5479001Y-15674613D01*
X5478560Y-16179850D01*
X5671498Y-16646798D01*
X6028443Y-17004366D01*
X6367127Y-17145000D01*
X3937000Y-17145000D01*
X3742597Y-17183669D01*
X3577790Y-17293789D01*
X910790Y-19960790D01*
X800669Y-20125597D01*
X762000Y-20320000D01*
X762000Y-40259000D01*
X800669Y-40453403D01*
X910790Y-40618210D01*
X1926790Y-41634210D01*
X2091597Y-41744331D01*
X2286000Y-41783000D01*
X9314579Y-41783000D01*
X10689789Y-43158210D01*
X10689790Y-43158210D01*
X10799910Y-43231790D01*
X10854596Y-43268330D01*
X10854597Y-43268331D01*
X11049000Y-43307000D01*
X11977197Y-43307000D01*
X12168281Y-43498417D01*
X12471577Y-43624357D01*
X12799982Y-43624643D01*
X13103498Y-43499233D01*
X13335917Y-43267219D01*
X13461857Y-42963923D01*
X13462143Y-42635518D01*
X13336733Y-42332002D01*
X13104719Y-42099583D01*
X12801423Y-41973643D01*
X12473018Y-41973357D01*
X12169502Y-42098767D01*
X11976933Y-42291000D01*
X11259420Y-42291000D01*
X11241000Y-42272580D01*
X11241000Y-32661076D01*
X11241000Y-32108924D01*
X11158714Y-31695243D01*
X10924382Y-31344542D01*
X10573681Y-31110210D01*
X10160000Y-31027924D01*
X9746319Y-31110210D01*
X9395618Y-31344542D01*
X9161286Y-31695243D01*
X9079000Y-32108924D01*
X9079000Y-32661076D01*
X9161286Y-33074757D01*
X9395618Y-33425458D01*
X9746319Y-33659790D01*
X10160000Y-33742076D01*
X10573681Y-33659790D01*
X10924382Y-33425458D01*
X11158714Y-33074757D01*
X11241000Y-32661076D01*
X11241000Y-42272580D01*
X9884210Y-40915790D01*
X9719403Y-40805669D01*
X9525000Y-40767000D01*
X8701000Y-40767000D01*
X8701000Y-32661076D01*
X8701000Y-32108924D01*
X8618714Y-31695243D01*
X8384382Y-31344542D01*
X8033681Y-31110210D01*
X7620000Y-31027924D01*
X7206319Y-31110210D01*
X6855618Y-31344542D01*
X6621286Y-31695243D01*
X6539000Y-32108924D01*
X6539000Y-32661076D01*
X6621286Y-33074757D01*
X6855618Y-33425458D01*
X7206319Y-33659790D01*
X7620000Y-33742076D01*
X8033681Y-33659790D01*
X8384382Y-33425458D01*
X8618714Y-33074757D01*
X8701000Y-32661076D01*
X8701000Y-40767000D01*
X6423561Y-40767000D01*
X6423561Y-32723266D01*
X6423561Y-32046734D01*
X6287511Y-31539294D01*
X5967628Y-31122545D01*
X5512612Y-30859933D01*
X5413329Y-30842284D01*
X5207000Y-30965626D01*
X5207000Y-32258000D01*
X6262077Y-32258000D01*
X6423561Y-32046734D01*
X6423561Y-32723266D01*
X6262077Y-32512000D01*
X5207000Y-32512000D01*
X5207000Y-33804374D01*
X5413329Y-33927716D01*
X5512612Y-33910067D01*
X5967628Y-33647455D01*
X6287511Y-33230706D01*
X6423561Y-32723266D01*
X6423561Y-40767000D01*
X4953000Y-40767000D01*
X4953000Y-33804374D01*
X4953000Y-32512000D01*
X4953000Y-32258000D01*
X4953000Y-30965626D01*
X4746671Y-30842284D01*
X4647388Y-30859933D01*
X4192372Y-31122545D01*
X3872489Y-31539294D01*
X3736439Y-32046734D01*
X3897923Y-32258000D01*
X4953000Y-32258000D01*
X4953000Y-32512000D01*
X3897923Y-32512000D01*
X3736439Y-32723266D01*
X3872489Y-33230706D01*
X4192372Y-33647455D01*
X4647388Y-33910067D01*
X4746671Y-33927716D01*
X4953000Y-33804374D01*
X4953000Y-40767000D01*
X2496420Y-40767000D01*
X1778000Y-40048580D01*
X1778000Y-33716000D01*
X1915786Y-33716000D01*
X3315786Y-33716000D01*
X3455820Y-33657996D01*
X3562996Y-33550819D01*
X3621000Y-33410785D01*
X3621000Y-33259214D01*
X3621000Y-31359214D01*
X3562996Y-31219180D01*
X3455819Y-31112004D01*
X3315785Y-31054000D01*
X3164214Y-31054000D01*
X1778000Y-31054000D01*
X1778000Y-20530420D01*
X4147420Y-18161000D01*
X8240650Y-18161000D01*
X7780382Y-18351178D01*
X7422814Y-18708123D01*
X7229061Y-19174733D01*
X7228620Y-19679970D01*
X7421558Y-20146918D01*
X7778503Y-20504486D01*
X8245113Y-20698239D01*
X8750350Y-20698680D01*
X9217298Y-20505742D01*
X9574866Y-20148797D01*
X9768619Y-19682187D01*
X9769060Y-19176950D01*
X9576122Y-18710002D01*
X9219177Y-18352434D01*
X8758151Y-18161000D01*
X16236570Y-18161000D01*
X15776302Y-18351178D01*
X15418734Y-18708123D01*
X15224981Y-19174733D01*
X15224540Y-19679970D01*
X15417478Y-20146918D01*
X15774423Y-20504486D01*
X16241033Y-20698239D01*
X16746270Y-20698680D01*
X17213218Y-20505742D01*
X17570786Y-20148797D01*
X17764539Y-19682187D01*
X17764980Y-19176950D01*
X17572042Y-18710002D01*
X17215097Y-18352434D01*
X16754071Y-18161000D01*
X17442580Y-18161000D01*
X22102010Y-22820430D01*
X22266817Y-22930551D01*
X22461220Y-22969220D01*
X38463220Y-22969220D01*
X38657623Y-22930551D01*
X38822430Y-22820430D01*
X41031947Y-20610912D01*
X41242253Y-20698239D01*
X41747490Y-20698680D01*
X41959980Y-20610880D01*
X44314310Y-22965210D01*
X44479116Y-23075331D01*
X44479117Y-23075331D01*
X44673520Y-23114000D01*
X88323420Y-23114000D01*
X88517823Y-23075331D01*
X88682630Y-22965210D01*
X91036927Y-20610912D01*
X91247233Y-20698239D01*
X91752470Y-20698680D01*
X92219418Y-20505742D01*
X92576986Y-20148797D01*
X92770739Y-19682187D01*
X92771180Y-19176950D01*
X92771180Y-24130000D01*
X83590523Y-24130000D01*
X83526219Y-24065583D01*
X83222923Y-23939643D01*
X82894518Y-23939357D01*
X82591002Y-24064767D01*
X82525655Y-24130000D01*
X58571523Y-24130000D01*
X58507219Y-24065583D01*
X58203923Y-23939643D01*
X57875518Y-23939357D01*
X57572002Y-24064767D01*
X57506655Y-24130000D01*
X33616023Y-24130000D01*
X33551719Y-24065583D01*
X33248423Y-23939643D01*
X32920018Y-23939357D01*
X32616502Y-24064767D01*
X32551155Y-24130000D01*
X14032316Y-24130000D01*
X14032316Y-20667255D01*
X14006523Y-20061520D01*
X13824339Y-19621687D01*
X13568996Y-19536629D01*
X13389391Y-19716234D01*
X13389391Y-19357024D01*
X13304333Y-19101681D01*
X12734835Y-18893704D01*
X12129100Y-18919497D01*
X11689267Y-19101681D01*
X11604209Y-19357024D01*
X12496800Y-20249615D01*
X13389391Y-19357024D01*
X13389391Y-19716234D01*
X12676405Y-20429220D01*
X13568996Y-21321811D01*
X13824339Y-21236753D01*
X14032316Y-20667255D01*
X14032316Y-24130000D01*
X13389391Y-24130000D01*
X13389391Y-21501416D01*
X12496800Y-20608825D01*
X12317195Y-20788430D01*
X12317195Y-20429220D01*
X11424604Y-19536629D01*
X11169261Y-19621687D01*
X10961284Y-20191185D01*
X10987077Y-20796920D01*
X11169261Y-21236753D01*
X11424604Y-21321811D01*
X12317195Y-20429220D01*
X12317195Y-20788430D01*
X11604209Y-21501416D01*
X11689267Y-21756759D01*
X12258765Y-21964736D01*
X12864500Y-21938943D01*
X13304333Y-21756759D01*
X13389391Y-21501416D01*
X13389391Y-24130000D01*
X8597023Y-24130000D01*
X8532719Y-24065583D01*
X8229423Y-23939643D01*
X7901018Y-23939357D01*
X7597502Y-24064767D01*
X7365083Y-24296781D01*
X7239143Y-24600077D01*
X7238857Y-24928482D01*
X7364267Y-25231998D01*
X7596281Y-25464417D01*
X7899577Y-25590357D01*
X8227982Y-25590643D01*
X8531498Y-25465233D01*
X8596844Y-25400000D01*
X11208799Y-25400000D01*
X11180918Y-25467146D01*
X11180682Y-25738065D01*
X11208917Y-25806400D01*
X9776926Y-25806400D01*
X9708059Y-25737413D01*
X9457854Y-25633518D01*
X9186935Y-25633282D01*
X8936548Y-25736739D01*
X8744813Y-25928141D01*
X8640918Y-26178346D01*
X8640682Y-26449265D01*
X8744139Y-26699652D01*
X8935541Y-26891387D01*
X9185746Y-26995282D01*
X9456665Y-26995518D01*
X9707052Y-26892061D01*
X9776834Y-26822400D01*
X9938799Y-26822400D01*
X9910918Y-26889546D01*
X9910682Y-27160465D01*
X9938917Y-27228800D01*
X7262326Y-27228800D01*
X7193459Y-27159813D01*
X6943254Y-27055918D01*
X6672335Y-27055682D01*
X6421948Y-27159139D01*
X6230213Y-27350541D01*
X6126318Y-27600746D01*
X6126082Y-27871665D01*
X6229539Y-28122052D01*
X6420941Y-28313787D01*
X6671146Y-28417682D01*
X6942065Y-28417918D01*
X7192452Y-28314461D01*
X7262234Y-28244800D01*
X12676673Y-28244800D01*
X12745541Y-28313787D01*
X12995746Y-28417682D01*
X13266665Y-28417918D01*
X13517052Y-28314461D01*
X13586834Y-28244800D01*
X37677893Y-28244800D01*
X37746761Y-28313787D01*
X37996966Y-28417682D01*
X38267885Y-28417918D01*
X38518272Y-28314461D01*
X38588054Y-28244800D01*
X62663873Y-28244800D01*
X62732741Y-28313787D01*
X62982946Y-28417682D01*
X63253865Y-28417918D01*
X63504252Y-28314461D01*
X63574034Y-28244800D01*
X87682873Y-28244800D01*
X87751741Y-28313787D01*
X88001946Y-28417682D01*
X88272865Y-28417918D01*
X88523252Y-28314461D01*
X88593034Y-28244800D01*
X112676473Y-28244800D01*
X112745341Y-28313787D01*
X112995546Y-28417682D01*
X113266465Y-28417918D01*
X113516852Y-28314461D01*
X113586634Y-28244800D01*
X137670073Y-28244800D01*
X137738941Y-28313787D01*
X137989146Y-28417682D01*
X138260065Y-28417918D01*
X138510452Y-28314461D01*
X138702187Y-28123059D01*
X138806082Y-27872854D01*
X138806318Y-27601935D01*
X138702861Y-27351548D01*
X138511459Y-27159813D01*
X138261254Y-27055918D01*
X137990335Y-27055682D01*
X137739948Y-27159139D01*
X137670165Y-27228800D01*
X136238200Y-27228800D01*
X136266082Y-27161654D01*
X136266318Y-26890735D01*
X136162861Y-26640348D01*
X135971459Y-26448613D01*
X135721254Y-26344718D01*
X135450335Y-26344482D01*
X135199948Y-26447939D01*
X135130165Y-26517600D01*
X134968200Y-26517600D01*
X134996082Y-26450454D01*
X134996318Y-26179535D01*
X134968082Y-26111200D01*
X136400073Y-26111200D01*
X136468941Y-26180187D01*
X136719146Y-26284082D01*
X136990065Y-26284318D01*
X137240452Y-26180861D01*
X137432187Y-25989459D01*
X137536082Y-25739254D01*
X137536318Y-25468335D01*
X137508082Y-25400000D01*
X142357974Y-25400000D01*
X146050000Y-29092026D01*
X146050000Y-36840406D01*
X145822851Y-36934262D01*
X145393769Y-37362596D01*
X145161265Y-37922528D01*
X145160736Y-38528812D01*
X145392262Y-39089149D01*
X145820596Y-39518231D01*
X146050000Y-39613487D01*
X146050000Y-43698406D01*
X145822851Y-43792262D01*
X145393769Y-44220596D01*
X145161265Y-44780528D01*
X145160736Y-45386812D01*
X145392262Y-45947149D01*
X145820596Y-46376231D01*
X146380528Y-46608735D01*
X146986812Y-46609264D01*
X147547149Y-46377738D01*
X147976231Y-45949404D01*
X148208735Y-45389472D01*
X148209264Y-44783188D01*
X148209264Y-49569000D01*
X144917062Y-49569000D01*
X144917062Y-41954667D01*
X144895249Y-41247671D01*
X144666658Y-40695806D01*
X144653264Y-40690282D01*
X144653264Y-36274188D01*
X144421738Y-35713851D01*
X143993404Y-35284769D01*
X143433472Y-35052265D01*
X142827188Y-35051736D01*
X142266851Y-35283262D01*
X141837769Y-35711596D01*
X141605265Y-36271528D01*
X141604736Y-36877812D01*
X141836262Y-37438149D01*
X142264596Y-37867231D01*
X142824528Y-38099735D01*
X143430812Y-38100264D01*
X143991149Y-37868738D01*
X144420231Y-37440404D01*
X144652735Y-36880472D01*
X144653264Y-36274188D01*
X144653264Y-40690282D01*
X144384963Y-40579642D01*
X144205358Y-40759247D01*
X144205358Y-40400037D01*
X144089194Y-40118342D01*
X143427667Y-39867938D01*
X142720671Y-39889751D01*
X142168806Y-40118342D01*
X142052642Y-40400037D01*
X143129000Y-41476395D01*
X144205358Y-40400037D01*
X144205358Y-40759247D01*
X143308605Y-41656000D01*
X144384963Y-42732358D01*
X144666658Y-42616194D01*
X144917062Y-41954667D01*
X144917062Y-49569000D01*
X144653264Y-49569000D01*
X144653264Y-46434188D01*
X144421738Y-45873851D01*
X144205358Y-45657093D01*
X144205358Y-42911963D01*
X143129000Y-41835605D01*
X142949395Y-42015210D01*
X142949395Y-41656000D01*
X141873037Y-40579642D01*
X141591342Y-40695806D01*
X141422461Y-41141960D01*
X141237658Y-40695806D01*
X140955963Y-40579642D01*
X140776358Y-40759247D01*
X140776358Y-40400037D01*
X140660194Y-40118342D01*
X139998667Y-39867938D01*
X139291671Y-39889751D01*
X138739806Y-40118342D01*
X138684264Y-40253030D01*
X138684264Y-36274188D01*
X138452738Y-35713851D01*
X138024404Y-35284769D01*
X137464472Y-35052265D01*
X136858188Y-35051736D01*
X136297851Y-35283262D01*
X135868769Y-35711596D01*
X135636265Y-36271528D01*
X135635736Y-36877812D01*
X135867262Y-37438149D01*
X136295596Y-37867231D01*
X136855528Y-38099735D01*
X137461812Y-38100264D01*
X138022149Y-37868738D01*
X138451231Y-37440404D01*
X138683735Y-36880472D01*
X138684264Y-36274188D01*
X138684264Y-40253030D01*
X138623642Y-40400037D01*
X139700000Y-41476395D01*
X140776358Y-40400037D01*
X140776358Y-40759247D01*
X139879605Y-41656000D01*
X140955963Y-42732358D01*
X141237658Y-42616194D01*
X141406538Y-42170039D01*
X141591342Y-42616194D01*
X141873037Y-42732358D01*
X142949395Y-41656000D01*
X142949395Y-42015210D01*
X142052642Y-42911963D01*
X142168806Y-43193658D01*
X142830333Y-43444062D01*
X143537329Y-43422249D01*
X144089194Y-43193658D01*
X144205358Y-42911963D01*
X144205358Y-45657093D01*
X143993404Y-45444769D01*
X143433472Y-45212265D01*
X142827188Y-45211736D01*
X142266851Y-45443262D01*
X141837769Y-45871596D01*
X141605265Y-46431528D01*
X141604736Y-47037812D01*
X141836262Y-47598149D01*
X142264596Y-48027231D01*
X142824528Y-48259735D01*
X143430812Y-48260264D01*
X143991149Y-48028738D01*
X144420231Y-47600404D01*
X144652735Y-47040472D01*
X144653264Y-46434188D01*
X144653264Y-49569000D01*
X140776358Y-49569000D01*
X140776358Y-42911963D01*
X139700000Y-41835605D01*
X139520395Y-42015210D01*
X139520395Y-41656000D01*
X138444037Y-40579642D01*
X138239687Y-40663910D01*
X138239687Y-39029216D01*
X138075689Y-38632311D01*
X137772286Y-38328378D01*
X137375668Y-38163687D01*
X136946216Y-38163313D01*
X136549311Y-38327311D01*
X136245378Y-38630714D01*
X136080687Y-39027332D01*
X136080313Y-39456784D01*
X136244311Y-39853689D01*
X136547714Y-40157622D01*
X136944332Y-40322313D01*
X137373784Y-40322687D01*
X137770689Y-40158689D01*
X138074622Y-39855286D01*
X138239313Y-39458668D01*
X138239687Y-39029216D01*
X138239687Y-40663910D01*
X138162342Y-40695806D01*
X137911938Y-41357333D01*
X137933751Y-42064329D01*
X138162342Y-42616194D01*
X138444037Y-42732358D01*
X139520395Y-41656000D01*
X139520395Y-42015210D01*
X138623642Y-42911963D01*
X138739806Y-43193658D01*
X139401333Y-43444062D01*
X140108329Y-43422249D01*
X140660194Y-43193658D01*
X140776358Y-42911963D01*
X140776358Y-49569000D01*
X138684264Y-49569000D01*
X138684264Y-46434188D01*
X138452738Y-45873851D01*
X138239687Y-45660427D01*
X138239687Y-43855216D01*
X138075689Y-43458311D01*
X137772286Y-43154378D01*
X137375668Y-42989687D01*
X136946216Y-42989313D01*
X136549311Y-43153311D01*
X136245378Y-43456714D01*
X136080687Y-43853332D01*
X136080313Y-44282784D01*
X136244311Y-44679689D01*
X136547714Y-44983622D01*
X136944332Y-45148313D01*
X137373784Y-45148687D01*
X137770689Y-44984689D01*
X138074622Y-44681286D01*
X138239313Y-44284668D01*
X138239687Y-43855216D01*
X138239687Y-45660427D01*
X138024404Y-45444769D01*
X137464472Y-45212265D01*
X136858188Y-45211736D01*
X136297851Y-45443262D01*
X135868769Y-45871596D01*
X135636265Y-46431528D01*
X135635736Y-47037812D01*
X135867262Y-47598149D01*
X136295596Y-48027231D01*
X136855528Y-48259735D01*
X137461812Y-48260264D01*
X138022149Y-48028738D01*
X138451231Y-47600404D01*
X138683735Y-47040472D01*
X138684264Y-46434188D01*
X138684264Y-49569000D01*
X134862369Y-49569000D01*
X134862369Y-42254358D01*
X134860221Y-41046843D01*
X134402257Y-39941221D01*
X133989936Y-39671670D01*
X133810330Y-39851275D01*
X133810330Y-39492064D01*
X133540779Y-39079743D01*
X132424358Y-38619631D01*
X131216843Y-38621779D01*
X130111221Y-39079743D01*
X129841670Y-39492064D01*
X131826000Y-41476395D01*
X133810330Y-39492064D01*
X133810330Y-39851275D01*
X132005605Y-41656000D01*
X133989936Y-43640330D01*
X134402257Y-43370779D01*
X134862369Y-42254358D01*
X134862369Y-49569000D01*
X133810330Y-49569000D01*
X133810330Y-43819936D01*
X131826000Y-41835605D01*
X131646395Y-42015210D01*
X131646395Y-41656000D01*
X129662064Y-39671670D01*
X129249743Y-39941221D01*
X128789631Y-41057642D01*
X128791779Y-42265157D01*
X129249743Y-43370779D01*
X129662064Y-43640330D01*
X131646395Y-41656000D01*
X131646395Y-42015210D01*
X129841670Y-43819936D01*
X129929992Y-43955039D01*
X128989192Y-43954218D01*
X128501507Y-44155725D01*
X128511300Y-44132085D01*
X128511300Y-43980514D01*
X128511300Y-39179914D01*
X128453296Y-39039880D01*
X128346119Y-38932704D01*
X128206085Y-38874700D01*
X128054514Y-38874700D01*
X123253914Y-38874700D01*
X123113880Y-38932704D01*
X123006704Y-39039881D01*
X122948700Y-39179915D01*
X122948700Y-39331486D01*
X122948700Y-44132086D01*
X123006704Y-44272120D01*
X123113881Y-44379296D01*
X123253915Y-44437300D01*
X123405486Y-44437300D01*
X127905926Y-44437300D01*
X127183503Y-45158463D01*
X126759184Y-46180338D01*
X126758218Y-47286808D01*
X127180754Y-48309422D01*
X127962463Y-49092497D01*
X128984338Y-49516816D01*
X130090808Y-49517782D01*
X131113422Y-49095246D01*
X131896497Y-48313537D01*
X132320816Y-47291662D01*
X132321782Y-46185192D01*
X131899246Y-45162578D01*
X131429498Y-44692009D01*
X132435157Y-44690221D01*
X133540779Y-44232257D01*
X133810330Y-43819936D01*
X133810330Y-49569000D01*
X120137622Y-49569000D01*
X120137622Y-43614922D01*
X120137622Y-37518922D01*
X120108083Y-37008572D01*
X119969611Y-36674271D01*
X119739016Y-36618590D01*
X119559410Y-36798195D01*
X119559410Y-36438984D01*
X119503729Y-36208389D01*
X119236729Y-36115476D01*
X119236729Y-32873608D01*
X119027005Y-32366037D01*
X118639006Y-31977360D01*
X118131801Y-31766751D01*
X117582608Y-31766271D01*
X117075037Y-31975995D01*
X116686360Y-32363994D01*
X116475751Y-32871199D01*
X116475271Y-33420392D01*
X116684995Y-33927963D01*
X117072994Y-34316640D01*
X117580199Y-34527249D01*
X118129392Y-34527729D01*
X118636963Y-34318005D01*
X119025640Y-33930006D01*
X119236249Y-33422801D01*
X119236729Y-32873608D01*
X119236729Y-36115476D01*
X119020922Y-36040378D01*
X118510572Y-36069917D01*
X118176271Y-36208389D01*
X118120590Y-36438984D01*
X118840000Y-37158395D01*
X119559410Y-36438984D01*
X119559410Y-36798195D01*
X119019605Y-37338000D01*
X119739016Y-38057410D01*
X119969611Y-38001729D01*
X120137622Y-37518922D01*
X120137622Y-43614922D01*
X120108083Y-43104572D01*
X119969611Y-42770271D01*
X119739016Y-42714590D01*
X119559410Y-42894195D01*
X119559410Y-42534984D01*
X119559410Y-38237016D01*
X118840000Y-37517605D01*
X118660395Y-37697210D01*
X118660395Y-37338000D01*
X117940984Y-36618590D01*
X117871000Y-36635488D01*
X117871000Y-36612214D01*
X117812996Y-36472180D01*
X117705819Y-36365004D01*
X117565785Y-36307000D01*
X117414214Y-36307000D01*
X116114214Y-36307000D01*
X115974180Y-36365004D01*
X115867004Y-36472181D01*
X115809000Y-36612215D01*
X115809000Y-36763786D01*
X115809000Y-38063786D01*
X115867004Y-38203820D01*
X115974181Y-38310996D01*
X116114215Y-38369000D01*
X116265786Y-38369000D01*
X117565786Y-38369000D01*
X117705820Y-38310996D01*
X117812996Y-38203819D01*
X117871000Y-38063785D01*
X117871000Y-38040511D01*
X117940984Y-38057410D01*
X118660395Y-37338000D01*
X118660395Y-37697210D01*
X118120590Y-38237016D01*
X118176271Y-38467611D01*
X118659078Y-38635622D01*
X119169428Y-38606083D01*
X119503729Y-38467611D01*
X119559410Y-38237016D01*
X119559410Y-42534984D01*
X119503729Y-42304389D01*
X119020922Y-42136378D01*
X118510572Y-42165917D01*
X118176271Y-42304389D01*
X118120590Y-42534984D01*
X118840000Y-43254395D01*
X119559410Y-42534984D01*
X119559410Y-42894195D01*
X119019605Y-43434000D01*
X119739016Y-44153410D01*
X119969611Y-44097729D01*
X120137622Y-43614922D01*
X120137622Y-49569000D01*
X119559410Y-49569000D01*
X119559410Y-44333016D01*
X118840000Y-43613605D01*
X118660395Y-43793210D01*
X118660395Y-43434000D01*
X117940984Y-42714590D01*
X117871000Y-42731488D01*
X117871000Y-42708214D01*
X117812996Y-42568180D01*
X117705819Y-42461004D01*
X117565785Y-42403000D01*
X117414214Y-42403000D01*
X116114214Y-42403000D01*
X115974180Y-42461004D01*
X115867004Y-42568181D01*
X115809000Y-42708215D01*
X115809000Y-42859786D01*
X115809000Y-44159786D01*
X115867004Y-44299820D01*
X115974181Y-44406996D01*
X116114215Y-44465000D01*
X116265786Y-44465000D01*
X117565786Y-44465000D01*
X117705820Y-44406996D01*
X117812996Y-44299819D01*
X117871000Y-44159785D01*
X117871000Y-44136511D01*
X117940984Y-44153410D01*
X118660395Y-43434000D01*
X118660395Y-43793210D01*
X118120590Y-44333016D01*
X118176271Y-44563611D01*
X118659078Y-44731622D01*
X119169428Y-44702083D01*
X119503729Y-44563611D01*
X119559410Y-44333016D01*
X119559410Y-49569000D01*
X109076729Y-49569000D01*
X109076729Y-32873608D01*
X108867005Y-32366037D01*
X108479006Y-31977360D01*
X107971801Y-31766751D01*
X107422608Y-31766271D01*
X106915037Y-31975995D01*
X106526360Y-32363994D01*
X106315751Y-32871199D01*
X106315271Y-33420392D01*
X106524995Y-33927963D01*
X106912994Y-34316640D01*
X107420199Y-34527249D01*
X107969392Y-34527729D01*
X108476963Y-34318005D01*
X108865640Y-33930006D01*
X109076249Y-33422801D01*
X109076729Y-32873608D01*
X109076729Y-49569000D01*
X103441731Y-49569000D01*
X103441731Y-46979914D01*
X103441500Y-46979354D01*
X103441500Y-43192285D01*
X103441500Y-43040714D01*
X103441500Y-41135714D01*
X103383496Y-40995680D01*
X103276319Y-40888504D01*
X103136285Y-40830500D01*
X102984714Y-40830500D01*
X101079714Y-40830500D01*
X100939680Y-40888504D01*
X100832504Y-40995681D01*
X100774500Y-41135715D01*
X100774500Y-41287286D01*
X100774500Y-43192286D01*
X100832504Y-43332320D01*
X100939681Y-43439496D01*
X101079715Y-43497500D01*
X101231286Y-43497500D01*
X103136286Y-43497500D01*
X103276320Y-43439496D01*
X103383496Y-43332319D01*
X103441500Y-43192285D01*
X103441500Y-46979354D01*
X103239146Y-46489620D01*
X102864353Y-46114173D01*
X102374413Y-45910732D01*
X101843914Y-45910269D01*
X101353620Y-46112854D01*
X100978173Y-46487647D01*
X100774732Y-46977587D01*
X100774269Y-47508086D01*
X100976854Y-47998380D01*
X101351647Y-48373827D01*
X101841587Y-48577268D01*
X102372086Y-48577731D01*
X102862380Y-48375146D01*
X103237827Y-48000353D01*
X103441268Y-47510413D01*
X103441731Y-46979914D01*
X103441731Y-49569000D01*
X97297000Y-49569000D01*
X97297000Y-43397785D01*
X97297000Y-43246214D01*
X97297000Y-41946214D01*
X97297000Y-35777785D01*
X97297000Y-35626214D01*
X97297000Y-34326214D01*
X97238996Y-34186180D01*
X97131819Y-34079004D01*
X96991785Y-34021000D01*
X96840214Y-34021000D01*
X95540214Y-34021000D01*
X95400180Y-34079004D01*
X95293004Y-34186181D01*
X95235000Y-34326215D01*
X95235000Y-34349488D01*
X95165016Y-34332590D01*
X94985410Y-34512195D01*
X94985410Y-34152984D01*
X94929729Y-33922389D01*
X94446922Y-33754378D01*
X93936572Y-33783917D01*
X93602271Y-33922389D01*
X93546590Y-34152984D01*
X94266000Y-34872395D01*
X94985410Y-34152984D01*
X94985410Y-34512195D01*
X94445605Y-35052000D01*
X95165016Y-35771410D01*
X95235000Y-35754511D01*
X95235000Y-35777786D01*
X95293004Y-35917820D01*
X95400181Y-36024996D01*
X95540215Y-36083000D01*
X95691786Y-36083000D01*
X96991786Y-36083000D01*
X97131820Y-36024996D01*
X97238996Y-35917819D01*
X97297000Y-35777785D01*
X97297000Y-41946214D01*
X97238996Y-41806180D01*
X97131819Y-41699004D01*
X96991785Y-41641000D01*
X96840214Y-41641000D01*
X95540214Y-41641000D01*
X95400180Y-41699004D01*
X95293004Y-41806181D01*
X95235000Y-41946215D01*
X95235000Y-41969488D01*
X95165016Y-41952590D01*
X94985410Y-42132195D01*
X94985410Y-41772984D01*
X94985410Y-35951016D01*
X94266000Y-35231605D01*
X94086395Y-35411210D01*
X94086395Y-35052000D01*
X93366984Y-34332590D01*
X93136389Y-34388271D01*
X92968378Y-34871078D01*
X92997917Y-35381428D01*
X93136389Y-35715729D01*
X93366984Y-35771410D01*
X94086395Y-35052000D01*
X94086395Y-35411210D01*
X93546590Y-35951016D01*
X93602271Y-36181611D01*
X94085078Y-36349622D01*
X94595428Y-36320083D01*
X94929729Y-36181611D01*
X94985410Y-35951016D01*
X94985410Y-41772984D01*
X94929729Y-41542389D01*
X94446922Y-41374378D01*
X93936572Y-41403917D01*
X93602271Y-41542389D01*
X93546590Y-41772984D01*
X94266000Y-42492395D01*
X94985410Y-41772984D01*
X94985410Y-42132195D01*
X94445605Y-42672000D01*
X95165016Y-43391410D01*
X95235000Y-43374511D01*
X95235000Y-43397786D01*
X95293004Y-43537820D01*
X95400181Y-43644996D01*
X95540215Y-43703000D01*
X95691786Y-43703000D01*
X96991786Y-43703000D01*
X97131820Y-43644996D01*
X97238996Y-43537819D01*
X97297000Y-43397785D01*
X97297000Y-49569000D01*
X94985410Y-49569000D01*
X94985410Y-43571016D01*
X94266000Y-42851605D01*
X94086395Y-43031210D01*
X94086395Y-42672000D01*
X93366984Y-41952590D01*
X93136389Y-42008271D01*
X93022408Y-42335813D01*
X93022408Y-38628699D01*
X92998356Y-37978700D01*
X92795887Y-37489896D01*
X92529032Y-37391233D01*
X92349427Y-37570838D01*
X92349427Y-37211628D01*
X92250764Y-36944773D01*
X91641039Y-36718252D01*
X90991040Y-36742304D01*
X90502236Y-36944773D01*
X90403573Y-37211628D01*
X91376500Y-38184555D01*
X92349427Y-37211628D01*
X92349427Y-37570838D01*
X91556105Y-38364160D01*
X92529032Y-39337087D01*
X92795887Y-39238424D01*
X93022408Y-38628699D01*
X93022408Y-42335813D01*
X92968378Y-42491078D01*
X92997917Y-43001428D01*
X93136389Y-43335729D01*
X93366984Y-43391410D01*
X94086395Y-42672000D01*
X94086395Y-43031210D01*
X93546590Y-43571016D01*
X93602271Y-43801611D01*
X94085078Y-43969622D01*
X94595428Y-43940083D01*
X94929729Y-43801611D01*
X94985410Y-43571016D01*
X94985410Y-49569000D01*
X92773643Y-49569000D01*
X92773643Y-43778518D01*
X92648233Y-43475002D01*
X92416219Y-43242583D01*
X92349427Y-43214848D01*
X92349427Y-39516692D01*
X91376500Y-38543765D01*
X91196895Y-38723370D01*
X91196895Y-38364160D01*
X90223968Y-37391233D01*
X89957113Y-37489896D01*
X89730592Y-38099621D01*
X89754644Y-38749620D01*
X89957113Y-39238424D01*
X90223968Y-39337087D01*
X91196895Y-38364160D01*
X91196895Y-38723370D01*
X90403573Y-39516692D01*
X90502236Y-39783547D01*
X91111961Y-40010068D01*
X91761960Y-39986016D01*
X92250764Y-39783547D01*
X92349427Y-39516692D01*
X92349427Y-43214848D01*
X92112923Y-43116643D01*
X92020588Y-43116562D01*
X91000013Y-42095987D01*
X90794004Y-41958336D01*
X90551000Y-41910000D01*
X60281358Y-41910000D01*
X60281358Y-37824026D01*
X60281358Y-37105974D01*
X60278709Y-37090209D01*
X60024732Y-36562964D01*
X59588320Y-36173046D01*
X59315757Y-36077704D01*
X59330057Y-36074860D01*
X59733834Y-35805065D01*
X60003629Y-35401288D01*
X60098369Y-34925000D01*
X60003629Y-34448712D01*
X59733834Y-34044935D01*
X59330057Y-33775140D01*
X58853769Y-33680400D01*
X58494231Y-33680400D01*
X58017943Y-33775140D01*
X57614166Y-34044935D01*
X57344371Y-34448712D01*
X57249631Y-34925000D01*
X57344371Y-35401288D01*
X57614166Y-35805065D01*
X58017943Y-36074860D01*
X58032242Y-36077704D01*
X57759680Y-36173046D01*
X57323268Y-36562964D01*
X57069291Y-37090209D01*
X57066642Y-37105974D01*
X57187783Y-37338000D01*
X58547000Y-37338000D01*
X58547000Y-37318000D01*
X58801000Y-37318000D01*
X58801000Y-37338000D01*
X60160217Y-37338000D01*
X60281358Y-37105974D01*
X60281358Y-37824026D01*
X60160217Y-37592000D01*
X58801000Y-37592000D01*
X58801000Y-37612000D01*
X58547000Y-37612000D01*
X58547000Y-37592000D01*
X57187783Y-37592000D01*
X57066642Y-37824026D01*
X57069291Y-37839791D01*
X57323268Y-38367036D01*
X57759680Y-38756954D01*
X58032242Y-38852295D01*
X58017943Y-38855140D01*
X57614166Y-39124935D01*
X57344371Y-39528712D01*
X57249631Y-40005000D01*
X57344371Y-40481288D01*
X57614166Y-40885065D01*
X58017943Y-41154860D01*
X58494231Y-41249600D01*
X58853769Y-41249600D01*
X59330057Y-41154860D01*
X59733834Y-40885065D01*
X60003629Y-40481288D01*
X60098369Y-40005000D01*
X60003629Y-39528712D01*
X59733834Y-39124935D01*
X59330057Y-38855140D01*
X59315757Y-38852295D01*
X59588320Y-38756954D01*
X60024732Y-38367036D01*
X60278709Y-37839791D01*
X60281358Y-37824026D01*
X60281358Y-41910000D01*
X59897581Y-41910000D01*
X59733834Y-41664935D01*
X59330057Y-41395140D01*
X58853769Y-41300400D01*
X58494231Y-41300400D01*
X58017943Y-41395140D01*
X57614166Y-41664935D01*
X57344371Y-42068712D01*
X57249631Y-42545000D01*
X57344371Y-43021288D01*
X57614166Y-43425065D01*
X58017943Y-43694860D01*
X58494231Y-43789600D01*
X58853769Y-43789600D01*
X59330057Y-43694860D01*
X59733834Y-43425065D01*
X59897581Y-43180000D01*
X90287973Y-43180000D01*
X91122436Y-44014462D01*
X91122357Y-44105482D01*
X91247767Y-44408998D01*
X91421345Y-44582879D01*
X91103007Y-44582601D01*
X90595249Y-44792403D01*
X90206428Y-45180545D01*
X89995741Y-45687937D01*
X89995261Y-46237333D01*
X90205063Y-46745091D01*
X90593205Y-47133912D01*
X91100597Y-47344599D01*
X91649993Y-47345079D01*
X92157751Y-47135277D01*
X92546572Y-46747135D01*
X92757259Y-46239743D01*
X92757739Y-45690347D01*
X92547937Y-45182589D01*
X92159795Y-44793768D01*
X92096848Y-44767630D01*
X92111482Y-44767643D01*
X92414998Y-44642233D01*
X92647417Y-44410219D01*
X92773357Y-44106923D01*
X92773643Y-43778518D01*
X92773643Y-49569000D01*
X73990705Y-49569000D01*
X74211315Y-49348390D01*
X76868876Y-49348390D01*
X77008910Y-49290386D01*
X77116086Y-49183209D01*
X77174090Y-49043175D01*
X77174090Y-48891604D01*
X77174090Y-46293184D01*
X77116086Y-46153150D01*
X77008909Y-46045974D01*
X76868875Y-45987970D01*
X76717304Y-45987970D01*
X73118124Y-45987970D01*
X72978090Y-46045974D01*
X72870914Y-46153151D01*
X72812910Y-46293185D01*
X72812910Y-46444756D01*
X72812910Y-48641000D01*
X60071000Y-48641000D01*
X60071000Y-46024385D01*
X60071000Y-45872814D01*
X60071000Y-44145614D01*
X60012996Y-44005580D01*
X59905819Y-43898404D01*
X59765785Y-43840400D01*
X59614214Y-43840400D01*
X57582214Y-43840400D01*
X57442180Y-43898404D01*
X57335004Y-44005581D01*
X57277000Y-44145615D01*
X57277000Y-44297186D01*
X57277000Y-46024386D01*
X57335004Y-46164420D01*
X57442181Y-46271596D01*
X57582215Y-46329600D01*
X57733786Y-46329600D01*
X59765786Y-46329600D01*
X59905820Y-46271596D01*
X60012996Y-46164419D01*
X60071000Y-46024385D01*
X60071000Y-48641000D01*
X56471358Y-48641000D01*
X56471358Y-35284026D01*
X56471358Y-34565974D01*
X56468709Y-34550209D01*
X56214732Y-34022964D01*
X55778320Y-33633046D01*
X55225913Y-33439816D01*
X54991000Y-33584076D01*
X54991000Y-34798000D01*
X56350217Y-34798000D01*
X56471358Y-34565974D01*
X56471358Y-35284026D01*
X56350217Y-35052000D01*
X54991000Y-35052000D01*
X54991000Y-35072000D01*
X54737000Y-35072000D01*
X54737000Y-35052000D01*
X54717000Y-35052000D01*
X54717000Y-34798000D01*
X54737000Y-34798000D01*
X54737000Y-33584076D01*
X54502087Y-33439816D01*
X53949680Y-33633046D01*
X53513268Y-34022964D01*
X53261958Y-34544671D01*
X53191210Y-34438790D01*
X52429210Y-33676790D01*
X52264403Y-33566669D01*
X52070000Y-33528000D01*
X51410917Y-33528000D01*
X51564382Y-33425458D01*
X51798714Y-33074757D01*
X51881000Y-32661076D01*
X51881000Y-32108924D01*
X51798714Y-31695243D01*
X51564382Y-31344542D01*
X51213681Y-31110210D01*
X50800000Y-31027924D01*
X50386319Y-31110210D01*
X50035618Y-31344542D01*
X49801286Y-31695243D01*
X49719000Y-32108924D01*
X49719000Y-32661076D01*
X49801286Y-33074757D01*
X50035618Y-33425458D01*
X50189082Y-33528000D01*
X48870917Y-33528000D01*
X49024382Y-33425458D01*
X49258714Y-33074757D01*
X49341000Y-32661076D01*
X49341000Y-32108924D01*
X49258714Y-31695243D01*
X49024382Y-31344542D01*
X48673681Y-31110210D01*
X48260000Y-31027924D01*
X47846319Y-31110210D01*
X47495618Y-31344542D01*
X47261286Y-31695243D01*
X47179000Y-32108924D01*
X47179000Y-32661076D01*
X47261286Y-33074757D01*
X47495618Y-33425458D01*
X47649082Y-33528000D01*
X46330917Y-33528000D01*
X46484382Y-33425458D01*
X46718714Y-33074757D01*
X46801000Y-32661076D01*
X46801000Y-32108924D01*
X46718714Y-31695243D01*
X46484382Y-31344542D01*
X46133681Y-31110210D01*
X45720000Y-31027924D01*
X45306319Y-31110210D01*
X44955618Y-31344542D01*
X44721286Y-31695243D01*
X44639000Y-32108924D01*
X44639000Y-32661076D01*
X44721286Y-33074757D01*
X44955618Y-33425458D01*
X45109082Y-33528000D01*
X43790917Y-33528000D01*
X43944382Y-33425458D01*
X44178714Y-33074757D01*
X44261000Y-32661076D01*
X44261000Y-32108924D01*
X44178714Y-31695243D01*
X43944382Y-31344542D01*
X43593681Y-31110210D01*
X43180000Y-31027924D01*
X42766319Y-31110210D01*
X42415618Y-31344542D01*
X42181286Y-31695243D01*
X42099000Y-32108924D01*
X42099000Y-32661076D01*
X42181286Y-33074757D01*
X42415618Y-33425458D01*
X42569082Y-33528000D01*
X41250917Y-33528000D01*
X41404382Y-33425458D01*
X41638714Y-33074757D01*
X41721000Y-32661076D01*
X41721000Y-32108924D01*
X41638714Y-31695243D01*
X41404382Y-31344542D01*
X41053681Y-31110210D01*
X40640000Y-31027924D01*
X40226319Y-31110210D01*
X39875618Y-31344542D01*
X39641286Y-31695243D01*
X39559000Y-32108924D01*
X39559000Y-32661076D01*
X39641286Y-33074757D01*
X39875618Y-33425458D01*
X40029082Y-33528000D01*
X38710917Y-33528000D01*
X38864382Y-33425458D01*
X39098714Y-33074757D01*
X39181000Y-32661076D01*
X39181000Y-32108924D01*
X39098714Y-31695243D01*
X38864382Y-31344542D01*
X38513681Y-31110210D01*
X38100000Y-31027924D01*
X37686319Y-31110210D01*
X37335618Y-31344542D01*
X37101286Y-31695243D01*
X37019000Y-32108924D01*
X37019000Y-32661076D01*
X37101286Y-33074757D01*
X37335618Y-33425458D01*
X37592000Y-33596767D01*
X37592000Y-33655000D01*
X37630669Y-33849403D01*
X37740790Y-34014210D01*
X37762581Y-34036002D01*
X36659421Y-34036002D01*
X36159229Y-33535809D01*
X36324382Y-33425458D01*
X36558714Y-33074757D01*
X36641000Y-32661076D01*
X36641000Y-32108924D01*
X36558714Y-31695243D01*
X36324382Y-31344542D01*
X35973681Y-31110210D01*
X35560000Y-31027924D01*
X35146319Y-31110210D01*
X34795618Y-31344542D01*
X34561286Y-31695243D01*
X34479000Y-32108924D01*
X34479000Y-32661076D01*
X34561286Y-33074757D01*
X34795618Y-33425458D01*
X34949082Y-33528000D01*
X33630917Y-33528000D01*
X33784382Y-33425458D01*
X34018714Y-33074757D01*
X34101000Y-32661076D01*
X34101000Y-32108924D01*
X34018714Y-31695243D01*
X33845643Y-31436225D01*
X33845643Y-29173518D01*
X33720233Y-28870002D01*
X33488219Y-28637583D01*
X33184923Y-28511643D01*
X32856518Y-28511357D01*
X32553002Y-28636767D01*
X32360433Y-28829000D01*
X22479000Y-28829000D01*
X22284597Y-28867669D01*
X22119790Y-28977790D01*
X21230790Y-29866790D01*
X21120669Y-30031597D01*
X21082000Y-30226000D01*
X21082000Y-31342950D01*
X20733681Y-31110210D01*
X20320000Y-31027924D01*
X19906319Y-31110210D01*
X19558000Y-31342950D01*
X19558000Y-30226000D01*
X19519331Y-30031597D01*
X19409210Y-29866790D01*
X18520210Y-28977790D01*
X18355403Y-28867669D01*
X18161000Y-28829000D01*
X8660302Y-28829000D01*
X8469219Y-28637583D01*
X8165923Y-28511643D01*
X7837518Y-28511357D01*
X7534002Y-28636767D01*
X7301583Y-28868781D01*
X7175643Y-29172077D01*
X7175357Y-29500482D01*
X7300767Y-29803998D01*
X7532781Y-30036417D01*
X7836077Y-30162357D01*
X8164482Y-30162643D01*
X8467998Y-30037233D01*
X8660566Y-29845000D01*
X17950580Y-29845000D01*
X18542000Y-30436420D01*
X18542000Y-31342950D01*
X18193681Y-31110210D01*
X17780000Y-31027924D01*
X17366319Y-31110210D01*
X17015618Y-31344542D01*
X16781286Y-31695243D01*
X16699000Y-32108924D01*
X16699000Y-32661076D01*
X16781286Y-33074757D01*
X17015618Y-33425458D01*
X17366319Y-33659790D01*
X17780000Y-33742076D01*
X18193681Y-33659790D01*
X18542000Y-33427049D01*
X18542000Y-36830000D01*
X18580669Y-37024403D01*
X18690790Y-37189210D01*
X19812092Y-38310512D01*
X19811857Y-38580982D01*
X19937267Y-38884498D01*
X20169281Y-39116917D01*
X20472577Y-39242857D01*
X20800982Y-39243143D01*
X21104498Y-39117733D01*
X21336917Y-38885719D01*
X21462857Y-38582423D01*
X21463143Y-38254018D01*
X21337733Y-37950502D01*
X21105719Y-37718083D01*
X20802423Y-37592143D01*
X20530326Y-37591906D01*
X19558000Y-36619580D01*
X19558000Y-33427049D01*
X19812000Y-33596767D01*
X19812000Y-36195000D01*
X19850669Y-36389403D01*
X19960790Y-36554210D01*
X20818040Y-37411461D01*
X20982847Y-37521581D01*
X21177250Y-37560250D01*
X21982829Y-37560250D01*
X22542500Y-38119920D01*
X22542500Y-38461080D01*
X21506580Y-39497000D01*
X16321000Y-39497000D01*
X16321000Y-32661076D01*
X16321000Y-32108924D01*
X16238714Y-31695243D01*
X16004382Y-31344542D01*
X15653681Y-31110210D01*
X15240000Y-31027924D01*
X14826319Y-31110210D01*
X14475618Y-31344542D01*
X14241286Y-31695243D01*
X14159000Y-32108924D01*
X14159000Y-32661076D01*
X14241286Y-33074757D01*
X14475618Y-33425458D01*
X14826319Y-33659790D01*
X15240000Y-33742076D01*
X15653681Y-33659790D01*
X16004382Y-33425458D01*
X16238714Y-33074757D01*
X16321000Y-32661076D01*
X16321000Y-39497000D01*
X15240000Y-39497000D01*
X15045597Y-39535669D01*
X14990910Y-39572209D01*
X14880789Y-39645790D01*
X13822987Y-40703592D01*
X13781000Y-40703555D01*
X13781000Y-32661076D01*
X13781000Y-32108924D01*
X13698714Y-31695243D01*
X13464382Y-31344542D01*
X13113681Y-31110210D01*
X12700000Y-31027924D01*
X12286319Y-31110210D01*
X11935618Y-31344542D01*
X11701286Y-31695243D01*
X11619000Y-32108924D01*
X11619000Y-32661076D01*
X11701286Y-33074757D01*
X11935618Y-33425458D01*
X12286319Y-33659790D01*
X12700000Y-33742076D01*
X13113681Y-33659790D01*
X13464382Y-33425458D01*
X13698714Y-33074757D01*
X13781000Y-32661076D01*
X13781000Y-40703555D01*
X13552518Y-40703357D01*
X13249002Y-40828767D01*
X13016583Y-41060781D01*
X12890643Y-41364077D01*
X12890357Y-41692482D01*
X13015767Y-41995998D01*
X13247781Y-42228417D01*
X13551077Y-42354357D01*
X13879482Y-42354643D01*
X14182998Y-42229233D01*
X14415417Y-41997219D01*
X14541357Y-41693923D01*
X14541593Y-41421826D01*
X15450420Y-40513000D01*
X21717000Y-40513000D01*
X21911403Y-40474331D01*
X22076210Y-40364210D01*
X23409710Y-39030710D01*
X23519831Y-38865903D01*
X23558500Y-38671500D01*
X23558500Y-37909500D01*
X23519831Y-37715097D01*
X23409711Y-37550290D01*
X22552460Y-36693040D01*
X22387653Y-36582919D01*
X22193250Y-36544250D01*
X21387670Y-36544250D01*
X20828000Y-35984579D01*
X20828000Y-33596767D01*
X21082000Y-33427049D01*
X21082000Y-35154476D01*
X21017583Y-35218781D01*
X20891643Y-35522077D01*
X20891357Y-35850482D01*
X21016767Y-36153998D01*
X21248781Y-36386417D01*
X21552077Y-36512357D01*
X21880482Y-36512643D01*
X22183998Y-36387233D01*
X22416417Y-36155219D01*
X22542357Y-35851923D01*
X22542643Y-35523518D01*
X22417233Y-35220002D01*
X22185219Y-34987583D01*
X22098000Y-34951366D01*
X22098000Y-33427049D01*
X22446319Y-33659790D01*
X22860000Y-33742076D01*
X23273681Y-33659790D01*
X23624382Y-33425458D01*
X23858714Y-33074757D01*
X23941000Y-32661076D01*
X23941000Y-32108924D01*
X23858714Y-31695243D01*
X23624382Y-31344542D01*
X23273681Y-31110210D01*
X22860000Y-31027924D01*
X22446319Y-31110210D01*
X22098000Y-31342950D01*
X22098000Y-30436420D01*
X22689420Y-29845000D01*
X32360697Y-29845000D01*
X32551781Y-30036417D01*
X32855077Y-30162357D01*
X33183482Y-30162643D01*
X33486998Y-30037233D01*
X33719417Y-29805219D01*
X33845357Y-29501923D01*
X33845643Y-29173518D01*
X33845643Y-31436225D01*
X33784382Y-31344542D01*
X33433681Y-31110210D01*
X33020000Y-31027924D01*
X32606319Y-31110210D01*
X32255618Y-31344542D01*
X32021286Y-31695243D01*
X31939000Y-32108924D01*
X31939000Y-32661076D01*
X32021286Y-33074757D01*
X32255618Y-33425458D01*
X32409082Y-33528000D01*
X31090917Y-33528000D01*
X31244382Y-33425458D01*
X31478714Y-33074757D01*
X31561000Y-32661076D01*
X31561000Y-32108924D01*
X31478714Y-31695243D01*
X31244382Y-31344542D01*
X30893681Y-31110210D01*
X30480000Y-31027924D01*
X30066319Y-31110210D01*
X29715618Y-31344542D01*
X29481286Y-31695243D01*
X29399000Y-32108924D01*
X29399000Y-32661076D01*
X29481286Y-33074757D01*
X29715618Y-33425458D01*
X29869082Y-33528000D01*
X28550917Y-33528000D01*
X28704382Y-33425458D01*
X28938714Y-33074757D01*
X29021000Y-32661076D01*
X29021000Y-32108924D01*
X28938714Y-31695243D01*
X28704382Y-31344542D01*
X28353681Y-31110210D01*
X27940000Y-31027924D01*
X27526319Y-31110210D01*
X27175618Y-31344542D01*
X26941286Y-31695243D01*
X26859000Y-32108924D01*
X26859000Y-32661076D01*
X26941286Y-33074757D01*
X27175618Y-33425458D01*
X27432000Y-33596767D01*
X27432000Y-33655000D01*
X27470669Y-33849403D01*
X27580790Y-34014210D01*
X27602581Y-34036002D01*
X26499422Y-34036002D01*
X25999229Y-33535809D01*
X26164382Y-33425458D01*
X26398714Y-33074757D01*
X26481000Y-32661076D01*
X26481000Y-32108924D01*
X26398714Y-31695243D01*
X26164382Y-31344542D01*
X25813681Y-31110210D01*
X25400000Y-31027924D01*
X24986319Y-31110210D01*
X24635618Y-31344542D01*
X24401286Y-31695243D01*
X24319000Y-32108924D01*
X24319000Y-32661076D01*
X24401286Y-33074757D01*
X24635618Y-33425458D01*
X24892000Y-33596767D01*
X24892000Y-33655000D01*
X24930669Y-33849403D01*
X25040790Y-34014210D01*
X25929792Y-34903212D01*
X26094599Y-35013333D01*
X26289002Y-35052002D01*
X34801733Y-35052002D01*
X35668948Y-35919217D01*
X35833755Y-36029337D01*
X36028158Y-36068006D01*
X47922585Y-36068006D01*
X48641000Y-36786420D01*
X48641000Y-38075697D01*
X48449583Y-38266781D01*
X48323643Y-38570077D01*
X48323357Y-38898482D01*
X48448767Y-39201998D01*
X48680781Y-39434417D01*
X48984077Y-39560357D01*
X49312482Y-39560643D01*
X49615998Y-39435233D01*
X49848417Y-39203219D01*
X49974357Y-38899923D01*
X49974643Y-38571518D01*
X49849233Y-38268002D01*
X49657000Y-38075433D01*
X49657000Y-36576000D01*
X49618331Y-36381597D01*
X49618330Y-36381596D01*
X49581790Y-36326910D01*
X49508210Y-36216790D01*
X49508210Y-36216789D01*
X48851424Y-35560004D01*
X49192583Y-35560004D01*
X49720592Y-36088013D01*
X49720357Y-36358482D01*
X49845767Y-36661998D01*
X50077781Y-36894417D01*
X50381077Y-37020357D01*
X50709482Y-37020643D01*
X51012998Y-36895233D01*
X51181000Y-36727523D01*
X51181000Y-36805697D01*
X50989583Y-36996781D01*
X50863643Y-37300077D01*
X50863357Y-37628482D01*
X50988767Y-37931998D01*
X51220781Y-38164417D01*
X51524077Y-38290357D01*
X51852482Y-38290643D01*
X52155998Y-38165233D01*
X52324000Y-37997523D01*
X52324000Y-39243000D01*
X52362669Y-39437403D01*
X52472790Y-39602210D01*
X53234790Y-40364210D01*
X53399597Y-40474331D01*
X53549668Y-40504181D01*
X53804166Y-40885065D01*
X54207943Y-41154860D01*
X54684231Y-41249600D01*
X55043769Y-41249600D01*
X55520057Y-41154860D01*
X55923834Y-40885065D01*
X56193629Y-40481288D01*
X56288369Y-40005000D01*
X56193629Y-39528712D01*
X55923834Y-39124935D01*
X55520057Y-38855140D01*
X55043769Y-38760400D01*
X54684231Y-38760400D01*
X54207943Y-38855140D01*
X53804166Y-39124935D01*
X53655239Y-39347819D01*
X53340000Y-39032580D01*
X53340000Y-35467339D01*
X53513268Y-35827036D01*
X53949680Y-36216954D01*
X54222242Y-36312295D01*
X54207943Y-36315140D01*
X53804166Y-36584935D01*
X53534371Y-36988712D01*
X53439631Y-37465000D01*
X53534371Y-37941288D01*
X53804166Y-38345065D01*
X54207943Y-38614860D01*
X54684231Y-38709600D01*
X55043769Y-38709600D01*
X55520057Y-38614860D01*
X55923834Y-38345065D01*
X56193629Y-37941288D01*
X56288369Y-37465000D01*
X56193629Y-36988712D01*
X55923834Y-36584935D01*
X55520057Y-36315140D01*
X55505757Y-36312295D01*
X55778320Y-36216954D01*
X56214732Y-35827036D01*
X56468709Y-35299791D01*
X56471358Y-35284026D01*
X56471358Y-48641000D01*
X56261000Y-48641000D01*
X56261000Y-43484385D01*
X56261000Y-43332814D01*
X56261000Y-41605614D01*
X56202996Y-41465580D01*
X56095819Y-41358404D01*
X55955785Y-41300400D01*
X55804214Y-41300400D01*
X53772214Y-41300400D01*
X53632180Y-41358404D01*
X53525004Y-41465581D01*
X53467000Y-41605615D01*
X53467000Y-41757186D01*
X53467000Y-43484386D01*
X53525004Y-43624420D01*
X53632181Y-43731596D01*
X53772215Y-43789600D01*
X53923786Y-43789600D01*
X55955786Y-43789600D01*
X56095820Y-43731596D01*
X56202996Y-43624419D01*
X56261000Y-43484385D01*
X56261000Y-48641000D01*
X51580724Y-48641000D01*
X51798714Y-48314757D01*
X51881000Y-47901076D01*
X51881000Y-47348924D01*
X51798714Y-46935243D01*
X51564382Y-46584542D01*
X51213681Y-46350210D01*
X50800000Y-46267924D01*
X50386319Y-46350210D01*
X50035618Y-46584542D01*
X49801286Y-46935243D01*
X49719000Y-47348924D01*
X49719000Y-47901076D01*
X49801286Y-48314757D01*
X50019275Y-48641000D01*
X49040724Y-48641000D01*
X49258714Y-48314757D01*
X49341000Y-47901076D01*
X49341000Y-47348924D01*
X49258714Y-46935243D01*
X49024382Y-46584542D01*
X48673681Y-46350210D01*
X48260000Y-46267924D01*
X47846319Y-46350210D01*
X47495618Y-46584542D01*
X47261286Y-46935243D01*
X47179000Y-47348924D01*
X47179000Y-47901076D01*
X47261286Y-48314757D01*
X47479275Y-48641000D01*
X46500724Y-48641000D01*
X46718714Y-48314757D01*
X46801000Y-47901076D01*
X46801000Y-47348924D01*
X46718714Y-46935243D01*
X46484382Y-46584542D01*
X46133681Y-46350210D01*
X45720000Y-46267924D01*
X45306319Y-46350210D01*
X44955618Y-46584542D01*
X44721286Y-46935243D01*
X44639000Y-47348924D01*
X44639000Y-47901076D01*
X44721286Y-48314757D01*
X44939275Y-48641000D01*
X43960724Y-48641000D01*
X44178714Y-48314757D01*
X44261000Y-47901076D01*
X44261000Y-47348924D01*
X44178714Y-46935243D01*
X43944382Y-46584542D01*
X43593681Y-46350210D01*
X43180000Y-46267924D01*
X42766319Y-46350210D01*
X42415618Y-46584542D01*
X42181286Y-46935243D01*
X42099000Y-47348924D01*
X42099000Y-47901076D01*
X42181286Y-48314757D01*
X42399275Y-48641000D01*
X41420724Y-48641000D01*
X41638714Y-48314757D01*
X41721000Y-47901076D01*
X41721000Y-47348924D01*
X41638714Y-46935243D01*
X41404382Y-46584542D01*
X41053681Y-46350210D01*
X40640000Y-46267924D01*
X40226319Y-46350210D01*
X39875618Y-46584542D01*
X39641286Y-46935243D01*
X39559000Y-47348924D01*
X39559000Y-47901076D01*
X39641286Y-48314757D01*
X39859275Y-48641000D01*
X38880724Y-48641000D01*
X39098714Y-48314757D01*
X39181000Y-47901076D01*
X39181000Y-47348924D01*
X39098714Y-46935243D01*
X38864382Y-46584542D01*
X38513681Y-46350210D01*
X38163643Y-46280583D01*
X38163643Y-45175518D01*
X38038233Y-44872002D01*
X37806219Y-44639583D01*
X37502923Y-44513643D01*
X37174518Y-44513357D01*
X36871002Y-44638767D01*
X36678433Y-44831000D01*
X36512510Y-44831000D01*
X36661998Y-44769233D01*
X36894417Y-44537219D01*
X37020357Y-44233923D01*
X37020643Y-43905518D01*
X36895233Y-43602002D01*
X36663219Y-43369583D01*
X36359923Y-43243643D01*
X36031518Y-43243357D01*
X35728002Y-43368767D01*
X35662655Y-43434000D01*
X27568025Y-43434000D01*
X26606563Y-42472537D01*
X26606643Y-42381518D01*
X26481233Y-42078002D01*
X26249219Y-41845583D01*
X25945923Y-41719643D01*
X25617518Y-41719357D01*
X25314002Y-41844767D01*
X25081583Y-42076781D01*
X24955643Y-42380077D01*
X24955357Y-42708482D01*
X25080767Y-43011998D01*
X25312781Y-43244417D01*
X25616077Y-43370357D01*
X25708411Y-43370437D01*
X26855984Y-44518009D01*
X26855987Y-44518013D01*
X26979479Y-44600528D01*
X27061995Y-44655664D01*
X27061996Y-44655664D01*
X27305000Y-44704000D01*
X35662476Y-44704000D01*
X35726781Y-44768417D01*
X35877497Y-44831000D01*
X26948302Y-44831000D01*
X26757219Y-44639583D01*
X26453923Y-44513643D01*
X26125518Y-44513357D01*
X25822002Y-44638767D01*
X25589583Y-44870781D01*
X25463643Y-45174077D01*
X25463357Y-45502482D01*
X25588767Y-45805998D01*
X25820781Y-46038417D01*
X26124077Y-46164357D01*
X26452482Y-46164643D01*
X26755998Y-46039233D01*
X26948566Y-45847000D01*
X36678697Y-45847000D01*
X36869781Y-46038417D01*
X37173077Y-46164357D01*
X37501482Y-46164643D01*
X37804998Y-46039233D01*
X38037417Y-45807219D01*
X38163357Y-45503923D01*
X38163643Y-45175518D01*
X38163643Y-46280583D01*
X38100000Y-46267924D01*
X37686319Y-46350210D01*
X37335618Y-46584542D01*
X37101286Y-46935243D01*
X37019000Y-47348924D01*
X37019000Y-47901076D01*
X37101286Y-48314757D01*
X37319275Y-48641000D01*
X36340724Y-48641000D01*
X36558714Y-48314757D01*
X36641000Y-47901076D01*
X36641000Y-47348924D01*
X36558714Y-46935243D01*
X36324382Y-46584542D01*
X35973681Y-46350210D01*
X35560000Y-46267924D01*
X35146319Y-46350210D01*
X34795618Y-46584542D01*
X34561286Y-46935243D01*
X34479000Y-47348924D01*
X34479000Y-47901076D01*
X34561286Y-48314757D01*
X34779275Y-48641000D01*
X33800724Y-48641000D01*
X34018714Y-48314757D01*
X34101000Y-47901076D01*
X34101000Y-47348924D01*
X34018714Y-46935243D01*
X33784382Y-46584542D01*
X33433681Y-46350210D01*
X33020000Y-46267924D01*
X32606319Y-46350210D01*
X32255618Y-46584542D01*
X32021286Y-46935243D01*
X31939000Y-47348924D01*
X31939000Y-47901076D01*
X32021286Y-48314757D01*
X32239275Y-48641000D01*
X31260724Y-48641000D01*
X31478714Y-48314757D01*
X31561000Y-47901076D01*
X31561000Y-47348924D01*
X31478714Y-46935243D01*
X31244382Y-46584542D01*
X30893681Y-46350210D01*
X30480000Y-46267924D01*
X30066319Y-46350210D01*
X29715618Y-46584542D01*
X29481286Y-46935243D01*
X29399000Y-47348924D01*
X29399000Y-47901076D01*
X29481286Y-48314757D01*
X29699275Y-48641000D01*
X28720724Y-48641000D01*
X28938714Y-48314757D01*
X29021000Y-47901076D01*
X29021000Y-47348924D01*
X28938714Y-46935243D01*
X28704382Y-46584542D01*
X28353681Y-46350210D01*
X27940000Y-46267924D01*
X27526319Y-46350210D01*
X27175618Y-46584542D01*
X26941286Y-46935243D01*
X26859000Y-47348924D01*
X26859000Y-47901076D01*
X26941286Y-48314757D01*
X27159275Y-48641000D01*
X26180724Y-48641000D01*
X26398714Y-48314757D01*
X26481000Y-47901076D01*
X26481000Y-47348924D01*
X26398714Y-46935243D01*
X26164382Y-46584542D01*
X25813681Y-46350210D01*
X25400000Y-46267924D01*
X24986319Y-46350210D01*
X24635618Y-46584542D01*
X24401286Y-46935243D01*
X24319000Y-47348924D01*
X24319000Y-47901076D01*
X24401286Y-48314757D01*
X24619275Y-48641000D01*
X23640724Y-48641000D01*
X23858714Y-48314757D01*
X23941000Y-47901076D01*
X23941000Y-47348924D01*
X23858714Y-46935243D01*
X23624382Y-46584542D01*
X23273681Y-46350210D01*
X22860000Y-46267924D01*
X22446319Y-46350210D01*
X22095618Y-46584542D01*
X21861286Y-46935243D01*
X21779000Y-47348924D01*
X21779000Y-47901076D01*
X21861286Y-48314757D01*
X22079275Y-48641000D01*
X21100724Y-48641000D01*
X21318714Y-48314757D01*
X21401000Y-47901076D01*
X21401000Y-47348924D01*
X21318714Y-46935243D01*
X21084382Y-46584542D01*
X20828000Y-46413232D01*
X20828000Y-44704000D01*
X20789331Y-44509597D01*
X20789330Y-44509596D01*
X20752790Y-44454910D01*
X20679210Y-44344790D01*
X20679210Y-44344789D01*
X20637407Y-44302986D01*
X20637643Y-44032518D01*
X20512233Y-43729002D01*
X20280219Y-43496583D01*
X19976923Y-43370643D01*
X19648518Y-43370357D01*
X19345002Y-43495767D01*
X19112583Y-43727781D01*
X18986643Y-44031077D01*
X18986357Y-44359482D01*
X19111767Y-44662998D01*
X19343781Y-44895417D01*
X19647077Y-45021357D01*
X19812000Y-45021500D01*
X19812000Y-46413232D01*
X19555618Y-46584542D01*
X19321286Y-46935243D01*
X19239000Y-47348924D01*
X19239000Y-47901076D01*
X19321286Y-48314757D01*
X19539275Y-48641000D01*
X18560724Y-48641000D01*
X18778714Y-48314757D01*
X18861000Y-47901076D01*
X18861000Y-47348924D01*
X18778714Y-46935243D01*
X18544382Y-46584542D01*
X18193681Y-46350210D01*
X17780000Y-46267924D01*
X17366319Y-46350210D01*
X17015618Y-46584542D01*
X16781286Y-46935243D01*
X16699000Y-47348924D01*
X16699000Y-47901076D01*
X16781286Y-48314757D01*
X16999275Y-48641000D01*
X16020724Y-48641000D01*
X16238714Y-48314757D01*
X16321000Y-47901076D01*
X16321000Y-47348924D01*
X16238714Y-46935243D01*
X16004382Y-46584542D01*
X15653681Y-46350210D01*
X15240000Y-46267924D01*
X14826319Y-46350210D01*
X14475618Y-46584542D01*
X14241286Y-46935243D01*
X14159000Y-47348924D01*
X14159000Y-47901076D01*
X14241286Y-48314757D01*
X14459275Y-48641000D01*
X13480724Y-48641000D01*
X13698714Y-48314757D01*
X13781000Y-47901076D01*
X13781000Y-47348924D01*
X13698714Y-46935243D01*
X13464382Y-46584542D01*
X13113681Y-46350210D01*
X12700000Y-46267924D01*
X12286319Y-46350210D01*
X11935618Y-46584542D01*
X11701286Y-46935243D01*
X11619000Y-47348924D01*
X11619000Y-47901076D01*
X11701286Y-48314757D01*
X11919275Y-48641000D01*
X10940724Y-48641000D01*
X11158714Y-48314757D01*
X11241000Y-47901076D01*
X11241000Y-47348924D01*
X11158714Y-46935243D01*
X10924382Y-46584542D01*
X10573681Y-46350210D01*
X10160000Y-46267924D01*
X9746319Y-46350210D01*
X9395618Y-46584542D01*
X9161286Y-46935243D01*
X9079000Y-47348924D01*
X9079000Y-47901076D01*
X9161286Y-48314757D01*
X9379275Y-48641000D01*
X8400724Y-48641000D01*
X8618714Y-48314757D01*
X8701000Y-47901076D01*
X8701000Y-47348924D01*
X8618714Y-46935243D01*
X8384382Y-46584542D01*
X8106041Y-46398559D01*
X8259513Y-46296013D01*
X8962526Y-45593000D01*
X17272000Y-45593000D01*
X17515004Y-45544664D01*
X17721013Y-45407013D01*
X18233462Y-44894563D01*
X18324482Y-44894643D01*
X18627998Y-44769233D01*
X18860417Y-44537219D01*
X18986357Y-44233923D01*
X18986643Y-43905518D01*
X18861233Y-43602002D01*
X18629219Y-43369583D01*
X18325923Y-43243643D01*
X17997518Y-43243357D01*
X17694002Y-43368767D01*
X17461583Y-43600781D01*
X17335643Y-43904077D01*
X17335562Y-43996411D01*
X17008974Y-44323000D01*
X8699500Y-44323000D01*
X8456496Y-44371336D01*
X8250487Y-44508987D01*
X7547474Y-45212000D01*
X7342460Y-45212000D01*
X7694048Y-44860412D01*
X7885107Y-44574471D01*
X7952198Y-44237182D01*
X7898320Y-43966320D01*
X8169182Y-44020198D01*
X8506471Y-43953107D01*
X8792412Y-43762048D01*
X9177586Y-43376874D01*
X9368645Y-43090933D01*
X9435736Y-42753644D01*
X9368645Y-42416355D01*
X9177586Y-42130414D01*
X8891645Y-41939355D01*
X8554356Y-41872264D01*
X8217067Y-41939355D01*
X7931126Y-42130414D01*
X7545952Y-42515588D01*
X7354893Y-42801529D01*
X7287802Y-43138818D01*
X7341679Y-43409679D01*
X7070818Y-43355802D01*
X6733529Y-43422893D01*
X6447588Y-43613952D01*
X6062414Y-43999126D01*
X5871355Y-44285067D01*
X5804264Y-44622356D01*
X5871355Y-44959645D01*
X6039972Y-45212000D01*
X4318000Y-45212000D01*
X4074996Y-45260336D01*
X3868987Y-45397987D01*
X2922888Y-46344085D01*
X2540000Y-46267924D01*
X2126319Y-46350210D01*
X1775618Y-46584542D01*
X1541286Y-46935243D01*
X1459000Y-47348924D01*
X1459000Y-47901076D01*
X1541286Y-48314757D01*
X1775618Y-48665458D01*
X2126319Y-48899790D01*
X2540000Y-48982076D01*
X2953681Y-48899790D01*
X3304382Y-48665458D01*
X3538714Y-48314757D01*
X3621000Y-47901076D01*
X3621000Y-47442026D01*
X3753704Y-47309321D01*
X3897923Y-47498000D01*
X4953000Y-47498000D01*
X4953000Y-47478000D01*
X5207000Y-47478000D01*
X5207000Y-47498000D01*
X6262077Y-47498000D01*
X6423561Y-47286734D01*
X6287511Y-46779294D01*
X6059317Y-46482000D01*
X7009082Y-46482000D01*
X6855618Y-46584542D01*
X6621286Y-46935243D01*
X6539000Y-47348924D01*
X6539000Y-47901076D01*
X6621286Y-48314757D01*
X6855618Y-48665458D01*
X6985000Y-48751908D01*
X6985000Y-48895000D01*
X7033336Y-49138004D01*
X7170987Y-49344013D01*
X7395974Y-49569000D01*
X6423561Y-49569000D01*
X6423561Y-47963266D01*
X6262077Y-47752000D01*
X5207000Y-47752000D01*
X5207000Y-49044374D01*
X5413329Y-49167716D01*
X5512612Y-49150067D01*
X5967628Y-48887455D01*
X6287511Y-48470706D01*
X6423561Y-47963266D01*
X6423561Y-49569000D01*
X4953000Y-49569000D01*
X4953000Y-49044374D01*
X4953000Y-47752000D01*
X3897923Y-47752000D01*
X3736439Y-47963266D01*
X3872489Y-48470706D01*
X4192372Y-48887455D01*
X4647388Y-49150067D01*
X4746671Y-49167716D01*
X4953000Y-49044374D01*
X4953000Y-49569000D01*
X431000Y-49569000D01*
X431000Y-431000D01*
X149569000Y-431000D01*
X149569000Y-49569000D01*
M02*
