M48
;DRILL file {kicad (2014-10-27 BZR 5228)-product} date 7/28/2015 7:38:32 AM
;FORMAT={2:4/ absolute / inch / suppress leading zeros}
FMAT,2
INCH,TZ
T1C0.012
T2C0.024
T3C0.025
T4C0.031
T5C0.032
T6C0.039
T7C0.040
T8C0.055
T9C0.060
T10C0.197
%
G90
G05
M72
T1
X2975Y-13575
X3500Y-13400
X3670Y-10360
X4170Y-10640
X4670Y-10080
X5170Y-10920
X8500Y-10075
X9500Y-10360
X13513Y-10360
X14013Y-10640
X14513Y-10080
X15013Y-10920
X23350Y-10360
X23850Y-10640
X24350Y-10080
X24850Y-10920
X33200Y-10360
X33700Y-10640
X34200Y-10080
X34700Y-10920
X43040Y-10360
X43540Y-10640
X44040Y-10080
X44540Y-10920
X52880Y-10360
X53380Y-10640
X53880Y-10080
X54380Y-10920
T2
X5195Y-17760
X5785Y-17760
T3
X3150Y-11550
X3175Y-9750
X4475Y-15700
X6500Y-16280
X7460Y-17120
X7660Y-14130
X7700Y-9140
X8700Y-17040
X9575Y-14000
X9780Y-15780
X10000Y-16480
X10650Y-15775
X11840Y-8900
X12650Y-14850
X13025Y-9750
X14500Y-16480
X14700Y-17850
X17000Y-11300
X18950Y-15250
X19700Y-14250
X20250Y-14750
X22850Y-9750
X27050Y-11350
X28550Y-14750
X32700Y-9750
X34350Y-15200
X35350Y-19000
X35650Y-16750
X36880Y-11314
X42525Y-9750
X46850Y-11400
X52375Y-9750
X55375Y-10550
T4
X37113Y-13800
X37113Y-16800
X37900Y-13800
X37900Y-16800
X46000Y-14700
X46000Y-17100
X46787Y-14700
X46787Y-17100
T5
X40200Y-16600
X40200Y-18600
T6
X35800Y-15104
X35800Y-18096
X42400Y-13050
X46400Y-13050
T7
X1000Y-12750
X1000Y-18750
X2000Y-12750
X2000Y-18750
X2657Y-2729
X2657Y-4500
X2657Y-6271
X3000Y-12750
X3000Y-18750
X3346Y-1351
X3346Y-7649
X4000Y-12750
X4000Y-18750
X4920Y-957
X4920Y-8043
X5000Y-12750
X5000Y-18750
X6000Y-12750
X6000Y-18750
X6494Y-1351
X6494Y-7649
X7000Y-12750
X7000Y-18750
X7183Y-2729
X7183Y-4500
X7183Y-6271
X8000Y-12750
X8000Y-18750
X9000Y-12750
X9000Y-18750
X10000Y-12750
X10000Y-18750
X11000Y-12750
X11000Y-18750
X12000Y-12750
X12000Y-18750
X12500Y-2729
X12500Y-4500
X12500Y-6271
X13000Y-12750
X13000Y-18750
X13189Y-1351
X13189Y-7649
X14000Y-12750
X14000Y-18750
X14763Y-957
X14763Y-8043
X15000Y-12750
X15000Y-18750
X16000Y-12750
X16000Y-18750
X16337Y-1351
X16337Y-7649
X17000Y-12750
X17000Y-18750
X17026Y-2729
X17026Y-4500
X17026Y-6271
X18000Y-12750
X18000Y-18750
X19000Y-12750
X19000Y-18750
X20000Y-12750
X20000Y-18750
X21600Y-13750
X21600Y-14750
X21600Y-15750
X21600Y-16750
X22337Y-2729
X22337Y-4500
X22337Y-6271
X23026Y-1351
X23026Y-7649
X23100Y-13750
X23100Y-14750
X23100Y-15750
X23100Y-16750
X23100Y-17750
X24600Y-957
X24600Y-8043
X26174Y-1351
X26174Y-7649
X26863Y-2729
X26863Y-4500
X26863Y-6271
X32187Y-2729
X32187Y-4500
X32187Y-6271
X32876Y-1351
X32876Y-7649
X34450Y-957
X34450Y-8043
X36024Y-1351
X36024Y-7649
X36713Y-2729
X36713Y-4500
X36713Y-6271
X42027Y-2729
X42027Y-4500
X42027Y-6271
X42716Y-1351
X42716Y-7649
X44290Y-957
X44290Y-8043
X45864Y-1351
X45864Y-7649
X46553Y-2729
X46553Y-4500
X46553Y-6271
X51867Y-2729
X51867Y-4500
X51867Y-6271
X52556Y-1351
X52556Y-7649
X54130Y-957
X54130Y-8043
X55704Y-1351
X55704Y-7649
X56393Y-2729
X56393Y-4500
X56393Y-6271
T8
X53599Y-15873
X54549Y-14227
T9
X53074Y-16782
X54940Y-15550
X55074Y-13318
X55109Y-17957
X56109Y-16225
X56647Y-18094
X57109Y-14493
X57997Y-15756
T10
X9841Y-6535
X49210Y-6535
T7
X49450Y-16440G85X49150Y-16960
G05
X50820Y-15268G85X51339Y-15568
G05
X51528Y-17640G85X51228Y-18160
G05
T0
M30
