%FSLAX46Y46*%
G04 Gerber Fmt 4.6, Leading zero omitted, Abs format (unit mm)*
G04 Created by KiCad (PCBNEW (2014-10-27 BZR 5228)-product) date 7/28/2015 7:38:29 AM*
%MOMM*%
G01*
G04 APERTURE LIST*
%ADD10C,0.100000*%
%ADD11R,1.400000X1.900000*%
%ADD12O,1.400000X1.900000*%
%ADD13R,3.599180X2.598420*%
%ADD14R,1.300000X1.300000*%
%ADD15C,1.300000*%
%ADD16C,4.800600*%
%ADD17C,2.286000*%
%ADD18R,1.905000X1.905000*%
%ADD19C,1.905000*%
%ADD20C,1.998980*%
%ADD21O,1.501140X1.000760*%
%ADD22R,2.032000X1.727200*%
%ADD23O,2.032000X1.727200*%
%ADD24C,2.000000*%
%ADD25C,1.778000*%
%ADD26C,0.889000*%
%ADD27C,0.600000*%
%ADD28C,0.508000*%
%ADD29C,0.254000*%
G04 APERTURE END LIST*
D10*
D11*
X2540000Y-32385000D03*
D12*
X5080000Y-32385000D03*
X7620000Y-32385000D03*
X10160000Y-32385000D03*
X12700000Y-32385000D03*
X15240000Y-32385000D03*
X17780000Y-32385000D03*
X20320000Y-32385000D03*
X22860000Y-32385000D03*
X25400000Y-32385000D03*
X27940000Y-32385000D03*
X30480000Y-32385000D03*
X33020000Y-32385000D03*
X35560000Y-32385000D03*
X38100000Y-32385000D03*
X40640000Y-32385000D03*
X43180000Y-32385000D03*
X45720000Y-32385000D03*
X48260000Y-32385000D03*
X50800000Y-32385000D03*
X50800000Y-47625000D03*
X48260000Y-47625000D03*
X45720000Y-47625000D03*
X43180000Y-47625000D03*
X40640000Y-47625000D03*
X38100000Y-47625000D03*
X35560000Y-47625000D03*
X33020000Y-47625000D03*
X30480000Y-47625000D03*
X27940000Y-47625000D03*
X25400000Y-47625000D03*
X22860000Y-47625000D03*
X20320000Y-47625000D03*
X17780000Y-47625000D03*
X15240000Y-47625000D03*
X12700000Y-47625000D03*
X10160000Y-47625000D03*
X7620000Y-47625000D03*
X5080000Y-47625000D03*
X2540000Y-47625000D03*
D13*
X75057000Y-47541180D03*
X75057000Y-18244820D03*
D14*
X116840000Y-37338000D03*
D15*
X118840000Y-37338000D03*
D14*
X116840000Y-43434000D03*
D15*
X118840000Y-43434000D03*
D14*
X96266000Y-42672000D03*
D15*
X94266000Y-42672000D03*
D14*
X96266000Y-35052000D03*
D15*
X94266000Y-35052000D03*
D16*
X125222000Y-42418000D03*
D10*
G36*
X127222420Y-46344571D02*
X129622720Y-42187129D01*
X133780162Y-44587429D01*
X131379862Y-48744871D01*
X127222420Y-46344571D01*
X127222420Y-46344571D01*
G37*
D16*
X129741734Y-39161591D03*
D17*
X134808384Y-42626409D03*
X139888384Y-33827591D03*
X139977690Y-45610909D03*
X145057690Y-36812091D03*
X143882776Y-45959101D03*
X147311776Y-40019899D03*
X142517690Y-41211500D03*
X139548089Y-39497000D03*
D18*
X102108000Y-42164000D03*
D19*
X102108000Y-47244000D03*
D20*
X117856000Y-33147000D03*
X107696000Y-33147000D03*
D21*
X12895580Y-45110400D03*
X14993620Y-45110400D03*
D22*
X58674000Y-45085000D03*
D23*
X58674000Y-42545000D03*
X58674000Y-40005000D03*
X58674000Y-37465000D03*
X58674000Y-34925000D03*
D22*
X54864000Y-42545000D03*
D23*
X54864000Y-40005000D03*
X54864000Y-37465000D03*
X54864000Y-34925000D03*
D24*
X90932000Y-45963840D03*
X90932000Y-38364160D03*
D25*
X133492240Y-19428460D03*
X131742180Y-15928340D03*
X131742180Y-11430000D03*
X131742180Y-6931660D03*
X133492240Y-3431540D03*
X137490200Y-2430780D03*
X141488160Y-3431540D03*
X143238220Y-6931660D03*
X143238220Y-11430000D03*
X143238220Y-15928340D03*
X141488160Y-19428460D03*
X137490200Y-20429220D03*
X108498640Y-19428460D03*
X106748580Y-15928340D03*
X106748580Y-11430000D03*
X106748580Y-6931660D03*
X108498640Y-3431540D03*
X112496600Y-2430780D03*
X116494560Y-3431540D03*
X118244620Y-6931660D03*
X118244620Y-11430000D03*
X118244620Y-15928340D03*
X116494560Y-19428460D03*
X112496600Y-20429220D03*
X83505040Y-19428460D03*
X81754980Y-15928340D03*
X81754980Y-11430000D03*
X81754980Y-6931660D03*
X83505040Y-3431540D03*
X87503000Y-2430780D03*
X91500960Y-3431540D03*
X93251020Y-6931660D03*
X93251020Y-11430000D03*
X93251020Y-15928340D03*
X91500960Y-19428460D03*
X87503000Y-20429220D03*
X58486040Y-19428460D03*
X56735980Y-15928340D03*
X56735980Y-11430000D03*
X56735980Y-6931660D03*
X58486040Y-3431540D03*
X62484000Y-2430780D03*
X66481960Y-3431540D03*
X68232020Y-6931660D03*
X68232020Y-11430000D03*
X68232020Y-15928340D03*
X66481960Y-19428460D03*
X62484000Y-20429220D03*
X33500060Y-19428460D03*
X31750000Y-15928340D03*
X31750000Y-11430000D03*
X31750000Y-6931660D03*
X33500060Y-3431540D03*
X37498020Y-2430780D03*
X41495980Y-3431540D03*
X43246040Y-6931660D03*
X43246040Y-11430000D03*
X43246040Y-15928340D03*
X41495980Y-19428460D03*
X37498020Y-20429220D03*
X8498840Y-19428460D03*
X6748780Y-15928340D03*
X6748780Y-11430000D03*
X6748780Y-6931660D03*
X8498840Y-3431540D03*
X12496800Y-2430780D03*
X16494760Y-3431540D03*
X18244820Y-6931660D03*
X18244820Y-11430000D03*
X18244820Y-15928340D03*
X16494760Y-19428460D03*
X12496800Y-20429220D03*
D26*
X32131000Y-37719000D03*
X140652500Y-26797000D03*
X19558000Y-23215600D03*
X118999000Y-28956000D03*
X93675200Y-28737560D03*
X68707000Y-28829000D03*
X72517000Y-37465000D03*
X43180000Y-28702000D03*
X87249000Y-38608000D03*
X11366500Y-39878000D03*
X19456400Y-35890200D03*
X24841200Y-40081200D03*
X27051000Y-40068500D03*
X133032500Y-24765000D03*
X108013500Y-24765000D03*
X83058000Y-24765000D03*
X58039000Y-24765000D03*
X33083500Y-24765000D03*
X8064500Y-24765000D03*
X22098000Y-43281600D03*
X18948400Y-43484800D03*
X90551000Y-42545000D03*
X36830000Y-41859200D03*
X25400000Y-41859200D03*
X16510000Y-41351200D03*
X48133000Y-38735000D03*
X50038000Y-36195000D03*
X37338000Y-45339000D03*
X8001000Y-29337000D03*
X24320500Y-35560000D03*
D27*
X134315200Y-26314400D03*
X9321800Y-26314400D03*
X109321600Y-26314400D03*
X84328000Y-26314400D03*
X59309000Y-26314400D03*
X34323020Y-26314400D03*
X24130000Y-26314400D03*
X135585200Y-27025600D03*
X10591800Y-27025600D03*
X110591600Y-27025600D03*
X85598000Y-27025600D03*
X60579000Y-27025600D03*
X35593020Y-27025600D03*
X7556500Y-34480500D03*
X11861800Y-25603200D03*
X136855200Y-25603200D03*
X111861600Y-25603200D03*
X86868000Y-25603200D03*
X61849000Y-25603200D03*
X36863020Y-25603200D03*
X21590000Y-25590500D03*
X13131800Y-27736800D03*
X138125200Y-27736800D03*
X113131600Y-27736800D03*
X38133020Y-27736800D03*
X88138000Y-27736800D03*
X63119000Y-27736800D03*
X8890000Y-34036000D03*
D26*
X89789000Y-48260000D03*
X51435000Y-37465000D03*
X30073600Y-22606000D03*
D28*
X58674000Y-37465000D02*
X56769000Y-37465000D01*
X56769000Y-34925000D02*
X54864000Y-34925000D01*
X56769000Y-37465000D02*
X56769000Y-34925000D01*
X19558000Y-23215600D02*
X19558000Y-22479000D01*
X19558000Y-22479000D02*
X18542000Y-21463000D01*
X118999000Y-28956000D02*
X120015000Y-29972000D01*
X120015000Y-29972000D02*
X120015000Y-36163000D01*
X120015000Y-36163000D02*
X118840000Y-37338000D01*
X93675200Y-28737560D02*
X94266000Y-29328360D01*
X94266000Y-29328360D02*
X94266000Y-35052000D01*
X68707000Y-28829000D02*
X72517000Y-32639000D01*
X72517000Y-32639000D02*
X72517000Y-37465000D01*
X51308000Y-28702000D02*
X54864000Y-32258000D01*
X43180000Y-28702000D02*
X51308000Y-28702000D01*
X54864000Y-32258000D02*
X54864000Y-34925000D01*
X18542000Y-21463000D02*
X13530580Y-21463000D01*
X13530580Y-21463000D02*
X12496800Y-20429220D01*
X88698000Y-38914000D02*
X88392000Y-38608000D01*
X88392000Y-38608000D02*
X87249000Y-38608000D01*
X91376500Y-38914000D02*
X88698000Y-38914000D01*
D29*
X24853900Y-40068500D02*
X24841200Y-40081200D01*
X27051000Y-40068500D02*
X24853900Y-40068500D01*
D28*
X147311776Y-40019899D02*
X147311776Y-27931776D01*
X144145000Y-24765000D02*
X133032500Y-24765000D01*
X147311776Y-27931776D02*
X144145000Y-24765000D01*
X133032500Y-24765000D02*
X108013500Y-24765000D01*
X108013500Y-24765000D02*
X83058000Y-24765000D01*
X83058000Y-24765000D02*
X58039000Y-24765000D01*
X58039000Y-24765000D02*
X33083500Y-24765000D01*
X33083500Y-24765000D02*
X8064500Y-24765000D01*
D29*
X20523200Y-43281600D02*
X22098000Y-43281600D01*
X20320000Y-43484800D02*
X20523200Y-43281600D01*
X18948400Y-43484800D02*
X20320000Y-43484800D01*
D28*
X90551000Y-42545000D02*
X58674000Y-42545000D01*
D29*
X25400000Y-41859200D02*
X36830000Y-41859200D01*
X16510000Y-41351200D02*
X6908800Y-41351200D01*
X6908800Y-41351200D02*
X2540000Y-45720000D01*
X2540000Y-45720000D02*
X2540000Y-47625000D01*
X48133000Y-38735000D02*
X48133000Y-36576000D01*
X48133000Y-36576000D02*
X47117006Y-35560006D01*
X36028158Y-35560006D02*
X47117006Y-35560006D01*
X25400000Y-33655000D02*
X26289002Y-34544002D01*
X26289002Y-34544002D02*
X35012154Y-34544002D01*
X35012154Y-34544002D02*
X36028158Y-35560006D01*
X25400000Y-32385000D02*
X25400000Y-33655000D01*
X50038000Y-36195000D02*
X50037996Y-36195000D01*
X50037996Y-36195000D02*
X48895000Y-35052004D01*
X36238580Y-35052004D02*
X48895000Y-35052004D01*
X35222576Y-34036000D02*
X36238580Y-35052004D01*
X28321000Y-34036000D02*
X35222576Y-34036000D01*
X27940000Y-33655000D02*
X27940000Y-32385000D01*
X27940000Y-33655000D02*
X28321000Y-34036000D01*
X17780000Y-46609000D02*
X19050000Y-45339000D01*
X19050000Y-45339000D02*
X24155400Y-45339000D01*
X37338000Y-45339000D02*
X24155400Y-45339000D01*
X17780000Y-47625000D02*
X17780000Y-46609000D01*
D28*
X73385680Y-49276000D02*
X8001000Y-49276000D01*
X8001000Y-49276000D02*
X7620000Y-48895000D01*
X7620000Y-48895000D02*
X7620000Y-47625000D01*
X74993500Y-47668180D02*
X73385680Y-49276000D01*
X30863540Y-3431540D02*
X37498020Y-10066020D01*
X37498020Y-10066020D02*
X37498020Y-20429220D01*
X16494760Y-3431540D02*
X30863540Y-3431540D01*
X55882540Y-3431540D02*
X62484000Y-10033000D01*
X62484000Y-10033000D02*
X62484000Y-20429220D01*
X41495980Y-3431540D02*
X55882540Y-3431540D01*
X80901540Y-3431540D02*
X66481960Y-3431540D01*
X80901540Y-3431540D02*
X87503000Y-10033000D01*
X87503000Y-20429220D02*
X87503000Y-10033000D01*
X112496600Y-10007600D02*
X105920540Y-3431540D01*
X105920540Y-3431540D02*
X91500960Y-3431540D01*
X112496600Y-20429220D02*
X112496600Y-10007600D01*
X116494560Y-3431540D02*
X130939540Y-3431540D01*
X130939540Y-3431540D02*
X137490200Y-9982200D01*
X137490200Y-9982200D02*
X137490200Y-20429220D01*
D29*
X8382000Y-29718000D02*
X8001000Y-29337000D01*
X22161500Y-29718000D02*
X8382000Y-29718000D01*
X24320500Y-35560000D02*
X24130000Y-35369500D01*
X24130000Y-35369500D02*
X24130000Y-31369000D01*
X24130000Y-31369000D02*
X22479000Y-29718000D01*
X22479000Y-29718000D02*
X22161500Y-29718000D01*
X109321600Y-26314400D02*
X134315200Y-26314400D01*
X84328000Y-26314400D02*
X109321600Y-26314400D01*
X59309000Y-26314400D02*
X84328000Y-26314400D01*
X34323020Y-26314400D02*
X59309000Y-26314400D01*
X19050000Y-26314400D02*
X21590000Y-26314400D01*
X24130000Y-26314400D02*
X34323020Y-26314400D01*
X21590000Y-26314400D02*
X24130000Y-26314400D01*
X9321800Y-26314400D02*
X19050000Y-26314400D01*
X110591600Y-27025600D02*
X135585200Y-27025600D01*
X85598000Y-27025600D02*
X110591600Y-27025600D01*
X60579000Y-27025600D02*
X85598000Y-27025600D01*
X35593020Y-27025600D02*
X60579000Y-27025600D01*
X21590000Y-27025600D02*
X24130000Y-27025600D01*
X24130000Y-27025600D02*
X35593020Y-27025600D01*
X10591800Y-27025600D02*
X21590000Y-27025600D01*
X7556500Y-34480500D02*
X6350000Y-33274000D01*
X6350000Y-33274000D02*
X6350000Y-27622500D01*
X6350000Y-27622500D02*
X6946900Y-27025600D01*
X6946900Y-27025600D02*
X10591800Y-27025600D01*
X26670000Y-25590500D02*
X26670000Y-25603200D01*
X26670000Y-25603200D02*
X26670000Y-25590500D01*
X26670000Y-25590500D02*
X26670000Y-25603200D01*
X111861600Y-25603200D02*
X136855200Y-25603200D01*
X86868000Y-25603200D02*
X111861600Y-25603200D01*
X61849000Y-25603200D02*
X86868000Y-25603200D01*
X36863020Y-25603200D02*
X61849000Y-25603200D01*
X24130000Y-25603200D02*
X26670000Y-25603200D01*
X26670000Y-25603200D02*
X36863020Y-25603200D01*
X21590000Y-25603200D02*
X24130000Y-25603200D01*
X11861800Y-25603200D02*
X21590000Y-25603200D01*
X21590000Y-25590500D02*
X21590000Y-25603200D01*
X21590000Y-25603200D02*
X21590000Y-25590500D01*
X21590000Y-25590500D02*
X21590000Y-25603200D01*
X113131600Y-27736800D02*
X138125200Y-27736800D01*
X88138000Y-27736800D02*
X113131600Y-27736800D01*
X63119000Y-27736800D02*
X88138000Y-27736800D01*
X38133020Y-27736800D02*
X63119000Y-27736800D01*
X13131800Y-27736800D02*
X38133020Y-27736800D01*
X7378702Y-27736800D02*
X13131800Y-27736800D01*
X6858002Y-30162500D02*
X6858002Y-28257500D01*
X7429502Y-30734000D02*
X6858002Y-30162500D01*
X8191500Y-30734000D02*
X7429502Y-30734000D01*
X8890000Y-31432500D02*
X8191500Y-30734000D01*
X8890000Y-32258000D02*
X8890000Y-31432500D01*
X8890000Y-34036000D02*
X8890000Y-32258000D01*
X6858002Y-28257500D02*
X7378702Y-27736800D01*
X89408000Y-48260000D02*
X89789000Y-48260000D01*
X55499000Y-47879000D02*
X68707000Y-47879000D01*
X40640000Y-47625000D02*
X40640000Y-45974000D01*
X81788000Y-48768000D02*
X88900000Y-48768000D01*
X77597000Y-44577000D02*
X81788000Y-48768000D01*
X72009000Y-44577000D02*
X77597000Y-44577000D01*
X68707000Y-47879000D02*
X72009000Y-44577000D01*
X52959000Y-45339000D02*
X55499000Y-47879000D01*
X41275000Y-45339000D02*
X52959000Y-45339000D01*
X40640000Y-45974000D02*
X41275000Y-45339000D01*
X88900000Y-48768000D02*
X89408000Y-48260000D01*
X38100000Y-33655000D02*
X38481000Y-34036000D01*
X38481000Y-34036000D02*
X52070000Y-34036000D01*
X52070000Y-34036000D02*
X52832000Y-34798000D01*
X52832000Y-34798000D02*
X52832000Y-39243000D01*
X52832000Y-39243000D02*
X53594000Y-40005000D01*
X53594000Y-40005000D02*
X54864000Y-40005000D01*
X38100000Y-32385000D02*
X38100000Y-33655000D01*
X51435000Y-37465000D02*
X51435000Y-35306000D01*
X51435000Y-35306000D02*
X50673002Y-34544002D01*
X35560000Y-33655000D02*
X36449002Y-34544002D01*
X36449002Y-34544002D02*
X50673002Y-34544002D01*
X35560000Y-32385000D02*
X35560000Y-33655000D01*
X44673520Y-22606000D02*
X88323420Y-22606000D01*
X88323420Y-22606000D02*
X91500960Y-19428460D01*
X41495980Y-19428460D02*
X44673520Y-22606000D01*
X30073600Y-22606000D02*
X38318440Y-22606000D01*
X38318440Y-22606000D02*
X41495980Y-19428460D01*
G36*
X149569000Y-48941548D02*
X149516668Y-49204638D01*
X149391686Y-49391686D01*
X149204639Y-49516667D01*
X148941547Y-49569000D01*
X148836040Y-49569000D01*
X148836040Y-39718087D01*
X148604514Y-39157750D01*
X148176180Y-38728668D01*
X147946776Y-38633411D01*
X147946776Y-27931781D01*
X147946776Y-27931776D01*
X147946777Y-27931776D01*
X147898440Y-27688772D01*
X147760789Y-27482763D01*
X144594013Y-24315987D01*
X144508440Y-24258808D01*
X144508440Y-15676830D01*
X144508440Y-11178490D01*
X144508440Y-6680150D01*
X144315502Y-6213202D01*
X143958557Y-5855634D01*
X143491947Y-5661881D01*
X142986710Y-5661440D01*
X142758380Y-5755783D01*
X142758380Y-3180030D01*
X142565442Y-2713082D01*
X142208497Y-2355514D01*
X141741887Y-2161761D01*
X141236650Y-2161320D01*
X140769702Y-2354258D01*
X140412134Y-2711203D01*
X140218381Y-3177813D01*
X140217940Y-3683050D01*
X140410878Y-4149998D01*
X140767823Y-4507566D01*
X141234433Y-4701319D01*
X141739670Y-4701760D01*
X142206618Y-4508822D01*
X142564186Y-4151877D01*
X142757939Y-3685267D01*
X142758380Y-3180030D01*
X142758380Y-5755783D01*
X142519762Y-5854378D01*
X142162194Y-6211323D01*
X141968441Y-6677933D01*
X141968000Y-7183170D01*
X142160938Y-7650118D01*
X142517883Y-8007686D01*
X142984493Y-8201439D01*
X143489730Y-8201880D01*
X143956678Y-8008942D01*
X144314246Y-7651997D01*
X144507999Y-7185387D01*
X144508440Y-6680150D01*
X144508440Y-11178490D01*
X144315502Y-10711542D01*
X143958557Y-10353974D01*
X143491947Y-10160221D01*
X142986710Y-10159780D01*
X142519762Y-10352718D01*
X142162194Y-10709663D01*
X141968441Y-11176273D01*
X141968000Y-11681510D01*
X142160938Y-12148458D01*
X142517883Y-12506026D01*
X142984493Y-12699779D01*
X143489730Y-12700220D01*
X143956678Y-12507282D01*
X144314246Y-12150337D01*
X144507999Y-11683727D01*
X144508440Y-11178490D01*
X144508440Y-15676830D01*
X144315502Y-15209882D01*
X143958557Y-14852314D01*
X143491947Y-14658561D01*
X142986710Y-14658120D01*
X142519762Y-14851058D01*
X142162194Y-15208003D01*
X141968441Y-15674613D01*
X141968000Y-16179850D01*
X142160938Y-16646798D01*
X142517883Y-17004366D01*
X142984493Y-17198119D01*
X143489730Y-17198560D01*
X143956678Y-17005622D01*
X144314246Y-16648677D01*
X144507999Y-16182067D01*
X144508440Y-15676830D01*
X144508440Y-24258808D01*
X144388004Y-24178336D01*
X144145000Y-24130000D01*
X142758380Y-24130000D01*
X142758380Y-19176950D01*
X142565442Y-18710002D01*
X142208497Y-18352434D01*
X141741887Y-18158681D01*
X141236650Y-18158240D01*
X140769702Y-18351178D01*
X140412134Y-18708123D01*
X140218381Y-19174733D01*
X140217940Y-19679970D01*
X140410878Y-20146918D01*
X140767823Y-20504486D01*
X141234433Y-20698239D01*
X141739670Y-20698680D01*
X142206618Y-20505742D01*
X142564186Y-20148797D01*
X142757939Y-19682187D01*
X142758380Y-19176950D01*
X142758380Y-24130000D01*
X138760420Y-24130000D01*
X138760420Y-20177710D01*
X138760420Y-2179270D01*
X138567482Y-1712322D01*
X138210537Y-1354754D01*
X137743927Y-1161001D01*
X137238690Y-1160560D01*
X136771742Y-1353498D01*
X136414174Y-1710443D01*
X136220421Y-2177053D01*
X136219980Y-2682290D01*
X136412918Y-3149238D01*
X136769863Y-3506806D01*
X137236473Y-3700559D01*
X137741710Y-3701000D01*
X138208658Y-3508062D01*
X138566226Y-3151117D01*
X138759979Y-2684507D01*
X138760420Y-2179270D01*
X138760420Y-20177710D01*
X138567482Y-19710762D01*
X138210537Y-19353194D01*
X138125200Y-19317759D01*
X138125200Y-9982200D01*
X138076864Y-9739196D01*
X137939213Y-9533187D01*
X133014203Y-4608177D01*
X133238513Y-4701319D01*
X133743750Y-4701760D01*
X134210698Y-4508822D01*
X134568266Y-4151877D01*
X134762019Y-3685267D01*
X134762460Y-3180030D01*
X134569522Y-2713082D01*
X134212577Y-2355514D01*
X133745967Y-2161761D01*
X133240730Y-2161320D01*
X132773782Y-2354258D01*
X132416214Y-2711203D01*
X132222461Y-3177813D01*
X132222020Y-3683050D01*
X132315629Y-3909603D01*
X131388553Y-2982527D01*
X131182544Y-2844876D01*
X130939540Y-2796540D01*
X117606325Y-2796540D01*
X117571842Y-2713082D01*
X117214897Y-2355514D01*
X116748287Y-2161761D01*
X116243050Y-2161320D01*
X115776102Y-2354258D01*
X115418534Y-2711203D01*
X115224781Y-3177813D01*
X115224340Y-3683050D01*
X115417278Y-4149998D01*
X115774223Y-4507566D01*
X116240833Y-4701319D01*
X116746070Y-4701760D01*
X117213018Y-4508822D01*
X117570586Y-4151877D01*
X117606020Y-4066540D01*
X130676514Y-4066540D01*
X136855200Y-10245226D01*
X136855200Y-19317454D01*
X136771742Y-19351938D01*
X136414174Y-19708883D01*
X136220421Y-20175493D01*
X136219980Y-20680730D01*
X136412918Y-21147678D01*
X136769863Y-21505246D01*
X137236473Y-21698999D01*
X137741710Y-21699440D01*
X138208658Y-21506502D01*
X138566226Y-21149557D01*
X138759979Y-20682947D01*
X138760420Y-20177710D01*
X138760420Y-24130000D01*
X134762460Y-24130000D01*
X134762460Y-19176950D01*
X134569522Y-18710002D01*
X134212577Y-18352434D01*
X133745967Y-18158681D01*
X133240730Y-18158240D01*
X133012400Y-18252583D01*
X133012400Y-15676830D01*
X133012400Y-11178490D01*
X133012400Y-6680150D01*
X132819462Y-6213202D01*
X132462517Y-5855634D01*
X131995907Y-5661881D01*
X131490670Y-5661440D01*
X131023722Y-5854378D01*
X130666154Y-6211323D01*
X130472401Y-6677933D01*
X130471960Y-7183170D01*
X130664898Y-7650118D01*
X131021843Y-8007686D01*
X131488453Y-8201439D01*
X131993690Y-8201880D01*
X132460638Y-8008942D01*
X132818206Y-7651997D01*
X133011959Y-7185387D01*
X133012400Y-6680150D01*
X133012400Y-11178490D01*
X132819462Y-10711542D01*
X132462517Y-10353974D01*
X131995907Y-10160221D01*
X131490670Y-10159780D01*
X131023722Y-10352718D01*
X130666154Y-10709663D01*
X130472401Y-11176273D01*
X130471960Y-11681510D01*
X130664898Y-12148458D01*
X131021843Y-12506026D01*
X131488453Y-12699779D01*
X131993690Y-12700220D01*
X132460638Y-12507282D01*
X132818206Y-12150337D01*
X133011959Y-11683727D01*
X133012400Y-11178490D01*
X133012400Y-15676830D01*
X132819462Y-15209882D01*
X132462517Y-14852314D01*
X131995907Y-14658561D01*
X131490670Y-14658120D01*
X131023722Y-14851058D01*
X130666154Y-15208003D01*
X130472401Y-15674613D01*
X130471960Y-16179850D01*
X130664898Y-16646798D01*
X131021843Y-17004366D01*
X131488453Y-17198119D01*
X131993690Y-17198560D01*
X132460638Y-17005622D01*
X132818206Y-16648677D01*
X133011959Y-16182067D01*
X133012400Y-15676830D01*
X133012400Y-18252583D01*
X132773782Y-18351178D01*
X132416214Y-18708123D01*
X132222461Y-19174733D01*
X132222020Y-19679970D01*
X132414958Y-20146918D01*
X132771903Y-20504486D01*
X133238513Y-20698239D01*
X133743750Y-20698680D01*
X134210698Y-20505742D01*
X134568266Y-20148797D01*
X134762019Y-19682187D01*
X134762460Y-19176950D01*
X134762460Y-24130000D01*
X133565023Y-24130000D01*
X133500719Y-24065583D01*
X133197423Y-23939643D01*
X132869018Y-23939357D01*
X132565502Y-24064767D01*
X132500155Y-24130000D01*
X127874899Y-24130000D01*
X127874899Y-16029448D01*
X127437217Y-14970177D01*
X126627486Y-14159031D01*
X125568980Y-13719501D01*
X124422848Y-13718501D01*
X123363577Y-14156183D01*
X122552431Y-14965914D01*
X122112901Y-16024420D01*
X122111901Y-17170552D01*
X122549583Y-18229823D01*
X123359314Y-19040969D01*
X124417820Y-19480499D01*
X125563952Y-19481499D01*
X126623223Y-19043817D01*
X127434369Y-18234086D01*
X127873899Y-17175580D01*
X127874899Y-16029448D01*
X127874899Y-24130000D01*
X119514840Y-24130000D01*
X119514840Y-15676830D01*
X119514840Y-11178490D01*
X119514840Y-6680150D01*
X119321902Y-6213202D01*
X118964957Y-5855634D01*
X118498347Y-5661881D01*
X117993110Y-5661440D01*
X117526162Y-5854378D01*
X117168594Y-6211323D01*
X116974841Y-6677933D01*
X116974400Y-7183170D01*
X117167338Y-7650118D01*
X117524283Y-8007686D01*
X117990893Y-8201439D01*
X118496130Y-8201880D01*
X118963078Y-8008942D01*
X119320646Y-7651997D01*
X119514399Y-7185387D01*
X119514840Y-6680150D01*
X119514840Y-11178490D01*
X119321902Y-10711542D01*
X118964957Y-10353974D01*
X118498347Y-10160221D01*
X117993110Y-10159780D01*
X117526162Y-10352718D01*
X117168594Y-10709663D01*
X116974841Y-11176273D01*
X116974400Y-11681510D01*
X117167338Y-12148458D01*
X117524283Y-12506026D01*
X117990893Y-12699779D01*
X118496130Y-12700220D01*
X118963078Y-12507282D01*
X119320646Y-12150337D01*
X119514399Y-11683727D01*
X119514840Y-11178490D01*
X119514840Y-15676830D01*
X119321902Y-15209882D01*
X118964957Y-14852314D01*
X118498347Y-14658561D01*
X117993110Y-14658120D01*
X117526162Y-14851058D01*
X117168594Y-15208003D01*
X116974841Y-15674613D01*
X116974400Y-16179850D01*
X117167338Y-16646798D01*
X117524283Y-17004366D01*
X117990893Y-17198119D01*
X118496130Y-17198560D01*
X118963078Y-17005622D01*
X119320646Y-16648677D01*
X119514399Y-16182067D01*
X119514840Y-15676830D01*
X119514840Y-24130000D01*
X117764780Y-24130000D01*
X117764780Y-19176950D01*
X117571842Y-18710002D01*
X117214897Y-18352434D01*
X116748287Y-18158681D01*
X116243050Y-18158240D01*
X115776102Y-18351178D01*
X115418534Y-18708123D01*
X115224781Y-19174733D01*
X115224340Y-19679970D01*
X115417278Y-20146918D01*
X115774223Y-20504486D01*
X116240833Y-20698239D01*
X116746070Y-20698680D01*
X117213018Y-20505742D01*
X117570586Y-20148797D01*
X117764339Y-19682187D01*
X117764780Y-19176950D01*
X117764780Y-24130000D01*
X113766820Y-24130000D01*
X113766820Y-20177710D01*
X113766820Y-2179270D01*
X113573882Y-1712322D01*
X113216937Y-1354754D01*
X112750327Y-1161001D01*
X112245090Y-1160560D01*
X111778142Y-1353498D01*
X111420574Y-1710443D01*
X111226821Y-2177053D01*
X111226380Y-2682290D01*
X111419318Y-3149238D01*
X111776263Y-3506806D01*
X112242873Y-3700559D01*
X112748110Y-3701000D01*
X113215058Y-3508062D01*
X113572626Y-3151117D01*
X113766379Y-2684507D01*
X113766820Y-2179270D01*
X113766820Y-20177710D01*
X113573882Y-19710762D01*
X113216937Y-19353194D01*
X113131600Y-19317759D01*
X113131600Y-10007600D01*
X113083264Y-9764596D01*
X112945613Y-9558587D01*
X107977167Y-4590141D01*
X108244913Y-4701319D01*
X108750150Y-4701760D01*
X109217098Y-4508822D01*
X109574666Y-4151877D01*
X109768419Y-3685267D01*
X109768860Y-3180030D01*
X109575922Y-2713082D01*
X109218977Y-2355514D01*
X108752367Y-2161761D01*
X108247130Y-2161320D01*
X107780182Y-2354258D01*
X107422614Y-2711203D01*
X107228861Y-3177813D01*
X107228420Y-3683050D01*
X107339914Y-3952888D01*
X106369553Y-2982527D01*
X106163544Y-2844876D01*
X105920540Y-2796540D01*
X92612725Y-2796540D01*
X92578242Y-2713082D01*
X92221297Y-2355514D01*
X91754687Y-2161761D01*
X91249450Y-2161320D01*
X90782502Y-2354258D01*
X90424934Y-2711203D01*
X90231181Y-3177813D01*
X90230740Y-3683050D01*
X90423678Y-4149998D01*
X90780623Y-4507566D01*
X91247233Y-4701319D01*
X91752470Y-4701760D01*
X92219418Y-4508822D01*
X92576986Y-4151877D01*
X92612420Y-4066540D01*
X105657514Y-4066540D01*
X107430766Y-5839792D01*
X107002307Y-5661881D01*
X106497070Y-5661440D01*
X106030122Y-5854378D01*
X105672554Y-6211323D01*
X105478801Y-6677933D01*
X105478360Y-7183170D01*
X105671298Y-7650118D01*
X106028243Y-8007686D01*
X106494853Y-8201439D01*
X107000090Y-8201880D01*
X107467038Y-8008942D01*
X107824606Y-7651997D01*
X108018359Y-7185387D01*
X108018800Y-6680150D01*
X107841131Y-6250157D01*
X111861600Y-10270626D01*
X111861600Y-19317454D01*
X111778142Y-19351938D01*
X111420574Y-19708883D01*
X111226821Y-20175493D01*
X111226380Y-20680730D01*
X111419318Y-21147678D01*
X111776263Y-21505246D01*
X112242873Y-21698999D01*
X112748110Y-21699440D01*
X113215058Y-21506502D01*
X113572626Y-21149557D01*
X113766379Y-20682947D01*
X113766820Y-20177710D01*
X113766820Y-24130000D01*
X109768860Y-24130000D01*
X109768860Y-19176950D01*
X109575922Y-18710002D01*
X109218977Y-18352434D01*
X108752367Y-18158681D01*
X108247130Y-18158240D01*
X108018800Y-18252583D01*
X108018800Y-15676830D01*
X108018800Y-11178490D01*
X107825862Y-10711542D01*
X107468917Y-10353974D01*
X107002307Y-10160221D01*
X106497070Y-10159780D01*
X106030122Y-10352718D01*
X105672554Y-10709663D01*
X105478801Y-11176273D01*
X105478360Y-11681510D01*
X105671298Y-12148458D01*
X106028243Y-12506026D01*
X106494853Y-12699779D01*
X107000090Y-12700220D01*
X107467038Y-12507282D01*
X107824606Y-12150337D01*
X108018359Y-11683727D01*
X108018800Y-11178490D01*
X108018800Y-15676830D01*
X107825862Y-15209882D01*
X107468917Y-14852314D01*
X107002307Y-14658561D01*
X106497070Y-14658120D01*
X106030122Y-14851058D01*
X105672554Y-15208003D01*
X105478801Y-15674613D01*
X105478360Y-16179850D01*
X105671298Y-16646798D01*
X106028243Y-17004366D01*
X106494853Y-17198119D01*
X107000090Y-17198560D01*
X107467038Y-17005622D01*
X107824606Y-16648677D01*
X108018359Y-16182067D01*
X108018800Y-15676830D01*
X108018800Y-18252583D01*
X107780182Y-18351178D01*
X107422614Y-18708123D01*
X107228861Y-19174733D01*
X107228420Y-19679970D01*
X107421358Y-20146918D01*
X107778303Y-20504486D01*
X108244913Y-20698239D01*
X108750150Y-20698680D01*
X109217098Y-20505742D01*
X109574666Y-20148797D01*
X109768419Y-19682187D01*
X109768860Y-19176950D01*
X109768860Y-24130000D01*
X108546023Y-24130000D01*
X108481719Y-24065583D01*
X108178423Y-23939643D01*
X107850018Y-23939357D01*
X107546502Y-24064767D01*
X107481155Y-24130000D01*
X94521240Y-24130000D01*
X94521240Y-15676830D01*
X94521240Y-11178490D01*
X94521240Y-6680150D01*
X94328302Y-6213202D01*
X93971357Y-5855634D01*
X93504747Y-5661881D01*
X92999510Y-5661440D01*
X92532562Y-5854378D01*
X92174994Y-6211323D01*
X91981241Y-6677933D01*
X91980800Y-7183170D01*
X92173738Y-7650118D01*
X92530683Y-8007686D01*
X92997293Y-8201439D01*
X93502530Y-8201880D01*
X93969478Y-8008942D01*
X94327046Y-7651997D01*
X94520799Y-7185387D01*
X94521240Y-6680150D01*
X94521240Y-11178490D01*
X94328302Y-10711542D01*
X93971357Y-10353974D01*
X93504747Y-10160221D01*
X92999510Y-10159780D01*
X92532562Y-10352718D01*
X92174994Y-10709663D01*
X91981241Y-11176273D01*
X91980800Y-11681510D01*
X92173738Y-12148458D01*
X92530683Y-12506026D01*
X92997293Y-12699779D01*
X93502530Y-12700220D01*
X93969478Y-12507282D01*
X94327046Y-12150337D01*
X94520799Y-11683727D01*
X94521240Y-11178490D01*
X94521240Y-15676830D01*
X94328302Y-15209882D01*
X93971357Y-14852314D01*
X93504747Y-14658561D01*
X92999510Y-14658120D01*
X92532562Y-14851058D01*
X92174994Y-15208003D01*
X91981241Y-15674613D01*
X91980800Y-16179850D01*
X92173738Y-16646798D01*
X92530683Y-17004366D01*
X92997293Y-17198119D01*
X93502530Y-17198560D01*
X93969478Y-17005622D01*
X94327046Y-16648677D01*
X94520799Y-16182067D01*
X94521240Y-15676830D01*
X94521240Y-24130000D01*
X92771180Y-24130000D01*
X92771180Y-19176950D01*
X92578242Y-18710002D01*
X92221297Y-18352434D01*
X91754687Y-18158681D01*
X91249450Y-18158240D01*
X90782502Y-18351178D01*
X90424934Y-18708123D01*
X90231181Y-19174733D01*
X90230740Y-19679970D01*
X90318539Y-19892460D01*
X88773220Y-21437779D01*
X88773220Y-20177710D01*
X88773220Y-2179270D01*
X88580282Y-1712322D01*
X88223337Y-1354754D01*
X87756727Y-1161001D01*
X87251490Y-1160560D01*
X86784542Y-1353498D01*
X86426974Y-1710443D01*
X86233221Y-2177053D01*
X86232780Y-2682290D01*
X86425718Y-3149238D01*
X86782663Y-3506806D01*
X87249273Y-3700559D01*
X87754510Y-3701000D01*
X88221458Y-3508062D01*
X88579026Y-3151117D01*
X88772779Y-2684507D01*
X88773220Y-2179270D01*
X88773220Y-20177710D01*
X88580282Y-19710762D01*
X88223337Y-19353194D01*
X88138000Y-19317759D01*
X88138000Y-10033000D01*
X88089664Y-9789996D01*
X88089664Y-9789995D01*
X87952013Y-9583987D01*
X82940131Y-4572105D01*
X83251313Y-4701319D01*
X83756550Y-4701760D01*
X84223498Y-4508822D01*
X84581066Y-4151877D01*
X84774819Y-3685267D01*
X84775260Y-3180030D01*
X84582322Y-2713082D01*
X84225377Y-2355514D01*
X83758767Y-2161761D01*
X83253530Y-2161320D01*
X82786582Y-2354258D01*
X82429014Y-2711203D01*
X82235261Y-3177813D01*
X82234820Y-3683050D01*
X82364199Y-3996173D01*
X81350553Y-2982527D01*
X81144544Y-2844876D01*
X80901540Y-2796540D01*
X67593725Y-2796540D01*
X67559242Y-2713082D01*
X67202297Y-2355514D01*
X66735687Y-2161761D01*
X66230450Y-2161320D01*
X65763502Y-2354258D01*
X65405934Y-2711203D01*
X65212181Y-3177813D01*
X65211740Y-3683050D01*
X65404678Y-4149998D01*
X65761623Y-4507566D01*
X66228233Y-4701319D01*
X66733470Y-4701760D01*
X67200418Y-4508822D01*
X67557986Y-4151877D01*
X67593420Y-4066540D01*
X80638513Y-4066540D01*
X82393730Y-5821756D01*
X82008707Y-5661881D01*
X81503470Y-5661440D01*
X81036522Y-5854378D01*
X80678954Y-6211323D01*
X80485201Y-6677933D01*
X80484760Y-7183170D01*
X80677698Y-7650118D01*
X81034643Y-8007686D01*
X81501253Y-8201439D01*
X82006490Y-8201880D01*
X82473438Y-8008942D01*
X82831006Y-7651997D01*
X83024759Y-7185387D01*
X83025200Y-6680150D01*
X82865416Y-6293442D01*
X86868000Y-10296026D01*
X86868000Y-19317454D01*
X86784542Y-19351938D01*
X86426974Y-19708883D01*
X86233221Y-20175493D01*
X86232780Y-20680730D01*
X86425718Y-21147678D01*
X86782663Y-21505246D01*
X87249273Y-21698999D01*
X87754510Y-21699440D01*
X88221458Y-21506502D01*
X88579026Y-21149557D01*
X88772779Y-20682947D01*
X88773220Y-20177710D01*
X88773220Y-21437779D01*
X88113000Y-22098000D01*
X84775260Y-22098000D01*
X84775260Y-19176950D01*
X84582322Y-18710002D01*
X84225377Y-18352434D01*
X83758767Y-18158681D01*
X83253530Y-18158240D01*
X83025200Y-18252583D01*
X83025200Y-15676830D01*
X83025200Y-11178490D01*
X82832262Y-10711542D01*
X82475317Y-10353974D01*
X82008707Y-10160221D01*
X81503470Y-10159780D01*
X81036522Y-10352718D01*
X80678954Y-10709663D01*
X80485201Y-11176273D01*
X80484760Y-11681510D01*
X80677698Y-12148458D01*
X81034643Y-12506026D01*
X81501253Y-12699779D01*
X82006490Y-12700220D01*
X82473438Y-12507282D01*
X82831006Y-12150337D01*
X83024759Y-11683727D01*
X83025200Y-11178490D01*
X83025200Y-15676830D01*
X82832262Y-15209882D01*
X82475317Y-14852314D01*
X82008707Y-14658561D01*
X81503470Y-14658120D01*
X81036522Y-14851058D01*
X80678954Y-15208003D01*
X80485201Y-15674613D01*
X80484760Y-16179850D01*
X80677698Y-16646798D01*
X81034643Y-17004366D01*
X81501253Y-17198119D01*
X82006490Y-17198560D01*
X82473438Y-17005622D01*
X82831006Y-16648677D01*
X83024759Y-16182067D01*
X83025200Y-15676830D01*
X83025200Y-18252583D01*
X82786582Y-18351178D01*
X82429014Y-18708123D01*
X82235261Y-19174733D01*
X82234820Y-19679970D01*
X82427758Y-20146918D01*
X82784703Y-20504486D01*
X83251313Y-20698239D01*
X83756550Y-20698680D01*
X84223498Y-20505742D01*
X84581066Y-20148797D01*
X84774819Y-19682187D01*
X84775260Y-19176950D01*
X84775260Y-22098000D01*
X77491590Y-22098000D01*
X77491590Y-19670339D01*
X77491590Y-18530570D01*
X77491590Y-17959070D01*
X77491590Y-16819301D01*
X77394917Y-16585912D01*
X77216289Y-16407283D01*
X76982900Y-16310610D01*
X76730281Y-16310610D01*
X75342750Y-16310610D01*
X75184000Y-16469360D01*
X75184000Y-18117820D01*
X77332840Y-18117820D01*
X77491590Y-17959070D01*
X77491590Y-18530570D01*
X77332840Y-18371820D01*
X75184000Y-18371820D01*
X75184000Y-20020280D01*
X75342750Y-20179030D01*
X76730281Y-20179030D01*
X76982900Y-20179030D01*
X77216289Y-20082357D01*
X77394917Y-19903728D01*
X77491590Y-19670339D01*
X77491590Y-22098000D01*
X74930000Y-22098000D01*
X74930000Y-20020280D01*
X74930000Y-18371820D01*
X74930000Y-18117820D01*
X74930000Y-16469360D01*
X74771250Y-16310610D01*
X73383719Y-16310610D01*
X73131100Y-16310610D01*
X72897711Y-16407283D01*
X72719083Y-16585912D01*
X72622410Y-16819301D01*
X72622410Y-17959070D01*
X72781160Y-18117820D01*
X74930000Y-18117820D01*
X74930000Y-18371820D01*
X72781160Y-18371820D01*
X72622410Y-18530570D01*
X72622410Y-19670339D01*
X72719083Y-19903728D01*
X72897711Y-20082357D01*
X73131100Y-20179030D01*
X73383719Y-20179030D01*
X74771250Y-20179030D01*
X74930000Y-20020280D01*
X74930000Y-22098000D01*
X69502240Y-22098000D01*
X69502240Y-15676830D01*
X69502240Y-11178490D01*
X69502240Y-6680150D01*
X69309302Y-6213202D01*
X68952357Y-5855634D01*
X68485747Y-5661881D01*
X67980510Y-5661440D01*
X67513562Y-5854378D01*
X67155994Y-6211323D01*
X66962241Y-6677933D01*
X66961800Y-7183170D01*
X67154738Y-7650118D01*
X67511683Y-8007686D01*
X67978293Y-8201439D01*
X68483530Y-8201880D01*
X68950478Y-8008942D01*
X69308046Y-7651997D01*
X69501799Y-7185387D01*
X69502240Y-6680150D01*
X69502240Y-11178490D01*
X69309302Y-10711542D01*
X68952357Y-10353974D01*
X68485747Y-10160221D01*
X67980510Y-10159780D01*
X67513562Y-10352718D01*
X67155994Y-10709663D01*
X66962241Y-11176273D01*
X66961800Y-11681510D01*
X67154738Y-12148458D01*
X67511683Y-12506026D01*
X67978293Y-12699779D01*
X68483530Y-12700220D01*
X68950478Y-12507282D01*
X69308046Y-12150337D01*
X69501799Y-11683727D01*
X69502240Y-11178490D01*
X69502240Y-15676830D01*
X69309302Y-15209882D01*
X68952357Y-14852314D01*
X68485747Y-14658561D01*
X67980510Y-14658120D01*
X67513562Y-14851058D01*
X67155994Y-15208003D01*
X66962241Y-15674613D01*
X66961800Y-16179850D01*
X67154738Y-16646798D01*
X67511683Y-17004366D01*
X67978293Y-17198119D01*
X68483530Y-17198560D01*
X68950478Y-17005622D01*
X69308046Y-16648677D01*
X69501799Y-16182067D01*
X69502240Y-15676830D01*
X69502240Y-22098000D01*
X67752180Y-22098000D01*
X67752180Y-19176950D01*
X67559242Y-18710002D01*
X67202297Y-18352434D01*
X66735687Y-18158681D01*
X66230450Y-18158240D01*
X65763502Y-18351178D01*
X65405934Y-18708123D01*
X65212181Y-19174733D01*
X65211740Y-19679970D01*
X65404678Y-20146918D01*
X65761623Y-20504486D01*
X66228233Y-20698239D01*
X66733470Y-20698680D01*
X67200418Y-20505742D01*
X67557986Y-20148797D01*
X67751739Y-19682187D01*
X67752180Y-19176950D01*
X67752180Y-22098000D01*
X63754220Y-22098000D01*
X63754220Y-20177710D01*
X63754220Y-2179270D01*
X63561282Y-1712322D01*
X63204337Y-1354754D01*
X62737727Y-1161001D01*
X62232490Y-1160560D01*
X61765542Y-1353498D01*
X61407974Y-1710443D01*
X61214221Y-2177053D01*
X61213780Y-2682290D01*
X61406718Y-3149238D01*
X61763663Y-3506806D01*
X62230273Y-3700559D01*
X62735510Y-3701000D01*
X63202458Y-3508062D01*
X63560026Y-3151117D01*
X63753779Y-2684507D01*
X63754220Y-2179270D01*
X63754220Y-20177710D01*
X63561282Y-19710762D01*
X63204337Y-19353194D01*
X63119000Y-19317759D01*
X63119000Y-10033000D01*
X63070664Y-9789996D01*
X63070664Y-9789995D01*
X62933013Y-9583987D01*
X57921131Y-4572105D01*
X58232313Y-4701319D01*
X58737550Y-4701760D01*
X59204498Y-4508822D01*
X59562066Y-4151877D01*
X59755819Y-3685267D01*
X59756260Y-3180030D01*
X59563322Y-2713082D01*
X59206377Y-2355514D01*
X58739767Y-2161761D01*
X58234530Y-2161320D01*
X57767582Y-2354258D01*
X57410014Y-2711203D01*
X57216261Y-3177813D01*
X57215820Y-3683050D01*
X57345199Y-3996173D01*
X56331553Y-2982527D01*
X56125544Y-2844876D01*
X55882540Y-2796540D01*
X42607745Y-2796540D01*
X42573262Y-2713082D01*
X42216317Y-2355514D01*
X41749707Y-2161761D01*
X41244470Y-2161320D01*
X40777522Y-2354258D01*
X40419954Y-2711203D01*
X40226201Y-3177813D01*
X40225760Y-3683050D01*
X40418698Y-4149998D01*
X40775643Y-4507566D01*
X41242253Y-4701319D01*
X41747490Y-4701760D01*
X42214438Y-4508822D01*
X42572006Y-4151877D01*
X42607440Y-4066540D01*
X55619514Y-4066540D01*
X57374730Y-5821756D01*
X56989707Y-5661881D01*
X56484470Y-5661440D01*
X56017522Y-5854378D01*
X55659954Y-6211323D01*
X55466201Y-6677933D01*
X55465760Y-7183170D01*
X55658698Y-7650118D01*
X56015643Y-8007686D01*
X56482253Y-8201439D01*
X56987490Y-8201880D01*
X57454438Y-8008942D01*
X57812006Y-7651997D01*
X58005759Y-7185387D01*
X58006200Y-6680150D01*
X57846416Y-6293442D01*
X61849000Y-10296026D01*
X61849000Y-19317454D01*
X61765542Y-19351938D01*
X61407974Y-19708883D01*
X61214221Y-20175493D01*
X61213780Y-20680730D01*
X61406718Y-21147678D01*
X61763663Y-21505246D01*
X62230273Y-21698999D01*
X62735510Y-21699440D01*
X63202458Y-21506502D01*
X63560026Y-21149557D01*
X63753779Y-20682947D01*
X63754220Y-20177710D01*
X63754220Y-22098000D01*
X59756260Y-22098000D01*
X59756260Y-19176950D01*
X59563322Y-18710002D01*
X59206377Y-18352434D01*
X58739767Y-18158681D01*
X58234530Y-18158240D01*
X58006200Y-18252583D01*
X58006200Y-15676830D01*
X58006200Y-11178490D01*
X57813262Y-10711542D01*
X57456317Y-10353974D01*
X56989707Y-10160221D01*
X56484470Y-10159780D01*
X56017522Y-10352718D01*
X55659954Y-10709663D01*
X55466201Y-11176273D01*
X55465760Y-11681510D01*
X55658698Y-12148458D01*
X56015643Y-12506026D01*
X56482253Y-12699779D01*
X56987490Y-12700220D01*
X57454438Y-12507282D01*
X57812006Y-12150337D01*
X58005759Y-11683727D01*
X58006200Y-11178490D01*
X58006200Y-15676830D01*
X57813262Y-15209882D01*
X57456317Y-14852314D01*
X56989707Y-14658561D01*
X56484470Y-14658120D01*
X56017522Y-14851058D01*
X55659954Y-15208003D01*
X55466201Y-15674613D01*
X55465760Y-16179850D01*
X55658698Y-16646798D01*
X56015643Y-17004366D01*
X56482253Y-17198119D01*
X56987490Y-17198560D01*
X57454438Y-17005622D01*
X57812006Y-16648677D01*
X58005759Y-16182067D01*
X58006200Y-15676830D01*
X58006200Y-18252583D01*
X57767582Y-18351178D01*
X57410014Y-18708123D01*
X57216261Y-19174733D01*
X57215820Y-19679970D01*
X57408758Y-20146918D01*
X57765703Y-20504486D01*
X58232313Y-20698239D01*
X58737550Y-20698680D01*
X59204498Y-20505742D01*
X59562066Y-20148797D01*
X59755819Y-19682187D01*
X59756260Y-19176950D01*
X59756260Y-22098000D01*
X44883940Y-22098000D01*
X44516260Y-21730320D01*
X44516260Y-15676830D01*
X44516260Y-11178490D01*
X44516260Y-6680150D01*
X44323322Y-6213202D01*
X43966377Y-5855634D01*
X43499767Y-5661881D01*
X42994530Y-5661440D01*
X42527582Y-5854378D01*
X42170014Y-6211323D01*
X41976261Y-6677933D01*
X41975820Y-7183170D01*
X42168758Y-7650118D01*
X42525703Y-8007686D01*
X42992313Y-8201439D01*
X43497550Y-8201880D01*
X43964498Y-8008942D01*
X44322066Y-7651997D01*
X44515819Y-7185387D01*
X44516260Y-6680150D01*
X44516260Y-11178490D01*
X44323322Y-10711542D01*
X43966377Y-10353974D01*
X43499767Y-10160221D01*
X42994530Y-10159780D01*
X42527582Y-10352718D01*
X42170014Y-10709663D01*
X41976261Y-11176273D01*
X41975820Y-11681510D01*
X42168758Y-12148458D01*
X42525703Y-12506026D01*
X42992313Y-12699779D01*
X43497550Y-12700220D01*
X43964498Y-12507282D01*
X44322066Y-12150337D01*
X44515819Y-11683727D01*
X44516260Y-11178490D01*
X44516260Y-15676830D01*
X44323322Y-15209882D01*
X43966377Y-14852314D01*
X43499767Y-14658561D01*
X42994530Y-14658120D01*
X42527582Y-14851058D01*
X42170014Y-15208003D01*
X41976261Y-15674613D01*
X41975820Y-16179850D01*
X42168758Y-16646798D01*
X42525703Y-17004366D01*
X42992313Y-17198119D01*
X43497550Y-17198560D01*
X43964498Y-17005622D01*
X44322066Y-16648677D01*
X44515819Y-16182067D01*
X44516260Y-15676830D01*
X44516260Y-21730320D01*
X42678432Y-19892492D01*
X42765759Y-19682187D01*
X42766200Y-19176950D01*
X42573262Y-18710002D01*
X42216317Y-18352434D01*
X41749707Y-18158681D01*
X41244470Y-18158240D01*
X40777522Y-18351178D01*
X40419954Y-18708123D01*
X40226201Y-19174733D01*
X40225760Y-19679970D01*
X40313559Y-19892460D01*
X38768240Y-21437779D01*
X38768240Y-20177710D01*
X38768240Y-2179270D01*
X38575302Y-1712322D01*
X38218357Y-1354754D01*
X37751747Y-1161001D01*
X37246510Y-1160560D01*
X36779562Y-1353498D01*
X36421994Y-1710443D01*
X36228241Y-2177053D01*
X36227800Y-2682290D01*
X36420738Y-3149238D01*
X36777683Y-3506806D01*
X37244293Y-3700559D01*
X37749530Y-3701000D01*
X38216478Y-3508062D01*
X38574046Y-3151117D01*
X38767799Y-2684507D01*
X38768240Y-2179270D01*
X38768240Y-20177710D01*
X38575302Y-19710762D01*
X38218357Y-19353194D01*
X38133020Y-19317759D01*
X38133020Y-10066025D01*
X38133020Y-10066020D01*
X38133021Y-10066020D01*
X38084684Y-9823016D01*
X37947033Y-9617007D01*
X32878684Y-4548658D01*
X33246333Y-4701319D01*
X33751570Y-4701760D01*
X34218518Y-4508822D01*
X34576086Y-4151877D01*
X34769839Y-3685267D01*
X34770280Y-3180030D01*
X34577342Y-2713082D01*
X34220397Y-2355514D01*
X33753787Y-2161761D01*
X33248550Y-2161320D01*
X32781602Y-2354258D01*
X32424034Y-2711203D01*
X32230281Y-3177813D01*
X32229840Y-3683050D01*
X32382469Y-4052443D01*
X31312553Y-2982527D01*
X31106544Y-2844876D01*
X30863540Y-2796540D01*
X17606525Y-2796540D01*
X17572042Y-2713082D01*
X17215097Y-2355514D01*
X16748487Y-2161761D01*
X16243250Y-2161320D01*
X15776302Y-2354258D01*
X15418734Y-2711203D01*
X15224981Y-3177813D01*
X15224540Y-3683050D01*
X15417478Y-4149998D01*
X15774423Y-4507566D01*
X16241033Y-4701319D01*
X16746270Y-4701760D01*
X17213218Y-4508822D01*
X17570786Y-4151877D01*
X17606220Y-4066540D01*
X30600514Y-4066540D01*
X32332283Y-5798309D01*
X32003727Y-5661881D01*
X31498490Y-5661440D01*
X31031542Y-5854378D01*
X30673974Y-6211323D01*
X30480221Y-6677933D01*
X30479780Y-7183170D01*
X30672718Y-7650118D01*
X31029663Y-8007686D01*
X31496273Y-8201439D01*
X32001510Y-8201880D01*
X32468458Y-8008942D01*
X32826026Y-7651997D01*
X33019779Y-7185387D01*
X33020220Y-6680150D01*
X32883686Y-6349712D01*
X36863020Y-10329046D01*
X36863020Y-19317454D01*
X36779562Y-19351938D01*
X36421994Y-19708883D01*
X36228241Y-20175493D01*
X36227800Y-20680730D01*
X36420738Y-21147678D01*
X36777683Y-21505246D01*
X37244293Y-21698999D01*
X37749530Y-21699440D01*
X38216478Y-21506502D01*
X38574046Y-21149557D01*
X38767799Y-20682947D01*
X38768240Y-20177710D01*
X38768240Y-21437779D01*
X38108020Y-22098000D01*
X34770280Y-22098000D01*
X34770280Y-19176950D01*
X34577342Y-18710002D01*
X34220397Y-18352434D01*
X33753787Y-18158681D01*
X33248550Y-18158240D01*
X33020220Y-18252583D01*
X33020220Y-15676830D01*
X33020220Y-11178490D01*
X32827282Y-10711542D01*
X32470337Y-10353974D01*
X32003727Y-10160221D01*
X31498490Y-10159780D01*
X31031542Y-10352718D01*
X30673974Y-10709663D01*
X30480221Y-11176273D01*
X30479780Y-11681510D01*
X30672718Y-12148458D01*
X31029663Y-12506026D01*
X31496273Y-12699779D01*
X32001510Y-12700220D01*
X32468458Y-12507282D01*
X32826026Y-12150337D01*
X33019779Y-11683727D01*
X33020220Y-11178490D01*
X33020220Y-15676830D01*
X32827282Y-15209882D01*
X32470337Y-14852314D01*
X32003727Y-14658561D01*
X31498490Y-14658120D01*
X31031542Y-14851058D01*
X30673974Y-15208003D01*
X30480221Y-15674613D01*
X30479780Y-16179850D01*
X30672718Y-16646798D01*
X31029663Y-17004366D01*
X31496273Y-17198119D01*
X32001510Y-17198560D01*
X32468458Y-17005622D01*
X32826026Y-16648677D01*
X33019779Y-16182067D01*
X33020220Y-15676830D01*
X33020220Y-18252583D01*
X32781602Y-18351178D01*
X32424034Y-18708123D01*
X32230281Y-19174733D01*
X32229840Y-19679970D01*
X32422778Y-20146918D01*
X32779723Y-20504486D01*
X33246333Y-20698239D01*
X33751570Y-20698680D01*
X34218518Y-20505742D01*
X34576086Y-20148797D01*
X34769839Y-19682187D01*
X34770280Y-19176950D01*
X34770280Y-22098000D01*
X30732902Y-22098000D01*
X30541819Y-21906583D01*
X30238523Y-21780643D01*
X29910118Y-21780357D01*
X29606602Y-21905767D01*
X29374183Y-22137781D01*
X29248243Y-22441077D01*
X29247957Y-22769482D01*
X29373367Y-23072998D01*
X29605381Y-23305417D01*
X29908677Y-23431357D01*
X30237082Y-23431643D01*
X30540598Y-23306233D01*
X30733166Y-23114000D01*
X38318440Y-23114000D01*
X38512843Y-23075331D01*
X38677650Y-22965210D01*
X41031947Y-20610912D01*
X41242253Y-20698239D01*
X41747490Y-20698680D01*
X41959980Y-20610880D01*
X44314310Y-22965210D01*
X44479116Y-23075331D01*
X44479117Y-23075331D01*
X44673520Y-23114000D01*
X88323420Y-23114000D01*
X88517823Y-23075331D01*
X88682630Y-22965210D01*
X91036927Y-20610912D01*
X91247233Y-20698239D01*
X91752470Y-20698680D01*
X92219418Y-20505742D01*
X92576986Y-20148797D01*
X92770739Y-19682187D01*
X92771180Y-19176950D01*
X92771180Y-24130000D01*
X83590523Y-24130000D01*
X83526219Y-24065583D01*
X83222923Y-23939643D01*
X82894518Y-23939357D01*
X82591002Y-24064767D01*
X82525655Y-24130000D01*
X58571523Y-24130000D01*
X58507219Y-24065583D01*
X58203923Y-23939643D01*
X57875518Y-23939357D01*
X57572002Y-24064767D01*
X57506655Y-24130000D01*
X33616023Y-24130000D01*
X33551719Y-24065583D01*
X33248423Y-23939643D01*
X32920018Y-23939357D01*
X32616502Y-24064767D01*
X32551155Y-24130000D01*
X27878909Y-24130000D01*
X27878909Y-16029448D01*
X27441227Y-14970177D01*
X26631496Y-14159031D01*
X25572990Y-13719501D01*
X24426858Y-13718501D01*
X23367587Y-14156183D01*
X22556441Y-14965914D01*
X22116911Y-16024420D01*
X22115911Y-17170552D01*
X22553593Y-18229823D01*
X23363324Y-19040969D01*
X24421830Y-19480499D01*
X25567962Y-19481499D01*
X26627233Y-19043817D01*
X27438379Y-18234086D01*
X27877909Y-17175580D01*
X27878909Y-16029448D01*
X27878909Y-24130000D01*
X19515040Y-24130000D01*
X19515040Y-15676830D01*
X19515040Y-11178490D01*
X19515040Y-6680150D01*
X19322102Y-6213202D01*
X18965157Y-5855634D01*
X18498547Y-5661881D01*
X17993310Y-5661440D01*
X17526362Y-5854378D01*
X17168794Y-6211323D01*
X16975041Y-6677933D01*
X16974600Y-7183170D01*
X17167538Y-7650118D01*
X17524483Y-8007686D01*
X17991093Y-8201439D01*
X18496330Y-8201880D01*
X18963278Y-8008942D01*
X19320846Y-7651997D01*
X19514599Y-7185387D01*
X19515040Y-6680150D01*
X19515040Y-11178490D01*
X19322102Y-10711542D01*
X18965157Y-10353974D01*
X18498547Y-10160221D01*
X17993310Y-10159780D01*
X17526362Y-10352718D01*
X17168794Y-10709663D01*
X16975041Y-11176273D01*
X16974600Y-11681510D01*
X17167538Y-12148458D01*
X17524483Y-12506026D01*
X17991093Y-12699779D01*
X18496330Y-12700220D01*
X18963278Y-12507282D01*
X19320846Y-12150337D01*
X19514599Y-11683727D01*
X19515040Y-11178490D01*
X19515040Y-15676830D01*
X19322102Y-15209882D01*
X18965157Y-14852314D01*
X18498547Y-14658561D01*
X17993310Y-14658120D01*
X17526362Y-14851058D01*
X17168794Y-15208003D01*
X16975041Y-15674613D01*
X16974600Y-16179850D01*
X17167538Y-16646798D01*
X17524483Y-17004366D01*
X17991093Y-17198119D01*
X18496330Y-17198560D01*
X18963278Y-17005622D01*
X19320846Y-16648677D01*
X19514599Y-16182067D01*
X19515040Y-15676830D01*
X19515040Y-24130000D01*
X17764980Y-24130000D01*
X17764980Y-19176950D01*
X17572042Y-18710002D01*
X17215097Y-18352434D01*
X16748487Y-18158681D01*
X16243250Y-18158240D01*
X15776302Y-18351178D01*
X15418734Y-18708123D01*
X15224981Y-19174733D01*
X15224540Y-19679970D01*
X15417478Y-20146918D01*
X15774423Y-20504486D01*
X16241033Y-20698239D01*
X16746270Y-20698680D01*
X17213218Y-20505742D01*
X17570786Y-20148797D01*
X17764539Y-19682187D01*
X17764980Y-19176950D01*
X17764980Y-24130000D01*
X14032316Y-24130000D01*
X14032316Y-20667255D01*
X14006523Y-20061520D01*
X13824339Y-19621687D01*
X13767020Y-19602593D01*
X13767020Y-2179270D01*
X13574082Y-1712322D01*
X13217137Y-1354754D01*
X12750527Y-1161001D01*
X12245290Y-1160560D01*
X11778342Y-1353498D01*
X11420774Y-1710443D01*
X11227021Y-2177053D01*
X11226580Y-2682290D01*
X11419518Y-3149238D01*
X11776463Y-3506806D01*
X12243073Y-3700559D01*
X12748310Y-3701000D01*
X13215258Y-3508062D01*
X13572826Y-3151117D01*
X13766579Y-2684507D01*
X13767020Y-2179270D01*
X13767020Y-19602593D01*
X13568996Y-19536629D01*
X13389391Y-19716234D01*
X13389391Y-19357024D01*
X13304333Y-19101681D01*
X12734835Y-18893704D01*
X12129100Y-18919497D01*
X11689267Y-19101681D01*
X11604209Y-19357024D01*
X12496800Y-20249615D01*
X13389391Y-19357024D01*
X13389391Y-19716234D01*
X12676405Y-20429220D01*
X13568996Y-21321811D01*
X13824339Y-21236753D01*
X14032316Y-20667255D01*
X14032316Y-24130000D01*
X13389391Y-24130000D01*
X13389391Y-21501416D01*
X12496800Y-20608825D01*
X12317195Y-20788430D01*
X12317195Y-20429220D01*
X11424604Y-19536629D01*
X11169261Y-19621687D01*
X10961284Y-20191185D01*
X10987077Y-20796920D01*
X11169261Y-21236753D01*
X11424604Y-21321811D01*
X12317195Y-20429220D01*
X12317195Y-20788430D01*
X11604209Y-21501416D01*
X11689267Y-21756759D01*
X12258765Y-21964736D01*
X12864500Y-21938943D01*
X13304333Y-21756759D01*
X13389391Y-21501416D01*
X13389391Y-24130000D01*
X9769060Y-24130000D01*
X9769060Y-19176950D01*
X9769060Y-3180030D01*
X9576122Y-2713082D01*
X9219177Y-2355514D01*
X8752567Y-2161761D01*
X8247330Y-2161320D01*
X7780382Y-2354258D01*
X7422814Y-2711203D01*
X7229061Y-3177813D01*
X7228620Y-3683050D01*
X7421558Y-4149998D01*
X7778503Y-4507566D01*
X8245113Y-4701319D01*
X8750350Y-4701760D01*
X9217298Y-4508822D01*
X9574866Y-4151877D01*
X9768619Y-3685267D01*
X9769060Y-3180030D01*
X9769060Y-19176950D01*
X9576122Y-18710002D01*
X9219177Y-18352434D01*
X8752567Y-18158681D01*
X8247330Y-18158240D01*
X8019000Y-18252583D01*
X8019000Y-15676830D01*
X8019000Y-11178490D01*
X8019000Y-6680150D01*
X7826062Y-6213202D01*
X7469117Y-5855634D01*
X7002507Y-5661881D01*
X6497270Y-5661440D01*
X6030322Y-5854378D01*
X5672754Y-6211323D01*
X5479001Y-6677933D01*
X5478560Y-7183170D01*
X5671498Y-7650118D01*
X6028443Y-8007686D01*
X6495053Y-8201439D01*
X7000290Y-8201880D01*
X7467238Y-8008942D01*
X7824806Y-7651997D01*
X8018559Y-7185387D01*
X8019000Y-6680150D01*
X8019000Y-11178490D01*
X7826062Y-10711542D01*
X7469117Y-10353974D01*
X7002507Y-10160221D01*
X6497270Y-10159780D01*
X6030322Y-10352718D01*
X5672754Y-10709663D01*
X5479001Y-11176273D01*
X5478560Y-11681510D01*
X5671498Y-12148458D01*
X6028443Y-12506026D01*
X6495053Y-12699779D01*
X7000290Y-12700220D01*
X7467238Y-12507282D01*
X7824806Y-12150337D01*
X8018559Y-11683727D01*
X8019000Y-11178490D01*
X8019000Y-15676830D01*
X7826062Y-15209882D01*
X7469117Y-14852314D01*
X7002507Y-14658561D01*
X6497270Y-14658120D01*
X6030322Y-14851058D01*
X5672754Y-15208003D01*
X5479001Y-15674613D01*
X5478560Y-16179850D01*
X5671498Y-16646798D01*
X6028443Y-17004366D01*
X6495053Y-17198119D01*
X7000290Y-17198560D01*
X7467238Y-17005622D01*
X7824806Y-16648677D01*
X8018559Y-16182067D01*
X8019000Y-15676830D01*
X8019000Y-18252583D01*
X7780382Y-18351178D01*
X7422814Y-18708123D01*
X7229061Y-19174733D01*
X7228620Y-19679970D01*
X7421558Y-20146918D01*
X7778503Y-20504486D01*
X8245113Y-20698239D01*
X8750350Y-20698680D01*
X9217298Y-20505742D01*
X9574866Y-20148797D01*
X9768619Y-19682187D01*
X9769060Y-19176950D01*
X9769060Y-24130000D01*
X8597023Y-24130000D01*
X8532719Y-24065583D01*
X8229423Y-23939643D01*
X7901018Y-23939357D01*
X7597502Y-24064767D01*
X7365083Y-24296781D01*
X7239143Y-24600077D01*
X7238857Y-24928482D01*
X7364267Y-25231998D01*
X7596281Y-25464417D01*
X7899577Y-25590357D01*
X8227982Y-25590643D01*
X8531498Y-25465233D01*
X8596844Y-25400000D01*
X11208799Y-25400000D01*
X11180918Y-25467146D01*
X11180682Y-25738065D01*
X11208917Y-25806400D01*
X9776926Y-25806400D01*
X9708059Y-25737413D01*
X9457854Y-25633518D01*
X9186935Y-25633282D01*
X8936548Y-25736739D01*
X8744813Y-25928141D01*
X8640918Y-26178346D01*
X8640682Y-26449265D01*
X8668917Y-26517600D01*
X6946900Y-26517600D01*
X6752496Y-26556269D01*
X6587690Y-26666390D01*
X5990790Y-27263290D01*
X5880669Y-27428097D01*
X5842000Y-27622500D01*
X5842000Y-31050038D01*
X5512612Y-30859933D01*
X5413329Y-30842284D01*
X5207000Y-30965626D01*
X5207000Y-32258000D01*
X5227000Y-32258000D01*
X5227000Y-32512000D01*
X5207000Y-32512000D01*
X5207000Y-33804374D01*
X5413329Y-33927716D01*
X5512612Y-33910067D01*
X5967628Y-33647455D01*
X5985099Y-33624693D01*
X5990790Y-33633210D01*
X6875466Y-34517886D01*
X6875382Y-34615365D01*
X6978839Y-34865752D01*
X7170241Y-35057487D01*
X7420446Y-35161382D01*
X7691365Y-35161618D01*
X7941752Y-35058161D01*
X8133487Y-34866759D01*
X8237382Y-34616554D01*
X8237618Y-34345635D01*
X8134161Y-34095248D01*
X7942759Y-33903513D01*
X7692554Y-33799618D01*
X7593952Y-33799532D01*
X7515761Y-33721341D01*
X7620000Y-33742076D01*
X8033681Y-33659790D01*
X8382000Y-33427049D01*
X8382000Y-33580873D01*
X8313013Y-33649741D01*
X8209118Y-33899946D01*
X8208882Y-34170865D01*
X8312339Y-34421252D01*
X8503741Y-34612987D01*
X8753946Y-34716882D01*
X9024865Y-34717118D01*
X9275252Y-34613661D01*
X9466987Y-34422259D01*
X9570882Y-34172054D01*
X9571118Y-33901135D01*
X9467661Y-33650748D01*
X9398000Y-33580965D01*
X9398000Y-33427049D01*
X9746319Y-33659790D01*
X10160000Y-33742076D01*
X10573681Y-33659790D01*
X10924382Y-33425458D01*
X11158714Y-33074757D01*
X11241000Y-32661076D01*
X11241000Y-32108924D01*
X11158714Y-31695243D01*
X10924382Y-31344542D01*
X10573681Y-31110210D01*
X10160000Y-31027924D01*
X9746319Y-31110210D01*
X9395618Y-31344542D01*
X9383971Y-31361972D01*
X9359331Y-31238097D01*
X9359331Y-31238096D01*
X9249210Y-31073290D01*
X8550710Y-30374790D01*
X8385903Y-30264669D01*
X8191500Y-30226000D01*
X7639922Y-30226000D01*
X7366002Y-29952080D01*
X7366002Y-29869346D01*
X7532781Y-30036417D01*
X7836077Y-30162357D01*
X8150629Y-30162630D01*
X8187596Y-30187331D01*
X8187597Y-30187331D01*
X8219849Y-30193746D01*
X8382000Y-30226000D01*
X22161500Y-30226000D01*
X22268579Y-30226000D01*
X23122771Y-31080192D01*
X22860000Y-31027924D01*
X22446319Y-31110210D01*
X22095618Y-31344542D01*
X21861286Y-31695243D01*
X21779000Y-32108924D01*
X21779000Y-32661076D01*
X21861286Y-33074757D01*
X22095618Y-33425458D01*
X22446319Y-33659790D01*
X22860000Y-33742076D01*
X23273681Y-33659790D01*
X23622000Y-33427049D01*
X23622000Y-35090865D01*
X23621083Y-35091781D01*
X23495143Y-35395077D01*
X23494857Y-35723482D01*
X23620267Y-36026998D01*
X23852281Y-36259417D01*
X24155577Y-36385357D01*
X24483982Y-36385643D01*
X24787498Y-36260233D01*
X25019917Y-36028219D01*
X25145857Y-35724923D01*
X25146143Y-35396518D01*
X25020733Y-35093002D01*
X24788719Y-34860583D01*
X24638000Y-34797998D01*
X24638000Y-33427049D01*
X24892000Y-33596767D01*
X24892000Y-33655000D01*
X24930669Y-33849403D01*
X25040790Y-34014210D01*
X25929792Y-34903212D01*
X26094599Y-35013333D01*
X26289002Y-35052002D01*
X34801733Y-35052002D01*
X35668948Y-35919217D01*
X35833755Y-36029337D01*
X36028158Y-36068006D01*
X46906585Y-36068006D01*
X47625000Y-36786420D01*
X47625000Y-38075697D01*
X47433583Y-38266781D01*
X47307643Y-38570077D01*
X47307357Y-38898482D01*
X47432767Y-39201998D01*
X47664781Y-39434417D01*
X47968077Y-39560357D01*
X48296482Y-39560643D01*
X48599998Y-39435233D01*
X48832417Y-39203219D01*
X48958357Y-38899923D01*
X48958643Y-38571518D01*
X48833233Y-38268002D01*
X48641000Y-38075433D01*
X48641000Y-36576000D01*
X48602331Y-36381597D01*
X48602330Y-36381596D01*
X48565790Y-36326910D01*
X48492210Y-36216790D01*
X48492210Y-36216789D01*
X47835424Y-35560004D01*
X48684579Y-35560004D01*
X49212592Y-36088017D01*
X49212357Y-36358482D01*
X49337767Y-36661998D01*
X49569781Y-36894417D01*
X49873077Y-37020357D01*
X50201482Y-37020643D01*
X50504998Y-36895233D01*
X50737417Y-36663219D01*
X50863357Y-36359923D01*
X50863643Y-36031518D01*
X50738233Y-35728002D01*
X50506219Y-35495583D01*
X50202923Y-35369643D01*
X49930822Y-35369406D01*
X49613418Y-35052002D01*
X50462582Y-35052002D01*
X50927000Y-35516420D01*
X50927000Y-36805697D01*
X50735583Y-36996781D01*
X50609643Y-37300077D01*
X50609357Y-37628482D01*
X50734767Y-37931998D01*
X50966781Y-38164417D01*
X51270077Y-38290357D01*
X51598482Y-38290643D01*
X51901998Y-38165233D01*
X52134417Y-37933219D01*
X52260357Y-37629923D01*
X52260643Y-37301518D01*
X52135233Y-36998002D01*
X51943000Y-36805433D01*
X51943000Y-35306000D01*
X51904331Y-35111597D01*
X51794210Y-34946790D01*
X51391420Y-34544000D01*
X51859580Y-34544000D01*
X52324000Y-35008420D01*
X52324000Y-39243000D01*
X52362669Y-39437403D01*
X52472790Y-39602210D01*
X53234790Y-40364210D01*
X53399597Y-40474331D01*
X53549668Y-40504181D01*
X53804166Y-40885065D01*
X54207943Y-41154860D01*
X54684231Y-41249600D01*
X55043769Y-41249600D01*
X55520057Y-41154860D01*
X55923834Y-40885065D01*
X56193629Y-40481288D01*
X56288369Y-40005000D01*
X56193629Y-39528712D01*
X55923834Y-39124935D01*
X55520057Y-38855140D01*
X55043769Y-38760400D01*
X54684231Y-38760400D01*
X54207943Y-38855140D01*
X53804166Y-39124935D01*
X53655239Y-39347819D01*
X53340000Y-39032580D01*
X53340000Y-35467339D01*
X53513268Y-35827036D01*
X53949680Y-36216954D01*
X54222242Y-36312295D01*
X54207943Y-36315140D01*
X53804166Y-36584935D01*
X53534371Y-36988712D01*
X53439631Y-37465000D01*
X53534371Y-37941288D01*
X53804166Y-38345065D01*
X54207943Y-38614860D01*
X54684231Y-38709600D01*
X55043769Y-38709600D01*
X55520057Y-38614860D01*
X55923834Y-38345065D01*
X56193629Y-37941288D01*
X56288369Y-37465000D01*
X56193629Y-36988712D01*
X55923834Y-36584935D01*
X55520057Y-36315140D01*
X55505757Y-36312295D01*
X55778320Y-36216954D01*
X56214732Y-35827036D01*
X56468709Y-35299791D01*
X56471358Y-35284026D01*
X56471358Y-34565974D01*
X56468709Y-34550209D01*
X56214732Y-34022964D01*
X55778320Y-33633046D01*
X55225913Y-33439816D01*
X54991000Y-33584076D01*
X54991000Y-34798000D01*
X56350217Y-34798000D01*
X56471358Y-34565974D01*
X56471358Y-35284026D01*
X56350217Y-35052000D01*
X54991000Y-35052000D01*
X54991000Y-35072000D01*
X54737000Y-35072000D01*
X54737000Y-35052000D01*
X54717000Y-35052000D01*
X54717000Y-34798000D01*
X54737000Y-34798000D01*
X54737000Y-33584076D01*
X54502087Y-33439816D01*
X53949680Y-33633046D01*
X53513268Y-34022964D01*
X53261958Y-34544671D01*
X53191210Y-34438790D01*
X52429210Y-33676790D01*
X52264403Y-33566669D01*
X52070000Y-33528000D01*
X51410917Y-33528000D01*
X51564382Y-33425458D01*
X51798714Y-33074757D01*
X51881000Y-32661076D01*
X51881000Y-32108924D01*
X51798714Y-31695243D01*
X51564382Y-31344542D01*
X51213681Y-31110210D01*
X50800000Y-31027924D01*
X50386319Y-31110210D01*
X50035618Y-31344542D01*
X49801286Y-31695243D01*
X49719000Y-32108924D01*
X49719000Y-32661076D01*
X49801286Y-33074757D01*
X50035618Y-33425458D01*
X50189082Y-33528000D01*
X48870917Y-33528000D01*
X49024382Y-33425458D01*
X49258714Y-33074757D01*
X49341000Y-32661076D01*
X49341000Y-32108924D01*
X49258714Y-31695243D01*
X49024382Y-31344542D01*
X48673681Y-31110210D01*
X48260000Y-31027924D01*
X47846319Y-31110210D01*
X47495618Y-31344542D01*
X47261286Y-31695243D01*
X47179000Y-32108924D01*
X47179000Y-32661076D01*
X47261286Y-33074757D01*
X47495618Y-33425458D01*
X47649082Y-33528000D01*
X46330917Y-33528000D01*
X46484382Y-33425458D01*
X46718714Y-33074757D01*
X46801000Y-32661076D01*
X46801000Y-32108924D01*
X46718714Y-31695243D01*
X46484382Y-31344542D01*
X46133681Y-31110210D01*
X45720000Y-31027924D01*
X45306319Y-31110210D01*
X44955618Y-31344542D01*
X44721286Y-31695243D01*
X44639000Y-32108924D01*
X44639000Y-32661076D01*
X44721286Y-33074757D01*
X44955618Y-33425458D01*
X45109082Y-33528000D01*
X43790917Y-33528000D01*
X43944382Y-33425458D01*
X44178714Y-33074757D01*
X44261000Y-32661076D01*
X44261000Y-32108924D01*
X44178714Y-31695243D01*
X43944382Y-31344542D01*
X43593681Y-31110210D01*
X43180000Y-31027924D01*
X42766319Y-31110210D01*
X42415618Y-31344542D01*
X42181286Y-31695243D01*
X42099000Y-32108924D01*
X42099000Y-32661076D01*
X42181286Y-33074757D01*
X42415618Y-33425458D01*
X42569082Y-33528000D01*
X41250917Y-33528000D01*
X41404382Y-33425458D01*
X41638714Y-33074757D01*
X41721000Y-32661076D01*
X41721000Y-32108924D01*
X41638714Y-31695243D01*
X41404382Y-31344542D01*
X41053681Y-31110210D01*
X40640000Y-31027924D01*
X40226319Y-31110210D01*
X39875618Y-31344542D01*
X39641286Y-31695243D01*
X39559000Y-32108924D01*
X39559000Y-32661076D01*
X39641286Y-33074757D01*
X39875618Y-33425458D01*
X40029082Y-33528000D01*
X38710917Y-33528000D01*
X38864382Y-33425458D01*
X39098714Y-33074757D01*
X39181000Y-32661076D01*
X39181000Y-32108924D01*
X39098714Y-31695243D01*
X38864382Y-31344542D01*
X38513681Y-31110210D01*
X38100000Y-31027924D01*
X37686319Y-31110210D01*
X37335618Y-31344542D01*
X37101286Y-31695243D01*
X37019000Y-32108924D01*
X37019000Y-32661076D01*
X37101286Y-33074757D01*
X37335618Y-33425458D01*
X37592000Y-33596767D01*
X37592000Y-33655000D01*
X37630669Y-33849403D01*
X37740790Y-34014210D01*
X37762581Y-34036002D01*
X36659422Y-34036002D01*
X36159229Y-33535809D01*
X36324382Y-33425458D01*
X36558714Y-33074757D01*
X36641000Y-32661076D01*
X36641000Y-32108924D01*
X36558714Y-31695243D01*
X36324382Y-31344542D01*
X35973681Y-31110210D01*
X35560000Y-31027924D01*
X35146319Y-31110210D01*
X34795618Y-31344542D01*
X34561286Y-31695243D01*
X34479000Y-32108924D01*
X34479000Y-32661076D01*
X34561286Y-33074757D01*
X34795618Y-33425458D01*
X34949082Y-33528000D01*
X33630917Y-33528000D01*
X33784382Y-33425458D01*
X34018714Y-33074757D01*
X34101000Y-32661076D01*
X34101000Y-32108924D01*
X34018714Y-31695243D01*
X33784382Y-31344542D01*
X33433681Y-31110210D01*
X33020000Y-31027924D01*
X32606319Y-31110210D01*
X32255618Y-31344542D01*
X32021286Y-31695243D01*
X31939000Y-32108924D01*
X31939000Y-32661076D01*
X32021286Y-33074757D01*
X32255618Y-33425458D01*
X32409082Y-33528000D01*
X31090917Y-33528000D01*
X31244382Y-33425458D01*
X31478714Y-33074757D01*
X31561000Y-32661076D01*
X31561000Y-32108924D01*
X31478714Y-31695243D01*
X31244382Y-31344542D01*
X30893681Y-31110210D01*
X30480000Y-31027924D01*
X30066319Y-31110210D01*
X29715618Y-31344542D01*
X29481286Y-31695243D01*
X29399000Y-32108924D01*
X29399000Y-32661076D01*
X29481286Y-33074757D01*
X29715618Y-33425458D01*
X29869082Y-33528000D01*
X28550917Y-33528000D01*
X28704382Y-33425458D01*
X28938714Y-33074757D01*
X29021000Y-32661076D01*
X29021000Y-32108924D01*
X28938714Y-31695243D01*
X28704382Y-31344542D01*
X28353681Y-31110210D01*
X27940000Y-31027924D01*
X27526319Y-31110210D01*
X27175618Y-31344542D01*
X26941286Y-31695243D01*
X26859000Y-32108924D01*
X26859000Y-32661076D01*
X26941286Y-33074757D01*
X27175618Y-33425458D01*
X27432000Y-33596767D01*
X27432000Y-33655000D01*
X27470669Y-33849403D01*
X27580790Y-34014210D01*
X27602581Y-34036002D01*
X26499422Y-34036002D01*
X25999229Y-33535809D01*
X26164382Y-33425458D01*
X26398714Y-33074757D01*
X26481000Y-32661076D01*
X26481000Y-32108924D01*
X26398714Y-31695243D01*
X26164382Y-31344542D01*
X25813681Y-31110210D01*
X25400000Y-31027924D01*
X24986319Y-31110210D01*
X24635618Y-31344542D01*
X24633704Y-31347405D01*
X24599331Y-31174597D01*
X24489211Y-31009790D01*
X22838210Y-29358790D01*
X22673403Y-29248669D01*
X22479000Y-29210000D01*
X22161500Y-29210000D01*
X8826611Y-29210000D01*
X8826643Y-29173518D01*
X8701233Y-28870002D01*
X8469219Y-28637583D01*
X8165923Y-28511643D01*
X7837518Y-28511357D01*
X7534002Y-28636767D01*
X7366002Y-28804474D01*
X7366002Y-28467920D01*
X7589122Y-28244800D01*
X12676673Y-28244800D01*
X12745541Y-28313787D01*
X12995746Y-28417682D01*
X13266665Y-28417918D01*
X13517052Y-28314461D01*
X13586834Y-28244800D01*
X37677893Y-28244800D01*
X37746761Y-28313787D01*
X37996966Y-28417682D01*
X38267885Y-28417918D01*
X38518272Y-28314461D01*
X38588054Y-28244800D01*
X62663873Y-28244800D01*
X62732741Y-28313787D01*
X62982946Y-28417682D01*
X63253865Y-28417918D01*
X63504252Y-28314461D01*
X63574034Y-28244800D01*
X87682873Y-28244800D01*
X87751741Y-28313787D01*
X88001946Y-28417682D01*
X88272865Y-28417918D01*
X88523252Y-28314461D01*
X88593034Y-28244800D01*
X112676473Y-28244800D01*
X112745341Y-28313787D01*
X112995546Y-28417682D01*
X113266465Y-28417918D01*
X113516852Y-28314461D01*
X113586634Y-28244800D01*
X137670073Y-28244800D01*
X137738941Y-28313787D01*
X137989146Y-28417682D01*
X138260065Y-28417918D01*
X138510452Y-28314461D01*
X138702187Y-28123059D01*
X138806082Y-27872854D01*
X138806318Y-27601935D01*
X138702861Y-27351548D01*
X138511459Y-27159813D01*
X138261254Y-27055918D01*
X137990335Y-27055682D01*
X137739948Y-27159139D01*
X137670165Y-27228800D01*
X136238200Y-27228800D01*
X136266082Y-27161654D01*
X136266318Y-26890735D01*
X136162861Y-26640348D01*
X135971459Y-26448613D01*
X135721254Y-26344718D01*
X135450335Y-26344482D01*
X135199948Y-26447939D01*
X135130165Y-26517600D01*
X134968200Y-26517600D01*
X134996082Y-26450454D01*
X134996318Y-26179535D01*
X134968082Y-26111200D01*
X136400073Y-26111200D01*
X136468941Y-26180187D01*
X136719146Y-26284082D01*
X136990065Y-26284318D01*
X137240452Y-26180861D01*
X137432187Y-25989459D01*
X137536082Y-25739254D01*
X137536318Y-25468335D01*
X137508082Y-25400000D01*
X143881974Y-25400000D01*
X146676776Y-28194802D01*
X146676776Y-38633305D01*
X146581954Y-38672484D01*
X146581954Y-36510279D01*
X146350428Y-35949942D01*
X145922094Y-35520860D01*
X145362162Y-35288356D01*
X144755878Y-35287827D01*
X144195541Y-35519353D01*
X143766459Y-35947687D01*
X143533955Y-36507619D01*
X143533426Y-37113903D01*
X143764952Y-37674240D01*
X144193286Y-38103322D01*
X144753218Y-38335826D01*
X145359502Y-38336355D01*
X145919839Y-38104829D01*
X146348921Y-37676495D01*
X146581425Y-37116563D01*
X146581954Y-36510279D01*
X146581954Y-38672484D01*
X146449627Y-38727161D01*
X146020545Y-39155495D01*
X145788041Y-39715427D01*
X145787512Y-40321711D01*
X146019038Y-40882048D01*
X146447372Y-41311130D01*
X147007304Y-41543634D01*
X147613588Y-41544163D01*
X148173925Y-41312637D01*
X148603007Y-40884303D01*
X148835511Y-40324371D01*
X148836040Y-39718087D01*
X148836040Y-49569000D01*
X145407040Y-49569000D01*
X145407040Y-45657289D01*
X145175514Y-45096952D01*
X144747180Y-44667870D01*
X144329438Y-44494408D01*
X144329438Y-41148777D01*
X144143565Y-40907328D01*
X144118071Y-40914159D01*
X144118071Y-40359946D01*
X143670374Y-39812327D01*
X143047191Y-39477719D01*
X142454967Y-39399752D01*
X142213518Y-39585625D01*
X142607493Y-41055957D01*
X144077825Y-40661983D01*
X144118071Y-40359946D01*
X144118071Y-40914159D01*
X142673233Y-41301303D01*
X143067207Y-42771635D01*
X143369244Y-42811881D01*
X143916863Y-42364184D01*
X144251471Y-41741001D01*
X144329438Y-41148777D01*
X144329438Y-44494408D01*
X144187248Y-44435366D01*
X143580964Y-44434837D01*
X143020627Y-44666363D01*
X142821862Y-44864781D01*
X142821862Y-42837375D01*
X142503549Y-41649416D01*
X142503549Y-41017751D01*
X142272343Y-40786545D01*
X141968173Y-39651365D01*
X141666136Y-39611119D01*
X141412648Y-39818353D01*
X141412648Y-33525779D01*
X141181122Y-32965442D01*
X140752788Y-32536360D01*
X140192856Y-32303856D01*
X139586572Y-32303327D01*
X139026235Y-32534853D01*
X138597153Y-32963187D01*
X138364649Y-33523119D01*
X138364120Y-34129403D01*
X138595646Y-34689740D01*
X139023980Y-35118822D01*
X139583912Y-35351326D01*
X140190196Y-35351855D01*
X140750533Y-35120329D01*
X141179615Y-34691995D01*
X141412119Y-34132063D01*
X141412648Y-33525779D01*
X141412648Y-39818353D01*
X141352953Y-39867155D01*
X141327387Y-39841589D01*
X141303003Y-39865972D01*
X141359837Y-39434277D01*
X141173964Y-39192828D01*
X141148470Y-39199659D01*
X141148470Y-38645446D01*
X140700773Y-38097827D01*
X140077590Y-37763219D01*
X139634571Y-37704895D01*
X139634571Y-35923497D01*
X139470573Y-35526592D01*
X139167170Y-35222659D01*
X138770552Y-35057968D01*
X138341100Y-35057594D01*
X137944195Y-35221592D01*
X137640262Y-35524995D01*
X137475571Y-35921613D01*
X137475197Y-36351065D01*
X137639195Y-36747970D01*
X137942598Y-37051903D01*
X138339216Y-37216594D01*
X138768668Y-37216968D01*
X139165573Y-37052970D01*
X139469506Y-36749567D01*
X139634197Y-36352949D01*
X139634571Y-35923497D01*
X139634571Y-37704895D01*
X139485366Y-37685252D01*
X139243917Y-37871125D01*
X139637892Y-39341457D01*
X141108224Y-38947483D01*
X141148470Y-38645446D01*
X141148470Y-39199659D01*
X139793436Y-39562739D01*
X139741838Y-39511141D01*
X139562230Y-39690749D01*
X139793435Y-39921954D01*
X140097606Y-41057135D01*
X140399643Y-41097381D01*
X140712824Y-40841343D01*
X140738392Y-40866911D01*
X140762774Y-40842528D01*
X140705942Y-41274223D01*
X140891815Y-41515672D01*
X142272342Y-41145760D01*
X142323941Y-41197359D01*
X142362147Y-41159153D01*
X142503549Y-41017751D01*
X142503549Y-41649416D01*
X142427887Y-41367043D01*
X142362147Y-41384657D01*
X140957555Y-41761017D01*
X140917309Y-42063054D01*
X141365006Y-42610673D01*
X141988189Y-42945281D01*
X142580413Y-43023248D01*
X142821862Y-42837375D01*
X142821862Y-44864781D01*
X142591545Y-45094697D01*
X142359041Y-45654629D01*
X142358512Y-46260913D01*
X142590038Y-46821250D01*
X143018372Y-47250332D01*
X143578304Y-47482836D01*
X144184588Y-47483365D01*
X144744925Y-47251839D01*
X145174007Y-46823505D01*
X145406511Y-46263573D01*
X145407040Y-45657289D01*
X145407040Y-49569000D01*
X141501954Y-49569000D01*
X141501954Y-45309097D01*
X141270428Y-44748760D01*
X140842094Y-44319678D01*
X140282162Y-44087174D01*
X139852261Y-44086798D01*
X139852261Y-41122875D01*
X139458286Y-39652543D01*
X139392546Y-39670157D01*
X139392546Y-39407197D01*
X138998572Y-37936865D01*
X138696535Y-37896619D01*
X138148916Y-38344316D01*
X137814308Y-38967499D01*
X137736341Y-39559723D01*
X137922214Y-39801172D01*
X139392546Y-39407197D01*
X139392546Y-39670157D01*
X137987954Y-40046517D01*
X137947708Y-40348554D01*
X138395405Y-40896173D01*
X139018588Y-41230781D01*
X139610812Y-41308748D01*
X139852261Y-41122875D01*
X139852261Y-44086798D01*
X139675878Y-44086645D01*
X139115541Y-44318171D01*
X138686459Y-44746505D01*
X138453955Y-45306437D01*
X138453426Y-45912721D01*
X138684952Y-46473058D01*
X139113286Y-46902140D01*
X139673218Y-47134644D01*
X140279502Y-47135173D01*
X140839839Y-46903647D01*
X141268921Y-46475313D01*
X141501425Y-45915381D01*
X141501954Y-45309097D01*
X141501954Y-49569000D01*
X137221571Y-49569000D01*
X137221571Y-40102935D01*
X137057573Y-39706030D01*
X136754170Y-39402097D01*
X136357552Y-39237406D01*
X135928100Y-39237032D01*
X135531195Y-39401030D01*
X135227262Y-39704433D01*
X135062571Y-40101051D01*
X135062197Y-40530503D01*
X135226195Y-40927408D01*
X135529598Y-41231341D01*
X135926216Y-41396032D01*
X136355668Y-41396406D01*
X136752573Y-41232408D01*
X137056506Y-40929005D01*
X137221197Y-40532387D01*
X137221571Y-40102935D01*
X137221571Y-49569000D01*
X136332648Y-49569000D01*
X136332648Y-42324597D01*
X136101122Y-41764260D01*
X135672788Y-41335178D01*
X135112856Y-41102674D01*
X134506572Y-41102145D01*
X133946235Y-41333671D01*
X133517153Y-41762005D01*
X133284649Y-42321937D01*
X133284120Y-42928221D01*
X133515646Y-43488558D01*
X133943980Y-43917640D01*
X134503912Y-44150144D01*
X135110196Y-44150673D01*
X135670533Y-43919147D01*
X136099615Y-43490813D01*
X136332119Y-42930881D01*
X136332648Y-42324597D01*
X136332648Y-49569000D01*
X134167795Y-49569000D01*
X134167795Y-44562022D01*
X134128565Y-44415616D01*
X134036294Y-44295366D01*
X133905029Y-44219581D01*
X129962021Y-41943084D01*
X130292542Y-41943373D01*
X131315156Y-41520837D01*
X132098231Y-40739128D01*
X132522550Y-39717253D01*
X132523516Y-38610783D01*
X132100980Y-37588169D01*
X131319271Y-36805094D01*
X130297396Y-36380775D01*
X129190926Y-36379809D01*
X128168312Y-36802345D01*
X127385237Y-37584054D01*
X126960918Y-38605929D01*
X126959952Y-39712399D01*
X127070301Y-39979465D01*
X126211565Y-39485709D01*
X125025086Y-39329506D01*
X124585487Y-39551812D01*
X125287739Y-42172652D01*
X125236141Y-42224251D01*
X125415749Y-42403859D01*
X125646954Y-42172653D01*
X128022448Y-41536142D01*
X128013049Y-41366676D01*
X128164197Y-41518088D01*
X129186072Y-41942407D01*
X129323999Y-41942527D01*
X129254872Y-42062262D01*
X128310494Y-43697972D01*
X128310494Y-42221086D01*
X128088188Y-41781487D01*
X125377543Y-42507803D01*
X126103858Y-45218448D01*
X126595715Y-45191171D01*
X127552394Y-44454378D01*
X128154291Y-43407565D01*
X128310494Y-42221086D01*
X128310494Y-43697972D01*
X126854572Y-46219703D01*
X126834787Y-46369978D01*
X126874017Y-46516384D01*
X126966288Y-46636634D01*
X127097553Y-46712419D01*
X131254994Y-49112719D01*
X131405269Y-49132504D01*
X131551675Y-49093274D01*
X131671925Y-49001003D01*
X131747710Y-48869738D01*
X134148010Y-44712297D01*
X134167795Y-44562022D01*
X134167795Y-49569000D01*
X125858513Y-49569000D01*
X125858513Y-45284188D01*
X125132197Y-42573543D01*
X125066457Y-42591157D01*
X125066457Y-42328197D01*
X124340142Y-39617552D01*
X123848285Y-39644829D01*
X122891606Y-40381622D01*
X122289709Y-41428435D01*
X122133506Y-42614914D01*
X122355812Y-43054513D01*
X125066457Y-42328197D01*
X125066457Y-42591157D01*
X122421552Y-43299858D01*
X122448829Y-43791715D01*
X123185622Y-44748394D01*
X124232435Y-45350291D01*
X125418914Y-45506494D01*
X125858513Y-45284188D01*
X125858513Y-49569000D01*
X120137622Y-49569000D01*
X120137622Y-43614922D01*
X120137622Y-37518922D01*
X120108083Y-37008572D01*
X119969611Y-36674271D01*
X119739016Y-36618590D01*
X119559410Y-36798195D01*
X119559410Y-36438984D01*
X119503729Y-36208389D01*
X119236729Y-36115476D01*
X119236729Y-32873608D01*
X119027005Y-32366037D01*
X118639006Y-31977360D01*
X118131801Y-31766751D01*
X117582608Y-31766271D01*
X117075037Y-31975995D01*
X116686360Y-32363994D01*
X116475751Y-32871199D01*
X116475271Y-33420392D01*
X116684995Y-33927963D01*
X117072994Y-34316640D01*
X117580199Y-34527249D01*
X118129392Y-34527729D01*
X118636963Y-34318005D01*
X119025640Y-33930006D01*
X119236249Y-33422801D01*
X119236729Y-32873608D01*
X119236729Y-36115476D01*
X119020922Y-36040378D01*
X118510572Y-36069917D01*
X118176271Y-36208389D01*
X118120590Y-36438984D01*
X118840000Y-37158395D01*
X119559410Y-36438984D01*
X119559410Y-36798195D01*
X119019605Y-37338000D01*
X119739016Y-38057410D01*
X119969611Y-38001729D01*
X120137622Y-37518922D01*
X120137622Y-43614922D01*
X120108083Y-43104572D01*
X119969611Y-42770271D01*
X119739016Y-42714590D01*
X119559410Y-42894195D01*
X119559410Y-42534984D01*
X119559410Y-38237016D01*
X118840000Y-37517605D01*
X118660395Y-37697210D01*
X118660395Y-37338000D01*
X117940984Y-36618590D01*
X117871000Y-36635488D01*
X117871000Y-36612214D01*
X117812996Y-36472180D01*
X117705819Y-36365004D01*
X117565785Y-36307000D01*
X117414214Y-36307000D01*
X116114214Y-36307000D01*
X115974180Y-36365004D01*
X115867004Y-36472181D01*
X115809000Y-36612215D01*
X115809000Y-36763786D01*
X115809000Y-38063786D01*
X115867004Y-38203820D01*
X115974181Y-38310996D01*
X116114215Y-38369000D01*
X116265786Y-38369000D01*
X117565786Y-38369000D01*
X117705820Y-38310996D01*
X117812996Y-38203819D01*
X117871000Y-38063785D01*
X117871000Y-38040511D01*
X117940984Y-38057410D01*
X118660395Y-37338000D01*
X118660395Y-37697210D01*
X118120590Y-38237016D01*
X118176271Y-38467611D01*
X118659078Y-38635622D01*
X119169428Y-38606083D01*
X119503729Y-38467611D01*
X119559410Y-38237016D01*
X119559410Y-42534984D01*
X119503729Y-42304389D01*
X119020922Y-42136378D01*
X118510572Y-42165917D01*
X118176271Y-42304389D01*
X118120590Y-42534984D01*
X118840000Y-43254395D01*
X119559410Y-42534984D01*
X119559410Y-42894195D01*
X119019605Y-43434000D01*
X119739016Y-44153410D01*
X119969611Y-44097729D01*
X120137622Y-43614922D01*
X120137622Y-49569000D01*
X119559410Y-49569000D01*
X119559410Y-44333016D01*
X118840000Y-43613605D01*
X118660395Y-43793210D01*
X118660395Y-43434000D01*
X117940984Y-42714590D01*
X117871000Y-42731488D01*
X117871000Y-42708214D01*
X117812996Y-42568180D01*
X117705819Y-42461004D01*
X117565785Y-42403000D01*
X117414214Y-42403000D01*
X116114214Y-42403000D01*
X115974180Y-42461004D01*
X115867004Y-42568181D01*
X115809000Y-42708215D01*
X115809000Y-42859786D01*
X115809000Y-44159786D01*
X115867004Y-44299820D01*
X115974181Y-44406996D01*
X116114215Y-44465000D01*
X116265786Y-44465000D01*
X117565786Y-44465000D01*
X117705820Y-44406996D01*
X117812996Y-44299819D01*
X117871000Y-44159785D01*
X117871000Y-44136511D01*
X117940984Y-44153410D01*
X118660395Y-43434000D01*
X118660395Y-43793210D01*
X118120590Y-44333016D01*
X118176271Y-44563611D01*
X118659078Y-44731622D01*
X119169428Y-44702083D01*
X119503729Y-44563611D01*
X119559410Y-44333016D01*
X119559410Y-49569000D01*
X109076729Y-49569000D01*
X109076729Y-32873608D01*
X108867005Y-32366037D01*
X108479006Y-31977360D01*
X107971801Y-31766751D01*
X107422608Y-31766271D01*
X106915037Y-31975995D01*
X106526360Y-32363994D01*
X106315751Y-32871199D01*
X106315271Y-33420392D01*
X106524995Y-33927963D01*
X106912994Y-34316640D01*
X107420199Y-34527249D01*
X107969392Y-34527729D01*
X108476963Y-34318005D01*
X108865640Y-33930006D01*
X109076249Y-33422801D01*
X109076729Y-32873608D01*
X109076729Y-49569000D01*
X103441731Y-49569000D01*
X103441731Y-46979914D01*
X103441500Y-46979354D01*
X103441500Y-43192285D01*
X103441500Y-43040714D01*
X103441500Y-41135714D01*
X103383496Y-40995680D01*
X103276319Y-40888504D01*
X103136285Y-40830500D01*
X102984714Y-40830500D01*
X101079714Y-40830500D01*
X100939680Y-40888504D01*
X100832504Y-40995681D01*
X100774500Y-41135715D01*
X100774500Y-41287286D01*
X100774500Y-43192286D01*
X100832504Y-43332320D01*
X100939681Y-43439496D01*
X101079715Y-43497500D01*
X101231286Y-43497500D01*
X103136286Y-43497500D01*
X103276320Y-43439496D01*
X103383496Y-43332319D01*
X103441500Y-43192285D01*
X103441500Y-46979354D01*
X103239146Y-46489620D01*
X102864353Y-46114173D01*
X102374413Y-45910732D01*
X101843914Y-45910269D01*
X101353620Y-46112854D01*
X100978173Y-46487647D01*
X100774732Y-46977587D01*
X100774269Y-47508086D01*
X100976854Y-47998380D01*
X101351647Y-48373827D01*
X101841587Y-48577268D01*
X102372086Y-48577731D01*
X102862380Y-48375146D01*
X103237827Y-48000353D01*
X103441268Y-47510413D01*
X103441731Y-46979914D01*
X103441731Y-49569000D01*
X97297000Y-49569000D01*
X97297000Y-43397785D01*
X97297000Y-43246214D01*
X97297000Y-41946214D01*
X97297000Y-35777785D01*
X97297000Y-35626214D01*
X97297000Y-34326214D01*
X97238996Y-34186180D01*
X97131819Y-34079004D01*
X96991785Y-34021000D01*
X96840214Y-34021000D01*
X95540214Y-34021000D01*
X95400180Y-34079004D01*
X95293004Y-34186181D01*
X95235000Y-34326215D01*
X95235000Y-34349488D01*
X95165016Y-34332590D01*
X94985410Y-34512195D01*
X94985410Y-34152984D01*
X94929729Y-33922389D01*
X94446922Y-33754378D01*
X93936572Y-33783917D01*
X93602271Y-33922389D01*
X93546590Y-34152984D01*
X94266000Y-34872395D01*
X94985410Y-34152984D01*
X94985410Y-34512195D01*
X94445605Y-35052000D01*
X95165016Y-35771410D01*
X95235000Y-35754511D01*
X95235000Y-35777786D01*
X95293004Y-35917820D01*
X95400181Y-36024996D01*
X95540215Y-36083000D01*
X95691786Y-36083000D01*
X96991786Y-36083000D01*
X97131820Y-36024996D01*
X97238996Y-35917819D01*
X97297000Y-35777785D01*
X97297000Y-41946214D01*
X97238996Y-41806180D01*
X97131819Y-41699004D01*
X96991785Y-41641000D01*
X96840214Y-41641000D01*
X95540214Y-41641000D01*
X95400180Y-41699004D01*
X95293004Y-41806181D01*
X95235000Y-41946215D01*
X95235000Y-41969488D01*
X95165016Y-41952590D01*
X94985410Y-42132195D01*
X94985410Y-41772984D01*
X94985410Y-35951016D01*
X94266000Y-35231605D01*
X94086395Y-35411210D01*
X94086395Y-35052000D01*
X93366984Y-34332590D01*
X93136389Y-34388271D01*
X92968378Y-34871078D01*
X92997917Y-35381428D01*
X93136389Y-35715729D01*
X93366984Y-35771410D01*
X94086395Y-35052000D01*
X94086395Y-35411210D01*
X93546590Y-35951016D01*
X93602271Y-36181611D01*
X94085078Y-36349622D01*
X94595428Y-36320083D01*
X94929729Y-36181611D01*
X94985410Y-35951016D01*
X94985410Y-41772984D01*
X94929729Y-41542389D01*
X94446922Y-41374378D01*
X93936572Y-41403917D01*
X93602271Y-41542389D01*
X93546590Y-41772984D01*
X94266000Y-42492395D01*
X94985410Y-41772984D01*
X94985410Y-42132195D01*
X94445605Y-42672000D01*
X95165016Y-43391410D01*
X95235000Y-43374511D01*
X95235000Y-43397786D01*
X95293004Y-43537820D01*
X95400181Y-43644996D01*
X95540215Y-43703000D01*
X95691786Y-43703000D01*
X96991786Y-43703000D01*
X97131820Y-43644996D01*
X97238996Y-43537819D01*
X97297000Y-43397785D01*
X97297000Y-49569000D01*
X94985410Y-49569000D01*
X94985410Y-43571016D01*
X94266000Y-42851605D01*
X94086395Y-43031210D01*
X94086395Y-42672000D01*
X93366984Y-41952590D01*
X93136389Y-42008271D01*
X92968378Y-42491078D01*
X92997917Y-43001428D01*
X93136389Y-43335729D01*
X93366984Y-43391410D01*
X94086395Y-42672000D01*
X94086395Y-43031210D01*
X93546590Y-43571016D01*
X93602271Y-43801611D01*
X94085078Y-43969622D01*
X94595428Y-43940083D01*
X94929729Y-43801611D01*
X94985410Y-43571016D01*
X94985410Y-49569000D01*
X92577908Y-49569000D01*
X92577908Y-38628699D01*
X92553856Y-37978700D01*
X92351387Y-37489896D01*
X92084532Y-37391233D01*
X91904927Y-37570838D01*
X91904927Y-37211628D01*
X91806264Y-36944773D01*
X91196539Y-36718252D01*
X90546540Y-36742304D01*
X90057736Y-36944773D01*
X89959073Y-37211628D01*
X90932000Y-38184555D01*
X91904927Y-37211628D01*
X91904927Y-37570838D01*
X91111605Y-38364160D01*
X92084532Y-39337087D01*
X92351387Y-39238424D01*
X92577908Y-38628699D01*
X92577908Y-49569000D01*
X92313239Y-49569000D01*
X92313239Y-45690347D01*
X92103437Y-45182589D01*
X91904927Y-44983731D01*
X91904927Y-39516692D01*
X90932000Y-38543765D01*
X90752395Y-38723370D01*
X90752395Y-38364160D01*
X89779468Y-37391233D01*
X89512613Y-37489896D01*
X89286092Y-38099621D01*
X89310144Y-38749620D01*
X89512613Y-39238424D01*
X89779468Y-39337087D01*
X90752395Y-38364160D01*
X90752395Y-38723370D01*
X89959073Y-39516692D01*
X90057736Y-39783547D01*
X90667461Y-40010068D01*
X91317460Y-39986016D01*
X91806264Y-39783547D01*
X91904927Y-39516692D01*
X91904927Y-44983731D01*
X91715295Y-44793768D01*
X91376643Y-44653147D01*
X91376643Y-42381518D01*
X91251233Y-42078002D01*
X91019219Y-41845583D01*
X90715923Y-41719643D01*
X90387518Y-41719357D01*
X90084002Y-41844767D01*
X90018655Y-41910000D01*
X60281358Y-41910000D01*
X60281358Y-37824026D01*
X60281358Y-37105974D01*
X60278709Y-37090209D01*
X60024732Y-36562964D01*
X59588320Y-36173046D01*
X59315757Y-36077704D01*
X59330057Y-36074860D01*
X59733834Y-35805065D01*
X60003629Y-35401288D01*
X60098369Y-34925000D01*
X60003629Y-34448712D01*
X59733834Y-34044935D01*
X59330057Y-33775140D01*
X58853769Y-33680400D01*
X58494231Y-33680400D01*
X58017943Y-33775140D01*
X57614166Y-34044935D01*
X57344371Y-34448712D01*
X57249631Y-34925000D01*
X57344371Y-35401288D01*
X57614166Y-35805065D01*
X58017943Y-36074860D01*
X58032242Y-36077704D01*
X57759680Y-36173046D01*
X57323268Y-36562964D01*
X57069291Y-37090209D01*
X57066642Y-37105974D01*
X57187783Y-37338000D01*
X58547000Y-37338000D01*
X58547000Y-37318000D01*
X58801000Y-37318000D01*
X58801000Y-37338000D01*
X60160217Y-37338000D01*
X60281358Y-37105974D01*
X60281358Y-37824026D01*
X60160217Y-37592000D01*
X58801000Y-37592000D01*
X58801000Y-37612000D01*
X58547000Y-37612000D01*
X58547000Y-37592000D01*
X57187783Y-37592000D01*
X57066642Y-37824026D01*
X57069291Y-37839791D01*
X57323268Y-38367036D01*
X57759680Y-38756954D01*
X58032242Y-38852295D01*
X58017943Y-38855140D01*
X57614166Y-39124935D01*
X57344371Y-39528712D01*
X57249631Y-40005000D01*
X57344371Y-40481288D01*
X57614166Y-40885065D01*
X58017943Y-41154860D01*
X58494231Y-41249600D01*
X58853769Y-41249600D01*
X59330057Y-41154860D01*
X59733834Y-40885065D01*
X60003629Y-40481288D01*
X60098369Y-40005000D01*
X60003629Y-39528712D01*
X59733834Y-39124935D01*
X59330057Y-38855140D01*
X59315757Y-38852295D01*
X59588320Y-38756954D01*
X60024732Y-38367036D01*
X60278709Y-37839791D01*
X60281358Y-37824026D01*
X60281358Y-41910000D01*
X59897581Y-41910000D01*
X59733834Y-41664935D01*
X59330057Y-41395140D01*
X58853769Y-41300400D01*
X58494231Y-41300400D01*
X58017943Y-41395140D01*
X57614166Y-41664935D01*
X57344371Y-42068712D01*
X57249631Y-42545000D01*
X57344371Y-43021288D01*
X57614166Y-43425065D01*
X58017943Y-43694860D01*
X58494231Y-43789600D01*
X58853769Y-43789600D01*
X59330057Y-43694860D01*
X59733834Y-43425065D01*
X59897581Y-43180000D01*
X90018476Y-43180000D01*
X90082781Y-43244417D01*
X90386077Y-43370357D01*
X90714482Y-43370643D01*
X91017998Y-43245233D01*
X91250417Y-43013219D01*
X91376357Y-42709923D01*
X91376643Y-42381518D01*
X91376643Y-44653147D01*
X91207903Y-44583081D01*
X90658507Y-44582601D01*
X90150749Y-44792403D01*
X89761928Y-45180545D01*
X89551241Y-45687937D01*
X89550761Y-46237333D01*
X89760563Y-46745091D01*
X90148705Y-47133912D01*
X90656097Y-47344599D01*
X91205493Y-47345079D01*
X91713251Y-47135277D01*
X92102072Y-46747135D01*
X92312759Y-46239743D01*
X92313239Y-45690347D01*
X92313239Y-49569000D01*
X73990706Y-49569000D01*
X74338315Y-49221390D01*
X76932376Y-49221390D01*
X77072410Y-49163386D01*
X77179586Y-49056209D01*
X77237590Y-48916175D01*
X77237590Y-48764604D01*
X77237590Y-46166184D01*
X77179586Y-46026150D01*
X77072409Y-45918974D01*
X76932375Y-45860970D01*
X76780804Y-45860970D01*
X73181624Y-45860970D01*
X73041590Y-45918974D01*
X72934414Y-46026151D01*
X72876410Y-46166185D01*
X72876410Y-46317756D01*
X72876410Y-48641000D01*
X51580724Y-48641000D01*
X51798714Y-48314757D01*
X51881000Y-47901076D01*
X51881000Y-47348924D01*
X51798714Y-46935243D01*
X51564382Y-46584542D01*
X51213681Y-46350210D01*
X50800000Y-46267924D01*
X50386319Y-46350210D01*
X50035618Y-46584542D01*
X49801286Y-46935243D01*
X49719000Y-47348924D01*
X49719000Y-47901076D01*
X49801286Y-48314757D01*
X50019275Y-48641000D01*
X49040724Y-48641000D01*
X49258714Y-48314757D01*
X49341000Y-47901076D01*
X49341000Y-47348924D01*
X49258714Y-46935243D01*
X49024382Y-46584542D01*
X48673681Y-46350210D01*
X48260000Y-46267924D01*
X47846319Y-46350210D01*
X47495618Y-46584542D01*
X47261286Y-46935243D01*
X47179000Y-47348924D01*
X47179000Y-47901076D01*
X47261286Y-48314757D01*
X47479275Y-48641000D01*
X46500724Y-48641000D01*
X46718714Y-48314757D01*
X46801000Y-47901076D01*
X46801000Y-47348924D01*
X46718714Y-46935243D01*
X46484382Y-46584542D01*
X46133681Y-46350210D01*
X45720000Y-46267924D01*
X45306319Y-46350210D01*
X44955618Y-46584542D01*
X44721286Y-46935243D01*
X44639000Y-47348924D01*
X44639000Y-47901076D01*
X44721286Y-48314757D01*
X44939275Y-48641000D01*
X43960724Y-48641000D01*
X44178714Y-48314757D01*
X44261000Y-47901076D01*
X44261000Y-47348924D01*
X44178714Y-46935243D01*
X43944382Y-46584542D01*
X43593681Y-46350210D01*
X43180000Y-46267924D01*
X42766319Y-46350210D01*
X42415618Y-46584542D01*
X42181286Y-46935243D01*
X42099000Y-47348924D01*
X42099000Y-47901076D01*
X42181286Y-48314757D01*
X42399275Y-48641000D01*
X41420724Y-48641000D01*
X41638714Y-48314757D01*
X41721000Y-47901076D01*
X41721000Y-47348924D01*
X41638714Y-46935243D01*
X41404382Y-46584542D01*
X41148000Y-46413232D01*
X41148000Y-46184420D01*
X41485420Y-45847000D01*
X52748579Y-45847000D01*
X55139789Y-48238210D01*
X55139790Y-48238210D01*
X55249910Y-48311790D01*
X55304596Y-48348330D01*
X55304597Y-48348331D01*
X55499000Y-48387000D01*
X68707000Y-48387000D01*
X68901403Y-48348331D01*
X69066210Y-48238210D01*
X72219420Y-45085000D01*
X77386580Y-45085000D01*
X81428790Y-49127210D01*
X81593597Y-49237331D01*
X81788000Y-49276000D01*
X88900000Y-49276000D01*
X89094403Y-49237331D01*
X89259210Y-49127210D01*
X89395837Y-48990583D01*
X89624077Y-49085357D01*
X89952482Y-49085643D01*
X90255998Y-48960233D01*
X90488417Y-48728219D01*
X90614357Y-48424923D01*
X90614643Y-48096518D01*
X90489233Y-47793002D01*
X90257219Y-47560583D01*
X89953923Y-47434643D01*
X89625518Y-47434357D01*
X89322002Y-47559767D01*
X89089583Y-47791781D01*
X89041143Y-47908435D01*
X88689579Y-48260000D01*
X81998420Y-48260000D01*
X77956210Y-44217790D01*
X77791403Y-44107669D01*
X77597000Y-44069000D01*
X72009000Y-44069000D01*
X71814596Y-44107669D01*
X71649790Y-44217790D01*
X68496580Y-47371000D01*
X60071000Y-47371000D01*
X60071000Y-46024385D01*
X60071000Y-45872814D01*
X60071000Y-44145614D01*
X60012996Y-44005580D01*
X59905819Y-43898404D01*
X59765785Y-43840400D01*
X59614214Y-43840400D01*
X57582214Y-43840400D01*
X57442180Y-43898404D01*
X57335004Y-44005581D01*
X57277000Y-44145615D01*
X57277000Y-44297186D01*
X57277000Y-46024386D01*
X57335004Y-46164420D01*
X57442181Y-46271596D01*
X57582215Y-46329600D01*
X57733786Y-46329600D01*
X59765786Y-46329600D01*
X59905820Y-46271596D01*
X60012996Y-46164419D01*
X60071000Y-46024385D01*
X60071000Y-47371000D01*
X56261000Y-47371000D01*
X56261000Y-43484385D01*
X56261000Y-43332814D01*
X56261000Y-41605614D01*
X56202996Y-41465580D01*
X56095819Y-41358404D01*
X55955785Y-41300400D01*
X55804214Y-41300400D01*
X53772214Y-41300400D01*
X53632180Y-41358404D01*
X53525004Y-41465581D01*
X53467000Y-41605615D01*
X53467000Y-41757186D01*
X53467000Y-43484386D01*
X53525004Y-43624420D01*
X53632181Y-43731596D01*
X53772215Y-43789600D01*
X53923786Y-43789600D01*
X55955786Y-43789600D01*
X56095820Y-43731596D01*
X56202996Y-43624419D01*
X56261000Y-43484385D01*
X56261000Y-47371000D01*
X55709420Y-47371000D01*
X53318210Y-44979790D01*
X53153403Y-44869669D01*
X52959000Y-44831000D01*
X41275000Y-44831000D01*
X41080597Y-44869669D01*
X40915790Y-44979789D01*
X40280790Y-45614790D01*
X40170669Y-45779597D01*
X40132000Y-45974000D01*
X40132000Y-46413232D01*
X39875618Y-46584542D01*
X39641286Y-46935243D01*
X39559000Y-47348924D01*
X39559000Y-47901076D01*
X39641286Y-48314757D01*
X39859275Y-48641000D01*
X38880724Y-48641000D01*
X39098714Y-48314757D01*
X39181000Y-47901076D01*
X39181000Y-47348924D01*
X39098714Y-46935243D01*
X38864382Y-46584542D01*
X38513681Y-46350210D01*
X38100000Y-46267924D01*
X37686319Y-46350210D01*
X37335618Y-46584542D01*
X37101286Y-46935243D01*
X37019000Y-47348924D01*
X37019000Y-47901076D01*
X37101286Y-48314757D01*
X37319275Y-48641000D01*
X36340724Y-48641000D01*
X36558714Y-48314757D01*
X36641000Y-47901076D01*
X36641000Y-47348924D01*
X36558714Y-46935243D01*
X36324382Y-46584542D01*
X35973681Y-46350210D01*
X35560000Y-46267924D01*
X35146319Y-46350210D01*
X34795618Y-46584542D01*
X34561286Y-46935243D01*
X34479000Y-47348924D01*
X34479000Y-47901076D01*
X34561286Y-48314757D01*
X34779275Y-48641000D01*
X33800724Y-48641000D01*
X34018714Y-48314757D01*
X34101000Y-47901076D01*
X34101000Y-47348924D01*
X34018714Y-46935243D01*
X33784382Y-46584542D01*
X33433681Y-46350210D01*
X33020000Y-46267924D01*
X32606319Y-46350210D01*
X32255618Y-46584542D01*
X32021286Y-46935243D01*
X31939000Y-47348924D01*
X31939000Y-47901076D01*
X32021286Y-48314757D01*
X32239275Y-48641000D01*
X31260724Y-48641000D01*
X31478714Y-48314757D01*
X31561000Y-47901076D01*
X31561000Y-47348924D01*
X31478714Y-46935243D01*
X31244382Y-46584542D01*
X30893681Y-46350210D01*
X30480000Y-46267924D01*
X30066319Y-46350210D01*
X29715618Y-46584542D01*
X29481286Y-46935243D01*
X29399000Y-47348924D01*
X29399000Y-47901076D01*
X29481286Y-48314757D01*
X29699275Y-48641000D01*
X28720724Y-48641000D01*
X28938714Y-48314757D01*
X29021000Y-47901076D01*
X29021000Y-47348924D01*
X28938714Y-46935243D01*
X28704382Y-46584542D01*
X28353681Y-46350210D01*
X27940000Y-46267924D01*
X27526319Y-46350210D01*
X27175618Y-46584542D01*
X26941286Y-46935243D01*
X26859000Y-47348924D01*
X26859000Y-47901076D01*
X26941286Y-48314757D01*
X27159275Y-48641000D01*
X26180724Y-48641000D01*
X26398714Y-48314757D01*
X26481000Y-47901076D01*
X26481000Y-47348924D01*
X26398714Y-46935243D01*
X26164382Y-46584542D01*
X25813681Y-46350210D01*
X25400000Y-46267924D01*
X24986319Y-46350210D01*
X24635618Y-46584542D01*
X24401286Y-46935243D01*
X24319000Y-47348924D01*
X24319000Y-47901076D01*
X24401286Y-48314757D01*
X24619275Y-48641000D01*
X23640724Y-48641000D01*
X23858714Y-48314757D01*
X23941000Y-47901076D01*
X23941000Y-47348924D01*
X23858714Y-46935243D01*
X23624382Y-46584542D01*
X23273681Y-46350210D01*
X22860000Y-46267924D01*
X22446319Y-46350210D01*
X22095618Y-46584542D01*
X21861286Y-46935243D01*
X21779000Y-47348924D01*
X21779000Y-47901076D01*
X21861286Y-48314757D01*
X22079275Y-48641000D01*
X21100724Y-48641000D01*
X21318714Y-48314757D01*
X21401000Y-47901076D01*
X21401000Y-47348924D01*
X21318714Y-46935243D01*
X21084382Y-46584542D01*
X20733681Y-46350210D01*
X20320000Y-46267924D01*
X19906319Y-46350210D01*
X19555618Y-46584542D01*
X19321286Y-46935243D01*
X19239000Y-47348924D01*
X19239000Y-47901076D01*
X19321286Y-48314757D01*
X19539275Y-48641000D01*
X18560724Y-48641000D01*
X18778714Y-48314757D01*
X18861000Y-47901076D01*
X18861000Y-47348924D01*
X18778714Y-46935243D01*
X18544382Y-46584542D01*
X18531491Y-46575928D01*
X19260420Y-45847000D01*
X24155400Y-45847000D01*
X36678697Y-45847000D01*
X36869781Y-46038417D01*
X37173077Y-46164357D01*
X37501482Y-46164643D01*
X37804998Y-46039233D01*
X38037417Y-45807219D01*
X38163357Y-45503923D01*
X38163643Y-45175518D01*
X38038233Y-44872002D01*
X37806219Y-44639583D01*
X37655643Y-44577058D01*
X37655643Y-41695718D01*
X37530233Y-41392202D01*
X37298219Y-41159783D01*
X36994923Y-41033843D01*
X36666518Y-41033557D01*
X36363002Y-41158967D01*
X36170433Y-41351200D01*
X26059302Y-41351200D01*
X25868219Y-41159783D01*
X25564923Y-41033843D01*
X25236518Y-41033557D01*
X24933002Y-41158967D01*
X24700583Y-41390981D01*
X24574643Y-41694277D01*
X24574357Y-42022682D01*
X24699767Y-42326198D01*
X24931781Y-42558617D01*
X25235077Y-42684557D01*
X25563482Y-42684843D01*
X25866998Y-42559433D01*
X26059566Y-42367200D01*
X36170697Y-42367200D01*
X36361781Y-42558617D01*
X36665077Y-42684557D01*
X36993482Y-42684843D01*
X37296998Y-42559433D01*
X37529417Y-42327419D01*
X37655357Y-42024123D01*
X37655643Y-41695718D01*
X37655643Y-44577058D01*
X37502923Y-44513643D01*
X37174518Y-44513357D01*
X36871002Y-44638767D01*
X36678433Y-44831000D01*
X24155400Y-44831000D01*
X22923643Y-44831000D01*
X22923643Y-43118118D01*
X22798233Y-42814602D01*
X22566219Y-42582183D01*
X22262923Y-42456243D01*
X21934518Y-42455957D01*
X21631002Y-42581367D01*
X21438433Y-42773600D01*
X21401000Y-42773600D01*
X21401000Y-32661076D01*
X21401000Y-32108924D01*
X21318714Y-31695243D01*
X21084382Y-31344542D01*
X20733681Y-31110210D01*
X20320000Y-31027924D01*
X19906319Y-31110210D01*
X19555618Y-31344542D01*
X19321286Y-31695243D01*
X19239000Y-32108924D01*
X19239000Y-32661076D01*
X19321286Y-33074757D01*
X19555618Y-33425458D01*
X19906319Y-33659790D01*
X20320000Y-33742076D01*
X20733681Y-33659790D01*
X21084382Y-33425458D01*
X21318714Y-33074757D01*
X21401000Y-32661076D01*
X21401000Y-42773600D01*
X20523200Y-42773600D01*
X20328796Y-42812269D01*
X20163990Y-42922390D01*
X20109580Y-42976800D01*
X19607702Y-42976800D01*
X19416619Y-42785383D01*
X19113323Y-42659443D01*
X18861000Y-42659223D01*
X18861000Y-32661076D01*
X18861000Y-32108924D01*
X18778714Y-31695243D01*
X18544382Y-31344542D01*
X18193681Y-31110210D01*
X17780000Y-31027924D01*
X17366319Y-31110210D01*
X17015618Y-31344542D01*
X16781286Y-31695243D01*
X16699000Y-32108924D01*
X16699000Y-32661076D01*
X16781286Y-33074757D01*
X17015618Y-33425458D01*
X17366319Y-33659790D01*
X17780000Y-33742076D01*
X18193681Y-33659790D01*
X18544382Y-33425458D01*
X18778714Y-33074757D01*
X18861000Y-32661076D01*
X18861000Y-42659223D01*
X18784918Y-42659157D01*
X18481402Y-42784567D01*
X18248983Y-43016581D01*
X18123043Y-43319877D01*
X18122757Y-43648282D01*
X18248167Y-43951798D01*
X18480181Y-44184217D01*
X18783477Y-44310157D01*
X19111882Y-44310443D01*
X19415398Y-44185033D01*
X19607966Y-43992800D01*
X20320000Y-43992800D01*
X20514403Y-43954131D01*
X20679210Y-43844010D01*
X20733620Y-43789600D01*
X21438697Y-43789600D01*
X21629781Y-43981017D01*
X21933077Y-44106957D01*
X22261482Y-44107243D01*
X22564998Y-43981833D01*
X22797417Y-43749819D01*
X22923357Y-43446523D01*
X22923643Y-43118118D01*
X22923643Y-44831000D01*
X19050000Y-44831000D01*
X18887849Y-44863253D01*
X18855596Y-44869669D01*
X18690790Y-44979790D01*
X17420790Y-46249790D01*
X17343505Y-46365453D01*
X17335643Y-46370706D01*
X17335643Y-41187718D01*
X17210233Y-40884202D01*
X16978219Y-40651783D01*
X16674923Y-40525843D01*
X16346518Y-40525557D01*
X16321000Y-40536100D01*
X16321000Y-32661076D01*
X16321000Y-32108924D01*
X16238714Y-31695243D01*
X16004382Y-31344542D01*
X15653681Y-31110210D01*
X15240000Y-31027924D01*
X14826319Y-31110210D01*
X14475618Y-31344542D01*
X14241286Y-31695243D01*
X14159000Y-32108924D01*
X14159000Y-32661076D01*
X14241286Y-33074757D01*
X14475618Y-33425458D01*
X14826319Y-33659790D01*
X15240000Y-33742076D01*
X15653681Y-33659790D01*
X16004382Y-33425458D01*
X16238714Y-33074757D01*
X16321000Y-32661076D01*
X16321000Y-40536100D01*
X16043002Y-40650967D01*
X15850433Y-40843200D01*
X13781000Y-40843200D01*
X13781000Y-32661076D01*
X13781000Y-32108924D01*
X13698714Y-31695243D01*
X13464382Y-31344542D01*
X13113681Y-31110210D01*
X12700000Y-31027924D01*
X12286319Y-31110210D01*
X11935618Y-31344542D01*
X11701286Y-31695243D01*
X11619000Y-32108924D01*
X11619000Y-32661076D01*
X11701286Y-33074757D01*
X11935618Y-33425458D01*
X12286319Y-33659790D01*
X12700000Y-33742076D01*
X13113681Y-33659790D01*
X13464382Y-33425458D01*
X13698714Y-33074757D01*
X13781000Y-32661076D01*
X13781000Y-40843200D01*
X6908800Y-40843200D01*
X6714396Y-40881869D01*
X6549590Y-40991990D01*
X4953000Y-42588580D01*
X4953000Y-33804374D01*
X4953000Y-32512000D01*
X4953000Y-32258000D01*
X4953000Y-30965626D01*
X4746671Y-30842284D01*
X4647388Y-30859933D01*
X4192372Y-31122545D01*
X3872489Y-31539294D01*
X3736439Y-32046734D01*
X3897923Y-32258000D01*
X4953000Y-32258000D01*
X4953000Y-32512000D01*
X3897923Y-32512000D01*
X3736439Y-32723266D01*
X3872489Y-33230706D01*
X4192372Y-33647455D01*
X4647388Y-33910067D01*
X4746671Y-33927716D01*
X4953000Y-33804374D01*
X4953000Y-42588580D01*
X3621000Y-43920580D01*
X3621000Y-33410785D01*
X3621000Y-33259214D01*
X3621000Y-31359214D01*
X3562996Y-31219180D01*
X3455819Y-31112004D01*
X3315785Y-31054000D01*
X3164214Y-31054000D01*
X1764214Y-31054000D01*
X1624180Y-31112004D01*
X1517004Y-31219181D01*
X1459000Y-31359215D01*
X1459000Y-31510786D01*
X1459000Y-33410786D01*
X1517004Y-33550820D01*
X1624181Y-33657996D01*
X1764215Y-33716000D01*
X1915786Y-33716000D01*
X3315786Y-33716000D01*
X3455820Y-33657996D01*
X3562996Y-33550819D01*
X3621000Y-33410785D01*
X3621000Y-43920580D01*
X2180790Y-45360790D01*
X2070669Y-45525597D01*
X2032000Y-45720000D01*
X2032000Y-46413232D01*
X1775618Y-46584542D01*
X1541286Y-46935243D01*
X1459000Y-47348924D01*
X1459000Y-47901076D01*
X1541286Y-48314757D01*
X1775618Y-48665458D01*
X2126319Y-48899790D01*
X2540000Y-48982076D01*
X2953681Y-48899790D01*
X3304382Y-48665458D01*
X3538714Y-48314757D01*
X3621000Y-47901076D01*
X3621000Y-47348924D01*
X3538714Y-46935243D01*
X3304382Y-46584542D01*
X3048000Y-46413232D01*
X3048000Y-45930420D01*
X7119220Y-41859200D01*
X15850697Y-41859200D01*
X16041781Y-42050617D01*
X16345077Y-42176557D01*
X16673482Y-42176843D01*
X16976998Y-42051433D01*
X17209417Y-41819419D01*
X17335357Y-41516123D01*
X17335643Y-41187718D01*
X17335643Y-46370706D01*
X17015618Y-46584542D01*
X16781286Y-46935243D01*
X16699000Y-47348924D01*
X16699000Y-47901076D01*
X16781286Y-48314757D01*
X16999275Y-48641000D01*
X16020724Y-48641000D01*
X16238714Y-48314757D01*
X16321000Y-47901076D01*
X16321000Y-47348924D01*
X16238714Y-46935243D01*
X16147359Y-46798521D01*
X16147359Y-45110400D01*
X16080268Y-44773110D01*
X15889209Y-44487170D01*
X15603269Y-44296111D01*
X15265979Y-44229020D01*
X14721261Y-44229020D01*
X14383971Y-44296111D01*
X14098031Y-44487170D01*
X13944600Y-44716795D01*
X13791169Y-44487170D01*
X13505229Y-44296111D01*
X13167939Y-44229020D01*
X12623221Y-44229020D01*
X12285931Y-44296111D01*
X11999991Y-44487170D01*
X11808932Y-44773110D01*
X11741841Y-45110400D01*
X11808932Y-45447690D01*
X11999991Y-45733630D01*
X12285931Y-45924689D01*
X12623221Y-45991780D01*
X13167939Y-45991780D01*
X13505229Y-45924689D01*
X13791169Y-45733630D01*
X13944600Y-45504004D01*
X14098031Y-45733630D01*
X14383971Y-45924689D01*
X14721261Y-45991780D01*
X15265979Y-45991780D01*
X15603269Y-45924689D01*
X15889209Y-45733630D01*
X16080268Y-45447690D01*
X16147359Y-45110400D01*
X16147359Y-46798521D01*
X16004382Y-46584542D01*
X15653681Y-46350210D01*
X15240000Y-46267924D01*
X14826319Y-46350210D01*
X14475618Y-46584542D01*
X14241286Y-46935243D01*
X14159000Y-47348924D01*
X14159000Y-47901076D01*
X14241286Y-48314757D01*
X14459275Y-48641000D01*
X13480724Y-48641000D01*
X13698714Y-48314757D01*
X13781000Y-47901076D01*
X13781000Y-47348924D01*
X13698714Y-46935243D01*
X13464382Y-46584542D01*
X13113681Y-46350210D01*
X12700000Y-46267924D01*
X12286319Y-46350210D01*
X11935618Y-46584542D01*
X11701286Y-46935243D01*
X11619000Y-47348924D01*
X11619000Y-47901076D01*
X11701286Y-48314757D01*
X11919275Y-48641000D01*
X10940724Y-48641000D01*
X11158714Y-48314757D01*
X11241000Y-47901076D01*
X11241000Y-47348924D01*
X11158714Y-46935243D01*
X10924382Y-46584542D01*
X10573681Y-46350210D01*
X10160000Y-46267924D01*
X9746319Y-46350210D01*
X9395618Y-46584542D01*
X9161286Y-46935243D01*
X9079000Y-47348924D01*
X9079000Y-47901076D01*
X9161286Y-48314757D01*
X9379275Y-48641000D01*
X8400724Y-48641000D01*
X8618714Y-48314757D01*
X8701000Y-47901076D01*
X8701000Y-47348924D01*
X8618714Y-46935243D01*
X8384382Y-46584542D01*
X8033681Y-46350210D01*
X7620000Y-46267924D01*
X7206319Y-46350210D01*
X6855618Y-46584542D01*
X6621286Y-46935243D01*
X6539000Y-47348924D01*
X6539000Y-47901076D01*
X6621286Y-48314757D01*
X6855618Y-48665458D01*
X6985000Y-48751908D01*
X6985000Y-48895000D01*
X7033336Y-49138004D01*
X7170987Y-49344013D01*
X7395974Y-49569000D01*
X6423561Y-49569000D01*
X6423561Y-47963266D01*
X6423561Y-47286734D01*
X6287511Y-46779294D01*
X5967628Y-46362545D01*
X5512612Y-46099933D01*
X5413329Y-46082284D01*
X5207000Y-46205626D01*
X5207000Y-47498000D01*
X6262077Y-47498000D01*
X6423561Y-47286734D01*
X6423561Y-47963266D01*
X6262077Y-47752000D01*
X5207000Y-47752000D01*
X5207000Y-49044374D01*
X5413329Y-49167716D01*
X5512612Y-49150067D01*
X5967628Y-48887455D01*
X6287511Y-48470706D01*
X6423561Y-47963266D01*
X6423561Y-49569000D01*
X4953000Y-49569000D01*
X4953000Y-49044374D01*
X4953000Y-47752000D01*
X4953000Y-47498000D01*
X4953000Y-46205626D01*
X4746671Y-46082284D01*
X4647388Y-46099933D01*
X4192372Y-46362545D01*
X3872489Y-46779294D01*
X3736439Y-47286734D01*
X3897923Y-47498000D01*
X4953000Y-47498000D01*
X4953000Y-47752000D01*
X3897923Y-47752000D01*
X3736439Y-47963266D01*
X3872489Y-48470706D01*
X4192372Y-48887455D01*
X4647388Y-49150067D01*
X4746671Y-49167716D01*
X4953000Y-49044374D01*
X4953000Y-49569000D01*
X1058451Y-49569000D01*
X795361Y-49516668D01*
X608313Y-49391686D01*
X483332Y-49204639D01*
X431000Y-48941547D01*
X431000Y-1058452D01*
X483332Y-795360D01*
X608313Y-608313D01*
X795361Y-483331D01*
X1058451Y-431000D01*
X148941547Y-431000D01*
X149204639Y-483332D01*
X149391686Y-608313D01*
X149516668Y-795361D01*
X149569000Y-1058451D01*
X149569000Y-48941548D01*
X149569000Y-48941548D01*
G37*
X149569000Y-48941548D02*
X149516668Y-49204638D01*
X149391686Y-49391686D01*
X149204639Y-49516667D01*
X148941547Y-49569000D01*
X148836040Y-49569000D01*
X148836040Y-39718087D01*
X148604514Y-39157750D01*
X148176180Y-38728668D01*
X147946776Y-38633411D01*
X147946776Y-27931781D01*
X147946776Y-27931776D01*
X147946777Y-27931776D01*
X147898440Y-27688772D01*
X147760789Y-27482763D01*
X144594013Y-24315987D01*
X144508440Y-24258808D01*
X144508440Y-15676830D01*
X144508440Y-11178490D01*
X144508440Y-6680150D01*
X144315502Y-6213202D01*
X143958557Y-5855634D01*
X143491947Y-5661881D01*
X142986710Y-5661440D01*
X142758380Y-5755783D01*
X142758380Y-3180030D01*
X142565442Y-2713082D01*
X142208497Y-2355514D01*
X141741887Y-2161761D01*
X141236650Y-2161320D01*
X140769702Y-2354258D01*
X140412134Y-2711203D01*
X140218381Y-3177813D01*
X140217940Y-3683050D01*
X140410878Y-4149998D01*
X140767823Y-4507566D01*
X141234433Y-4701319D01*
X141739670Y-4701760D01*
X142206618Y-4508822D01*
X142564186Y-4151877D01*
X142757939Y-3685267D01*
X142758380Y-3180030D01*
X142758380Y-5755783D01*
X142519762Y-5854378D01*
X142162194Y-6211323D01*
X141968441Y-6677933D01*
X141968000Y-7183170D01*
X142160938Y-7650118D01*
X142517883Y-8007686D01*
X142984493Y-8201439D01*
X143489730Y-8201880D01*
X143956678Y-8008942D01*
X144314246Y-7651997D01*
X144507999Y-7185387D01*
X144508440Y-6680150D01*
X144508440Y-11178490D01*
X144315502Y-10711542D01*
X143958557Y-10353974D01*
X143491947Y-10160221D01*
X142986710Y-10159780D01*
X142519762Y-10352718D01*
X142162194Y-10709663D01*
X141968441Y-11176273D01*
X141968000Y-11681510D01*
X142160938Y-12148458D01*
X142517883Y-12506026D01*
X142984493Y-12699779D01*
X143489730Y-12700220D01*
X143956678Y-12507282D01*
X144314246Y-12150337D01*
X144507999Y-11683727D01*
X144508440Y-11178490D01*
X144508440Y-15676830D01*
X144315502Y-15209882D01*
X143958557Y-14852314D01*
X143491947Y-14658561D01*
X142986710Y-14658120D01*
X142519762Y-14851058D01*
X142162194Y-15208003D01*
X141968441Y-15674613D01*
X141968000Y-16179850D01*
X142160938Y-16646798D01*
X142517883Y-17004366D01*
X142984493Y-17198119D01*
X143489730Y-17198560D01*
X143956678Y-17005622D01*
X144314246Y-16648677D01*
X144507999Y-16182067D01*
X144508440Y-15676830D01*
X144508440Y-24258808D01*
X144388004Y-24178336D01*
X144145000Y-24130000D01*
X142758380Y-24130000D01*
X142758380Y-19176950D01*
X142565442Y-18710002D01*
X142208497Y-18352434D01*
X141741887Y-18158681D01*
X141236650Y-18158240D01*
X140769702Y-18351178D01*
X140412134Y-18708123D01*
X140218381Y-19174733D01*
X140217940Y-19679970D01*
X140410878Y-20146918D01*
X140767823Y-20504486D01*
X141234433Y-20698239D01*
X141739670Y-20698680D01*
X142206618Y-20505742D01*
X142564186Y-20148797D01*
X142757939Y-19682187D01*
X142758380Y-19176950D01*
X142758380Y-24130000D01*
X138760420Y-24130000D01*
X138760420Y-20177710D01*
X138760420Y-2179270D01*
X138567482Y-1712322D01*
X138210537Y-1354754D01*
X137743927Y-1161001D01*
X137238690Y-1160560D01*
X136771742Y-1353498D01*
X136414174Y-1710443D01*
X136220421Y-2177053D01*
X136219980Y-2682290D01*
X136412918Y-3149238D01*
X136769863Y-3506806D01*
X137236473Y-3700559D01*
X137741710Y-3701000D01*
X138208658Y-3508062D01*
X138566226Y-3151117D01*
X138759979Y-2684507D01*
X138760420Y-2179270D01*
X138760420Y-20177710D01*
X138567482Y-19710762D01*
X138210537Y-19353194D01*
X138125200Y-19317759D01*
X138125200Y-9982200D01*
X138076864Y-9739196D01*
X137939213Y-9533187D01*
X133014203Y-4608177D01*
X133238513Y-4701319D01*
X133743750Y-4701760D01*
X134210698Y-4508822D01*
X134568266Y-4151877D01*
X134762019Y-3685267D01*
X134762460Y-3180030D01*
X134569522Y-2713082D01*
X134212577Y-2355514D01*
X133745967Y-2161761D01*
X133240730Y-2161320D01*
X132773782Y-2354258D01*
X132416214Y-2711203D01*
X132222461Y-3177813D01*
X132222020Y-3683050D01*
X132315629Y-3909603D01*
X131388553Y-2982527D01*
X131182544Y-2844876D01*
X130939540Y-2796540D01*
X117606325Y-2796540D01*
X117571842Y-2713082D01*
X117214897Y-2355514D01*
X116748287Y-2161761D01*
X116243050Y-2161320D01*
X115776102Y-2354258D01*
X115418534Y-2711203D01*
X115224781Y-3177813D01*
X115224340Y-3683050D01*
X115417278Y-4149998D01*
X115774223Y-4507566D01*
X116240833Y-4701319D01*
X116746070Y-4701760D01*
X117213018Y-4508822D01*
X117570586Y-4151877D01*
X117606020Y-4066540D01*
X130676514Y-4066540D01*
X136855200Y-10245226D01*
X136855200Y-19317454D01*
X136771742Y-19351938D01*
X136414174Y-19708883D01*
X136220421Y-20175493D01*
X136219980Y-20680730D01*
X136412918Y-21147678D01*
X136769863Y-21505246D01*
X137236473Y-21698999D01*
X137741710Y-21699440D01*
X138208658Y-21506502D01*
X138566226Y-21149557D01*
X138759979Y-20682947D01*
X138760420Y-20177710D01*
X138760420Y-24130000D01*
X134762460Y-24130000D01*
X134762460Y-19176950D01*
X134569522Y-18710002D01*
X134212577Y-18352434D01*
X133745967Y-18158681D01*
X133240730Y-18158240D01*
X133012400Y-18252583D01*
X133012400Y-15676830D01*
X133012400Y-11178490D01*
X133012400Y-6680150D01*
X132819462Y-6213202D01*
X132462517Y-5855634D01*
X131995907Y-5661881D01*
X131490670Y-5661440D01*
X131023722Y-5854378D01*
X130666154Y-6211323D01*
X130472401Y-6677933D01*
X130471960Y-7183170D01*
X130664898Y-7650118D01*
X131021843Y-8007686D01*
X131488453Y-8201439D01*
X131993690Y-8201880D01*
X132460638Y-8008942D01*
X132818206Y-7651997D01*
X133011959Y-7185387D01*
X133012400Y-6680150D01*
X133012400Y-11178490D01*
X132819462Y-10711542D01*
X132462517Y-10353974D01*
X131995907Y-10160221D01*
X131490670Y-10159780D01*
X131023722Y-10352718D01*
X130666154Y-10709663D01*
X130472401Y-11176273D01*
X130471960Y-11681510D01*
X130664898Y-12148458D01*
X131021843Y-12506026D01*
X131488453Y-12699779D01*
X131993690Y-12700220D01*
X132460638Y-12507282D01*
X132818206Y-12150337D01*
X133011959Y-11683727D01*
X133012400Y-11178490D01*
X133012400Y-15676830D01*
X132819462Y-15209882D01*
X132462517Y-14852314D01*
X131995907Y-14658561D01*
X131490670Y-14658120D01*
X131023722Y-14851058D01*
X130666154Y-15208003D01*
X130472401Y-15674613D01*
X130471960Y-16179850D01*
X130664898Y-16646798D01*
X131021843Y-17004366D01*
X131488453Y-17198119D01*
X131993690Y-17198560D01*
X132460638Y-17005622D01*
X132818206Y-16648677D01*
X133011959Y-16182067D01*
X133012400Y-15676830D01*
X133012400Y-18252583D01*
X132773782Y-18351178D01*
X132416214Y-18708123D01*
X132222461Y-19174733D01*
X132222020Y-19679970D01*
X132414958Y-20146918D01*
X132771903Y-20504486D01*
X133238513Y-20698239D01*
X133743750Y-20698680D01*
X134210698Y-20505742D01*
X134568266Y-20148797D01*
X134762019Y-19682187D01*
X134762460Y-19176950D01*
X134762460Y-24130000D01*
X133565023Y-24130000D01*
X133500719Y-24065583D01*
X133197423Y-23939643D01*
X132869018Y-23939357D01*
X132565502Y-24064767D01*
X132500155Y-24130000D01*
X127874899Y-24130000D01*
X127874899Y-16029448D01*
X127437217Y-14970177D01*
X126627486Y-14159031D01*
X125568980Y-13719501D01*
X124422848Y-13718501D01*
X123363577Y-14156183D01*
X122552431Y-14965914D01*
X122112901Y-16024420D01*
X122111901Y-17170552D01*
X122549583Y-18229823D01*
X123359314Y-19040969D01*
X124417820Y-19480499D01*
X125563952Y-19481499D01*
X126623223Y-19043817D01*
X127434369Y-18234086D01*
X127873899Y-17175580D01*
X127874899Y-16029448D01*
X127874899Y-24130000D01*
X119514840Y-24130000D01*
X119514840Y-15676830D01*
X119514840Y-11178490D01*
X119514840Y-6680150D01*
X119321902Y-6213202D01*
X118964957Y-5855634D01*
X118498347Y-5661881D01*
X117993110Y-5661440D01*
X117526162Y-5854378D01*
X117168594Y-6211323D01*
X116974841Y-6677933D01*
X116974400Y-7183170D01*
X117167338Y-7650118D01*
X117524283Y-8007686D01*
X117990893Y-8201439D01*
X118496130Y-8201880D01*
X118963078Y-8008942D01*
X119320646Y-7651997D01*
X119514399Y-7185387D01*
X119514840Y-6680150D01*
X119514840Y-11178490D01*
X119321902Y-10711542D01*
X118964957Y-10353974D01*
X118498347Y-10160221D01*
X117993110Y-10159780D01*
X117526162Y-10352718D01*
X117168594Y-10709663D01*
X116974841Y-11176273D01*
X116974400Y-11681510D01*
X117167338Y-12148458D01*
X117524283Y-12506026D01*
X117990893Y-12699779D01*
X118496130Y-12700220D01*
X118963078Y-12507282D01*
X119320646Y-12150337D01*
X119514399Y-11683727D01*
X119514840Y-11178490D01*
X119514840Y-15676830D01*
X119321902Y-15209882D01*
X118964957Y-14852314D01*
X118498347Y-14658561D01*
X117993110Y-14658120D01*
X117526162Y-14851058D01*
X117168594Y-15208003D01*
X116974841Y-15674613D01*
X116974400Y-16179850D01*
X117167338Y-16646798D01*
X117524283Y-17004366D01*
X117990893Y-17198119D01*
X118496130Y-17198560D01*
X118963078Y-17005622D01*
X119320646Y-16648677D01*
X119514399Y-16182067D01*
X119514840Y-15676830D01*
X119514840Y-24130000D01*
X117764780Y-24130000D01*
X117764780Y-19176950D01*
X117571842Y-18710002D01*
X117214897Y-18352434D01*
X116748287Y-18158681D01*
X116243050Y-18158240D01*
X115776102Y-18351178D01*
X115418534Y-18708123D01*
X115224781Y-19174733D01*
X115224340Y-19679970D01*
X115417278Y-20146918D01*
X115774223Y-20504486D01*
X116240833Y-20698239D01*
X116746070Y-20698680D01*
X117213018Y-20505742D01*
X117570586Y-20148797D01*
X117764339Y-19682187D01*
X117764780Y-19176950D01*
X117764780Y-24130000D01*
X113766820Y-24130000D01*
X113766820Y-20177710D01*
X113766820Y-2179270D01*
X113573882Y-1712322D01*
X113216937Y-1354754D01*
X112750327Y-1161001D01*
X112245090Y-1160560D01*
X111778142Y-1353498D01*
X111420574Y-1710443D01*
X111226821Y-2177053D01*
X111226380Y-2682290D01*
X111419318Y-3149238D01*
X111776263Y-3506806D01*
X112242873Y-3700559D01*
X112748110Y-3701000D01*
X113215058Y-3508062D01*
X113572626Y-3151117D01*
X113766379Y-2684507D01*
X113766820Y-2179270D01*
X113766820Y-20177710D01*
X113573882Y-19710762D01*
X113216937Y-19353194D01*
X113131600Y-19317759D01*
X113131600Y-10007600D01*
X113083264Y-9764596D01*
X112945613Y-9558587D01*
X107977167Y-4590141D01*
X108244913Y-4701319D01*
X108750150Y-4701760D01*
X109217098Y-4508822D01*
X109574666Y-4151877D01*
X109768419Y-3685267D01*
X109768860Y-3180030D01*
X109575922Y-2713082D01*
X109218977Y-2355514D01*
X108752367Y-2161761D01*
X108247130Y-2161320D01*
X107780182Y-2354258D01*
X107422614Y-2711203D01*
X107228861Y-3177813D01*
X107228420Y-3683050D01*
X107339914Y-3952888D01*
X106369553Y-2982527D01*
X106163544Y-2844876D01*
X105920540Y-2796540D01*
X92612725Y-2796540D01*
X92578242Y-2713082D01*
X92221297Y-2355514D01*
X91754687Y-2161761D01*
X91249450Y-2161320D01*
X90782502Y-2354258D01*
X90424934Y-2711203D01*
X90231181Y-3177813D01*
X90230740Y-3683050D01*
X90423678Y-4149998D01*
X90780623Y-4507566D01*
X91247233Y-4701319D01*
X91752470Y-4701760D01*
X92219418Y-4508822D01*
X92576986Y-4151877D01*
X92612420Y-4066540D01*
X105657514Y-4066540D01*
X107430766Y-5839792D01*
X107002307Y-5661881D01*
X106497070Y-5661440D01*
X106030122Y-5854378D01*
X105672554Y-6211323D01*
X105478801Y-6677933D01*
X105478360Y-7183170D01*
X105671298Y-7650118D01*
X106028243Y-8007686D01*
X106494853Y-8201439D01*
X107000090Y-8201880D01*
X107467038Y-8008942D01*
X107824606Y-7651997D01*
X108018359Y-7185387D01*
X108018800Y-6680150D01*
X107841131Y-6250157D01*
X111861600Y-10270626D01*
X111861600Y-19317454D01*
X111778142Y-19351938D01*
X111420574Y-19708883D01*
X111226821Y-20175493D01*
X111226380Y-20680730D01*
X111419318Y-21147678D01*
X111776263Y-21505246D01*
X112242873Y-21698999D01*
X112748110Y-21699440D01*
X113215058Y-21506502D01*
X113572626Y-21149557D01*
X113766379Y-20682947D01*
X113766820Y-20177710D01*
X113766820Y-24130000D01*
X109768860Y-24130000D01*
X109768860Y-19176950D01*
X109575922Y-18710002D01*
X109218977Y-18352434D01*
X108752367Y-18158681D01*
X108247130Y-18158240D01*
X108018800Y-18252583D01*
X108018800Y-15676830D01*
X108018800Y-11178490D01*
X107825862Y-10711542D01*
X107468917Y-10353974D01*
X107002307Y-10160221D01*
X106497070Y-10159780D01*
X106030122Y-10352718D01*
X105672554Y-10709663D01*
X105478801Y-11176273D01*
X105478360Y-11681510D01*
X105671298Y-12148458D01*
X106028243Y-12506026D01*
X106494853Y-12699779D01*
X107000090Y-12700220D01*
X107467038Y-12507282D01*
X107824606Y-12150337D01*
X108018359Y-11683727D01*
X108018800Y-11178490D01*
X108018800Y-15676830D01*
X107825862Y-15209882D01*
X107468917Y-14852314D01*
X107002307Y-14658561D01*
X106497070Y-14658120D01*
X106030122Y-14851058D01*
X105672554Y-15208003D01*
X105478801Y-15674613D01*
X105478360Y-16179850D01*
X105671298Y-16646798D01*
X106028243Y-17004366D01*
X106494853Y-17198119D01*
X107000090Y-17198560D01*
X107467038Y-17005622D01*
X107824606Y-16648677D01*
X108018359Y-16182067D01*
X108018800Y-15676830D01*
X108018800Y-18252583D01*
X107780182Y-18351178D01*
X107422614Y-18708123D01*
X107228861Y-19174733D01*
X107228420Y-19679970D01*
X107421358Y-20146918D01*
X107778303Y-20504486D01*
X108244913Y-20698239D01*
X108750150Y-20698680D01*
X109217098Y-20505742D01*
X109574666Y-20148797D01*
X109768419Y-19682187D01*
X109768860Y-19176950D01*
X109768860Y-24130000D01*
X108546023Y-24130000D01*
X108481719Y-24065583D01*
X108178423Y-23939643D01*
X107850018Y-23939357D01*
X107546502Y-24064767D01*
X107481155Y-24130000D01*
X94521240Y-24130000D01*
X94521240Y-15676830D01*
X94521240Y-11178490D01*
X94521240Y-6680150D01*
X94328302Y-6213202D01*
X93971357Y-5855634D01*
X93504747Y-5661881D01*
X92999510Y-5661440D01*
X92532562Y-5854378D01*
X92174994Y-6211323D01*
X91981241Y-6677933D01*
X91980800Y-7183170D01*
X92173738Y-7650118D01*
X92530683Y-8007686D01*
X92997293Y-8201439D01*
X93502530Y-8201880D01*
X93969478Y-8008942D01*
X94327046Y-7651997D01*
X94520799Y-7185387D01*
X94521240Y-6680150D01*
X94521240Y-11178490D01*
X94328302Y-10711542D01*
X93971357Y-10353974D01*
X93504747Y-10160221D01*
X92999510Y-10159780D01*
X92532562Y-10352718D01*
X92174994Y-10709663D01*
X91981241Y-11176273D01*
X91980800Y-11681510D01*
X92173738Y-12148458D01*
X92530683Y-12506026D01*
X92997293Y-12699779D01*
X93502530Y-12700220D01*
X93969478Y-12507282D01*
X94327046Y-12150337D01*
X94520799Y-11683727D01*
X94521240Y-11178490D01*
X94521240Y-15676830D01*
X94328302Y-15209882D01*
X93971357Y-14852314D01*
X93504747Y-14658561D01*
X92999510Y-14658120D01*
X92532562Y-14851058D01*
X92174994Y-15208003D01*
X91981241Y-15674613D01*
X91980800Y-16179850D01*
X92173738Y-16646798D01*
X92530683Y-17004366D01*
X92997293Y-17198119D01*
X93502530Y-17198560D01*
X93969478Y-17005622D01*
X94327046Y-16648677D01*
X94520799Y-16182067D01*
X94521240Y-15676830D01*
X94521240Y-24130000D01*
X92771180Y-24130000D01*
X92771180Y-19176950D01*
X92578242Y-18710002D01*
X92221297Y-18352434D01*
X91754687Y-18158681D01*
X91249450Y-18158240D01*
X90782502Y-18351178D01*
X90424934Y-18708123D01*
X90231181Y-19174733D01*
X90230740Y-19679970D01*
X90318539Y-19892460D01*
X88773220Y-21437779D01*
X88773220Y-20177710D01*
X88773220Y-2179270D01*
X88580282Y-1712322D01*
X88223337Y-1354754D01*
X87756727Y-1161001D01*
X87251490Y-1160560D01*
X86784542Y-1353498D01*
X86426974Y-1710443D01*
X86233221Y-2177053D01*
X86232780Y-2682290D01*
X86425718Y-3149238D01*
X86782663Y-3506806D01*
X87249273Y-3700559D01*
X87754510Y-3701000D01*
X88221458Y-3508062D01*
X88579026Y-3151117D01*
X88772779Y-2684507D01*
X88773220Y-2179270D01*
X88773220Y-20177710D01*
X88580282Y-19710762D01*
X88223337Y-19353194D01*
X88138000Y-19317759D01*
X88138000Y-10033000D01*
X88089664Y-9789996D01*
X88089664Y-9789995D01*
X87952013Y-9583987D01*
X82940131Y-4572105D01*
X83251313Y-4701319D01*
X83756550Y-4701760D01*
X84223498Y-4508822D01*
X84581066Y-4151877D01*
X84774819Y-3685267D01*
X84775260Y-3180030D01*
X84582322Y-2713082D01*
X84225377Y-2355514D01*
X83758767Y-2161761D01*
X83253530Y-2161320D01*
X82786582Y-2354258D01*
X82429014Y-2711203D01*
X82235261Y-3177813D01*
X82234820Y-3683050D01*
X82364199Y-3996173D01*
X81350553Y-2982527D01*
X81144544Y-2844876D01*
X80901540Y-2796540D01*
X67593725Y-2796540D01*
X67559242Y-2713082D01*
X67202297Y-2355514D01*
X66735687Y-2161761D01*
X66230450Y-2161320D01*
X65763502Y-2354258D01*
X65405934Y-2711203D01*
X65212181Y-3177813D01*
X65211740Y-3683050D01*
X65404678Y-4149998D01*
X65761623Y-4507566D01*
X66228233Y-4701319D01*
X66733470Y-4701760D01*
X67200418Y-4508822D01*
X67557986Y-4151877D01*
X67593420Y-4066540D01*
X80638513Y-4066540D01*
X82393730Y-5821756D01*
X82008707Y-5661881D01*
X81503470Y-5661440D01*
X81036522Y-5854378D01*
X80678954Y-6211323D01*
X80485201Y-6677933D01*
X80484760Y-7183170D01*
X80677698Y-7650118D01*
X81034643Y-8007686D01*
X81501253Y-8201439D01*
X82006490Y-8201880D01*
X82473438Y-8008942D01*
X82831006Y-7651997D01*
X83024759Y-7185387D01*
X83025200Y-6680150D01*
X82865416Y-6293442D01*
X86868000Y-10296026D01*
X86868000Y-19317454D01*
X86784542Y-19351938D01*
X86426974Y-19708883D01*
X86233221Y-20175493D01*
X86232780Y-20680730D01*
X86425718Y-21147678D01*
X86782663Y-21505246D01*
X87249273Y-21698999D01*
X87754510Y-21699440D01*
X88221458Y-21506502D01*
X88579026Y-21149557D01*
X88772779Y-20682947D01*
X88773220Y-20177710D01*
X88773220Y-21437779D01*
X88113000Y-22098000D01*
X84775260Y-22098000D01*
X84775260Y-19176950D01*
X84582322Y-18710002D01*
X84225377Y-18352434D01*
X83758767Y-18158681D01*
X83253530Y-18158240D01*
X83025200Y-18252583D01*
X83025200Y-15676830D01*
X83025200Y-11178490D01*
X82832262Y-10711542D01*
X82475317Y-10353974D01*
X82008707Y-10160221D01*
X81503470Y-10159780D01*
X81036522Y-10352718D01*
X80678954Y-10709663D01*
X80485201Y-11176273D01*
X80484760Y-11681510D01*
X80677698Y-12148458D01*
X81034643Y-12506026D01*
X81501253Y-12699779D01*
X82006490Y-12700220D01*
X82473438Y-12507282D01*
X82831006Y-12150337D01*
X83024759Y-11683727D01*
X83025200Y-11178490D01*
X83025200Y-15676830D01*
X82832262Y-15209882D01*
X82475317Y-14852314D01*
X82008707Y-14658561D01*
X81503470Y-14658120D01*
X81036522Y-14851058D01*
X80678954Y-15208003D01*
X80485201Y-15674613D01*
X80484760Y-16179850D01*
X80677698Y-16646798D01*
X81034643Y-17004366D01*
X81501253Y-17198119D01*
X82006490Y-17198560D01*
X82473438Y-17005622D01*
X82831006Y-16648677D01*
X83024759Y-16182067D01*
X83025200Y-15676830D01*
X83025200Y-18252583D01*
X82786582Y-18351178D01*
X82429014Y-18708123D01*
X82235261Y-19174733D01*
X82234820Y-19679970D01*
X82427758Y-20146918D01*
X82784703Y-20504486D01*
X83251313Y-20698239D01*
X83756550Y-20698680D01*
X84223498Y-20505742D01*
X84581066Y-20148797D01*
X84774819Y-19682187D01*
X84775260Y-19176950D01*
X84775260Y-22098000D01*
X77491590Y-22098000D01*
X77491590Y-19670339D01*
X77491590Y-18530570D01*
X77491590Y-17959070D01*
X77491590Y-16819301D01*
X77394917Y-16585912D01*
X77216289Y-16407283D01*
X76982900Y-16310610D01*
X76730281Y-16310610D01*
X75342750Y-16310610D01*
X75184000Y-16469360D01*
X75184000Y-18117820D01*
X77332840Y-18117820D01*
X77491590Y-17959070D01*
X77491590Y-18530570D01*
X77332840Y-18371820D01*
X75184000Y-18371820D01*
X75184000Y-20020280D01*
X75342750Y-20179030D01*
X76730281Y-20179030D01*
X76982900Y-20179030D01*
X77216289Y-20082357D01*
X77394917Y-19903728D01*
X77491590Y-19670339D01*
X77491590Y-22098000D01*
X74930000Y-22098000D01*
X74930000Y-20020280D01*
X74930000Y-18371820D01*
X74930000Y-18117820D01*
X74930000Y-16469360D01*
X74771250Y-16310610D01*
X73383719Y-16310610D01*
X73131100Y-16310610D01*
X72897711Y-16407283D01*
X72719083Y-16585912D01*
X72622410Y-16819301D01*
X72622410Y-17959070D01*
X72781160Y-18117820D01*
X74930000Y-18117820D01*
X74930000Y-18371820D01*
X72781160Y-18371820D01*
X72622410Y-18530570D01*
X72622410Y-19670339D01*
X72719083Y-19903728D01*
X72897711Y-20082357D01*
X73131100Y-20179030D01*
X73383719Y-20179030D01*
X74771250Y-20179030D01*
X74930000Y-20020280D01*
X74930000Y-22098000D01*
X69502240Y-22098000D01*
X69502240Y-15676830D01*
X69502240Y-11178490D01*
X69502240Y-6680150D01*
X69309302Y-6213202D01*
X68952357Y-5855634D01*
X68485747Y-5661881D01*
X67980510Y-5661440D01*
X67513562Y-5854378D01*
X67155994Y-6211323D01*
X66962241Y-6677933D01*
X66961800Y-7183170D01*
X67154738Y-7650118D01*
X67511683Y-8007686D01*
X67978293Y-8201439D01*
X68483530Y-8201880D01*
X68950478Y-8008942D01*
X69308046Y-7651997D01*
X69501799Y-7185387D01*
X69502240Y-6680150D01*
X69502240Y-11178490D01*
X69309302Y-10711542D01*
X68952357Y-10353974D01*
X68485747Y-10160221D01*
X67980510Y-10159780D01*
X67513562Y-10352718D01*
X67155994Y-10709663D01*
X66962241Y-11176273D01*
X66961800Y-11681510D01*
X67154738Y-12148458D01*
X67511683Y-12506026D01*
X67978293Y-12699779D01*
X68483530Y-12700220D01*
X68950478Y-12507282D01*
X69308046Y-12150337D01*
X69501799Y-11683727D01*
X69502240Y-11178490D01*
X69502240Y-15676830D01*
X69309302Y-15209882D01*
X68952357Y-14852314D01*
X68485747Y-14658561D01*
X67980510Y-14658120D01*
X67513562Y-14851058D01*
X67155994Y-15208003D01*
X66962241Y-15674613D01*
X66961800Y-16179850D01*
X67154738Y-16646798D01*
X67511683Y-17004366D01*
X67978293Y-17198119D01*
X68483530Y-17198560D01*
X68950478Y-17005622D01*
X69308046Y-16648677D01*
X69501799Y-16182067D01*
X69502240Y-15676830D01*
X69502240Y-22098000D01*
X67752180Y-22098000D01*
X67752180Y-19176950D01*
X67559242Y-18710002D01*
X67202297Y-18352434D01*
X66735687Y-18158681D01*
X66230450Y-18158240D01*
X65763502Y-18351178D01*
X65405934Y-18708123D01*
X65212181Y-19174733D01*
X65211740Y-19679970D01*
X65404678Y-20146918D01*
X65761623Y-20504486D01*
X66228233Y-20698239D01*
X66733470Y-20698680D01*
X67200418Y-20505742D01*
X67557986Y-20148797D01*
X67751739Y-19682187D01*
X67752180Y-19176950D01*
X67752180Y-22098000D01*
X63754220Y-22098000D01*
X63754220Y-20177710D01*
X63754220Y-2179270D01*
X63561282Y-1712322D01*
X63204337Y-1354754D01*
X62737727Y-1161001D01*
X62232490Y-1160560D01*
X61765542Y-1353498D01*
X61407974Y-1710443D01*
X61214221Y-2177053D01*
X61213780Y-2682290D01*
X61406718Y-3149238D01*
X61763663Y-3506806D01*
X62230273Y-3700559D01*
X62735510Y-3701000D01*
X63202458Y-3508062D01*
X63560026Y-3151117D01*
X63753779Y-2684507D01*
X63754220Y-2179270D01*
X63754220Y-20177710D01*
X63561282Y-19710762D01*
X63204337Y-19353194D01*
X63119000Y-19317759D01*
X63119000Y-10033000D01*
X63070664Y-9789996D01*
X63070664Y-9789995D01*
X62933013Y-9583987D01*
X57921131Y-4572105D01*
X58232313Y-4701319D01*
X58737550Y-4701760D01*
X59204498Y-4508822D01*
X59562066Y-4151877D01*
X59755819Y-3685267D01*
X59756260Y-3180030D01*
X59563322Y-2713082D01*
X59206377Y-2355514D01*
X58739767Y-2161761D01*
X58234530Y-2161320D01*
X57767582Y-2354258D01*
X57410014Y-2711203D01*
X57216261Y-3177813D01*
X57215820Y-3683050D01*
X57345199Y-3996173D01*
X56331553Y-2982527D01*
X56125544Y-2844876D01*
X55882540Y-2796540D01*
X42607745Y-2796540D01*
X42573262Y-2713082D01*
X42216317Y-2355514D01*
X41749707Y-2161761D01*
X41244470Y-2161320D01*
X40777522Y-2354258D01*
X40419954Y-2711203D01*
X40226201Y-3177813D01*
X40225760Y-3683050D01*
X40418698Y-4149998D01*
X40775643Y-4507566D01*
X41242253Y-4701319D01*
X41747490Y-4701760D01*
X42214438Y-4508822D01*
X42572006Y-4151877D01*
X42607440Y-4066540D01*
X55619514Y-4066540D01*
X57374730Y-5821756D01*
X56989707Y-5661881D01*
X56484470Y-5661440D01*
X56017522Y-5854378D01*
X55659954Y-6211323D01*
X55466201Y-6677933D01*
X55465760Y-7183170D01*
X55658698Y-7650118D01*
X56015643Y-8007686D01*
X56482253Y-8201439D01*
X56987490Y-8201880D01*
X57454438Y-8008942D01*
X57812006Y-7651997D01*
X58005759Y-7185387D01*
X58006200Y-6680150D01*
X57846416Y-6293442D01*
X61849000Y-10296026D01*
X61849000Y-19317454D01*
X61765542Y-19351938D01*
X61407974Y-19708883D01*
X61214221Y-20175493D01*
X61213780Y-20680730D01*
X61406718Y-21147678D01*
X61763663Y-21505246D01*
X62230273Y-21698999D01*
X62735510Y-21699440D01*
X63202458Y-21506502D01*
X63560026Y-21149557D01*
X63753779Y-20682947D01*
X63754220Y-20177710D01*
X63754220Y-22098000D01*
X59756260Y-22098000D01*
X59756260Y-19176950D01*
X59563322Y-18710002D01*
X59206377Y-18352434D01*
X58739767Y-18158681D01*
X58234530Y-18158240D01*
X58006200Y-18252583D01*
X58006200Y-15676830D01*
X58006200Y-11178490D01*
X57813262Y-10711542D01*
X57456317Y-10353974D01*
X56989707Y-10160221D01*
X56484470Y-10159780D01*
X56017522Y-10352718D01*
X55659954Y-10709663D01*
X55466201Y-11176273D01*
X55465760Y-11681510D01*
X55658698Y-12148458D01*
X56015643Y-12506026D01*
X56482253Y-12699779D01*
X56987490Y-12700220D01*
X57454438Y-12507282D01*
X57812006Y-12150337D01*
X58005759Y-11683727D01*
X58006200Y-11178490D01*
X58006200Y-15676830D01*
X57813262Y-15209882D01*
X57456317Y-14852314D01*
X56989707Y-14658561D01*
X56484470Y-14658120D01*
X56017522Y-14851058D01*
X55659954Y-15208003D01*
X55466201Y-15674613D01*
X55465760Y-16179850D01*
X55658698Y-16646798D01*
X56015643Y-17004366D01*
X56482253Y-17198119D01*
X56987490Y-17198560D01*
X57454438Y-17005622D01*
X57812006Y-16648677D01*
X58005759Y-16182067D01*
X58006200Y-15676830D01*
X58006200Y-18252583D01*
X57767582Y-18351178D01*
X57410014Y-18708123D01*
X57216261Y-19174733D01*
X57215820Y-19679970D01*
X57408758Y-20146918D01*
X57765703Y-20504486D01*
X58232313Y-20698239D01*
X58737550Y-20698680D01*
X59204498Y-20505742D01*
X59562066Y-20148797D01*
X59755819Y-19682187D01*
X59756260Y-19176950D01*
X59756260Y-22098000D01*
X44883940Y-22098000D01*
X44516260Y-21730320D01*
X44516260Y-15676830D01*
X44516260Y-11178490D01*
X44516260Y-6680150D01*
X44323322Y-6213202D01*
X43966377Y-5855634D01*
X43499767Y-5661881D01*
X42994530Y-5661440D01*
X42527582Y-5854378D01*
X42170014Y-6211323D01*
X41976261Y-6677933D01*
X41975820Y-7183170D01*
X42168758Y-7650118D01*
X42525703Y-8007686D01*
X42992313Y-8201439D01*
X43497550Y-8201880D01*
X43964498Y-8008942D01*
X44322066Y-7651997D01*
X44515819Y-7185387D01*
X44516260Y-6680150D01*
X44516260Y-11178490D01*
X44323322Y-10711542D01*
X43966377Y-10353974D01*
X43499767Y-10160221D01*
X42994530Y-10159780D01*
X42527582Y-10352718D01*
X42170014Y-10709663D01*
X41976261Y-11176273D01*
X41975820Y-11681510D01*
X42168758Y-12148458D01*
X42525703Y-12506026D01*
X42992313Y-12699779D01*
X43497550Y-12700220D01*
X43964498Y-12507282D01*
X44322066Y-12150337D01*
X44515819Y-11683727D01*
X44516260Y-11178490D01*
X44516260Y-15676830D01*
X44323322Y-15209882D01*
X43966377Y-14852314D01*
X43499767Y-14658561D01*
X42994530Y-14658120D01*
X42527582Y-14851058D01*
X42170014Y-15208003D01*
X41976261Y-15674613D01*
X41975820Y-16179850D01*
X42168758Y-16646798D01*
X42525703Y-17004366D01*
X42992313Y-17198119D01*
X43497550Y-17198560D01*
X43964498Y-17005622D01*
X44322066Y-16648677D01*
X44515819Y-16182067D01*
X44516260Y-15676830D01*
X44516260Y-21730320D01*
X42678432Y-19892492D01*
X42765759Y-19682187D01*
X42766200Y-19176950D01*
X42573262Y-18710002D01*
X42216317Y-18352434D01*
X41749707Y-18158681D01*
X41244470Y-18158240D01*
X40777522Y-18351178D01*
X40419954Y-18708123D01*
X40226201Y-19174733D01*
X40225760Y-19679970D01*
X40313559Y-19892460D01*
X38768240Y-21437779D01*
X38768240Y-20177710D01*
X38768240Y-2179270D01*
X38575302Y-1712322D01*
X38218357Y-1354754D01*
X37751747Y-1161001D01*
X37246510Y-1160560D01*
X36779562Y-1353498D01*
X36421994Y-1710443D01*
X36228241Y-2177053D01*
X36227800Y-2682290D01*
X36420738Y-3149238D01*
X36777683Y-3506806D01*
X37244293Y-3700559D01*
X37749530Y-3701000D01*
X38216478Y-3508062D01*
X38574046Y-3151117D01*
X38767799Y-2684507D01*
X38768240Y-2179270D01*
X38768240Y-20177710D01*
X38575302Y-19710762D01*
X38218357Y-19353194D01*
X38133020Y-19317759D01*
X38133020Y-10066025D01*
X38133020Y-10066020D01*
X38133021Y-10066020D01*
X38084684Y-9823016D01*
X37947033Y-9617007D01*
X32878684Y-4548658D01*
X33246333Y-4701319D01*
X33751570Y-4701760D01*
X34218518Y-4508822D01*
X34576086Y-4151877D01*
X34769839Y-3685267D01*
X34770280Y-3180030D01*
X34577342Y-2713082D01*
X34220397Y-2355514D01*
X33753787Y-2161761D01*
X33248550Y-2161320D01*
X32781602Y-2354258D01*
X32424034Y-2711203D01*
X32230281Y-3177813D01*
X32229840Y-3683050D01*
X32382469Y-4052443D01*
X31312553Y-2982527D01*
X31106544Y-2844876D01*
X30863540Y-2796540D01*
X17606525Y-2796540D01*
X17572042Y-2713082D01*
X17215097Y-2355514D01*
X16748487Y-2161761D01*
X16243250Y-2161320D01*
X15776302Y-2354258D01*
X15418734Y-2711203D01*
X15224981Y-3177813D01*
X15224540Y-3683050D01*
X15417478Y-4149998D01*
X15774423Y-4507566D01*
X16241033Y-4701319D01*
X16746270Y-4701760D01*
X17213218Y-4508822D01*
X17570786Y-4151877D01*
X17606220Y-4066540D01*
X30600514Y-4066540D01*
X32332283Y-5798309D01*
X32003727Y-5661881D01*
X31498490Y-5661440D01*
X31031542Y-5854378D01*
X30673974Y-6211323D01*
X30480221Y-6677933D01*
X30479780Y-7183170D01*
X30672718Y-7650118D01*
X31029663Y-8007686D01*
X31496273Y-8201439D01*
X32001510Y-8201880D01*
X32468458Y-8008942D01*
X32826026Y-7651997D01*
X33019779Y-7185387D01*
X33020220Y-6680150D01*
X32883686Y-6349712D01*
X36863020Y-10329046D01*
X36863020Y-19317454D01*
X36779562Y-19351938D01*
X36421994Y-19708883D01*
X36228241Y-20175493D01*
X36227800Y-20680730D01*
X36420738Y-21147678D01*
X36777683Y-21505246D01*
X37244293Y-21698999D01*
X37749530Y-21699440D01*
X38216478Y-21506502D01*
X38574046Y-21149557D01*
X38767799Y-20682947D01*
X38768240Y-20177710D01*
X38768240Y-21437779D01*
X38108020Y-22098000D01*
X34770280Y-22098000D01*
X34770280Y-19176950D01*
X34577342Y-18710002D01*
X34220397Y-18352434D01*
X33753787Y-18158681D01*
X33248550Y-18158240D01*
X33020220Y-18252583D01*
X33020220Y-15676830D01*
X33020220Y-11178490D01*
X32827282Y-10711542D01*
X32470337Y-10353974D01*
X32003727Y-10160221D01*
X31498490Y-10159780D01*
X31031542Y-10352718D01*
X30673974Y-10709663D01*
X30480221Y-11176273D01*
X30479780Y-11681510D01*
X30672718Y-12148458D01*
X31029663Y-12506026D01*
X31496273Y-12699779D01*
X32001510Y-12700220D01*
X32468458Y-12507282D01*
X32826026Y-12150337D01*
X33019779Y-11683727D01*
X33020220Y-11178490D01*
X33020220Y-15676830D01*
X32827282Y-15209882D01*
X32470337Y-14852314D01*
X32003727Y-14658561D01*
X31498490Y-14658120D01*
X31031542Y-14851058D01*
X30673974Y-15208003D01*
X30480221Y-15674613D01*
X30479780Y-16179850D01*
X30672718Y-16646798D01*
X31029663Y-17004366D01*
X31496273Y-17198119D01*
X32001510Y-17198560D01*
X32468458Y-17005622D01*
X32826026Y-16648677D01*
X33019779Y-16182067D01*
X33020220Y-15676830D01*
X33020220Y-18252583D01*
X32781602Y-18351178D01*
X32424034Y-18708123D01*
X32230281Y-19174733D01*
X32229840Y-19679970D01*
X32422778Y-20146918D01*
X32779723Y-20504486D01*
X33246333Y-20698239D01*
X33751570Y-20698680D01*
X34218518Y-20505742D01*
X34576086Y-20148797D01*
X34769839Y-19682187D01*
X34770280Y-19176950D01*
X34770280Y-22098000D01*
X30732902Y-22098000D01*
X30541819Y-21906583D01*
X30238523Y-21780643D01*
X29910118Y-21780357D01*
X29606602Y-21905767D01*
X29374183Y-22137781D01*
X29248243Y-22441077D01*
X29247957Y-22769482D01*
X29373367Y-23072998D01*
X29605381Y-23305417D01*
X29908677Y-23431357D01*
X30237082Y-23431643D01*
X30540598Y-23306233D01*
X30733166Y-23114000D01*
X38318440Y-23114000D01*
X38512843Y-23075331D01*
X38677650Y-22965210D01*
X41031947Y-20610912D01*
X41242253Y-20698239D01*
X41747490Y-20698680D01*
X41959980Y-20610880D01*
X44314310Y-22965210D01*
X44479116Y-23075331D01*
X44479117Y-23075331D01*
X44673520Y-23114000D01*
X88323420Y-23114000D01*
X88517823Y-23075331D01*
X88682630Y-22965210D01*
X91036927Y-20610912D01*
X91247233Y-20698239D01*
X91752470Y-20698680D01*
X92219418Y-20505742D01*
X92576986Y-20148797D01*
X92770739Y-19682187D01*
X92771180Y-19176950D01*
X92771180Y-24130000D01*
X83590523Y-24130000D01*
X83526219Y-24065583D01*
X83222923Y-23939643D01*
X82894518Y-23939357D01*
X82591002Y-24064767D01*
X82525655Y-24130000D01*
X58571523Y-24130000D01*
X58507219Y-24065583D01*
X58203923Y-23939643D01*
X57875518Y-23939357D01*
X57572002Y-24064767D01*
X57506655Y-24130000D01*
X33616023Y-24130000D01*
X33551719Y-24065583D01*
X33248423Y-23939643D01*
X32920018Y-23939357D01*
X32616502Y-24064767D01*
X32551155Y-24130000D01*
X27878909Y-24130000D01*
X27878909Y-16029448D01*
X27441227Y-14970177D01*
X26631496Y-14159031D01*
X25572990Y-13719501D01*
X24426858Y-13718501D01*
X23367587Y-14156183D01*
X22556441Y-14965914D01*
X22116911Y-16024420D01*
X22115911Y-17170552D01*
X22553593Y-18229823D01*
X23363324Y-19040969D01*
X24421830Y-19480499D01*
X25567962Y-19481499D01*
X26627233Y-19043817D01*
X27438379Y-18234086D01*
X27877909Y-17175580D01*
X27878909Y-16029448D01*
X27878909Y-24130000D01*
X19515040Y-24130000D01*
X19515040Y-15676830D01*
X19515040Y-11178490D01*
X19515040Y-6680150D01*
X19322102Y-6213202D01*
X18965157Y-5855634D01*
X18498547Y-5661881D01*
X17993310Y-5661440D01*
X17526362Y-5854378D01*
X17168794Y-6211323D01*
X16975041Y-6677933D01*
X16974600Y-7183170D01*
X17167538Y-7650118D01*
X17524483Y-8007686D01*
X17991093Y-8201439D01*
X18496330Y-8201880D01*
X18963278Y-8008942D01*
X19320846Y-7651997D01*
X19514599Y-7185387D01*
X19515040Y-6680150D01*
X19515040Y-11178490D01*
X19322102Y-10711542D01*
X18965157Y-10353974D01*
X18498547Y-10160221D01*
X17993310Y-10159780D01*
X17526362Y-10352718D01*
X17168794Y-10709663D01*
X16975041Y-11176273D01*
X16974600Y-11681510D01*
X17167538Y-12148458D01*
X17524483Y-12506026D01*
X17991093Y-12699779D01*
X18496330Y-12700220D01*
X18963278Y-12507282D01*
X19320846Y-12150337D01*
X19514599Y-11683727D01*
X19515040Y-11178490D01*
X19515040Y-15676830D01*
X19322102Y-15209882D01*
X18965157Y-14852314D01*
X18498547Y-14658561D01*
X17993310Y-14658120D01*
X17526362Y-14851058D01*
X17168794Y-15208003D01*
X16975041Y-15674613D01*
X16974600Y-16179850D01*
X17167538Y-16646798D01*
X17524483Y-17004366D01*
X17991093Y-17198119D01*
X18496330Y-17198560D01*
X18963278Y-17005622D01*
X19320846Y-16648677D01*
X19514599Y-16182067D01*
X19515040Y-15676830D01*
X19515040Y-24130000D01*
X17764980Y-24130000D01*
X17764980Y-19176950D01*
X17572042Y-18710002D01*
X17215097Y-18352434D01*
X16748487Y-18158681D01*
X16243250Y-18158240D01*
X15776302Y-18351178D01*
X15418734Y-18708123D01*
X15224981Y-19174733D01*
X15224540Y-19679970D01*
X15417478Y-20146918D01*
X15774423Y-20504486D01*
X16241033Y-20698239D01*
X16746270Y-20698680D01*
X17213218Y-20505742D01*
X17570786Y-20148797D01*
X17764539Y-19682187D01*
X17764980Y-19176950D01*
X17764980Y-24130000D01*
X14032316Y-24130000D01*
X14032316Y-20667255D01*
X14006523Y-20061520D01*
X13824339Y-19621687D01*
X13767020Y-19602593D01*
X13767020Y-2179270D01*
X13574082Y-1712322D01*
X13217137Y-1354754D01*
X12750527Y-1161001D01*
X12245290Y-1160560D01*
X11778342Y-1353498D01*
X11420774Y-1710443D01*
X11227021Y-2177053D01*
X11226580Y-2682290D01*
X11419518Y-3149238D01*
X11776463Y-3506806D01*
X12243073Y-3700559D01*
X12748310Y-3701000D01*
X13215258Y-3508062D01*
X13572826Y-3151117D01*
X13766579Y-2684507D01*
X13767020Y-2179270D01*
X13767020Y-19602593D01*
X13568996Y-19536629D01*
X13389391Y-19716234D01*
X13389391Y-19357024D01*
X13304333Y-19101681D01*
X12734835Y-18893704D01*
X12129100Y-18919497D01*
X11689267Y-19101681D01*
X11604209Y-19357024D01*
X12496800Y-20249615D01*
X13389391Y-19357024D01*
X13389391Y-19716234D01*
X12676405Y-20429220D01*
X13568996Y-21321811D01*
X13824339Y-21236753D01*
X14032316Y-20667255D01*
X14032316Y-24130000D01*
X13389391Y-24130000D01*
X13389391Y-21501416D01*
X12496800Y-20608825D01*
X12317195Y-20788430D01*
X12317195Y-20429220D01*
X11424604Y-19536629D01*
X11169261Y-19621687D01*
X10961284Y-20191185D01*
X10987077Y-20796920D01*
X11169261Y-21236753D01*
X11424604Y-21321811D01*
X12317195Y-20429220D01*
X12317195Y-20788430D01*
X11604209Y-21501416D01*
X11689267Y-21756759D01*
X12258765Y-21964736D01*
X12864500Y-21938943D01*
X13304333Y-21756759D01*
X13389391Y-21501416D01*
X13389391Y-24130000D01*
X9769060Y-24130000D01*
X9769060Y-19176950D01*
X9769060Y-3180030D01*
X9576122Y-2713082D01*
X9219177Y-2355514D01*
X8752567Y-2161761D01*
X8247330Y-2161320D01*
X7780382Y-2354258D01*
X7422814Y-2711203D01*
X7229061Y-3177813D01*
X7228620Y-3683050D01*
X7421558Y-4149998D01*
X7778503Y-4507566D01*
X8245113Y-4701319D01*
X8750350Y-4701760D01*
X9217298Y-4508822D01*
X9574866Y-4151877D01*
X9768619Y-3685267D01*
X9769060Y-3180030D01*
X9769060Y-19176950D01*
X9576122Y-18710002D01*
X9219177Y-18352434D01*
X8752567Y-18158681D01*
X8247330Y-18158240D01*
X8019000Y-18252583D01*
X8019000Y-15676830D01*
X8019000Y-11178490D01*
X8019000Y-6680150D01*
X7826062Y-6213202D01*
X7469117Y-5855634D01*
X7002507Y-5661881D01*
X6497270Y-5661440D01*
X6030322Y-5854378D01*
X5672754Y-6211323D01*
X5479001Y-6677933D01*
X5478560Y-7183170D01*
X5671498Y-7650118D01*
X6028443Y-8007686D01*
X6495053Y-8201439D01*
X7000290Y-8201880D01*
X7467238Y-8008942D01*
X7824806Y-7651997D01*
X8018559Y-7185387D01*
X8019000Y-6680150D01*
X8019000Y-11178490D01*
X7826062Y-10711542D01*
X7469117Y-10353974D01*
X7002507Y-10160221D01*
X6497270Y-10159780D01*
X6030322Y-10352718D01*
X5672754Y-10709663D01*
X5479001Y-11176273D01*
X5478560Y-11681510D01*
X5671498Y-12148458D01*
X6028443Y-12506026D01*
X6495053Y-12699779D01*
X7000290Y-12700220D01*
X7467238Y-12507282D01*
X7824806Y-12150337D01*
X8018559Y-11683727D01*
X8019000Y-11178490D01*
X8019000Y-15676830D01*
X7826062Y-15209882D01*
X7469117Y-14852314D01*
X7002507Y-14658561D01*
X6497270Y-14658120D01*
X6030322Y-14851058D01*
X5672754Y-15208003D01*
X5479001Y-15674613D01*
X5478560Y-16179850D01*
X5671498Y-16646798D01*
X6028443Y-17004366D01*
X6495053Y-17198119D01*
X7000290Y-17198560D01*
X7467238Y-17005622D01*
X7824806Y-16648677D01*
X8018559Y-16182067D01*
X8019000Y-15676830D01*
X8019000Y-18252583D01*
X7780382Y-18351178D01*
X7422814Y-18708123D01*
X7229061Y-19174733D01*
X7228620Y-19679970D01*
X7421558Y-20146918D01*
X7778503Y-20504486D01*
X8245113Y-20698239D01*
X8750350Y-20698680D01*
X9217298Y-20505742D01*
X9574866Y-20148797D01*
X9768619Y-19682187D01*
X9769060Y-19176950D01*
X9769060Y-24130000D01*
X8597023Y-24130000D01*
X8532719Y-24065583D01*
X8229423Y-23939643D01*
X7901018Y-23939357D01*
X7597502Y-24064767D01*
X7365083Y-24296781D01*
X7239143Y-24600077D01*
X7238857Y-24928482D01*
X7364267Y-25231998D01*
X7596281Y-25464417D01*
X7899577Y-25590357D01*
X8227982Y-25590643D01*
X8531498Y-25465233D01*
X8596844Y-25400000D01*
X11208799Y-25400000D01*
X11180918Y-25467146D01*
X11180682Y-25738065D01*
X11208917Y-25806400D01*
X9776926Y-25806400D01*
X9708059Y-25737413D01*
X9457854Y-25633518D01*
X9186935Y-25633282D01*
X8936548Y-25736739D01*
X8744813Y-25928141D01*
X8640918Y-26178346D01*
X8640682Y-26449265D01*
X8668917Y-26517600D01*
X6946900Y-26517600D01*
X6752496Y-26556269D01*
X6587690Y-26666390D01*
X5990790Y-27263290D01*
X5880669Y-27428097D01*
X5842000Y-27622500D01*
X5842000Y-31050038D01*
X5512612Y-30859933D01*
X5413329Y-30842284D01*
X5207000Y-30965626D01*
X5207000Y-32258000D01*
X5227000Y-32258000D01*
X5227000Y-32512000D01*
X5207000Y-32512000D01*
X5207000Y-33804374D01*
X5413329Y-33927716D01*
X5512612Y-33910067D01*
X5967628Y-33647455D01*
X5985099Y-33624693D01*
X5990790Y-33633210D01*
X6875466Y-34517886D01*
X6875382Y-34615365D01*
X6978839Y-34865752D01*
X7170241Y-35057487D01*
X7420446Y-35161382D01*
X7691365Y-35161618D01*
X7941752Y-35058161D01*
X8133487Y-34866759D01*
X8237382Y-34616554D01*
X8237618Y-34345635D01*
X8134161Y-34095248D01*
X7942759Y-33903513D01*
X7692554Y-33799618D01*
X7593952Y-33799532D01*
X7515761Y-33721341D01*
X7620000Y-33742076D01*
X8033681Y-33659790D01*
X8382000Y-33427049D01*
X8382000Y-33580873D01*
X8313013Y-33649741D01*
X8209118Y-33899946D01*
X8208882Y-34170865D01*
X8312339Y-34421252D01*
X8503741Y-34612987D01*
X8753946Y-34716882D01*
X9024865Y-34717118D01*
X9275252Y-34613661D01*
X9466987Y-34422259D01*
X9570882Y-34172054D01*
X9571118Y-33901135D01*
X9467661Y-33650748D01*
X9398000Y-33580965D01*
X9398000Y-33427049D01*
X9746319Y-33659790D01*
X10160000Y-33742076D01*
X10573681Y-33659790D01*
X10924382Y-33425458D01*
X11158714Y-33074757D01*
X11241000Y-32661076D01*
X11241000Y-32108924D01*
X11158714Y-31695243D01*
X10924382Y-31344542D01*
X10573681Y-31110210D01*
X10160000Y-31027924D01*
X9746319Y-31110210D01*
X9395618Y-31344542D01*
X9383971Y-31361972D01*
X9359331Y-31238097D01*
X9359331Y-31238096D01*
X9249210Y-31073290D01*
X8550710Y-30374790D01*
X8385903Y-30264669D01*
X8191500Y-30226000D01*
X7639922Y-30226000D01*
X7366002Y-29952080D01*
X7366002Y-29869346D01*
X7532781Y-30036417D01*
X7836077Y-30162357D01*
X8150629Y-30162630D01*
X8187596Y-30187331D01*
X8187597Y-30187331D01*
X8219849Y-30193746D01*
X8382000Y-30226000D01*
X22161500Y-30226000D01*
X22268579Y-30226000D01*
X23122771Y-31080192D01*
X22860000Y-31027924D01*
X22446319Y-31110210D01*
X22095618Y-31344542D01*
X21861286Y-31695243D01*
X21779000Y-32108924D01*
X21779000Y-32661076D01*
X21861286Y-33074757D01*
X22095618Y-33425458D01*
X22446319Y-33659790D01*
X22860000Y-33742076D01*
X23273681Y-33659790D01*
X23622000Y-33427049D01*
X23622000Y-35090865D01*
X23621083Y-35091781D01*
X23495143Y-35395077D01*
X23494857Y-35723482D01*
X23620267Y-36026998D01*
X23852281Y-36259417D01*
X24155577Y-36385357D01*
X24483982Y-36385643D01*
X24787498Y-36260233D01*
X25019917Y-36028219D01*
X25145857Y-35724923D01*
X25146143Y-35396518D01*
X25020733Y-35093002D01*
X24788719Y-34860583D01*
X24638000Y-34797998D01*
X24638000Y-33427049D01*
X24892000Y-33596767D01*
X24892000Y-33655000D01*
X24930669Y-33849403D01*
X25040790Y-34014210D01*
X25929792Y-34903212D01*
X26094599Y-35013333D01*
X26289002Y-35052002D01*
X34801733Y-35052002D01*
X35668948Y-35919217D01*
X35833755Y-36029337D01*
X36028158Y-36068006D01*
X46906585Y-36068006D01*
X47625000Y-36786420D01*
X47625000Y-38075697D01*
X47433583Y-38266781D01*
X47307643Y-38570077D01*
X47307357Y-38898482D01*
X47432767Y-39201998D01*
X47664781Y-39434417D01*
X47968077Y-39560357D01*
X48296482Y-39560643D01*
X48599998Y-39435233D01*
X48832417Y-39203219D01*
X48958357Y-38899923D01*
X48958643Y-38571518D01*
X48833233Y-38268002D01*
X48641000Y-38075433D01*
X48641000Y-36576000D01*
X48602331Y-36381597D01*
X48602330Y-36381596D01*
X48565790Y-36326910D01*
X48492210Y-36216790D01*
X48492210Y-36216789D01*
X47835424Y-35560004D01*
X48684579Y-35560004D01*
X49212592Y-36088017D01*
X49212357Y-36358482D01*
X49337767Y-36661998D01*
X49569781Y-36894417D01*
X49873077Y-37020357D01*
X50201482Y-37020643D01*
X50504998Y-36895233D01*
X50737417Y-36663219D01*
X50863357Y-36359923D01*
X50863643Y-36031518D01*
X50738233Y-35728002D01*
X50506219Y-35495583D01*
X50202923Y-35369643D01*
X49930822Y-35369406D01*
X49613418Y-35052002D01*
X50462582Y-35052002D01*
X50927000Y-35516420D01*
X50927000Y-36805697D01*
X50735583Y-36996781D01*
X50609643Y-37300077D01*
X50609357Y-37628482D01*
X50734767Y-37931998D01*
X50966781Y-38164417D01*
X51270077Y-38290357D01*
X51598482Y-38290643D01*
X51901998Y-38165233D01*
X52134417Y-37933219D01*
X52260357Y-37629923D01*
X52260643Y-37301518D01*
X52135233Y-36998002D01*
X51943000Y-36805433D01*
X51943000Y-35306000D01*
X51904331Y-35111597D01*
X51794210Y-34946790D01*
X51391420Y-34544000D01*
X51859580Y-34544000D01*
X52324000Y-35008420D01*
X52324000Y-39243000D01*
X52362669Y-39437403D01*
X52472790Y-39602210D01*
X53234790Y-40364210D01*
X53399597Y-40474331D01*
X53549668Y-40504181D01*
X53804166Y-40885065D01*
X54207943Y-41154860D01*
X54684231Y-41249600D01*
X55043769Y-41249600D01*
X55520057Y-41154860D01*
X55923834Y-40885065D01*
X56193629Y-40481288D01*
X56288369Y-40005000D01*
X56193629Y-39528712D01*
X55923834Y-39124935D01*
X55520057Y-38855140D01*
X55043769Y-38760400D01*
X54684231Y-38760400D01*
X54207943Y-38855140D01*
X53804166Y-39124935D01*
X53655239Y-39347819D01*
X53340000Y-39032580D01*
X53340000Y-35467339D01*
X53513268Y-35827036D01*
X53949680Y-36216954D01*
X54222242Y-36312295D01*
X54207943Y-36315140D01*
X53804166Y-36584935D01*
X53534371Y-36988712D01*
X53439631Y-37465000D01*
X53534371Y-37941288D01*
X53804166Y-38345065D01*
X54207943Y-38614860D01*
X54684231Y-38709600D01*
X55043769Y-38709600D01*
X55520057Y-38614860D01*
X55923834Y-38345065D01*
X56193629Y-37941288D01*
X56288369Y-37465000D01*
X56193629Y-36988712D01*
X55923834Y-36584935D01*
X55520057Y-36315140D01*
X55505757Y-36312295D01*
X55778320Y-36216954D01*
X56214732Y-35827036D01*
X56468709Y-35299791D01*
X56471358Y-35284026D01*
X56471358Y-34565974D01*
X56468709Y-34550209D01*
X56214732Y-34022964D01*
X55778320Y-33633046D01*
X55225913Y-33439816D01*
X54991000Y-33584076D01*
X54991000Y-34798000D01*
X56350217Y-34798000D01*
X56471358Y-34565974D01*
X56471358Y-35284026D01*
X56350217Y-35052000D01*
X54991000Y-35052000D01*
X54991000Y-35072000D01*
X54737000Y-35072000D01*
X54737000Y-35052000D01*
X54717000Y-35052000D01*
X54717000Y-34798000D01*
X54737000Y-34798000D01*
X54737000Y-33584076D01*
X54502087Y-33439816D01*
X53949680Y-33633046D01*
X53513268Y-34022964D01*
X53261958Y-34544671D01*
X53191210Y-34438790D01*
X52429210Y-33676790D01*
X52264403Y-33566669D01*
X52070000Y-33528000D01*
X51410917Y-33528000D01*
X51564382Y-33425458D01*
X51798714Y-33074757D01*
X51881000Y-32661076D01*
X51881000Y-32108924D01*
X51798714Y-31695243D01*
X51564382Y-31344542D01*
X51213681Y-31110210D01*
X50800000Y-31027924D01*
X50386319Y-31110210D01*
X50035618Y-31344542D01*
X49801286Y-31695243D01*
X49719000Y-32108924D01*
X49719000Y-32661076D01*
X49801286Y-33074757D01*
X50035618Y-33425458D01*
X50189082Y-33528000D01*
X48870917Y-33528000D01*
X49024382Y-33425458D01*
X49258714Y-33074757D01*
X49341000Y-32661076D01*
X49341000Y-32108924D01*
X49258714Y-31695243D01*
X49024382Y-31344542D01*
X48673681Y-31110210D01*
X48260000Y-31027924D01*
X47846319Y-31110210D01*
X47495618Y-31344542D01*
X47261286Y-31695243D01*
X47179000Y-32108924D01*
X47179000Y-32661076D01*
X47261286Y-33074757D01*
X47495618Y-33425458D01*
X47649082Y-33528000D01*
X46330917Y-33528000D01*
X46484382Y-33425458D01*
X46718714Y-33074757D01*
X46801000Y-32661076D01*
X46801000Y-32108924D01*
X46718714Y-31695243D01*
X46484382Y-31344542D01*
X46133681Y-31110210D01*
X45720000Y-31027924D01*
X45306319Y-31110210D01*
X44955618Y-31344542D01*
X44721286Y-31695243D01*
X44639000Y-32108924D01*
X44639000Y-32661076D01*
X44721286Y-33074757D01*
X44955618Y-33425458D01*
X45109082Y-33528000D01*
X43790917Y-33528000D01*
X43944382Y-33425458D01*
X44178714Y-33074757D01*
X44261000Y-32661076D01*
X44261000Y-32108924D01*
X44178714Y-31695243D01*
X43944382Y-31344542D01*
X43593681Y-31110210D01*
X43180000Y-31027924D01*
X42766319Y-31110210D01*
X42415618Y-31344542D01*
X42181286Y-31695243D01*
X42099000Y-32108924D01*
X42099000Y-32661076D01*
X42181286Y-33074757D01*
X42415618Y-33425458D01*
X42569082Y-33528000D01*
X41250917Y-33528000D01*
X41404382Y-33425458D01*
X41638714Y-33074757D01*
X41721000Y-32661076D01*
X41721000Y-32108924D01*
X41638714Y-31695243D01*
X41404382Y-31344542D01*
X41053681Y-31110210D01*
X40640000Y-31027924D01*
X40226319Y-31110210D01*
X39875618Y-31344542D01*
X39641286Y-31695243D01*
X39559000Y-32108924D01*
X39559000Y-32661076D01*
X39641286Y-33074757D01*
X39875618Y-33425458D01*
X40029082Y-33528000D01*
X38710917Y-33528000D01*
X38864382Y-33425458D01*
X39098714Y-33074757D01*
X39181000Y-32661076D01*
X39181000Y-32108924D01*
X39098714Y-31695243D01*
X38864382Y-31344542D01*
X38513681Y-31110210D01*
X38100000Y-31027924D01*
X37686319Y-31110210D01*
X37335618Y-31344542D01*
X37101286Y-31695243D01*
X37019000Y-32108924D01*
X37019000Y-32661076D01*
X37101286Y-33074757D01*
X37335618Y-33425458D01*
X37592000Y-33596767D01*
X37592000Y-33655000D01*
X37630669Y-33849403D01*
X37740790Y-34014210D01*
X37762581Y-34036002D01*
X36659422Y-34036002D01*
X36159229Y-33535809D01*
X36324382Y-33425458D01*
X36558714Y-33074757D01*
X36641000Y-32661076D01*
X36641000Y-32108924D01*
X36558714Y-31695243D01*
X36324382Y-31344542D01*
X35973681Y-31110210D01*
X35560000Y-31027924D01*
X35146319Y-31110210D01*
X34795618Y-31344542D01*
X34561286Y-31695243D01*
X34479000Y-32108924D01*
X34479000Y-32661076D01*
X34561286Y-33074757D01*
X34795618Y-33425458D01*
X34949082Y-33528000D01*
X33630917Y-33528000D01*
X33784382Y-33425458D01*
X34018714Y-33074757D01*
X34101000Y-32661076D01*
X34101000Y-32108924D01*
X34018714Y-31695243D01*
X33784382Y-31344542D01*
X33433681Y-31110210D01*
X33020000Y-31027924D01*
X32606319Y-31110210D01*
X32255618Y-31344542D01*
X32021286Y-31695243D01*
X31939000Y-32108924D01*
X31939000Y-32661076D01*
X32021286Y-33074757D01*
X32255618Y-33425458D01*
X32409082Y-33528000D01*
X31090917Y-33528000D01*
X31244382Y-33425458D01*
X31478714Y-33074757D01*
X31561000Y-32661076D01*
X31561000Y-32108924D01*
X31478714Y-31695243D01*
X31244382Y-31344542D01*
X30893681Y-31110210D01*
X30480000Y-31027924D01*
X30066319Y-31110210D01*
X29715618Y-31344542D01*
X29481286Y-31695243D01*
X29399000Y-32108924D01*
X29399000Y-32661076D01*
X29481286Y-33074757D01*
X29715618Y-33425458D01*
X29869082Y-33528000D01*
X28550917Y-33528000D01*
X28704382Y-33425458D01*
X28938714Y-33074757D01*
X29021000Y-32661076D01*
X29021000Y-32108924D01*
X28938714Y-31695243D01*
X28704382Y-31344542D01*
X28353681Y-31110210D01*
X27940000Y-31027924D01*
X27526319Y-31110210D01*
X27175618Y-31344542D01*
X26941286Y-31695243D01*
X26859000Y-32108924D01*
X26859000Y-32661076D01*
X26941286Y-33074757D01*
X27175618Y-33425458D01*
X27432000Y-33596767D01*
X27432000Y-33655000D01*
X27470669Y-33849403D01*
X27580790Y-34014210D01*
X27602581Y-34036002D01*
X26499422Y-34036002D01*
X25999229Y-33535809D01*
X26164382Y-33425458D01*
X26398714Y-33074757D01*
X26481000Y-32661076D01*
X26481000Y-32108924D01*
X26398714Y-31695243D01*
X26164382Y-31344542D01*
X25813681Y-31110210D01*
X25400000Y-31027924D01*
X24986319Y-31110210D01*
X24635618Y-31344542D01*
X24633704Y-31347405D01*
X24599331Y-31174597D01*
X24489211Y-31009790D01*
X22838210Y-29358790D01*
X22673403Y-29248669D01*
X22479000Y-29210000D01*
X22161500Y-29210000D01*
X8826611Y-29210000D01*
X8826643Y-29173518D01*
X8701233Y-28870002D01*
X8469219Y-28637583D01*
X8165923Y-28511643D01*
X7837518Y-28511357D01*
X7534002Y-28636767D01*
X7366002Y-28804474D01*
X7366002Y-28467920D01*
X7589122Y-28244800D01*
X12676673Y-28244800D01*
X12745541Y-28313787D01*
X12995746Y-28417682D01*
X13266665Y-28417918D01*
X13517052Y-28314461D01*
X13586834Y-28244800D01*
X37677893Y-28244800D01*
X37746761Y-28313787D01*
X37996966Y-28417682D01*
X38267885Y-28417918D01*
X38518272Y-28314461D01*
X38588054Y-28244800D01*
X62663873Y-28244800D01*
X62732741Y-28313787D01*
X62982946Y-28417682D01*
X63253865Y-28417918D01*
X63504252Y-28314461D01*
X63574034Y-28244800D01*
X87682873Y-28244800D01*
X87751741Y-28313787D01*
X88001946Y-28417682D01*
X88272865Y-28417918D01*
X88523252Y-28314461D01*
X88593034Y-28244800D01*
X112676473Y-28244800D01*
X112745341Y-28313787D01*
X112995546Y-28417682D01*
X113266465Y-28417918D01*
X113516852Y-28314461D01*
X113586634Y-28244800D01*
X137670073Y-28244800D01*
X137738941Y-28313787D01*
X137989146Y-28417682D01*
X138260065Y-28417918D01*
X138510452Y-28314461D01*
X138702187Y-28123059D01*
X138806082Y-27872854D01*
X138806318Y-27601935D01*
X138702861Y-27351548D01*
X138511459Y-27159813D01*
X138261254Y-27055918D01*
X137990335Y-27055682D01*
X137739948Y-27159139D01*
X137670165Y-27228800D01*
X136238200Y-27228800D01*
X136266082Y-27161654D01*
X136266318Y-26890735D01*
X136162861Y-26640348D01*
X135971459Y-26448613D01*
X135721254Y-26344718D01*
X135450335Y-26344482D01*
X135199948Y-26447939D01*
X135130165Y-26517600D01*
X134968200Y-26517600D01*
X134996082Y-26450454D01*
X134996318Y-26179535D01*
X134968082Y-26111200D01*
X136400073Y-26111200D01*
X136468941Y-26180187D01*
X136719146Y-26284082D01*
X136990065Y-26284318D01*
X137240452Y-26180861D01*
X137432187Y-25989459D01*
X137536082Y-25739254D01*
X137536318Y-25468335D01*
X137508082Y-25400000D01*
X143881974Y-25400000D01*
X146676776Y-28194802D01*
X146676776Y-38633305D01*
X146581954Y-38672484D01*
X146581954Y-36510279D01*
X146350428Y-35949942D01*
X145922094Y-35520860D01*
X145362162Y-35288356D01*
X144755878Y-35287827D01*
X144195541Y-35519353D01*
X143766459Y-35947687D01*
X143533955Y-36507619D01*
X143533426Y-37113903D01*
X143764952Y-37674240D01*
X144193286Y-38103322D01*
X144753218Y-38335826D01*
X145359502Y-38336355D01*
X145919839Y-38104829D01*
X146348921Y-37676495D01*
X146581425Y-37116563D01*
X146581954Y-36510279D01*
X146581954Y-38672484D01*
X146449627Y-38727161D01*
X146020545Y-39155495D01*
X145788041Y-39715427D01*
X145787512Y-40321711D01*
X146019038Y-40882048D01*
X146447372Y-41311130D01*
X147007304Y-41543634D01*
X147613588Y-41544163D01*
X148173925Y-41312637D01*
X148603007Y-40884303D01*
X148835511Y-40324371D01*
X148836040Y-39718087D01*
X148836040Y-49569000D01*
X145407040Y-49569000D01*
X145407040Y-45657289D01*
X145175514Y-45096952D01*
X144747180Y-44667870D01*
X144329438Y-44494408D01*
X144329438Y-41148777D01*
X144143565Y-40907328D01*
X144118071Y-40914159D01*
X144118071Y-40359946D01*
X143670374Y-39812327D01*
X143047191Y-39477719D01*
X142454967Y-39399752D01*
X142213518Y-39585625D01*
X142607493Y-41055957D01*
X144077825Y-40661983D01*
X144118071Y-40359946D01*
X144118071Y-40914159D01*
X142673233Y-41301303D01*
X143067207Y-42771635D01*
X143369244Y-42811881D01*
X143916863Y-42364184D01*
X144251471Y-41741001D01*
X144329438Y-41148777D01*
X144329438Y-44494408D01*
X144187248Y-44435366D01*
X143580964Y-44434837D01*
X143020627Y-44666363D01*
X142821862Y-44864781D01*
X142821862Y-42837375D01*
X142503549Y-41649416D01*
X142503549Y-41017751D01*
X142272343Y-40786545D01*
X141968173Y-39651365D01*
X141666136Y-39611119D01*
X141412648Y-39818353D01*
X141412648Y-33525779D01*
X141181122Y-32965442D01*
X140752788Y-32536360D01*
X140192856Y-32303856D01*
X139586572Y-32303327D01*
X139026235Y-32534853D01*
X138597153Y-32963187D01*
X138364649Y-33523119D01*
X138364120Y-34129403D01*
X138595646Y-34689740D01*
X139023980Y-35118822D01*
X139583912Y-35351326D01*
X140190196Y-35351855D01*
X140750533Y-35120329D01*
X141179615Y-34691995D01*
X141412119Y-34132063D01*
X141412648Y-33525779D01*
X141412648Y-39818353D01*
X141352953Y-39867155D01*
X141327387Y-39841589D01*
X141303003Y-39865972D01*
X141359837Y-39434277D01*
X141173964Y-39192828D01*
X141148470Y-39199659D01*
X141148470Y-38645446D01*
X140700773Y-38097827D01*
X140077590Y-37763219D01*
X139634571Y-37704895D01*
X139634571Y-35923497D01*
X139470573Y-35526592D01*
X139167170Y-35222659D01*
X138770552Y-35057968D01*
X138341100Y-35057594D01*
X137944195Y-35221592D01*
X137640262Y-35524995D01*
X137475571Y-35921613D01*
X137475197Y-36351065D01*
X137639195Y-36747970D01*
X137942598Y-37051903D01*
X138339216Y-37216594D01*
X138768668Y-37216968D01*
X139165573Y-37052970D01*
X139469506Y-36749567D01*
X139634197Y-36352949D01*
X139634571Y-35923497D01*
X139634571Y-37704895D01*
X139485366Y-37685252D01*
X139243917Y-37871125D01*
X139637892Y-39341457D01*
X141108224Y-38947483D01*
X141148470Y-38645446D01*
X141148470Y-39199659D01*
X139793436Y-39562739D01*
X139741838Y-39511141D01*
X139562230Y-39690749D01*
X139793435Y-39921954D01*
X140097606Y-41057135D01*
X140399643Y-41097381D01*
X140712824Y-40841343D01*
X140738392Y-40866911D01*
X140762774Y-40842528D01*
X140705942Y-41274223D01*
X140891815Y-41515672D01*
X142272342Y-41145760D01*
X142323941Y-41197359D01*
X142362147Y-41159153D01*
X142503549Y-41017751D01*
X142503549Y-41649416D01*
X142427887Y-41367043D01*
X142362147Y-41384657D01*
X140957555Y-41761017D01*
X140917309Y-42063054D01*
X141365006Y-42610673D01*
X141988189Y-42945281D01*
X142580413Y-43023248D01*
X142821862Y-42837375D01*
X142821862Y-44864781D01*
X142591545Y-45094697D01*
X142359041Y-45654629D01*
X142358512Y-46260913D01*
X142590038Y-46821250D01*
X143018372Y-47250332D01*
X143578304Y-47482836D01*
X144184588Y-47483365D01*
X144744925Y-47251839D01*
X145174007Y-46823505D01*
X145406511Y-46263573D01*
X145407040Y-45657289D01*
X145407040Y-49569000D01*
X141501954Y-49569000D01*
X141501954Y-45309097D01*
X141270428Y-44748760D01*
X140842094Y-44319678D01*
X140282162Y-44087174D01*
X139852261Y-44086798D01*
X139852261Y-41122875D01*
X139458286Y-39652543D01*
X139392546Y-39670157D01*
X139392546Y-39407197D01*
X138998572Y-37936865D01*
X138696535Y-37896619D01*
X138148916Y-38344316D01*
X137814308Y-38967499D01*
X137736341Y-39559723D01*
X137922214Y-39801172D01*
X139392546Y-39407197D01*
X139392546Y-39670157D01*
X137987954Y-40046517D01*
X137947708Y-40348554D01*
X138395405Y-40896173D01*
X139018588Y-41230781D01*
X139610812Y-41308748D01*
X139852261Y-41122875D01*
X139852261Y-44086798D01*
X139675878Y-44086645D01*
X139115541Y-44318171D01*
X138686459Y-44746505D01*
X138453955Y-45306437D01*
X138453426Y-45912721D01*
X138684952Y-46473058D01*
X139113286Y-46902140D01*
X139673218Y-47134644D01*
X140279502Y-47135173D01*
X140839839Y-46903647D01*
X141268921Y-46475313D01*
X141501425Y-45915381D01*
X141501954Y-45309097D01*
X141501954Y-49569000D01*
X137221571Y-49569000D01*
X137221571Y-40102935D01*
X137057573Y-39706030D01*
X136754170Y-39402097D01*
X136357552Y-39237406D01*
X135928100Y-39237032D01*
X135531195Y-39401030D01*
X135227262Y-39704433D01*
X135062571Y-40101051D01*
X135062197Y-40530503D01*
X135226195Y-40927408D01*
X135529598Y-41231341D01*
X135926216Y-41396032D01*
X136355668Y-41396406D01*
X136752573Y-41232408D01*
X137056506Y-40929005D01*
X137221197Y-40532387D01*
X137221571Y-40102935D01*
X137221571Y-49569000D01*
X136332648Y-49569000D01*
X136332648Y-42324597D01*
X136101122Y-41764260D01*
X135672788Y-41335178D01*
X135112856Y-41102674D01*
X134506572Y-41102145D01*
X133946235Y-41333671D01*
X133517153Y-41762005D01*
X133284649Y-42321937D01*
X133284120Y-42928221D01*
X133515646Y-43488558D01*
X133943980Y-43917640D01*
X134503912Y-44150144D01*
X135110196Y-44150673D01*
X135670533Y-43919147D01*
X136099615Y-43490813D01*
X136332119Y-42930881D01*
X136332648Y-42324597D01*
X136332648Y-49569000D01*
X134167795Y-49569000D01*
X134167795Y-44562022D01*
X134128565Y-44415616D01*
X134036294Y-44295366D01*
X133905029Y-44219581D01*
X129962021Y-41943084D01*
X130292542Y-41943373D01*
X131315156Y-41520837D01*
X132098231Y-40739128D01*
X132522550Y-39717253D01*
X132523516Y-38610783D01*
X132100980Y-37588169D01*
X131319271Y-36805094D01*
X130297396Y-36380775D01*
X129190926Y-36379809D01*
X128168312Y-36802345D01*
X127385237Y-37584054D01*
X126960918Y-38605929D01*
X126959952Y-39712399D01*
X127070301Y-39979465D01*
X126211565Y-39485709D01*
X125025086Y-39329506D01*
X124585487Y-39551812D01*
X125287739Y-42172652D01*
X125236141Y-42224251D01*
X125415749Y-42403859D01*
X125646954Y-42172653D01*
X128022448Y-41536142D01*
X128013049Y-41366676D01*
X128164197Y-41518088D01*
X129186072Y-41942407D01*
X129323999Y-41942527D01*
X129254872Y-42062262D01*
X128310494Y-43697972D01*
X128310494Y-42221086D01*
X128088188Y-41781487D01*
X125377543Y-42507803D01*
X126103858Y-45218448D01*
X126595715Y-45191171D01*
X127552394Y-44454378D01*
X128154291Y-43407565D01*
X128310494Y-42221086D01*
X128310494Y-43697972D01*
X126854572Y-46219703D01*
X126834787Y-46369978D01*
X126874017Y-46516384D01*
X126966288Y-46636634D01*
X127097553Y-46712419D01*
X131254994Y-49112719D01*
X131405269Y-49132504D01*
X131551675Y-49093274D01*
X131671925Y-49001003D01*
X131747710Y-48869738D01*
X134148010Y-44712297D01*
X134167795Y-44562022D01*
X134167795Y-49569000D01*
X125858513Y-49569000D01*
X125858513Y-45284188D01*
X125132197Y-42573543D01*
X125066457Y-42591157D01*
X125066457Y-42328197D01*
X124340142Y-39617552D01*
X123848285Y-39644829D01*
X122891606Y-40381622D01*
X122289709Y-41428435D01*
X122133506Y-42614914D01*
X122355812Y-43054513D01*
X125066457Y-42328197D01*
X125066457Y-42591157D01*
X122421552Y-43299858D01*
X122448829Y-43791715D01*
X123185622Y-44748394D01*
X124232435Y-45350291D01*
X125418914Y-45506494D01*
X125858513Y-45284188D01*
X125858513Y-49569000D01*
X120137622Y-49569000D01*
X120137622Y-43614922D01*
X120137622Y-37518922D01*
X120108083Y-37008572D01*
X119969611Y-36674271D01*
X119739016Y-36618590D01*
X119559410Y-36798195D01*
X119559410Y-36438984D01*
X119503729Y-36208389D01*
X119236729Y-36115476D01*
X119236729Y-32873608D01*
X119027005Y-32366037D01*
X118639006Y-31977360D01*
X118131801Y-31766751D01*
X117582608Y-31766271D01*
X117075037Y-31975995D01*
X116686360Y-32363994D01*
X116475751Y-32871199D01*
X116475271Y-33420392D01*
X116684995Y-33927963D01*
X117072994Y-34316640D01*
X117580199Y-34527249D01*
X118129392Y-34527729D01*
X118636963Y-34318005D01*
X119025640Y-33930006D01*
X119236249Y-33422801D01*
X119236729Y-32873608D01*
X119236729Y-36115476D01*
X119020922Y-36040378D01*
X118510572Y-36069917D01*
X118176271Y-36208389D01*
X118120590Y-36438984D01*
X118840000Y-37158395D01*
X119559410Y-36438984D01*
X119559410Y-36798195D01*
X119019605Y-37338000D01*
X119739016Y-38057410D01*
X119969611Y-38001729D01*
X120137622Y-37518922D01*
X120137622Y-43614922D01*
X120108083Y-43104572D01*
X119969611Y-42770271D01*
X119739016Y-42714590D01*
X119559410Y-42894195D01*
X119559410Y-42534984D01*
X119559410Y-38237016D01*
X118840000Y-37517605D01*
X118660395Y-37697210D01*
X118660395Y-37338000D01*
X117940984Y-36618590D01*
X117871000Y-36635488D01*
X117871000Y-36612214D01*
X117812996Y-36472180D01*
X117705819Y-36365004D01*
X117565785Y-36307000D01*
X117414214Y-36307000D01*
X116114214Y-36307000D01*
X115974180Y-36365004D01*
X115867004Y-36472181D01*
X115809000Y-36612215D01*
X115809000Y-36763786D01*
X115809000Y-38063786D01*
X115867004Y-38203820D01*
X115974181Y-38310996D01*
X116114215Y-38369000D01*
X116265786Y-38369000D01*
X117565786Y-38369000D01*
X117705820Y-38310996D01*
X117812996Y-38203819D01*
X117871000Y-38063785D01*
X117871000Y-38040511D01*
X117940984Y-38057410D01*
X118660395Y-37338000D01*
X118660395Y-37697210D01*
X118120590Y-38237016D01*
X118176271Y-38467611D01*
X118659078Y-38635622D01*
X119169428Y-38606083D01*
X119503729Y-38467611D01*
X119559410Y-38237016D01*
X119559410Y-42534984D01*
X119503729Y-42304389D01*
X119020922Y-42136378D01*
X118510572Y-42165917D01*
X118176271Y-42304389D01*
X118120590Y-42534984D01*
X118840000Y-43254395D01*
X119559410Y-42534984D01*
X119559410Y-42894195D01*
X119019605Y-43434000D01*
X119739016Y-44153410D01*
X119969611Y-44097729D01*
X120137622Y-43614922D01*
X120137622Y-49569000D01*
X119559410Y-49569000D01*
X119559410Y-44333016D01*
X118840000Y-43613605D01*
X118660395Y-43793210D01*
X118660395Y-43434000D01*
X117940984Y-42714590D01*
X117871000Y-42731488D01*
X117871000Y-42708214D01*
X117812996Y-42568180D01*
X117705819Y-42461004D01*
X117565785Y-42403000D01*
X117414214Y-42403000D01*
X116114214Y-42403000D01*
X115974180Y-42461004D01*
X115867004Y-42568181D01*
X115809000Y-42708215D01*
X115809000Y-42859786D01*
X115809000Y-44159786D01*
X115867004Y-44299820D01*
X115974181Y-44406996D01*
X116114215Y-44465000D01*
X116265786Y-44465000D01*
X117565786Y-44465000D01*
X117705820Y-44406996D01*
X117812996Y-44299819D01*
X117871000Y-44159785D01*
X117871000Y-44136511D01*
X117940984Y-44153410D01*
X118660395Y-43434000D01*
X118660395Y-43793210D01*
X118120590Y-44333016D01*
X118176271Y-44563611D01*
X118659078Y-44731622D01*
X119169428Y-44702083D01*
X119503729Y-44563611D01*
X119559410Y-44333016D01*
X119559410Y-49569000D01*
X109076729Y-49569000D01*
X109076729Y-32873608D01*
X108867005Y-32366037D01*
X108479006Y-31977360D01*
X107971801Y-31766751D01*
X107422608Y-31766271D01*
X106915037Y-31975995D01*
X106526360Y-32363994D01*
X106315751Y-32871199D01*
X106315271Y-33420392D01*
X106524995Y-33927963D01*
X106912994Y-34316640D01*
X107420199Y-34527249D01*
X107969392Y-34527729D01*
X108476963Y-34318005D01*
X108865640Y-33930006D01*
X109076249Y-33422801D01*
X109076729Y-32873608D01*
X109076729Y-49569000D01*
X103441731Y-49569000D01*
X103441731Y-46979914D01*
X103441500Y-46979354D01*
X103441500Y-43192285D01*
X103441500Y-43040714D01*
X103441500Y-41135714D01*
X103383496Y-40995680D01*
X103276319Y-40888504D01*
X103136285Y-40830500D01*
X102984714Y-40830500D01*
X101079714Y-40830500D01*
X100939680Y-40888504D01*
X100832504Y-40995681D01*
X100774500Y-41135715D01*
X100774500Y-41287286D01*
X100774500Y-43192286D01*
X100832504Y-43332320D01*
X100939681Y-43439496D01*
X101079715Y-43497500D01*
X101231286Y-43497500D01*
X103136286Y-43497500D01*
X103276320Y-43439496D01*
X103383496Y-43332319D01*
X103441500Y-43192285D01*
X103441500Y-46979354D01*
X103239146Y-46489620D01*
X102864353Y-46114173D01*
X102374413Y-45910732D01*
X101843914Y-45910269D01*
X101353620Y-46112854D01*
X100978173Y-46487647D01*
X100774732Y-46977587D01*
X100774269Y-47508086D01*
X100976854Y-47998380D01*
X101351647Y-48373827D01*
X101841587Y-48577268D01*
X102372086Y-48577731D01*
X102862380Y-48375146D01*
X103237827Y-48000353D01*
X103441268Y-47510413D01*
X103441731Y-46979914D01*
X103441731Y-49569000D01*
X97297000Y-49569000D01*
X97297000Y-43397785D01*
X97297000Y-43246214D01*
X97297000Y-41946214D01*
X97297000Y-35777785D01*
X97297000Y-35626214D01*
X97297000Y-34326214D01*
X97238996Y-34186180D01*
X97131819Y-34079004D01*
X96991785Y-34021000D01*
X96840214Y-34021000D01*
X95540214Y-34021000D01*
X95400180Y-34079004D01*
X95293004Y-34186181D01*
X95235000Y-34326215D01*
X95235000Y-34349488D01*
X95165016Y-34332590D01*
X94985410Y-34512195D01*
X94985410Y-34152984D01*
X94929729Y-33922389D01*
X94446922Y-33754378D01*
X93936572Y-33783917D01*
X93602271Y-33922389D01*
X93546590Y-34152984D01*
X94266000Y-34872395D01*
X94985410Y-34152984D01*
X94985410Y-34512195D01*
X94445605Y-35052000D01*
X95165016Y-35771410D01*
X95235000Y-35754511D01*
X95235000Y-35777786D01*
X95293004Y-35917820D01*
X95400181Y-36024996D01*
X95540215Y-36083000D01*
X95691786Y-36083000D01*
X96991786Y-36083000D01*
X97131820Y-36024996D01*
X97238996Y-35917819D01*
X97297000Y-35777785D01*
X97297000Y-41946214D01*
X97238996Y-41806180D01*
X97131819Y-41699004D01*
X96991785Y-41641000D01*
X96840214Y-41641000D01*
X95540214Y-41641000D01*
X95400180Y-41699004D01*
X95293004Y-41806181D01*
X95235000Y-41946215D01*
X95235000Y-41969488D01*
X95165016Y-41952590D01*
X94985410Y-42132195D01*
X94985410Y-41772984D01*
X94985410Y-35951016D01*
X94266000Y-35231605D01*
X94086395Y-35411210D01*
X94086395Y-35052000D01*
X93366984Y-34332590D01*
X93136389Y-34388271D01*
X92968378Y-34871078D01*
X92997917Y-35381428D01*
X93136389Y-35715729D01*
X93366984Y-35771410D01*
X94086395Y-35052000D01*
X94086395Y-35411210D01*
X93546590Y-35951016D01*
X93602271Y-36181611D01*
X94085078Y-36349622D01*
X94595428Y-36320083D01*
X94929729Y-36181611D01*
X94985410Y-35951016D01*
X94985410Y-41772984D01*
X94929729Y-41542389D01*
X94446922Y-41374378D01*
X93936572Y-41403917D01*
X93602271Y-41542389D01*
X93546590Y-41772984D01*
X94266000Y-42492395D01*
X94985410Y-41772984D01*
X94985410Y-42132195D01*
X94445605Y-42672000D01*
X95165016Y-43391410D01*
X95235000Y-43374511D01*
X95235000Y-43397786D01*
X95293004Y-43537820D01*
X95400181Y-43644996D01*
X95540215Y-43703000D01*
X95691786Y-43703000D01*
X96991786Y-43703000D01*
X97131820Y-43644996D01*
X97238996Y-43537819D01*
X97297000Y-43397785D01*
X97297000Y-49569000D01*
X94985410Y-49569000D01*
X94985410Y-43571016D01*
X94266000Y-42851605D01*
X94086395Y-43031210D01*
X94086395Y-42672000D01*
X93366984Y-41952590D01*
X93136389Y-42008271D01*
X92968378Y-42491078D01*
X92997917Y-43001428D01*
X93136389Y-43335729D01*
X93366984Y-43391410D01*
X94086395Y-42672000D01*
X94086395Y-43031210D01*
X93546590Y-43571016D01*
X93602271Y-43801611D01*
X94085078Y-43969622D01*
X94595428Y-43940083D01*
X94929729Y-43801611D01*
X94985410Y-43571016D01*
X94985410Y-49569000D01*
X92577908Y-49569000D01*
X92577908Y-38628699D01*
X92553856Y-37978700D01*
X92351387Y-37489896D01*
X92084532Y-37391233D01*
X91904927Y-37570838D01*
X91904927Y-37211628D01*
X91806264Y-36944773D01*
X91196539Y-36718252D01*
X90546540Y-36742304D01*
X90057736Y-36944773D01*
X89959073Y-37211628D01*
X90932000Y-38184555D01*
X91904927Y-37211628D01*
X91904927Y-37570838D01*
X91111605Y-38364160D01*
X92084532Y-39337087D01*
X92351387Y-39238424D01*
X92577908Y-38628699D01*
X92577908Y-49569000D01*
X92313239Y-49569000D01*
X92313239Y-45690347D01*
X92103437Y-45182589D01*
X91904927Y-44983731D01*
X91904927Y-39516692D01*
X90932000Y-38543765D01*
X90752395Y-38723370D01*
X90752395Y-38364160D01*
X89779468Y-37391233D01*
X89512613Y-37489896D01*
X89286092Y-38099621D01*
X89310144Y-38749620D01*
X89512613Y-39238424D01*
X89779468Y-39337087D01*
X90752395Y-38364160D01*
X90752395Y-38723370D01*
X89959073Y-39516692D01*
X90057736Y-39783547D01*
X90667461Y-40010068D01*
X91317460Y-39986016D01*
X91806264Y-39783547D01*
X91904927Y-39516692D01*
X91904927Y-44983731D01*
X91715295Y-44793768D01*
X91376643Y-44653147D01*
X91376643Y-42381518D01*
X91251233Y-42078002D01*
X91019219Y-41845583D01*
X90715923Y-41719643D01*
X90387518Y-41719357D01*
X90084002Y-41844767D01*
X90018655Y-41910000D01*
X60281358Y-41910000D01*
X60281358Y-37824026D01*
X60281358Y-37105974D01*
X60278709Y-37090209D01*
X60024732Y-36562964D01*
X59588320Y-36173046D01*
X59315757Y-36077704D01*
X59330057Y-36074860D01*
X59733834Y-35805065D01*
X60003629Y-35401288D01*
X60098369Y-34925000D01*
X60003629Y-34448712D01*
X59733834Y-34044935D01*
X59330057Y-33775140D01*
X58853769Y-33680400D01*
X58494231Y-33680400D01*
X58017943Y-33775140D01*
X57614166Y-34044935D01*
X57344371Y-34448712D01*
X57249631Y-34925000D01*
X57344371Y-35401288D01*
X57614166Y-35805065D01*
X58017943Y-36074860D01*
X58032242Y-36077704D01*
X57759680Y-36173046D01*
X57323268Y-36562964D01*
X57069291Y-37090209D01*
X57066642Y-37105974D01*
X57187783Y-37338000D01*
X58547000Y-37338000D01*
X58547000Y-37318000D01*
X58801000Y-37318000D01*
X58801000Y-37338000D01*
X60160217Y-37338000D01*
X60281358Y-37105974D01*
X60281358Y-37824026D01*
X60160217Y-37592000D01*
X58801000Y-37592000D01*
X58801000Y-37612000D01*
X58547000Y-37612000D01*
X58547000Y-37592000D01*
X57187783Y-37592000D01*
X57066642Y-37824026D01*
X57069291Y-37839791D01*
X57323268Y-38367036D01*
X57759680Y-38756954D01*
X58032242Y-38852295D01*
X58017943Y-38855140D01*
X57614166Y-39124935D01*
X57344371Y-39528712D01*
X57249631Y-40005000D01*
X57344371Y-40481288D01*
X57614166Y-40885065D01*
X58017943Y-41154860D01*
X58494231Y-41249600D01*
X58853769Y-41249600D01*
X59330057Y-41154860D01*
X59733834Y-40885065D01*
X60003629Y-40481288D01*
X60098369Y-40005000D01*
X60003629Y-39528712D01*
X59733834Y-39124935D01*
X59330057Y-38855140D01*
X59315757Y-38852295D01*
X59588320Y-38756954D01*
X60024732Y-38367036D01*
X60278709Y-37839791D01*
X60281358Y-37824026D01*
X60281358Y-41910000D01*
X59897581Y-41910000D01*
X59733834Y-41664935D01*
X59330057Y-41395140D01*
X58853769Y-41300400D01*
X58494231Y-41300400D01*
X58017943Y-41395140D01*
X57614166Y-41664935D01*
X57344371Y-42068712D01*
X57249631Y-42545000D01*
X57344371Y-43021288D01*
X57614166Y-43425065D01*
X58017943Y-43694860D01*
X58494231Y-43789600D01*
X58853769Y-43789600D01*
X59330057Y-43694860D01*
X59733834Y-43425065D01*
X59897581Y-43180000D01*
X90018476Y-43180000D01*
X90082781Y-43244417D01*
X90386077Y-43370357D01*
X90714482Y-43370643D01*
X91017998Y-43245233D01*
X91250417Y-43013219D01*
X91376357Y-42709923D01*
X91376643Y-42381518D01*
X91376643Y-44653147D01*
X91207903Y-44583081D01*
X90658507Y-44582601D01*
X90150749Y-44792403D01*
X89761928Y-45180545D01*
X89551241Y-45687937D01*
X89550761Y-46237333D01*
X89760563Y-46745091D01*
X90148705Y-47133912D01*
X90656097Y-47344599D01*
X91205493Y-47345079D01*
X91713251Y-47135277D01*
X92102072Y-46747135D01*
X92312759Y-46239743D01*
X92313239Y-45690347D01*
X92313239Y-49569000D01*
X73990706Y-49569000D01*
X74338315Y-49221390D01*
X76932376Y-49221390D01*
X77072410Y-49163386D01*
X77179586Y-49056209D01*
X77237590Y-48916175D01*
X77237590Y-48764604D01*
X77237590Y-46166184D01*
X77179586Y-46026150D01*
X77072409Y-45918974D01*
X76932375Y-45860970D01*
X76780804Y-45860970D01*
X73181624Y-45860970D01*
X73041590Y-45918974D01*
X72934414Y-46026151D01*
X72876410Y-46166185D01*
X72876410Y-46317756D01*
X72876410Y-48641000D01*
X51580724Y-48641000D01*
X51798714Y-48314757D01*
X51881000Y-47901076D01*
X51881000Y-47348924D01*
X51798714Y-46935243D01*
X51564382Y-46584542D01*
X51213681Y-46350210D01*
X50800000Y-46267924D01*
X50386319Y-46350210D01*
X50035618Y-46584542D01*
X49801286Y-46935243D01*
X49719000Y-47348924D01*
X49719000Y-47901076D01*
X49801286Y-48314757D01*
X50019275Y-48641000D01*
X49040724Y-48641000D01*
X49258714Y-48314757D01*
X49341000Y-47901076D01*
X49341000Y-47348924D01*
X49258714Y-46935243D01*
X49024382Y-46584542D01*
X48673681Y-46350210D01*
X48260000Y-46267924D01*
X47846319Y-46350210D01*
X47495618Y-46584542D01*
X47261286Y-46935243D01*
X47179000Y-47348924D01*
X47179000Y-47901076D01*
X47261286Y-48314757D01*
X47479275Y-48641000D01*
X46500724Y-48641000D01*
X46718714Y-48314757D01*
X46801000Y-47901076D01*
X46801000Y-47348924D01*
X46718714Y-46935243D01*
X46484382Y-46584542D01*
X46133681Y-46350210D01*
X45720000Y-46267924D01*
X45306319Y-46350210D01*
X44955618Y-46584542D01*
X44721286Y-46935243D01*
X44639000Y-47348924D01*
X44639000Y-47901076D01*
X44721286Y-48314757D01*
X44939275Y-48641000D01*
X43960724Y-48641000D01*
X44178714Y-48314757D01*
X44261000Y-47901076D01*
X44261000Y-47348924D01*
X44178714Y-46935243D01*
X43944382Y-46584542D01*
X43593681Y-46350210D01*
X43180000Y-46267924D01*
X42766319Y-46350210D01*
X42415618Y-46584542D01*
X42181286Y-46935243D01*
X42099000Y-47348924D01*
X42099000Y-47901076D01*
X42181286Y-48314757D01*
X42399275Y-48641000D01*
X41420724Y-48641000D01*
X41638714Y-48314757D01*
X41721000Y-47901076D01*
X41721000Y-47348924D01*
X41638714Y-46935243D01*
X41404382Y-46584542D01*
X41148000Y-46413232D01*
X41148000Y-46184420D01*
X41485420Y-45847000D01*
X52748579Y-45847000D01*
X55139789Y-48238210D01*
X55139790Y-48238210D01*
X55249910Y-48311790D01*
X55304596Y-48348330D01*
X55304597Y-48348331D01*
X55499000Y-48387000D01*
X68707000Y-48387000D01*
X68901403Y-48348331D01*
X69066210Y-48238210D01*
X72219420Y-45085000D01*
X77386580Y-45085000D01*
X81428790Y-49127210D01*
X81593597Y-49237331D01*
X81788000Y-49276000D01*
X88900000Y-49276000D01*
X89094403Y-49237331D01*
X89259210Y-49127210D01*
X89395837Y-48990583D01*
X89624077Y-49085357D01*
X89952482Y-49085643D01*
X90255998Y-48960233D01*
X90488417Y-48728219D01*
X90614357Y-48424923D01*
X90614643Y-48096518D01*
X90489233Y-47793002D01*
X90257219Y-47560583D01*
X89953923Y-47434643D01*
X89625518Y-47434357D01*
X89322002Y-47559767D01*
X89089583Y-47791781D01*
X89041143Y-47908435D01*
X88689579Y-48260000D01*
X81998420Y-48260000D01*
X77956210Y-44217790D01*
X77791403Y-44107669D01*
X77597000Y-44069000D01*
X72009000Y-44069000D01*
X71814596Y-44107669D01*
X71649790Y-44217790D01*
X68496580Y-47371000D01*
X60071000Y-47371000D01*
X60071000Y-46024385D01*
X60071000Y-45872814D01*
X60071000Y-44145614D01*
X60012996Y-44005580D01*
X59905819Y-43898404D01*
X59765785Y-43840400D01*
X59614214Y-43840400D01*
X57582214Y-43840400D01*
X57442180Y-43898404D01*
X57335004Y-44005581D01*
X57277000Y-44145615D01*
X57277000Y-44297186D01*
X57277000Y-46024386D01*
X57335004Y-46164420D01*
X57442181Y-46271596D01*
X57582215Y-46329600D01*
X57733786Y-46329600D01*
X59765786Y-46329600D01*
X59905820Y-46271596D01*
X60012996Y-46164419D01*
X60071000Y-46024385D01*
X60071000Y-47371000D01*
X56261000Y-47371000D01*
X56261000Y-43484385D01*
X56261000Y-43332814D01*
X56261000Y-41605614D01*
X56202996Y-41465580D01*
X56095819Y-41358404D01*
X55955785Y-41300400D01*
X55804214Y-41300400D01*
X53772214Y-41300400D01*
X53632180Y-41358404D01*
X53525004Y-41465581D01*
X53467000Y-41605615D01*
X53467000Y-41757186D01*
X53467000Y-43484386D01*
X53525004Y-43624420D01*
X53632181Y-43731596D01*
X53772215Y-43789600D01*
X53923786Y-43789600D01*
X55955786Y-43789600D01*
X56095820Y-43731596D01*
X56202996Y-43624419D01*
X56261000Y-43484385D01*
X56261000Y-47371000D01*
X55709420Y-47371000D01*
X53318210Y-44979790D01*
X53153403Y-44869669D01*
X52959000Y-44831000D01*
X41275000Y-44831000D01*
X41080597Y-44869669D01*
X40915790Y-44979789D01*
X40280790Y-45614790D01*
X40170669Y-45779597D01*
X40132000Y-45974000D01*
X40132000Y-46413232D01*
X39875618Y-46584542D01*
X39641286Y-46935243D01*
X39559000Y-47348924D01*
X39559000Y-47901076D01*
X39641286Y-48314757D01*
X39859275Y-48641000D01*
X38880724Y-48641000D01*
X39098714Y-48314757D01*
X39181000Y-47901076D01*
X39181000Y-47348924D01*
X39098714Y-46935243D01*
X38864382Y-46584542D01*
X38513681Y-46350210D01*
X38100000Y-46267924D01*
X37686319Y-46350210D01*
X37335618Y-46584542D01*
X37101286Y-46935243D01*
X37019000Y-47348924D01*
X37019000Y-47901076D01*
X37101286Y-48314757D01*
X37319275Y-48641000D01*
X36340724Y-48641000D01*
X36558714Y-48314757D01*
X36641000Y-47901076D01*
X36641000Y-47348924D01*
X36558714Y-46935243D01*
X36324382Y-46584542D01*
X35973681Y-46350210D01*
X35560000Y-46267924D01*
X35146319Y-46350210D01*
X34795618Y-46584542D01*
X34561286Y-46935243D01*
X34479000Y-47348924D01*
X34479000Y-47901076D01*
X34561286Y-48314757D01*
X34779275Y-48641000D01*
X33800724Y-48641000D01*
X34018714Y-48314757D01*
X34101000Y-47901076D01*
X34101000Y-47348924D01*
X34018714Y-46935243D01*
X33784382Y-46584542D01*
X33433681Y-46350210D01*
X33020000Y-46267924D01*
X32606319Y-46350210D01*
X32255618Y-46584542D01*
X32021286Y-46935243D01*
X31939000Y-47348924D01*
X31939000Y-47901076D01*
X32021286Y-48314757D01*
X32239275Y-48641000D01*
X31260724Y-48641000D01*
X31478714Y-48314757D01*
X31561000Y-47901076D01*
X31561000Y-47348924D01*
X31478714Y-46935243D01*
X31244382Y-46584542D01*
X30893681Y-46350210D01*
X30480000Y-46267924D01*
X30066319Y-46350210D01*
X29715618Y-46584542D01*
X29481286Y-46935243D01*
X29399000Y-47348924D01*
X29399000Y-47901076D01*
X29481286Y-48314757D01*
X29699275Y-48641000D01*
X28720724Y-48641000D01*
X28938714Y-48314757D01*
X29021000Y-47901076D01*
X29021000Y-47348924D01*
X28938714Y-46935243D01*
X28704382Y-46584542D01*
X28353681Y-46350210D01*
X27940000Y-46267924D01*
X27526319Y-46350210D01*
X27175618Y-46584542D01*
X26941286Y-46935243D01*
X26859000Y-47348924D01*
X26859000Y-47901076D01*
X26941286Y-48314757D01*
X27159275Y-48641000D01*
X26180724Y-48641000D01*
X26398714Y-48314757D01*
X26481000Y-47901076D01*
X26481000Y-47348924D01*
X26398714Y-46935243D01*
X26164382Y-46584542D01*
X25813681Y-46350210D01*
X25400000Y-46267924D01*
X24986319Y-46350210D01*
X24635618Y-46584542D01*
X24401286Y-46935243D01*
X24319000Y-47348924D01*
X24319000Y-47901076D01*
X24401286Y-48314757D01*
X24619275Y-48641000D01*
X23640724Y-48641000D01*
X23858714Y-48314757D01*
X23941000Y-47901076D01*
X23941000Y-47348924D01*
X23858714Y-46935243D01*
X23624382Y-46584542D01*
X23273681Y-46350210D01*
X22860000Y-46267924D01*
X22446319Y-46350210D01*
X22095618Y-46584542D01*
X21861286Y-46935243D01*
X21779000Y-47348924D01*
X21779000Y-47901076D01*
X21861286Y-48314757D01*
X22079275Y-48641000D01*
X21100724Y-48641000D01*
X21318714Y-48314757D01*
X21401000Y-47901076D01*
X21401000Y-47348924D01*
X21318714Y-46935243D01*
X21084382Y-46584542D01*
X20733681Y-46350210D01*
X20320000Y-46267924D01*
X19906319Y-46350210D01*
X19555618Y-46584542D01*
X19321286Y-46935243D01*
X19239000Y-47348924D01*
X19239000Y-47901076D01*
X19321286Y-48314757D01*
X19539275Y-48641000D01*
X18560724Y-48641000D01*
X18778714Y-48314757D01*
X18861000Y-47901076D01*
X18861000Y-47348924D01*
X18778714Y-46935243D01*
X18544382Y-46584542D01*
X18531491Y-46575928D01*
X19260420Y-45847000D01*
X24155400Y-45847000D01*
X36678697Y-45847000D01*
X36869781Y-46038417D01*
X37173077Y-46164357D01*
X37501482Y-46164643D01*
X37804998Y-46039233D01*
X38037417Y-45807219D01*
X38163357Y-45503923D01*
X38163643Y-45175518D01*
X38038233Y-44872002D01*
X37806219Y-44639583D01*
X37655643Y-44577058D01*
X37655643Y-41695718D01*
X37530233Y-41392202D01*
X37298219Y-41159783D01*
X36994923Y-41033843D01*
X36666518Y-41033557D01*
X36363002Y-41158967D01*
X36170433Y-41351200D01*
X26059302Y-41351200D01*
X25868219Y-41159783D01*
X25564923Y-41033843D01*
X25236518Y-41033557D01*
X24933002Y-41158967D01*
X24700583Y-41390981D01*
X24574643Y-41694277D01*
X24574357Y-42022682D01*
X24699767Y-42326198D01*
X24931781Y-42558617D01*
X25235077Y-42684557D01*
X25563482Y-42684843D01*
X25866998Y-42559433D01*
X26059566Y-42367200D01*
X36170697Y-42367200D01*
X36361781Y-42558617D01*
X36665077Y-42684557D01*
X36993482Y-42684843D01*
X37296998Y-42559433D01*
X37529417Y-42327419D01*
X37655357Y-42024123D01*
X37655643Y-41695718D01*
X37655643Y-44577058D01*
X37502923Y-44513643D01*
X37174518Y-44513357D01*
X36871002Y-44638767D01*
X36678433Y-44831000D01*
X24155400Y-44831000D01*
X22923643Y-44831000D01*
X22923643Y-43118118D01*
X22798233Y-42814602D01*
X22566219Y-42582183D01*
X22262923Y-42456243D01*
X21934518Y-42455957D01*
X21631002Y-42581367D01*
X21438433Y-42773600D01*
X21401000Y-42773600D01*
X21401000Y-32661076D01*
X21401000Y-32108924D01*
X21318714Y-31695243D01*
X21084382Y-31344542D01*
X20733681Y-31110210D01*
X20320000Y-31027924D01*
X19906319Y-31110210D01*
X19555618Y-31344542D01*
X19321286Y-31695243D01*
X19239000Y-32108924D01*
X19239000Y-32661076D01*
X19321286Y-33074757D01*
X19555618Y-33425458D01*
X19906319Y-33659790D01*
X20320000Y-33742076D01*
X20733681Y-33659790D01*
X21084382Y-33425458D01*
X21318714Y-33074757D01*
X21401000Y-32661076D01*
X21401000Y-42773600D01*
X20523200Y-42773600D01*
X20328796Y-42812269D01*
X20163990Y-42922390D01*
X20109580Y-42976800D01*
X19607702Y-42976800D01*
X19416619Y-42785383D01*
X19113323Y-42659443D01*
X18861000Y-42659223D01*
X18861000Y-32661076D01*
X18861000Y-32108924D01*
X18778714Y-31695243D01*
X18544382Y-31344542D01*
X18193681Y-31110210D01*
X17780000Y-31027924D01*
X17366319Y-31110210D01*
X17015618Y-31344542D01*
X16781286Y-31695243D01*
X16699000Y-32108924D01*
X16699000Y-32661076D01*
X16781286Y-33074757D01*
X17015618Y-33425458D01*
X17366319Y-33659790D01*
X17780000Y-33742076D01*
X18193681Y-33659790D01*
X18544382Y-33425458D01*
X18778714Y-33074757D01*
X18861000Y-32661076D01*
X18861000Y-42659223D01*
X18784918Y-42659157D01*
X18481402Y-42784567D01*
X18248983Y-43016581D01*
X18123043Y-43319877D01*
X18122757Y-43648282D01*
X18248167Y-43951798D01*
X18480181Y-44184217D01*
X18783477Y-44310157D01*
X19111882Y-44310443D01*
X19415398Y-44185033D01*
X19607966Y-43992800D01*
X20320000Y-43992800D01*
X20514403Y-43954131D01*
X20679210Y-43844010D01*
X20733620Y-43789600D01*
X21438697Y-43789600D01*
X21629781Y-43981017D01*
X21933077Y-44106957D01*
X22261482Y-44107243D01*
X22564998Y-43981833D01*
X22797417Y-43749819D01*
X22923357Y-43446523D01*
X22923643Y-43118118D01*
X22923643Y-44831000D01*
X19050000Y-44831000D01*
X18887849Y-44863253D01*
X18855596Y-44869669D01*
X18690790Y-44979790D01*
X17420790Y-46249790D01*
X17343505Y-46365453D01*
X17335643Y-46370706D01*
X17335643Y-41187718D01*
X17210233Y-40884202D01*
X16978219Y-40651783D01*
X16674923Y-40525843D01*
X16346518Y-40525557D01*
X16321000Y-40536100D01*
X16321000Y-32661076D01*
X16321000Y-32108924D01*
X16238714Y-31695243D01*
X16004382Y-31344542D01*
X15653681Y-31110210D01*
X15240000Y-31027924D01*
X14826319Y-31110210D01*
X14475618Y-31344542D01*
X14241286Y-31695243D01*
X14159000Y-32108924D01*
X14159000Y-32661076D01*
X14241286Y-33074757D01*
X14475618Y-33425458D01*
X14826319Y-33659790D01*
X15240000Y-33742076D01*
X15653681Y-33659790D01*
X16004382Y-33425458D01*
X16238714Y-33074757D01*
X16321000Y-32661076D01*
X16321000Y-40536100D01*
X16043002Y-40650967D01*
X15850433Y-40843200D01*
X13781000Y-40843200D01*
X13781000Y-32661076D01*
X13781000Y-32108924D01*
X13698714Y-31695243D01*
X13464382Y-31344542D01*
X13113681Y-31110210D01*
X12700000Y-31027924D01*
X12286319Y-31110210D01*
X11935618Y-31344542D01*
X11701286Y-31695243D01*
X11619000Y-32108924D01*
X11619000Y-32661076D01*
X11701286Y-33074757D01*
X11935618Y-33425458D01*
X12286319Y-33659790D01*
X12700000Y-33742076D01*
X13113681Y-33659790D01*
X13464382Y-33425458D01*
X13698714Y-33074757D01*
X13781000Y-32661076D01*
X13781000Y-40843200D01*
X6908800Y-40843200D01*
X6714396Y-40881869D01*
X6549590Y-40991990D01*
X4953000Y-42588580D01*
X4953000Y-33804374D01*
X4953000Y-32512000D01*
X4953000Y-32258000D01*
X4953000Y-30965626D01*
X4746671Y-30842284D01*
X4647388Y-30859933D01*
X4192372Y-31122545D01*
X3872489Y-31539294D01*
X3736439Y-32046734D01*
X3897923Y-32258000D01*
X4953000Y-32258000D01*
X4953000Y-32512000D01*
X3897923Y-32512000D01*
X3736439Y-32723266D01*
X3872489Y-33230706D01*
X4192372Y-33647455D01*
X4647388Y-33910067D01*
X4746671Y-33927716D01*
X4953000Y-33804374D01*
X4953000Y-42588580D01*
X3621000Y-43920580D01*
X3621000Y-33410785D01*
X3621000Y-33259214D01*
X3621000Y-31359214D01*
X3562996Y-31219180D01*
X3455819Y-31112004D01*
X3315785Y-31054000D01*
X3164214Y-31054000D01*
X1764214Y-31054000D01*
X1624180Y-31112004D01*
X1517004Y-31219181D01*
X1459000Y-31359215D01*
X1459000Y-31510786D01*
X1459000Y-33410786D01*
X1517004Y-33550820D01*
X1624181Y-33657996D01*
X1764215Y-33716000D01*
X1915786Y-33716000D01*
X3315786Y-33716000D01*
X3455820Y-33657996D01*
X3562996Y-33550819D01*
X3621000Y-33410785D01*
X3621000Y-43920580D01*
X2180790Y-45360790D01*
X2070669Y-45525597D01*
X2032000Y-45720000D01*
X2032000Y-46413232D01*
X1775618Y-46584542D01*
X1541286Y-46935243D01*
X1459000Y-47348924D01*
X1459000Y-47901076D01*
X1541286Y-48314757D01*
X1775618Y-48665458D01*
X2126319Y-48899790D01*
X2540000Y-48982076D01*
X2953681Y-48899790D01*
X3304382Y-48665458D01*
X3538714Y-48314757D01*
X3621000Y-47901076D01*
X3621000Y-47348924D01*
X3538714Y-46935243D01*
X3304382Y-46584542D01*
X3048000Y-46413232D01*
X3048000Y-45930420D01*
X7119220Y-41859200D01*
X15850697Y-41859200D01*
X16041781Y-42050617D01*
X16345077Y-42176557D01*
X16673482Y-42176843D01*
X16976998Y-42051433D01*
X17209417Y-41819419D01*
X17335357Y-41516123D01*
X17335643Y-41187718D01*
X17335643Y-46370706D01*
X17015618Y-46584542D01*
X16781286Y-46935243D01*
X16699000Y-47348924D01*
X16699000Y-47901076D01*
X16781286Y-48314757D01*
X16999275Y-48641000D01*
X16020724Y-48641000D01*
X16238714Y-48314757D01*
X16321000Y-47901076D01*
X16321000Y-47348924D01*
X16238714Y-46935243D01*
X16147359Y-46798521D01*
X16147359Y-45110400D01*
X16080268Y-44773110D01*
X15889209Y-44487170D01*
X15603269Y-44296111D01*
X15265979Y-44229020D01*
X14721261Y-44229020D01*
X14383971Y-44296111D01*
X14098031Y-44487170D01*
X13944600Y-44716795D01*
X13791169Y-44487170D01*
X13505229Y-44296111D01*
X13167939Y-44229020D01*
X12623221Y-44229020D01*
X12285931Y-44296111D01*
X11999991Y-44487170D01*
X11808932Y-44773110D01*
X11741841Y-45110400D01*
X11808932Y-45447690D01*
X11999991Y-45733630D01*
X12285931Y-45924689D01*
X12623221Y-45991780D01*
X13167939Y-45991780D01*
X13505229Y-45924689D01*
X13791169Y-45733630D01*
X13944600Y-45504004D01*
X14098031Y-45733630D01*
X14383971Y-45924689D01*
X14721261Y-45991780D01*
X15265979Y-45991780D01*
X15603269Y-45924689D01*
X15889209Y-45733630D01*
X16080268Y-45447690D01*
X16147359Y-45110400D01*
X16147359Y-46798521D01*
X16004382Y-46584542D01*
X15653681Y-46350210D01*
X15240000Y-46267924D01*
X14826319Y-46350210D01*
X14475618Y-46584542D01*
X14241286Y-46935243D01*
X14159000Y-47348924D01*
X14159000Y-47901076D01*
X14241286Y-48314757D01*
X14459275Y-48641000D01*
X13480724Y-48641000D01*
X13698714Y-48314757D01*
X13781000Y-47901076D01*
X13781000Y-47348924D01*
X13698714Y-46935243D01*
X13464382Y-46584542D01*
X13113681Y-46350210D01*
X12700000Y-46267924D01*
X12286319Y-46350210D01*
X11935618Y-46584542D01*
X11701286Y-46935243D01*
X11619000Y-47348924D01*
X11619000Y-47901076D01*
X11701286Y-48314757D01*
X11919275Y-48641000D01*
X10940724Y-48641000D01*
X11158714Y-48314757D01*
X11241000Y-47901076D01*
X11241000Y-47348924D01*
X11158714Y-46935243D01*
X10924382Y-46584542D01*
X10573681Y-46350210D01*
X10160000Y-46267924D01*
X9746319Y-46350210D01*
X9395618Y-46584542D01*
X9161286Y-46935243D01*
X9079000Y-47348924D01*
X9079000Y-47901076D01*
X9161286Y-48314757D01*
X9379275Y-48641000D01*
X8400724Y-48641000D01*
X8618714Y-48314757D01*
X8701000Y-47901076D01*
X8701000Y-47348924D01*
X8618714Y-46935243D01*
X8384382Y-46584542D01*
X8033681Y-46350210D01*
X7620000Y-46267924D01*
X7206319Y-46350210D01*
X6855618Y-46584542D01*
X6621286Y-46935243D01*
X6539000Y-47348924D01*
X6539000Y-47901076D01*
X6621286Y-48314757D01*
X6855618Y-48665458D01*
X6985000Y-48751908D01*
X6985000Y-48895000D01*
X7033336Y-49138004D01*
X7170987Y-49344013D01*
X7395974Y-49569000D01*
X6423561Y-49569000D01*
X6423561Y-47963266D01*
X6423561Y-47286734D01*
X6287511Y-46779294D01*
X5967628Y-46362545D01*
X5512612Y-46099933D01*
X5413329Y-46082284D01*
X5207000Y-46205626D01*
X5207000Y-47498000D01*
X6262077Y-47498000D01*
X6423561Y-47286734D01*
X6423561Y-47963266D01*
X6262077Y-47752000D01*
X5207000Y-47752000D01*
X5207000Y-49044374D01*
X5413329Y-49167716D01*
X5512612Y-49150067D01*
X5967628Y-48887455D01*
X6287511Y-48470706D01*
X6423561Y-47963266D01*
X6423561Y-49569000D01*
X4953000Y-49569000D01*
X4953000Y-49044374D01*
X4953000Y-47752000D01*
X4953000Y-47498000D01*
X4953000Y-46205626D01*
X4746671Y-46082284D01*
X4647388Y-46099933D01*
X4192372Y-46362545D01*
X3872489Y-46779294D01*
X3736439Y-47286734D01*
X3897923Y-47498000D01*
X4953000Y-47498000D01*
X4953000Y-47752000D01*
X3897923Y-47752000D01*
X3736439Y-47963266D01*
X3872489Y-48470706D01*
X4192372Y-48887455D01*
X4647388Y-49150067D01*
X4746671Y-49167716D01*
X4953000Y-49044374D01*
X4953000Y-49569000D01*
X1058451Y-49569000D01*
X795361Y-49516668D01*
X608313Y-49391686D01*
X483332Y-49204639D01*
X431000Y-48941547D01*
X431000Y-1058452D01*
X483332Y-795360D01*
X608313Y-608313D01*
X795361Y-483331D01*
X1058451Y-431000D01*
X148941547Y-431000D01*
X149204639Y-483332D01*
X149391686Y-608313D01*
X149516668Y-795361D01*
X149569000Y-1058451D01*
X149569000Y-48941548D01*
M02*
