%FSLAX46Y46*%
G04 Gerber Fmt 4.6, Leading zero omitted, Abs format (unit mm)*
G04 Created by KiCad (PCBNEW (2014-10-27 BZR 5228)-product) date 7/22/2015 5:59:53 PM*
%MOMM*%
G01*
G04 APERTURE LIST*
%ADD10C,0.100000*%
%ADD11C,0.254000*%
%ADD12C,0.066040*%
%ADD13C,0.152400*%
%ADD14C,0.150000*%
%ADD15R,1.400000X1.900000*%
%ADD16O,1.400000X1.900000*%
%ADD17R,3.599180X2.598420*%
%ADD18R,1.300000X1.300000*%
%ADD19C,1.300000*%
%ADD20C,4.800600*%
%ADD21C,2.286000*%
%ADD22R,1.905000X1.905000*%
%ADD23C,1.905000*%
%ADD24C,1.998980*%
%ADD25O,1.501140X1.000760*%
%ADD26R,2.032000X1.727200*%
%ADD27O,2.032000X1.727200*%
%ADD28C,2.000000*%
G04 APERTURE END LIST*
D10*
D11*
X66384714Y-35542462D02*
X66185142Y-35621081D01*
X65852523Y-35621081D01*
X65719476Y-35542462D01*
X65652952Y-35463843D01*
X65586428Y-35306605D01*
X65586428Y-35149367D01*
X65652952Y-34992129D01*
X65719476Y-34913510D01*
X65852523Y-34834890D01*
X66118619Y-34756271D01*
X66251666Y-34677652D01*
X66318190Y-34599033D01*
X66384714Y-34441795D01*
X66384714Y-34284557D01*
X66318190Y-34127319D01*
X66251666Y-34048700D01*
X66118619Y-33970081D01*
X65785999Y-33970081D01*
X65586428Y-34048700D01*
X65120762Y-33970081D02*
X64788143Y-35621081D01*
X64522047Y-34441795D01*
X64255952Y-35621081D01*
X63923333Y-33970081D01*
X63391143Y-35621081D02*
X63391143Y-33970081D01*
X63058524Y-33970081D01*
X62858952Y-34048700D01*
X62725905Y-34205938D01*
X62659381Y-34363176D01*
X62592857Y-34677652D01*
X62592857Y-34913510D01*
X62659381Y-35227986D01*
X62725905Y-35385224D01*
X62858952Y-35542462D01*
X63058524Y-35621081D01*
X63391143Y-35621081D01*
X61994143Y-35621081D02*
X61994143Y-33970081D01*
X61062810Y-33970081D02*
X60796714Y-33970081D01*
X60663667Y-34048700D01*
X60530619Y-34205938D01*
X60464095Y-34520414D01*
X60464095Y-35070748D01*
X60530619Y-35385224D01*
X60663667Y-35542462D01*
X60796714Y-35621081D01*
X61062810Y-35621081D01*
X61195857Y-35542462D01*
X61328905Y-35385224D01*
X61395429Y-35070748D01*
X61395429Y-34520414D01*
X61328905Y-34205938D01*
X61195857Y-34048700D01*
X61062810Y-33970081D01*
X63391143Y-36614100D02*
X63524191Y-36535481D01*
X63723762Y-36535481D01*
X63923334Y-36614100D01*
X64056381Y-36771338D01*
X64122905Y-36928576D01*
X64189429Y-37243052D01*
X64189429Y-37478910D01*
X64122905Y-37793386D01*
X64056381Y-37950624D01*
X63923334Y-38107862D01*
X63723762Y-38186481D01*
X63590714Y-38186481D01*
X63391143Y-38107862D01*
X63324619Y-38029243D01*
X63324619Y-37478910D01*
X63590714Y-37478910D01*
X62725905Y-38186481D02*
X62725905Y-36535481D01*
X61927619Y-38186481D01*
X61927619Y-36535481D01*
X61262381Y-38186481D02*
X61262381Y-36535481D01*
X60929762Y-36535481D01*
X60730190Y-36614100D01*
X60597143Y-36771338D01*
X60530619Y-36928576D01*
X60464095Y-37243052D01*
X60464095Y-37478910D01*
X60530619Y-37793386D01*
X60597143Y-37950624D01*
X60730190Y-38107862D01*
X60929762Y-38186481D01*
X61262381Y-38186481D01*
X66783857Y-40673262D02*
X66584285Y-40751881D01*
X66251666Y-40751881D01*
X66118619Y-40673262D01*
X66052095Y-40594643D01*
X65985571Y-40437405D01*
X65985571Y-40280167D01*
X66052095Y-40122929D01*
X66118619Y-40044310D01*
X66251666Y-39965690D01*
X66517762Y-39887071D01*
X66650809Y-39808452D01*
X66717333Y-39729833D01*
X66783857Y-39572595D01*
X66783857Y-39415357D01*
X66717333Y-39258119D01*
X66650809Y-39179500D01*
X66517762Y-39100881D01*
X66185142Y-39100881D01*
X65985571Y-39179500D01*
X65519905Y-39100881D02*
X65187286Y-40751881D01*
X64921190Y-39572595D01*
X64655095Y-40751881D01*
X64322476Y-39100881D01*
X62992000Y-40594643D02*
X63058524Y-40673262D01*
X63258095Y-40751881D01*
X63391143Y-40751881D01*
X63590715Y-40673262D01*
X63723762Y-40516024D01*
X63790286Y-40358786D01*
X63856810Y-40044310D01*
X63856810Y-39808452D01*
X63790286Y-39493976D01*
X63723762Y-39336738D01*
X63590715Y-39179500D01*
X63391143Y-39100881D01*
X63258095Y-39100881D01*
X63058524Y-39179500D01*
X62992000Y-39258119D01*
X61728048Y-40751881D02*
X62393286Y-40751881D01*
X62393286Y-39100881D01*
X61262381Y-40751881D02*
X61262381Y-39100881D01*
X60464095Y-40751881D02*
X61062810Y-39808452D01*
X60464095Y-39100881D02*
X61262381Y-40044310D01*
X63723762Y-41666281D02*
X62858952Y-41666281D01*
X63324619Y-42295233D01*
X63125047Y-42295233D01*
X62992000Y-42373852D01*
X62925476Y-42452471D01*
X62858952Y-42609710D01*
X62858952Y-43002805D01*
X62925476Y-43160043D01*
X62992000Y-43238662D01*
X63125047Y-43317281D01*
X63524190Y-43317281D01*
X63657238Y-43238662D01*
X63723762Y-43160043D01*
X62393286Y-42216614D02*
X62060667Y-43317281D01*
X61728047Y-42216614D01*
X61328905Y-41666281D02*
X60464095Y-41666281D01*
X60929762Y-42295233D01*
X60730190Y-42295233D01*
X60597143Y-42373852D01*
X60530619Y-42452471D01*
X60464095Y-42609710D01*
X60464095Y-43002805D01*
X60530619Y-43160043D01*
X60597143Y-43238662D01*
X60730190Y-43317281D01*
X61129333Y-43317281D01*
X61262381Y-43238662D01*
X61328905Y-43160043D01*
X62858952Y-45882681D02*
X63324619Y-45096490D01*
X63657238Y-45882681D02*
X63657238Y-44231681D01*
X63125047Y-44231681D01*
X62992000Y-44310300D01*
X62925476Y-44388919D01*
X62858952Y-44546157D01*
X62858952Y-44782014D01*
X62925476Y-44939252D01*
X62992000Y-45017871D01*
X63125047Y-45096490D01*
X63657238Y-45096490D01*
X62326762Y-45804062D02*
X62127190Y-45882681D01*
X61794571Y-45882681D01*
X61661524Y-45804062D01*
X61595000Y-45725443D01*
X61528476Y-45568205D01*
X61528476Y-45410967D01*
X61595000Y-45253729D01*
X61661524Y-45175110D01*
X61794571Y-45096490D01*
X62060667Y-45017871D01*
X62193714Y-44939252D01*
X62260238Y-44860633D01*
X62326762Y-44703395D01*
X62326762Y-44546157D01*
X62260238Y-44388919D01*
X62193714Y-44310300D01*
X62060667Y-44231681D01*
X61728047Y-44231681D01*
X61528476Y-44310300D01*
X61129333Y-44231681D02*
X60331048Y-44231681D01*
X60730191Y-45882681D02*
X60730191Y-44231681D01*
D12*
X78554580Y-27393900D02*
X78554580Y-38392100D01*
X78554580Y-38392100D02*
X71559420Y-38392100D01*
X71559420Y-27393900D02*
X71559420Y-38392100D01*
X78554580Y-27393900D02*
X71559420Y-27393900D01*
D13*
X67058540Y-21894800D02*
X67058540Y-26893520D01*
X67058540Y-26893520D02*
X67058540Y-38892480D01*
X67058540Y-38892480D02*
X67058540Y-42392600D01*
X67058540Y-42392600D02*
X68458080Y-43891200D01*
X68458080Y-43891200D02*
X71549260Y-43891200D01*
X71549260Y-43891200D02*
X78564740Y-43891200D01*
X78564740Y-43891200D02*
X83055460Y-43891200D01*
X83055460Y-43891200D02*
X83055460Y-38892480D01*
X83055460Y-38892480D02*
X83055460Y-26893520D01*
X83055460Y-26893520D02*
X83055460Y-21894800D01*
X83055460Y-21894800D02*
X78564740Y-21894800D01*
X78564740Y-21894800D02*
X71549260Y-21894800D01*
X71549260Y-21894800D02*
X67058540Y-21894800D01*
X71549260Y-43891200D02*
X71549260Y-47091600D01*
X71549260Y-47091600D02*
X73258680Y-47091600D01*
X76855320Y-47091600D02*
X78564740Y-47091600D01*
X78564740Y-47091600D02*
X78564740Y-43891200D01*
X71549260Y-21894800D02*
X71549260Y-18694400D01*
X71549260Y-18694400D02*
X73258680Y-18694400D01*
X76855320Y-18694400D02*
X78564740Y-18694400D01*
X78564740Y-18694400D02*
X78564740Y-21894800D01*
X73258680Y-18694400D02*
X76855320Y-18694400D01*
X73258680Y-47091600D02*
X76855320Y-47091600D01*
X83055602Y-38892291D02*
G75*
G02X67058540Y-38892480I-7998602J6027231D01*
G01*
X67058398Y-26893709D02*
G75*
G02X83055460Y-26893520I7998602J-6027231D01*
G01*
D14*
X116903827Y-42601498D02*
X116243916Y-42220498D01*
X116243916Y-42220498D02*
X120561916Y-34741502D01*
X120561916Y-34741502D02*
X121221827Y-35122502D01*
X119543473Y-44125498D02*
X123861473Y-36646502D01*
X127902350Y-48951498D02*
X132220350Y-41472502D01*
X121221827Y-35122502D02*
X132220350Y-41472502D01*
X116903827Y-42601498D02*
X127902350Y-48951498D01*
X134038488Y-42181909D02*
X139118488Y-33383091D01*
X132278724Y-41165909D02*
X143057276Y-47388909D01*
X143057276Y-47388909D02*
X148137276Y-38590091D01*
X148137276Y-38590091D02*
X137358724Y-32367091D01*
X137358724Y-32367091D02*
X132278724Y-41165909D01*
X57124000Y-45085000D02*
X57124000Y-46635000D01*
X57124000Y-46635000D02*
X60224000Y-46635000D01*
X60224000Y-46635000D02*
X60224000Y-45085000D01*
X59944000Y-43815000D02*
X59944000Y-33655000D01*
X59944000Y-33655000D02*
X57404000Y-33655000D01*
X57404000Y-33655000D02*
X57404000Y-43815000D01*
X59944000Y-43815000D02*
X57404000Y-43815000D01*
X53594000Y-41275000D02*
X53594000Y-33655000D01*
X56134000Y-41275000D02*
X56134000Y-33655000D01*
X56414000Y-44095000D02*
X56414000Y-42545000D01*
X53594000Y-33655000D02*
X56134000Y-33655000D01*
X56134000Y-41275000D02*
X53594000Y-41275000D01*
X53314000Y-42545000D02*
X53314000Y-44095000D01*
X53314000Y-44095000D02*
X56414000Y-44095000D01*
X91932760Y-42164000D02*
G75*
G03X91932760Y-42164000I-1000760J0D01*
G01*
X97132140Y-42164000D02*
G75*
G03X97132140Y-42164000I-6200140J0D01*
G01*
X9080405Y-39457381D02*
X9080405Y-40266905D01*
X9032786Y-40362143D01*
X8985167Y-40409762D01*
X8889929Y-40457381D01*
X8699452Y-40457381D01*
X8604214Y-40409762D01*
X8556595Y-40362143D01*
X8508976Y-40266905D01*
X8508976Y-39457381D01*
X7508976Y-40457381D02*
X8080405Y-40457381D01*
X7794691Y-40457381D02*
X7794691Y-39457381D01*
X7889929Y-39600238D01*
X7985167Y-39695476D01*
X8080405Y-39743095D01*
X99337762Y-40902095D02*
X99385381Y-41044952D01*
X99385381Y-41283048D01*
X99337762Y-41378286D01*
X99290143Y-41425905D01*
X99194905Y-41473524D01*
X99099667Y-41473524D01*
X99004429Y-41425905D01*
X98956810Y-41378286D01*
X98909190Y-41283048D01*
X98861571Y-41092571D01*
X98813952Y-40997333D01*
X98766333Y-40949714D01*
X98671095Y-40902095D01*
X98575857Y-40902095D01*
X98480619Y-40949714D01*
X98433000Y-40997333D01*
X98385381Y-41092571D01*
X98385381Y-41330667D01*
X98433000Y-41473524D01*
X99385381Y-41902095D02*
X98385381Y-41902095D01*
X98385381Y-42283048D01*
X98433000Y-42378286D01*
X98480619Y-42425905D01*
X98575857Y-42473524D01*
X98718714Y-42473524D01*
X98813952Y-42425905D01*
X98861571Y-42378286D01*
X98909190Y-42283048D01*
X98909190Y-41902095D01*
X99385381Y-43425905D02*
X99385381Y-42854476D01*
X99385381Y-43140190D02*
X98385381Y-43140190D01*
X98528238Y-43044952D01*
X98623476Y-42949714D01*
X98671095Y-42854476D01*
X93543429Y-45593048D02*
X93543429Y-46354953D01*
X93924381Y-45974001D02*
X93162476Y-45974001D01*
%LPC*%
D15*
X2540000Y-32385000D03*
D16*
X5080000Y-32385000D03*
X7620000Y-32385000D03*
X10160000Y-32385000D03*
X12700000Y-32385000D03*
X15240000Y-32385000D03*
X17780000Y-32385000D03*
X20320000Y-32385000D03*
X22860000Y-32385000D03*
X25400000Y-32385000D03*
X27940000Y-32385000D03*
X30480000Y-32385000D03*
X33020000Y-32385000D03*
X35560000Y-32385000D03*
X38100000Y-32385000D03*
X40640000Y-32385000D03*
X43180000Y-32385000D03*
X45720000Y-32385000D03*
X48260000Y-32385000D03*
X50800000Y-32385000D03*
X50800000Y-47625000D03*
X48260000Y-47625000D03*
X45720000Y-47625000D03*
X43180000Y-47625000D03*
X40640000Y-47625000D03*
X38100000Y-47625000D03*
X35560000Y-47625000D03*
X33020000Y-47625000D03*
X30480000Y-47625000D03*
X27940000Y-47625000D03*
X25400000Y-47625000D03*
X22860000Y-47625000D03*
X20320000Y-47625000D03*
X17780000Y-47625000D03*
X15240000Y-47625000D03*
X12700000Y-47625000D03*
X10160000Y-47625000D03*
X7620000Y-47625000D03*
X5080000Y-47625000D03*
X2540000Y-47625000D03*
D17*
X75057000Y-47541180D03*
X75057000Y-18244820D03*
D18*
X116840000Y-37338000D03*
D19*
X118840000Y-37338000D03*
D18*
X116840000Y-43434000D03*
D19*
X118840000Y-43434000D03*
D18*
X96266000Y-42672000D03*
D19*
X94266000Y-42672000D03*
D18*
X96266000Y-35052000D03*
D19*
X94266000Y-35052000D03*
D20*
X125222000Y-42418000D03*
D10*
G36*
X127222420Y-46344571D02*
X129622720Y-42187129D01*
X133780162Y-44587429D01*
X131379862Y-48744871D01*
X127222420Y-46344571D01*
X127222420Y-46344571D01*
G37*
D20*
X129741734Y-39161591D03*
D21*
X134808384Y-42626409D03*
X139888384Y-33827591D03*
X139977690Y-45610909D03*
X145057690Y-36812091D03*
X143882776Y-45959101D03*
X147311776Y-40019899D03*
X142517690Y-41211500D03*
X139548089Y-39497000D03*
D22*
X102108000Y-42164000D03*
D23*
X102108000Y-47244000D03*
D24*
X117856000Y-33147000D03*
X107696000Y-33147000D03*
D25*
X12895580Y-45110400D03*
X14993620Y-45110400D03*
D26*
X58674000Y-45085000D03*
D27*
X58674000Y-42545000D03*
X58674000Y-40005000D03*
X58674000Y-37465000D03*
X58674000Y-34925000D03*
D26*
X54864000Y-42545000D03*
D27*
X54864000Y-40005000D03*
X54864000Y-37465000D03*
X54864000Y-34925000D03*
D28*
X90932000Y-45963840D03*
X90932000Y-38364160D03*
M02*
